<svg xmlns="http://www.w3.org/2000/svg" viewBox="0 0 2027.04 1783.15"><defs><style>.cls-1{fill:#fff;}</style></defs><title>Asset 1@3x2</title><g id="Layer_2" data-name="Layer 2"><g id="Layer_1-2" data-name="Layer 1"><path class="cls-1" d="M1133.91,574.72a154.61,154.61,0,0,1-.82,28.38l-1.28,11.54c-.34,4-.71,8.1-1.16,12.11L1065,1229.13c-2.7,24.62-25.75,43-51.47,43s-48.8-18.35-51.5-43L896.35,626.75c-.39-3.71-.79-7.44-1.08-11.17L893.91,603a156.69,156.69,0,0,1-.78-28.32c5.12-69.9,56.16-126.83,120.39-126.83,35.06,0,66.47,17.22,88.52,44.48C1120.07,514.61,1131.62,543.41,1133.91,574.72Z"/><circle class="cls-1" cx="1014.09" cy="1428.98" r="99.4" transform="translate(-713.42 1135.61) rotate(-45)"/><path class="cls-1" d="M1922.49,1783.15H104.55a104.38,104.38,0,0,1-90.4-156.57l909-1574.39A103.33,103.33,0,0,1,1013.52,0h0a103.32,103.32,0,0,1,90.4,52.19l909,1574.39a104.38,104.38,0,0,1-90.4,156.57ZM991.76,91.82l-909,1574.39a25.12,25.12,0,0,0,21.76,37.68H1922.49a25.12,25.12,0,0,0,21.76-37.68l-909-1574.39a25.13,25.13,0,0,0-43.52,0Z"/></g></g></svg>