<svg xmlns="http://www.w3.org/2000/svg" viewBox="0 0 512 512"><defs><style>.cls-1{fill:#fff;}</style></defs><title>Asset 1@3x2</title><g id="Layer_2" data-name="Layer 2"><g id="Outline"><path class="cls-1" d="M256,0C114.62,0,0,114.62,0,256S114.62,512,256,512,512,397.38,512,256,397.32.15,256,0Zm0,469.33C138.18,469.33,42.67,373.82,42.67,256S138.18,42.67,256,42.67,469.33,138.18,469.33,256,373.77,469.2,256,469.33Z"/><path class="cls-1" d="M256,106.67A21.33,21.33,0,0,0,234.67,128V298.67a21.33,21.33,0,1,0,42.66,0V128A21.33,21.33,0,0,0,256,106.67Z"/><path class="cls-1" d="M256,362.67h0A21.33,21.33,0,0,1,277.33,384h0A21.33,21.33,0,0,1,256,405.33h0A21.33,21.33,0,0,1,234.67,384h0A21.33,21.33,0,0,1,256,362.67Z"/></g></g></svg>