<svg xmlns="http://www.w3.org/2000/svg" viewBox="0 0 17.7 24.28"><defs><style>.cls-1{fill:#1c6b9f;}</style></defs><title>Asset 1@3x2</title><g id="Layer_2" data-name="Layer 2"><g id="Layer_1-2" data-name="Layer 1"><path class="cls-1" d="M8.84,0C9.41.71,10,1.35,10.48,2,11.93,4,13.4,5.86,14.77,7.83a18.14,18.14,0,0,1,2.59,5.39,8.5,8.5,0,0,1-4.8,10.28A9.22,9.22,0,0,1,4.05,23a8,8,0,0,1-4-6.56,11.08,11.08,0,0,1,1.41-6A47.11,47.11,0,0,1,7.24,2Zm-3,7.68-.12-.09c-.06.1-.13.19-.19.28A23.18,23.18,0,0,0,3.29,12a10.84,10.84,0,0,0-.8,5.65,4.54,4.54,0,0,0,1.7,2.87c.93.67,2.48,1.11,3.07-.22a2.36,2.36,0,0,0-.15-2,21.29,21.29,0,0,0-1.6-2.08,6.54,6.54,0,0,1-1-2.31A8,8,0,0,1,5.2,8.85C5.39,8.45,5.62,8.07,5.83,7.68Z"/></g></g></svg>