<svg xmlns="http://www.w3.org/2000/svg" viewBox="0 0 696.01 800"><defs><style>.cls-1{fill:#fff;}</style></defs><title>Asset 1@3x2</title><g id="Layer_2" data-name="Layer 2"><g id="Capa_1" data-name="Capa 1"><path class="cls-1" d="M386.26,797.76C546.74,779.78,675.35,651.5,693.65,491c24-209.84-139.07-388.46-343.51-390.74V6.15c0-5.23-6.53-8-10.95-4.74L145.38,143.75a6,6,0,0,0,0,9.64L339.19,295.73c4.42,3.27,10.95.32,10.95-4.74V197C493.79,199.31,608.84,321.55,599,467.65,590.7,593.32,488.23,695.29,362.56,703.3c-133.19,8.5-246.44-86.61-266.7-212.45a48.28,48.28,0,0,0-47.72-40.36c-29.25,0-52.13,26-47.56,54.91C29,684.67,194.57,819.17,386.26,797.76Z"/></g></g></svg>