<svg id="Layer_1" data-name="Layer 1" xmlns="http://www.w3.org/2000/svg" xmlns:xlink="http://www.w3.org/1999/xlink" viewBox="0 0 939.36 708.9"><defs><style>.cls-1{fill:none;}.cls-2{clip-path:url(#clip-path);}.cls-3{opacity:0.1;}.cls-4{fill:#80cc3e;}</style><clipPath id="clip-path"><rect class="cls-1" width="939.36" height="708.9"/></clipPath></defs><title>Artboard 41@4x41</title><g class="cls-2"><g class="cls-3"><path class="cls-4" d="M497.1,436.16c-4.14,20.47,12.22,28.55,26.75,33.69,9.9,3.5,17-9,8-12.52-15.19-5.9-23.4-9.85-20.77-21.79,2.71-12.33,15.82-20.9,29.61-18.11,11.33,2.29,14.52,5.68,19.78,8.73l9.65-11.84c-5.79-5-16.49-9-27.31-10.39C521.2,401.19,501.51,414.33,497.1,436.16ZM577.63,331c-4.14,20.48,12.22,28.56,26.74,33.7,9.9,3.5,17-9,8-12.52-15.19-5.9-23.4-9.86-20.77-21.8,2.71-12.32,15.82-20.9,29.61-18.11,11.33,2.29,14.52,5.69,19.77,8.74l9.65-11.84c-5.79-5-16.48-9-27.31-10.39C601.72,296,582,309.15,577.63,331ZM527.3,312.24c11.33,2.29,14.52,5.69,19.78,8.74l9.65-11.84c-5.79-5-16.49-9-27.31-10.39-21.65-2.74-41.34,10.4-45.74,32.22-4.14,20.48,12.21,28.56,26.74,33.7,9.9,3.5,17-9,8-12.52-15.19-5.9-23.4-9.86-20.77-21.8C500.41,318,513.51,309.45,527.3,312.24Zm26.86,210.37c11.33,2.29,14.52,5.68,19.77,8.73l9.65-11.84c-5.79-5-16.48-9-27.31-10.38-21.65-2.75-41.33,10.39-45.74,32.22-4.14,20.47,12.22,28.56,26.74,33.69,9.9,3.5,17-9,8.05-12.52-15.19-5.9-23.4-9.85-20.77-21.79C527.26,528.4,540.37,519.82,554.16,522.61Zm89.26-164.87c4.14-20.47-12.22-28.55-26.74-33.69-9.9-3.49-17,9.05-8,12.52,15.19,5.91,23.39,9.85,20.76,21.79-2.71,12.32-15.82,20.9-29.6,18.12-11.34-2.29-14.52-5.69-19.79-8.74l-9.64,11.84c5.79,5.05,16.49,9,27.31,10.39C619.33,392.71,639,379.57,643.42,357.74ZM446.78,417.43c11.33,2.29,14.52,5.68,19.77,8.73l9.65-11.84c-5.79-5-16.49-9-27.31-10.39-21.65-2.74-41.33,10.4-45.74,32.23-4.14,20.47,12.22,28.55,26.74,33.69,9.9,3.5,17-9,8.05-12.52-15.19-5.9-23.4-9.85-20.77-21.79C419.88,423.21,433,414.64,446.78,417.43Zm116.12,45.5c4.13-20.48-12.22-28.56-26.75-33.7-9.9-3.49-17,9-8,12.52,15.19,5.91,23.39,9.86,20.77,21.8-2.71,12.32-15.82,20.89-29.61,18.11-11.34-2.29-14.52-5.69-19.78-8.74l-9.65,11.84c5.79,5.05,16.49,9,27.32,10.39C538.8,497.89,558.48,484.76,562.9,462.93ZM416.58,541.34c-4.14,20.47,12.21,28.56,26.74,33.69,9.9,3.5,17-9,8-12.52-15.19-5.9-23.39-9.85-20.77-21.79,2.72-12.32,15.83-20.9,29.61-18.11,11.33,2.29,14.52,5.68,19.78,8.73l9.65-11.84c-5.79-5-16.49-9-27.31-10.38C440.67,506.37,421,519.51,416.58,541.34ZM503.73,390c21.64,2.74,41.33-10.4,45.74-32.23,4.14-20.47-12.22-28.55-26.75-33.69-9.89-3.49-17,9.05-8,12.52,15.19,5.91,23.4,9.85,20.77,21.79-2.71,12.32-15.82,20.9-29.6,18.12-11.34-2.29-14.53-5.69-19.79-8.74l-9.64,11.84C482.21,384.63,492.9,388.59,503.73,390ZM482.37,568.11c4.14-20.48-12.22-28.56-26.75-33.7-9.89-3.49-17,9.05-8,12.53,15.19,5.9,23.4,9.85,20.77,21.79-2.71,12.32-15.82,20.9-29.6,18.11-11.34-2.29-14.53-5.69-19.79-8.74l-9.64,11.84c5.79,5,16.48,9,27.31,10.39C458.28,603.08,478,589.94,482.37,568.11ZM765.54,331c-4.14,20.48,12.21,28.56,26.74,33.7,9.9,3.5,17-9,8-12.52-15.19-5.9-23.39-9.86-20.77-21.8,2.72-12.32,15.83-20.9,29.61-18.11,11.34,2.29,14.52,5.69,19.78,8.74l9.65-11.84c-5.79-5-16.49-9-27.31-10.39C789.63,296,770,309.15,765.54,331Zm65.79,26.77c4.14-20.47-12.22-28.55-26.75-33.69-9.89-3.49-17,9.05-8,12.52,15.19,5.91,23.4,9.85,20.77,21.79-2.71,12.32-15.82,20.9-29.6,18.12-11.34-2.29-14.53-5.69-19.79-8.74l-9.64,11.84c5.79,5.05,16.49,9,27.31,10.39C807.24,392.71,826.92,379.57,831.33,357.74ZM742.06,522.61c11.34,2.29,14.52,5.68,19.78,8.73l9.65-11.84c-5.79-5-16.49-9-27.31-10.38-21.65-2.75-41.33,10.39-45.74,32.22-4.14,20.47,12.22,28.56,26.74,33.69,9.9,3.5,17-9,8-12.52-15.19-5.9-23.39-9.85-20.77-21.79C715.17,528.4,728.28,519.82,742.06,522.61ZM779,436.16c-4.13,20.47,12.22,28.55,26.75,33.69,9.9,3.5,17-9,8-12.52-15.19-5.9-23.4-9.85-20.77-21.79,2.72-12.33,15.82-20.9,29.61-18.11,11.33,2.29,14.52,5.68,19.78,8.73L852,414.32c-5.79-5-16.49-9-27.31-10.39C803.06,401.19,783.37,414.33,779,436.16ZM859.49,331c-4.14,20.48,12.22,28.56,26.74,33.7,9.9,3.5,17-9,8-12.52-15.19-5.9-23.4-9.86-20.77-21.8,2.71-12.32,15.82-20.9,29.61-18.11,11.33,2.29,14.52,5.69,19.77,8.74l9.66-11.84c-5.8-5-16.49-9-27.32-10.39C883.58,296,863.9,309.15,859.49,331ZM737.38,357.74c4.13-20.47-12.22-28.55-26.75-33.69-9.9-3.49-17,9.05-8,12.52,15.19,5.91,23.39,9.85,20.77,21.79-2.71,12.32-15.82,20.9-29.61,18.12-11.33-2.29-14.52-5.69-19.78-8.74l-9.65,11.84c5.79,5.05,16.49,9,27.32,10.39C713.28,392.71,733,379.57,737.38,357.74ZM685,436.16c-4.14,20.47,12.22,28.55,26.74,33.69,9.9,3.5,17-9,8-12.52-15.19-5.9-23.4-9.85-20.77-21.79,2.71-12.33,15.82-20.9,29.61-18.11,11.33,2.29,14.52,5.68,19.77,8.73l9.66-11.84c-5.8-5-16.49-9-27.32-10.39C709.1,401.19,689.42,414.33,685,436.16Zm666.42-59.68c-11.34-2.29-14.52-5.69-19.79-8.74L1322,379.58c5.79,5.05,16.49,9,27.31,10.39,21.65,2.74,41.33-10.4,45.74-32.23,4.14-20.47-12.22-28.55-26.74-33.69-9.9-3.49-17,9.05-8,12.52,15.19,5.91,23.39,9.85,20.77,21.79C1378.32,370.68,1365.21,379.26,1351.43,376.48ZM591.06,436.16c-4.14,20.47,12.21,28.55,26.74,33.69,9.9,3.5,17-9,8-12.52-15.19-5.9-23.39-9.85-20.77-21.79,2.72-12.33,15.83-20.9,29.61-18.11,11.33,2.29,14.52,5.68,19.78,8.73l9.65-11.84c-5.79-5-16.49-9-27.31-10.39C615.15,401.19,595.46,414.33,591.06,436.16Zm57.05,86.45c11.33,2.29,14.52,5.68,19.78,8.73l9.65-11.84c-5.79-5-16.49-9-27.31-10.38-21.65-2.75-41.34,10.39-45.75,32.22-4.13,20.47,12.22,28.56,26.75,33.69,9.9,3.5,17-9,8-12.52-15.19-5.9-23.4-9.85-20.77-21.79C621.21,528.4,634.32,519.82,648.11,522.61Zm622.79-40.95c-11.33-2.29-14.52-5.69-19.78-8.74l-9.64,11.84c5.78,5.05,16.48,9,27.31,10.39,21.64,2.74,41.33-10.39,45.74-32.22,4.14-20.48-12.22-28.56-26.75-33.7-9.89-3.49-17,9-8,12.52,15.19,5.91,23.39,9.86,20.77,21.8C1297.8,475.87,1284.69,484.44,1270.9,481.66Zm-80.52,105.18c-11.34-2.29-14.53-5.69-19.79-8.74L1161,589.94c5.79,5,16.49,9,27.31,10.39,21.65,2.75,41.33-10.39,45.74-32.22,4.14-20.48-12.22-28.56-26.74-33.7-9.9-3.49-17,9.05-8,12.53,15.19,5.9,23.4,9.85,20.77,21.79C1217.27,581.05,1204.16,589.63,1190.38,586.84Zm30.19-123.91c4.14-20.48-12.22-28.56-26.74-33.7-9.9-3.49-17,9-8,12.52,15.19,5.91,23.39,9.86,20.76,21.8-2.71,12.32-15.82,20.89-29.6,18.11-11.34-2.29-14.52-5.69-19.79-8.74l-9.64,11.84c5.79,5.05,16.49,9,27.31,10.39C1196.48,497.89,1216.16,484.76,1220.57,462.93ZM1214,509.12c-21.65-2.75-41.33,10.39-45.74,32.22-4.14,20.47,12.21,28.56,26.74,33.69,9.9,3.5,17-9,8-12.52-15.19-5.9-23.39-9.85-20.77-21.79,2.72-12.32,15.83-20.9,29.61-18.11,11.34,2.29,14.52,5.68,19.78,8.73l9.65-11.84C1235.47,514.46,1224.77,510.49,1214,509.12Zm-167.86,59c4.14-20.48-12.22-28.56-26.74-33.7-9.9-3.49-17,9.05-8,12.53,15.19,5.9,23.39,9.85,20.76,21.79-2.71,12.32-15.82,20.9-29.6,18.11-11.34-2.29-14.52-5.69-19.79-8.74L973,589.94c5.79,5,16.49,9,27.31,10.39C1022,603.08,1041.68,589.94,1046.09,568.11Zm80.53-105.18c4.14-20.48-12.22-28.56-26.75-33.7-9.89-3.49-17,9-8,12.52,15.19,5.91,23.4,9.86,20.77,21.8-2.71,12.32-15.82,20.89-29.6,18.11-11.34-2.29-14.53-5.69-19.79-8.74l-9.64,11.84c5.79,5.05,16.48,9,27.31,10.39C1102.53,497.89,1122.21,484.76,1126.62,462.93Zm13.43,105.18c4.13-20.48-12.22-28.56-26.75-33.7-9.89-3.49-17,9.05-8,12.53,15.19,5.9,23.39,9.85,20.77,21.79-2.71,12.32-15.82,20.9-29.61,18.11-11.34-2.29-14.52-5.69-19.78-8.74L1067,589.94c5.78,5,16.48,9,27.31,10.39C1116,603.08,1135.63,589.94,1140.05,568.11Zm241.58-315.55c4.13-20.48-12.22-28.55-26.75-33.69-9.9-3.5-17,9-8,12.52,15.19,5.9,23.39,9.85,20.77,21.79-2.71,12.32-15.82,20.9-29.61,18.12-11.33-2.3-14.52-5.69-19.78-8.74l-9.65,11.84c5.79,5,16.49,9,27.32,10.38C1357.53,287.53,1377.21,274.39,1381.63,252.56Zm-87.15,151.37c-21.65-2.74-41.34,10.4-45.75,32.23-4.13,20.47,12.22,28.55,26.75,33.69,9.9,3.5,17-9,8-12.52-15.19-5.9-23.4-9.85-20.77-21.79,2.71-12.33,15.82-20.9,29.61-18.11,11.33,2.29,14.52,5.68,19.78,8.73l9.65-11.84C1316,409.28,1305.3,405.31,1294.48,403.93Zm-369.2-46.19c4.14-20.47-12.22-28.55-26.74-33.69-9.9-3.49-17,9.05-8,12.52,15.19,5.91,23.39,9.85,20.77,21.79-2.72,12.32-15.83,20.9-29.61,18.12-11.34-2.29-14.52-5.69-19.78-8.74l-9.65,11.84c5.79,5.05,16.49,9,27.31,10.39C901.19,392.71,920.87,379.57,925.28,357.74Zm375.82,0c4.14-20.47-12.22-28.55-26.75-33.69-9.89-3.49-17,9.05-8,12.52,15.19,5.91,23.4,9.85,20.77,21.79-2.71,12.32-15.82,20.9-29.6,18.12-11.34-2.29-14.53-5.69-19.79-8.74l-9.64,11.84c5.79,5.05,16.49,9,27.31,10.39C1277,392.71,1296.69,379.57,1301.1,357.74ZM844.76,462.93c4.14-20.48-12.22-28.56-26.75-33.7-9.89-3.49-17,9-8,12.52,15.19,5.91,23.4,9.86,20.77,21.8-2.71,12.32-15.82,20.89-29.61,18.11-11.33-2.29-14.52-5.69-19.78-8.74l-9.64,11.84c5.78,5.05,16.48,9,27.31,10.39C820.66,497.89,840.35,484.76,844.76,462.93ZM764.23,568.11c4.14-20.48-12.22-28.56-26.74-33.7-9.9-3.49-17,9.05-8,12.53,15.18,5.9,23.39,9.85,20.76,21.79-2.71,12.32-15.82,20.9-29.6,18.11-11.34-2.29-14.53-5.69-19.79-8.74l-9.64,11.84c5.79,5,16.49,9,27.31,10.39C740.14,603.08,759.82,589.94,764.23,568.11Zm-94,0c4.14-20.48-12.22-28.56-26.75-33.7-9.89-3.49-17,9.05-8,12.53,15.19,5.9,23.39,9.85,20.77,21.79-2.71,12.32-15.82,20.9-29.61,18.11-11.33-2.29-14.52-5.69-19.78-8.74l-9.64,11.84c5.78,5,16.48,9,27.31,10.39C646.18,603.08,665.87,589.94,670.28,568.11ZM750.8,462.93c4.14-20.48-12.22-28.56-26.74-33.7-9.9-3.49-17,9-8,12.52,15.19,5.91,23.39,9.86,20.77,21.8-2.72,12.32-15.83,20.89-29.61,18.11-11.34-2.29-14.52-5.69-19.79-8.74l-9.64,11.84c5.79,5.05,16.49,9,27.31,10.39C726.71,497.89,746.39,484.76,750.8,462.93Zm281.87,0c4.13-20.48-12.22-28.56-26.75-33.7-9.9-3.49-17,9-8,12.52,15.19,5.91,23.39,9.86,20.77,21.8-2.71,12.32-15.82,20.89-29.61,18.11-11.34-2.29-14.52-5.69-19.78-8.74l-9.65,11.84c5.79,5.05,16.49,9,27.31,10.39C1008.57,497.89,1028.25,484.76,1032.67,462.93Zm-375.82,0c4.14-20.48-12.22-28.56-26.75-33.7-9.89-3.49-17,9-8,12.52,15.19,5.91,23.4,9.86,20.77,21.8-2.71,12.32-15.82,20.89-29.6,18.11-11.34-2.29-14.53-5.69-19.79-8.74l-9.64,11.84c5.79,5.05,16.49,9,27.31,10.39C632.76,497.89,652.44,484.76,656.85,462.93ZM952.14,568.11c4.14-20.48-12.22-28.56-26.75-33.7-9.89-3.49-17,9.05-8,12.53,15.19,5.9,23.4,9.85,20.77,21.79-2.71,12.32-15.82,20.9-29.6,18.11-11.34-2.29-14.53-5.69-19.79-8.74l-9.64,11.84c5.79,5,16.48,9,27.31,10.39C928,603.08,947.73,589.94,952.14,568.11ZM938.71,462.93c4.14-20.48-12.22-28.56-26.74-33.7-9.9-3.49-17,9-8,12.52,15.18,5.91,23.39,9.86,20.76,21.8-2.71,12.32-15.82,20.89-29.6,18.11-11.34-2.29-14.53-5.69-19.79-8.74l-9.64,11.84c5.79,5.05,16.49,9,27.31,10.39C914.62,497.89,934.3,484.76,938.71,462.93ZM576.32,568.11c4.14-20.48-12.22-28.56-26.74-33.7-9.9-3.49-17,9.05-8,12.53,15.19,5.9,23.39,9.85,20.76,21.79-2.71,12.32-15.82,20.9-29.6,18.11-11.34-2.29-14.52-5.69-19.79-8.74l-9.64,11.84c5.79,5,16.49,9,27.31,10.39C552.23,603.08,571.91,589.94,576.32,568.11Zm281.86,0c4.14-20.48-12.21-28.56-26.74-33.7-9.9-3.49-17,9.05-8,12.53,15.19,5.9,23.39,9.85,20.77,21.79-2.71,12.32-15.82,20.9-29.61,18.11-11.34-2.29-14.52-5.69-19.78-8.74l-9.65,11.84c5.79,5,16.49,9,27.32,10.39C834.09,603.08,853.77,589.94,858.18,568.11ZM671.58,331c-4.13,20.48,12.22,28.56,26.75,33.7,9.9,3.5,17-9,8-12.52-15.19-5.9-23.4-9.86-20.77-21.8,2.71-12.32,15.82-20.9,29.61-18.11,11.33,2.29,14.52,5.69,19.78,8.74l9.65-11.84c-5.79-5-16.49-9-27.31-10.39C695.68,296,676,309.15,671.58,331Zm-198,296.82c11.33,2.29,14.52,5.68,19.78,8.74l9.65-11.84c-5.79-5.05-16.49-9-27.31-10.39-21.65-2.75-41.34,10.39-45.75,32.22-4.13,20.47,12.22,28.56,26.75,33.69,9.9,3.5,17-9,8-12.52-15.19-5.9-23.4-9.85-20.77-21.79C446.73,633.58,459.84,625,473.63,627.79Zm-93.95,0c11.33,2.29,14.52,5.68,19.77,8.74l9.65-11.84c-5.79-5.05-16.48-9-27.31-10.39-21.65-2.75-41.33,10.39-45.74,32.22-4.14,20.47,12.22,28.56,26.74,33.69,9.9,3.5,17-9,8-12.52-15.19-5.9-23.4-9.85-20.77-21.79C352.78,633.58,365.89,625,379.68,627.79Zm187.9,0c11.34,2.29,14.52,5.68,19.78,8.74L597,624.69c-5.79-5.05-16.49-9-27.31-10.39-21.65-2.75-41.33,10.39-45.74,32.22-4.14,20.47,12.21,28.56,26.74,33.69,9.9,3.5,17-9,8-12.52-15.19-5.9-23.39-9.85-20.77-21.79C540.69,633.58,553.8,625,567.58,627.79Zm281.87,0c11.33,2.29,14.52,5.68,19.77,8.74l9.65-11.84c-5.79-5.05-16.49-9-27.31-10.39-21.65-2.75-41.33,10.39-45.74,32.22C801.68,667,818,675.08,832.56,680.21c9.9,3.5,17-9,8.05-12.52-15.19-5.9-23.4-9.85-20.77-21.79C822.55,633.58,835.66,625,849.45,627.79Zm-187.91,0c11.33,2.29,14.52,5.68,19.77,8.74L691,624.69c-5.8-5.05-16.49-9-27.32-10.39-21.64-2.75-41.33,10.39-45.74,32.22-4.14,20.47,12.22,28.56,26.74,33.69,9.91,3.5,17-9,8.05-12.52-15.19-5.9-23.4-9.85-20.77-21.79C634.64,633.58,647.75,625,661.54,627.79Zm281.86,0c11.33,2.29,14.52,5.68,19.78,8.74l9.65-11.84c-5.79-5.05-16.49-9-27.31-10.39-21.65-2.75-41.34,10.39-45.75,32.22C895.63,667,912,675.08,926.52,680.21c9.9,3.5,17-9,8-12.52-15.19-5.9-23.4-9.85-20.77-21.79C916.5,633.58,929.61,625,943.4,627.79ZM366.25,522.61c11.33,2.29,14.52,5.68,19.78,8.73l9.65-11.84c-5.79-5-16.49-9-27.31-10.38-21.65-2.75-41.34,10.39-45.75,32.22-4.14,20.47,12.22,28.56,26.75,33.69,9.9,3.5,17-9,8-12.52-15.19-5.9-23.4-9.85-20.77-21.79C339.35,528.4,352.46,519.82,366.25,522.61Zm102.69-59.68c4.14-20.48-12.22-28.56-26.74-33.7-9.9-3.49-17,9-8,12.52,15.18,5.91,23.39,9.86,20.76,21.8-2.71,12.32-15.82,20.89-29.6,18.11-11.34-2.29-14.53-5.69-19.79-8.74l-9.64,11.84c5.79,5.05,16.49,9,27.31,10.39C444.85,497.89,464.53,484.76,468.94,462.93ZM586.37,271.3c-11.34-2.3-14.52-5.69-19.78-8.74l-9.65,11.84c5.79,5,16.49,9,27.31,10.38,21.65,2.75,41.33-10.39,45.74-32.22,4.14-20.48-12.21-28.55-26.74-33.69-9.9-3.5-17,9-8,12.52,15.19,5.9,23.39,9.85,20.77,21.79C613.27,265.5,600.16,274.08,586.37,271.3Zm-243.69,329c21.64,2.75,41.32-10.39,45.74-32.22,4.13-20.48-12.22-28.56-26.75-33.7-9.9-3.49-17,9.05-8,12.53,15.19,5.9,23.39,9.85,20.77,21.79-2.71,12.32-15.82,20.9-29.61,18.11-11.34-2.29-14.52-5.69-19.78-8.74l-9.65,11.84C321.15,595,331.85,599,342.68,600.33Zm1080.42-446c9.9,3.5,17-9,8.05-12.52-15.19-5.9-23.4-9.85-20.77-21.79,2.71-12.32,15.82-20.9,29.61-18.11,11.33,2.29,14.52,5.68,19.77,8.73l9.65-11.84c-5.79-5-16.48-9-27.31-10.38-21.65-2.75-41.33,10.39-45.74,32.22C1392.22,141.08,1408.58,149.17,1423.1,154.3Zm133-6.92c4.13-20.48-12.22-28.56-26.75-33.69-9.9-3.5-17,9-8,12.52,15.19,5.9,23.39,9.85,20.77,21.79-2.71,12.32-15.82,20.9-29.61,18.11-11.34-2.29-14.52-5.68-19.78-8.73l-9.65,11.83c5.79,5,16.49,9,27.32,10.39C1532,182.35,1551.69,169.21,1556.11,147.38Zm-39,6.92c9.9,3.5,17-9,8-12.52-15.19-5.9-23.4-9.85-20.77-21.79,2.71-12.32,15.82-20.9,29.61-18.11,11.33,2.29,14.52,5.68,19.78,8.73l9.65-11.84c-5.79-5-16.49-9-27.31-10.38-21.65-2.75-41.34,10.39-45.75,32.22C1486.17,141.08,1502.53,149.17,1517.06,154.3Zm-85.1,117c-11.34-2.3-14.53-5.69-19.79-8.74l-9.64,11.84c5.79,5,16.48,9,27.31,10.38,21.65,2.75,41.33-10.39,45.74-32.22,4.14-20.48-12.22-28.55-26.75-33.69-9.89-3.5-17,9-8,12.52,15.19,5.9,23.4,9.85,20.77,21.79C1458.85,265.5,1445.74,274.08,1432,271.3Zm179-117c9.9,3.5,17-9,8-12.52-15.19-5.9-23.39-9.85-20.77-21.79,2.72-12.32,15.83-20.9,29.61-18.11,11.34,2.29,14.52,5.68,19.78,8.73l9.65-11.84c-5.79-5-16.49-9-27.31-10.38-21.65-2.75-41.33,10.39-45.74,32.22C1580.13,141.08,1596.48,149.17,1611,154.3ZM1037.35,627.79c11.34,2.29,14.52,5.68,19.78,8.74l9.65-11.84c-5.79-5.05-16.49-9-27.31-10.39-21.65-2.75-41.33,10.39-45.74,32.22-4.14,20.47,12.21,28.56,26.74,33.69,9.9,3.5,17-9,8-12.52-15.19-5.9-23.39-9.85-20.77-21.79C1010.46,633.58,1023.57,625,1037.35,627.79Zm94,0c11.33,2.29,14.52,5.68,19.77,8.74l9.66-11.84c-5.8-5.05-16.49-9-27.32-10.39-21.65-2.75-41.33,10.39-45.74,32.22-4.14,20.47,12.22,28.56,26.74,33.69,9.91,3.5,17-9,8-12.52-15.19-5.9-23.4-9.85-20.77-21.79C1104.41,633.58,1117.52,625,1131.31,627.79Zm330.84-480.41c4.14-20.48-12.22-28.56-26.74-33.69-9.9-3.5-17,9-8,12.52,15.19,5.9,23.39,9.85,20.76,21.79-2.71,12.32-15.82,20.9-29.6,18.11-11.34-2.29-14.53-5.68-19.79-8.73l-9.64,11.83c5.79,5,16.49,9,27.31,10.39C1438.06,182.35,1457.74,169.21,1462.15,147.38ZM680.33,271.3c-11.34-2.3-14.53-5.69-19.79-8.74L650.9,274.4c5.79,5,16.48,9,27.31,10.38,21.64,2.75,41.33-10.39,45.74-32.22,4.14-20.48-12.22-28.55-26.75-33.69-9.89-3.5-17,9-8,12.52,15.19,5.9,23.4,9.85,20.77,21.79C707.22,265.5,694.11,274.08,680.33,271.3Zm775.2-77.73c-21.65-2.75-41.33,10.39-45.74,32.22-4.14,20.48,12.21,28.56,26.74,33.69,9.9,3.5,17-9,8-12.52-15.19-5.9-23.39-9.85-20.77-21.79,2.72-12.32,15.83-20.9,29.61-18.11,11.34,2.29,14.52,5.68,19.78,8.74l9.65-11.84C1477.05,198.91,1466.35,194.94,1455.53,193.57ZM1154.78,436.16c-4.14,20.47,12.22,28.55,26.74,33.69,9.9,3.5,17-9,8-12.52-15.19-5.9-23.4-9.85-20.77-21.79,2.71-12.33,15.82-20.9,29.61-18.11,11.33,2.29,14.52,5.68,19.77,8.73l9.65-11.84c-5.79-5-16.48-9-27.31-10.39C1178.87,401.19,1159.19,414.33,1154.78,436.16Zm-41.59-78.42c4.14-20.47-12.22-28.55-26.74-33.69-9.9-3.49-17,9.05-8,12.52,15.18,5.91,23.39,9.85,20.76,21.79-2.71,12.32-15.82,20.9-29.6,18.12-11.34-2.29-14.53-5.69-19.79-8.74l-9.64,11.84c5.79,5.05,16.49,9,27.31,10.39C1089.1,392.71,1108.78,379.57,1113.19,357.74ZM1047.4,331c-4.14,20.48,12.22,28.56,26.74,33.7,9.9,3.5,17-9,8-12.52-15.18-5.9-23.39-9.86-20.76-21.8,2.71-12.32,15.82-20.9,29.61-18.11,11.33,2.29,14.52,5.69,19.77,8.74l9.65-11.84c-5.79-5-16.49-9-27.31-10.39C1071.49,296,1051.81,309.15,1047.4,331Zm-23.47,191.64c11.33,2.29,14.52,5.68,19.77,8.73l9.65-11.84c-5.79-5-16.48-9-27.31-10.38-21.65-2.75-41.33,10.39-45.74,32.22C976.16,561.81,992.52,569.9,1007,575c9.9,3.5,17-9,8.05-12.52-15.19-5.9-23.4-9.85-20.77-21.79C997,528.4,1010.14,519.82,1023.93,522.61Zm36.9-86.45c-4.14,20.47,12.21,28.55,26.74,33.69,9.9,3.5,17-9,8-12.52-15.19-5.9-23.39-9.85-20.77-21.79,2.72-12.33,15.83-20.9,29.61-18.11,11.33,2.29,14.52,5.68,19.78,8.73l9.65-11.84c-5.79-5-16.49-9-27.31-10.39C1084.92,401.19,1065.23,414.33,1060.83,436.16Zm-94,0c-4.14,20.47,12.22,28.55,26.74,33.69,9.91,3.5,17-9,8-12.52-15.19-5.9-23.4-9.85-20.77-21.79,2.71-12.33,15.82-20.9,29.61-18.11,11.33,2.29,14.52,5.68,19.78,8.73l9.65-11.84c-5.79-5-16.49-9-27.31-10.39C991,401.19,971.28,414.33,966.87,436.16Zm-94,0c-4.14,20.47,12.21,28.55,26.74,33.69,9.9,3.5,17-9,8-12.52-15.19-5.9-23.39-9.85-20.77-21.79,2.72-12.33,15.83-20.9,29.61-18.11,11.34,2.29,14.53,5.68,19.78,8.73L946,414.32c-5.79-5-16.49-9-27.31-10.39C897,401.19,877.33,414.33,872.92,436.16ZM774.28,271.3c-11.34-2.3-14.52-5.69-19.79-8.74l-9.64,11.84c5.79,5,16.49,9,27.31,10.38,21.65,2.75,41.33-10.39,45.74-32.22,4.14-20.48-12.22-28.55-26.74-33.69-9.9-3.5-17,9-8,12.52,15.19,5.9,23.39,9.85,20.76,21.79C801.17,265.5,788.06,274.08,774.28,271.3ZM1141.35,331c-4.14,20.48,12.22,28.56,26.74,33.7,9.91,3.5,17-9,8.05-12.52-15.19-5.9-23.4-9.86-20.77-21.8,2.71-12.32,15.82-20.9,29.61-18.11,11.33,2.29,14.52,5.69,19.78,8.74l9.65-11.84c-5.79-5-16.49-9-27.31-10.39C1165.45,296,1145.76,309.15,1141.35,331Zm-187.9,0c-4.14,20.48,12.21,28.56,26.74,33.7,9.9,3.5,17-9,8-12.52-15.19-5.9-23.4-9.86-20.77-21.8,2.71-12.32,15.82-20.9,29.61-18.11,11.33,2.29,14.52,5.69,19.78,8.74l9.65-11.84c-5.79-5-16.49-9-27.31-10.39C977.54,296,957.85,309.15,953.45,331Zm65.79,26.77c4.14-20.47-12.22-28.55-26.75-33.69-9.89-3.49-17,9.05-8,12.52,15.19,5.91,23.4,9.85,20.77,21.79-2.71,12.32-15.82,20.9-29.61,18.12-11.33-2.29-14.52-5.69-19.78-8.74l-9.64,11.84c5.78,5.05,16.48,9,27.31,10.39C995.14,392.71,1014.83,379.57,1019.24,357.74ZM930,522.61c11.33,2.29,14.52,5.68,19.78,8.73l9.65-11.84c-5.79-5-16.49-9-27.31-10.38-21.65-2.75-41.34,10.39-45.74,32.22-4.14,20.47,12.21,28.56,26.74,33.69,9.9,3.5,17-9,8-12.52-15.19-5.9-23.39-9.85-20.77-21.79C903.08,528.4,916.18,519.82,930,522.61Zm277.18-164.87c4.13-20.47-12.22-28.55-26.75-33.69-9.9-3.49-17,9.05-8,12.52,15.19,5.91,23.39,9.85,20.77,21.79-2.71,12.32-15.82,20.9-29.61,18.12-11.34-2.29-14.52-5.69-19.78-8.74l-9.65,11.84c5.79,5.05,16.49,9,27.32,10.39C1183.05,392.71,1202.73,379.57,1207.15,357.74Zm-151-86.44c-11.34-2.3-14.52-5.69-19.78-8.74l-9.65,11.84c5.79,5,16.49,9,27.31,10.38,21.65,2.75,41.33-10.39,45.74-32.22,4.14-20.48-12.22-28.55-26.74-33.69-9.9-3.5-17,9-8,12.52,15.19,5.9,23.39,9.85,20.77,21.79C1083,265.5,1069.92,274.08,1056.14,271.3Zm-187.91,0c-11.33-2.3-14.52-5.69-19.78-8.74L838.8,274.4c5.79,5,16.49,9,27.32,10.38,21.64,2.75,41.32-10.39,45.74-32.22,4.13-20.48-12.22-28.55-26.75-33.69-9.9-3.5-17,9-8,12.52,15.19,5.9,23.39,9.85,20.77,21.79C895.13,265.5,882,274.08,868.23,271.3Zm281.86,0c-11.33-2.3-14.52-5.69-19.78-8.74l-9.64,11.84c5.79,5,16.48,9,27.31,10.38,21.64,2.75,41.33-10.39,45.74-32.22,4.14-20.48-12.22-28.55-26.75-33.69-9.89-3.5-17,9-8,12.52,15.19,5.9,23.4,9.85,20.77,21.79C1177,265.5,1163.88,274.08,1150.09,271.3Zm-187.9,0c-11.34-2.3-14.53-5.69-19.79-8.74l-9.64,11.84c5.79,5,16.49,9,27.31,10.38,21.65,2.75,41.33-10.39,45.74-32.22,4.14-20.48-12.22-28.55-26.74-33.69-9.9-3.5-17,9-8,12.52,15.18,5.9,23.39,9.85,20.76,21.79C989.08,265.5,976,274.08,962.19,271.3ZM836,522.61c11.33,2.29,14.52,5.68,19.77,8.73l9.66-11.84c-5.79-5-16.49-9-27.32-10.38-21.64-2.75-41.33,10.39-45.74,32.22-4.14,20.47,12.22,28.56,26.74,33.69,9.91,3.5,17-9,8-12.52-15.19-5.9-23.4-9.85-20.77-21.79C809.12,528.4,822.23,519.82,836,522.61Zm281.86,0c11.33,2.29,14.52,5.68,19.78,8.73l9.65-11.84c-5.79-5-16.49-9-27.31-10.38-21.65-2.75-41.34,10.39-45.75,32.22-4.13,20.47,12.22,28.56,26.75,33.69,9.9,3.5,17-9,8-12.52-15.19-5.9-23.4-9.85-20.77-21.79C1091,528.4,1104.09,519.82,1117.88,522.61ZM1244.05,271.3c-11.34-2.3-14.53-5.69-19.79-8.74l-9.64,11.84c5.79,5,16.49,9,27.31,10.38,21.65,2.75,41.33-10.39,45.74-32.22,4.14-20.48-12.22-28.55-26.74-33.69-9.9-3.5-17,9-8,12.52,15.19,5.9,23.39,9.85,20.76,21.79C1270.94,265.5,1257.83,274.08,1244.05,271.3Zm34.88,40.94c11.33,2.29,14.52,5.69,19.78,8.74l9.65-11.84c-5.79-5-16.49-9-27.31-10.39-21.65-2.74-41.34,10.4-45.74,32.22-4.14,20.48,12.21,28.56,26.74,33.7,9.9,3.5,17-9,8-12.52-15.19-5.9-23.39-9.86-20.77-21.8C1252,318,1265.15,309.45,1278.93,312.24ZM755.49,627.79c11.33,2.29,14.52,5.68,19.78,8.74l9.65-11.84c-5.79-5.05-16.49-9-27.31-10.39-21.65-2.75-41.34,10.39-45.74,32.22-4.14,20.47,12.21,28.56,26.74,33.69,9.9,3.5,17-9,8-12.52-15.19-5.9-23.4-9.85-20.77-21.79C728.6,633.58,741.7,625,755.49,627.79Zm-85.1,117c-9.9-3.5-17,9.05-8,12.52,15.19,5.9,23.39,9.85,20.76,21.79-2.71,12.32-15.82,20.9-29.6,18.12-11.34-2.29-14.53-5.69-19.79-8.74l-9.64,11.84c5.79,5,16.49,9,27.31,10.38,21.65,2.75,41.33-10.39,45.74-32.22C701.27,758,684.91,749.92,670.39,744.78Zm107.27-71.49c4.14-20.48-12.22-28.56-26.75-33.69-9.89-3.5-17,9-8,12.52,15.19,5.9,23.4,9.85,20.77,21.79-2.71,12.32-15.82,20.9-29.6,18.11-11.34-2.29-14.53-5.68-19.79-8.73l-9.64,11.84c5.78,5,16.48,9,27.31,10.38C753.56,708.26,773.25,695.12,777.66,673.29ZM631.34,751.7c-4.14,20.48,12.22,28.56,26.74,33.7,9.9,3.5,17-9,8-12.52-15.18-5.91-23.39-9.86-20.76-21.8,2.71-12.32,15.82-20.9,29.6-18.11,11.34,2.29,14.53,5.69,19.78,8.74l9.65-11.84c-5.79-5-16.48-9-27.31-10.39C655.43,716.74,635.75,729.87,631.34,751.7Zm187.91,0c-4.14,20.48,12.21,28.56,26.74,33.7,9.9,3.5,17-9,8-12.52-15.19-5.91-23.39-9.86-20.77-21.8,2.72-12.32,15.83-20.9,29.61-18.11,11.34,2.29,14.52,5.69,19.78,8.74l9.65-11.84c-5.79-5-16.49-9-27.31-10.39C843.34,716.74,823.66,729.87,819.25,751.7ZM683.7,673.29c4.14-20.48-12.21-28.56-26.74-33.69-9.9-3.5-17,9-8,12.52,15.19,5.9,23.39,9.85,20.77,21.79-2.71,12.32-15.82,20.9-29.61,18.11-11.34-2.29-14.52-5.68-19.78-8.73l-9.65,11.84c5.79,5,16.49,9,27.31,10.38C659.61,708.26,679.29,695.12,683.7,673.29Zm80.64,71.49c-9.9-3.5-17,9.05-8,12.52,15.19,5.9,23.39,9.85,20.77,21.79-2.71,12.32-15.82,20.9-29.61,18.12-11.34-2.29-14.52-5.69-19.78-8.74L718,800.31c5.79,5,16.49,9,27.32,10.38,21.64,2.75,41.32-10.39,45.74-32.22C795.22,758,778.87,749.92,764.34,744.78Zm-187.91,0c-9.89-3.5-17,9.05-8,12.52,15.19,5.9,23.4,9.85,20.77,21.79-2.71,12.32-15.82,20.9-29.61,18.12-11.33-2.29-14.52-5.69-19.78-8.74l-9.64,11.84c5.78,5,16.48,9,27.31,10.38,21.64,2.75,41.33-10.39,45.74-32.22C607.32,758,591,749.92,576.43,744.78Zm295.18-71.49c4.14-20.48-12.22-28.56-26.74-33.69-9.9-3.5-17,9-8,12.52C852,658,860.22,662,857.59,673.91c-2.71,12.32-15.82,20.9-29.6,18.11-11.34-2.29-14.53-5.68-19.79-8.73l-9.64,11.84c5.79,5,16.49,9,27.31,10.38C847.52,708.26,867.2,695.12,871.61,673.29Zm-13.32,71.49c-9.89-3.5-17,9.05-8,12.52,15.19,5.9,23.4,9.85,20.77,21.79-2.71,12.32-15.82,20.9-29.6,18.12-11.34-2.29-14.53-5.69-19.79-8.74L812,800.31c5.79,5,16.48,9,27.31,10.38C861,813.44,880.63,800.3,885,778.47,889.18,758,872.82,749.92,858.29,744.78Zm-133,6.92c-4.14,20.48,12.22,28.56,26.75,33.7,9.9,3.5,17-9,8-12.52-15.19-5.91-23.4-9.86-20.77-21.8,2.71-12.32,15.82-20.9,29.61-18.11,11.33,2.29,14.52,5.69,19.78,8.74l9.65-11.84c-5.79-5-16.49-9-27.31-10.39C749.39,716.74,729.7,729.87,725.29,751.7Zm-187.9,0c-4.14,20.48,12.21,28.56,26.74,33.7,9.9,3.5,17-9,8-12.52C557,767,548.77,763,551.4,751.08c2.72-12.32,15.82-20.9,29.61-18.11,11.33,2.29,14.52,5.69,19.78,8.74l9.65-11.84c-5.79-5-16.49-9-27.31-10.39C561.48,716.74,541.79,729.87,537.39,751.7Zm-281.87,0c-4.14,20.48,12.22,28.56,26.75,33.7,9.9,3.5,17-9,8-12.52-15.19-5.91-23.4-9.86-20.77-21.8,2.71-12.32,15.82-20.9,29.61-18.11,11.33,2.29,14.52,5.69,19.78,8.74l9.65-11.84c-5.79-5-16.49-9-27.31-10.39C279.62,716.74,259.93,729.87,255.52,751.7Zm146.32-78.41c4.14-20.48-12.22-28.56-26.74-33.69-9.9-3.5-17,9-8,12.52,15.19,5.9,23.39,9.85,20.76,21.79-2.71,12.32-15.82,20.9-29.6,18.11-11.34-2.29-14.52-5.68-19.79-8.73l-9.64,11.84c5.79,5,16.49,9,27.31,10.38C377.75,708.26,397.43,695.12,401.84,673.29ZM294.57,744.78c-9.9-3.5-17,9.05-8,12.52,15.19,5.9,23.39,9.85,20.77,21.79-2.71,12.32-15.82,20.9-29.61,18.12-11.33-2.29-14.52-5.69-19.78-8.74l-9.65,11.84c5.79,5,16.49,9,27.32,10.38,21.64,2.75,41.32-10.39,45.74-32.22C325.45,758,309.1,749.92,294.57,744.78Zm13.32-71.49c4.14-20.48-12.22-28.56-26.75-33.69-9.89-3.5-17,9-8,12.52,15.19,5.9,23.4,9.85,20.77,21.79-2.71,12.32-15.82,20.9-29.6,18.11-11.34-2.29-14.53-5.68-19.79-8.73l-9.64,11.84c5.78,5,16.48,9,27.31,10.38C283.79,708.26,303.48,695.12,307.89,673.29Zm80.64,71.49c-9.9-3.5-17,9.05-8,12.52,15.18,5.9,23.39,9.85,20.76,21.79-2.71,12.32-15.82,20.9-29.6,18.12-11.34-2.29-14.53-5.69-19.79-8.74l-9.64,11.84c5.79,5,16.49,9,27.31,10.38,21.65,2.75,41.33-10.39,45.74-32.22C419.41,758,403.05,749.92,388.53,744.78Zm94,0c-9.9-3.5-17,9.05-8,12.52,15.19,5.9,23.39,9.85,20.77,21.79-2.71,12.32-15.83,20.9-29.61,18.12-11.34-2.29-14.52-5.69-19.78-8.74l-9.65,11.84c5.79,5,16.49,9,27.31,10.38,21.65,2.75,41.33-10.39,45.74-32.22C513.36,758,497,749.92,482.48,744.78ZM161.57,751.7c-4.14,20.48,12.22,28.56,26.74,33.7,9.9,3.5,17-9,8.05-12.52C181.17,767,173,763,175.59,751.08c2.71-12.32,15.82-20.9,29.61-18.11,11.33,2.29,14.52,5.69,19.77,8.74l9.65-11.84c-5.79-5-16.48-9-27.31-10.39C185.66,716.74,166,729.87,161.57,751.7Zm281.86,0c-4.14,20.48,12.22,28.56,26.74,33.7,9.91,3.5,17-9,8.05-12.52C463,767,454.82,763,457.45,751.08c2.71-12.32,15.82-20.9,29.61-18.11,11.33,2.29,14.52,5.69,19.77,8.74l9.66-11.84c-5.8-5-16.49-9-27.32-10.39C467.53,716.74,447.84,729.87,443.43,751.7Zm146.32-78.41c4.14-20.48-12.22-28.56-26.74-33.69-9.9-3.5-17,9-8,12.52,15.18,5.9,23.39,9.85,20.76,21.79-2.71,12.32-15.82,20.9-29.6,18.11-11.34-2.29-14.53-5.68-19.79-8.73l-9.64,11.84c5.79,5,16.49,9,27.31,10.38C565.66,708.26,585.34,695.12,589.75,673.29Zm-93.95,0c4.13-20.48-12.22-28.56-26.75-33.69-9.89-3.5-17,9-8,12.52,15.19,5.9,23.4,9.85,20.77,21.79-2.71,12.32-15.82,20.9-29.61,18.11-11.33-2.29-14.52-5.68-19.78-8.73l-9.64,11.84c5.78,5,16.48,9,27.31,10.38C471.7,708.26,491.38,695.12,495.8,673.29ZM349.48,751.7c-4.14,20.48,12.21,28.56,26.74,33.7,9.9,3.5,17-9,8-12.52-15.19-5.91-23.39-9.86-20.77-21.8,2.72-12.32,15.83-20.9,29.61-18.11,11.34,2.29,14.52,5.69,19.78,8.74l9.65-11.84c-5.79-5-16.49-9-27.31-10.39C373.57,716.74,353.89,729.87,349.48,751.7ZM1381.74,429.23c-9.9-3.49-17,9-8,12.52,15.18,5.91,23.39,9.86,20.76,21.8-2.71,12.32-15.82,20.89-29.6,18.11-11.34-2.29-14.53-5.69-19.79-8.74l-9.64,11.84c5.79,5.05,16.49,9,27.31,10.39,21.65,2.74,41.33-10.39,45.74-32.22C1412.62,442.45,1396.26,434.37,1381.74,429.23Zm80.52-105.18c-9.89-3.49-17,9.05-8,12.52,15.19,5.91,23.4,9.85,20.77,21.79-2.71,12.32-15.82,20.9-29.61,18.12-11.33-2.29-14.52-5.69-19.78-8.74L1416,379.58c5.78,5.05,16.48,9,27.31,10.39,21.64,2.74,41.32-10.4,45.74-32.23C1493.15,337.27,1476.79,329.19,1462.26,324.05ZM1342.69,436.16c-4.14,20.47,12.21,28.55,26.74,33.69,9.9,3.5,17-9,8-12.52-15.19-5.9-23.39-9.85-20.77-21.79,2.72-12.33,15.83-20.9,29.61-18.11,11.34,2.29,14.52,5.68,19.78,8.73l9.65-11.84c-5.79-5-16.49-9-27.31-10.39C1366.78,401.19,1347.1,414.33,1342.69,436.16Zm-80.53,105.18c-4.14,20.47,12.22,28.56,26.74,33.69,9.9,3.5,17-9,8-12.52-15.19-5.9-23.4-9.85-20.77-21.79,2.71-12.32,15.82-20.9,29.61-18.11,11.33,2.29,14.52,5.68,19.77,8.73l9.66-11.84c-5.8-5-16.49-9-27.32-10.38C1286.25,506.37,1266.57,519.51,1262.16,541.34ZM965.57,673.29c4.13-20.48-12.22-28.56-26.75-33.69-9.9-3.5-17,9-8,12.52C946,658,954.17,662,951.55,673.91c-2.71,12.32-15.82,20.9-29.61,18.11-11.34-2.29-14.52-5.68-19.78-8.73l-9.65,11.84c5.79,5,16.49,9,27.32,10.38C941.47,708.26,961.15,695.12,965.57,673.29Zm216.07-26.77c-4.14,20.47,12.21,28.56,26.74,33.69,9.9,3.5,17-9,8-12.52-15.19-5.9-23.4-9.85-20.77-21.79,2.72-12.32,15.82-20.9,29.61-18.11,11.33,2.29,14.52,5.68,19.78,8.74l9.65-11.84c-5.79-5.05-16.49-9-27.31-10.39C1205.73,611.55,1186,624.69,1181.64,646.52ZM1375,298.75c-21.65-2.74-41.33,10.4-45.74,32.22-4.14,20.48,12.22,28.56,26.74,33.7,9.9,3.5,17-9,8-12.52-15.19-5.9-23.4-9.86-20.77-21.8,2.71-12.32,15.82-20.9,29.61-18.11,11.33,2.29,14.52,5.69,19.77,8.74l9.66-11.84C1396.52,304.1,1385.83,300.12,1375,298.75ZM1423.21,331c-4.13,20.48,12.22,28.56,26.75,33.7,9.9,3.5,17-9,8-12.52-15.19-5.9-23.4-9.86-20.77-21.8,2.71-12.32,15.82-20.9,29.61-18.11,11.33,2.29,14.52,5.69,19.78,8.74l9.65-11.84c-5.79-5-16.49-9-27.31-10.39C1447.31,296,1427.62,309.15,1423.21,331Zm80.53-105.18c-4.14,20.48,12.22,28.56,26.74,33.69,9.9,3.5,17-9,8-12.52-15.19-5.9-23.4-9.85-20.77-21.79,2.71-12.32,15.82-20.9,29.61-18.11,11.33,2.29,14.52,5.68,19.77,8.74L1576.8,204c-5.8-5.05-16.49-9-27.32-10.39C1527.83,190.82,1508.15,204,1503.74,225.79Zm39-6.92c-9.9-3.5-17,9-8,12.52,15.19,5.9,23.39,9.85,20.77,21.79-2.72,12.32-15.83,20.9-29.61,18.12-11.34-2.3-14.52-5.69-19.79-8.74l-9.64,11.84c5.79,5,16.49,9,27.31,10.38,21.65,2.75,41.33-10.39,45.74-32.22C1573.67,232.08,1557.31,224,1542.79,218.87ZM1301.21,534.41c-9.9-3.49-17,9.05-8,12.53,15.19,5.9,23.39,9.85,20.77,21.79-2.72,12.32-15.82,20.9-29.61,18.11-11.34-2.29-14.52-5.69-19.78-8.74l-9.65,11.84c5.79,5,16.49,9,27.31,10.39,21.65,2.75,41.33-10.39,45.74-32.22C1332.09,547.63,1315.74,539.55,1301.21,534.41ZM1059.52,673.29c4.14-20.48-12.22-28.56-26.74-33.69-9.9-3.5-17,9-8,12.52,15.18,5.9,23.39,9.85,20.76,21.79-2.71,12.32-15.82,20.9-29.6,18.11-11.34-2.29-14.53-5.68-19.79-8.73l-9.64,11.84c5.79,5,16.49,9,27.31,10.38C1035.43,708.26,1055.11,695.12,1059.52,673.29Zm161.16-33.69c-9.89-3.5-17,9-8,12.52,15.19,5.9,23.4,9.85,20.77,21.79-2.71,12.32-15.82,20.9-29.61,18.11-11.33-2.29-14.52-5.68-19.78-8.73l-9.64,11.84c5.78,5,16.48,9,27.31,10.38,21.64,2.75,41.33-10.39,45.74-32.22C1251.57,652.81,1235.21,644.73,1220.68,639.6ZM913.2,751.7c-4.14,20.48,12.22,28.56,26.74,33.7,9.9,3.5,17-9,8-12.52-15.19-5.91-23.4-9.86-20.77-21.8,2.71-12.32,15.82-20.9,29.61-18.11,11.33,2.29,14.52,5.69,19.77,8.74l9.66-11.84c-5.8-5-16.49-9-27.32-10.39C937.29,716.74,917.61,729.87,913.2,751.7Zm39-6.92c-9.9-3.5-17,9.05-8,12.52,15.19,5.9,23.39,9.85,20.76,21.79-2.71,12.32-15.82,20.9-29.6,18.12-11.34-2.29-14.52-5.69-19.79-8.74l-9.64,11.84c5.79,5,16.49,9,27.31,10.38,21.65,2.75,41.33-10.39,45.74-32.22C983.13,758,966.77,749.92,952.25,744.78Zm94,0c-9.89-3.5-17,9.05-8,12.52,15.19,5.9,23.4,9.85,20.77,21.79-2.71,12.32-15.82,20.9-29.61,18.12-11.33-2.29-14.52-5.69-19.78-8.74l-9.64,11.84c5.78,5,16.48,9,27.31,10.38,21.64,2.75,41.33-10.39,45.74-32.22C1077.09,758,1060.73,749.92,1046.2,744.78Zm54.91,6.92c-4.14,20.48,12.22,28.56,26.74,33.7,9.9,3.5,17-9,8-12.52-15.18-5.91-23.39-9.86-20.77-21.8,2.72-12.32,15.83-20.9,29.61-18.11,11.34,2.29,14.53,5.69,19.78,8.74l9.65-11.84c-5.79-5-16.49-9-27.31-10.39C1125.2,716.74,1105.52,729.87,1101.11,751.7Zm39.05-6.92c-9.9-3.5-17,9.05-8,12.52,15.18,5.9,23.39,9.85,20.76,21.79-2.71,12.32-15.82,20.9-29.6,18.12-11.34-2.29-14.53-5.69-19.79-8.74l-9.64,11.84c5.79,5,16.49,9,27.31,10.38,21.65,2.75,41.33-10.39,45.74-32.22C1171,758,1154.68,749.92,1140.16,744.78Zm13.31-71.49c4.14-20.48-12.22-28.56-26.74-33.69-9.9-3.5-17,9-8,12.52,15.19,5.9,23.39,9.85,20.77,21.79-2.71,12.32-15.83,20.9-29.61,18.11-11.34-2.29-14.52-5.68-19.78-8.73l-9.65,11.84c5.79,5,16.49,9,27.31,10.38C1129.38,708.26,1149.06,695.12,1153.47,673.29ZM1007.16,751.7c-4.14,20.48,12.21,28.56,26.74,33.7,9.9,3.5,17-9,8-12.52-15.19-5.91-23.4-9.86-20.77-21.8,2.71-12.32,15.82-20.9,29.61-18.11,11.33,2.29,14.52,5.69,19.78,8.74l9.65-11.84c-5.79-5-16.49-9-27.31-10.39C1031.25,716.74,1011.56,729.87,1007.16,751.7Zm616.16-638c-9.9-3.5-17,9-8,12.52,15.18,5.9,23.39,9.85,20.76,21.79-2.71,12.32-15.82,20.9-29.6,18.11-11.34-2.29-14.53-5.68-19.79-8.73L1577,169.21c5.79,5,16.49,9,27.31,10.39,21.65,2.75,41.33-10.39,45.74-32.22C1654.2,126.9,1637.84,118.82,1623.32,113.69Zm-670,40.61c9.9,3.5,17-9,8-12.52-15.19-5.9-23.4-9.85-20.77-21.79,2.71-12.32,15.82-20.9,29.61-18.11,11.33,2.29,14.52,5.68,19.77,8.73l9.65-11.84c-5.79-5-16.48-9-27.31-10.38-21.65-2.75-41.33,10.39-45.74,32.22C922.45,141.08,938.81,149.17,953.33,154.3Zm39-6.92c4.14-20.48-12.22-28.56-26.74-33.69-9.9-3.5-17,9-8,12.52,15.19,5.9,23.39,9.85,20.76,21.79-2.71,12.32-15.82,20.9-29.6,18.11-11.34-2.29-14.52-5.68-19.79-8.73l-9.64,11.83c5.79,5,16.49,9,27.31,10.39C968.29,182.35,988,169.21,992.38,147.38ZM940,225.79c-4.14,20.48,12.21,28.56,26.74,33.69,9.9,3.5,17-9,8-12.52-15.19-5.9-23.39-9.85-20.77-21.79,2.72-12.32,15.83-20.9,29.61-18.11,11.34,2.29,14.52,5.68,19.78,8.74l9.65-11.84c-5.79-5.05-16.49-9-27.31-10.39C964.11,190.82,944.43,204,940,225.79ZM765.42,154.3c9.91,3.5,17-9,8.05-12.52-15.19-5.9-23.4-9.85-20.77-21.79,2.71-12.32,15.82-20.9,29.61-18.11,11.33,2.29,14.52,5.68,19.77,8.73l9.66-11.84c-5.79-5-16.49-9-27.31-10.38-21.65-2.75-41.34,10.39-45.75,32.22C734.54,141.08,750.9,149.17,765.42,154.3Zm320.92-6.92c4.13-20.48-12.22-28.56-26.75-33.69-9.89-3.5-17,9-8,12.52,15.19,5.9,23.4,9.85,20.77,21.79-2.71,12.32-15.82,20.9-29.61,18.11-11.33-2.29-14.52-5.68-19.78-8.73l-9.64,11.83c5.78,5,16.48,9,27.31,10.39C1062.24,182.35,1081.92,169.21,1086.34,147.38ZM1034,225.79c-4.14,20.48,12.22,28.56,26.74,33.69,9.91,3.5,17-9,8-12.52-15.19-5.9-23.4-9.85-20.77-21.79,2.71-12.32,15.82-20.9,29.61-18.11,11.33,2.29,14.52,5.68,19.77,8.74L1107,204c-5.8-5.05-16.49-9-27.32-10.39C1058.07,190.82,1038.38,204,1034,225.79Zm-833.35,519c-9.9-3.5-17,9.05-8,12.52,15.19,5.9,23.39,9.85,20.76,21.79-2.71,12.32-15.82,20.9-29.6,18.12-11.34-2.29-14.53-5.69-19.79-8.74l-9.64,11.84c5.79,5,16.49,9,27.31,10.38,21.65,2.75,41.33-10.39,45.74-32.22C231.5,758,215.14,749.92,200.62,744.78Zm551.49-519c-4.14,20.48,12.22,28.56,26.74,33.69,9.9,3.5,17-9,8-12.52-15.19-5.9-23.4-9.85-20.77-21.79,2.71-12.32,15.82-20.9,29.61-18.11,11.33,2.29,14.52,5.68,19.77,8.74L825.16,204c-5.79-5.05-16.48-9-27.31-10.39C776.2,190.82,756.52,204,752.11,225.79Zm93.95,0c-4.13,20.48,12.22,28.56,26.75,33.69,9.9,3.5,17-9,8-12.52-15.19-5.9-23.4-9.85-20.77-21.79,2.71-12.32,15.82-20.9,29.61-18.11,11.33,2.29,14.52,5.68,19.78,8.74L919.12,204c-5.79-5.05-16.49-9-27.31-10.39C870.16,190.82,850.47,204,846.06,225.79Zm13.32-71.49c9.9,3.5,17-9,8-12.52-15.19-5.9-23.39-9.85-20.77-21.79,2.72-12.32,15.82-20.9,29.61-18.11,11.33,2.29,14.52,5.68,19.78,8.73l9.65-11.84c-5.79-5-16.49-9-27.31-10.38-21.65-2.75-41.34,10.39-45.74,32.22C828.5,141.08,844.85,149.17,859.38,154.3Zm187.91,0c9.9,3.5,17-9,8-12.52-15.19-5.9-23.4-9.85-20.77-21.79,2.71-12.32,15.82-20.9,29.61-18.11,11.33,2.29,14.52,5.68,19.78,8.73l9.65-11.84c-5.79-5-16.49-9-27.31-10.38-21.65-2.75-41.34,10.39-45.75,32.22C1016.41,141.08,1032.76,149.17,1047.29,154.3Zm320.91-6.92c4.14-20.48-12.22-28.56-26.75-33.69-9.89-3.5-17,9-8,12.52,15.19,5.9,23.4,9.85,20.77,21.79-2.71,12.32-15.82,20.9-29.6,18.11-11.34-2.29-14.53-5.68-19.79-8.73l-9.64,11.83c5.79,5,16.48,9,27.31,10.39C1344.1,182.35,1363.79,169.21,1368.2,147.38Zm-39,6.92c9.9,3.5,17-9,8-12.52-15.19-5.9-23.4-9.85-20.77-21.79,2.72-12.32,15.82-20.9,29.61-18.11,11.33,2.29,14.52,5.68,19.78,8.73l9.65-11.84c-5.79-5-16.49-9-27.31-10.38-21.65-2.75-41.34,10.39-45.74,32.22C1298.27,141.08,1314.62,149.17,1329.15,154.3Zm-107.27,71.49c-4.14,20.48,12.22,28.56,26.74,33.69,9.9,3.5,17-9,8.05-12.52-15.19-5.9-23.4-9.85-20.77-21.79,2.71-12.32,15.82-20.9,29.61-18.11,11.33,2.29,14.52,5.68,19.77,8.74l9.65-11.84c-5.79-5.05-16.48-9-27.31-10.39C1246,190.82,1226.29,204,1221.88,225.79Zm-41.59-78.41c4.14-20.48-12.22-28.56-26.74-33.69-9.9-3.5-17,9-8,12.52,15.18,5.9,23.39,9.85,20.76,21.79-2.71,12.32-15.82,20.9-29.6,18.11-11.34-2.29-14.53-5.68-19.79-8.73l-9.64,11.83c5.79,5,16.49,9,27.31,10.39C1156.2,182.35,1175.88,169.21,1180.29,147.38Zm135.54,78.41c-4.13,20.48,12.22,28.56,26.75,33.69,9.9,3.5,17-9,8-12.52-15.19-5.9-23.4-9.85-20.77-21.79,2.71-12.32,15.82-20.9,29.61-18.11,11.33,2.29,14.52,5.68,19.78,8.74l9.65-11.84c-5.79-5.05-16.49-9-27.31-10.39C1339.93,190.82,1320.24,204,1315.83,225.79Zm-187.9,0c-4.14,20.48,12.21,28.56,26.74,33.69,9.9,3.5,17-9,8-12.52-15.19-5.9-23.4-9.85-20.77-21.79,2.72-12.32,15.82-20.9,29.61-18.11,11.33,2.29,14.52,5.68,19.78,8.74L1201,204c-5.79-5.05-16.49-9-27.31-10.39C1152,190.82,1132.33,204,1127.93,225.79Zm13.31-71.49c9.9,3.5,17-9,8-12.52-15.19-5.9-23.39-9.85-20.77-21.79,2.72-12.32,15.83-20.9,29.61-18.11,11.34,2.29,14.52,5.68,19.78,8.73l9.65-11.84c-5.79-5-16.49-9-27.31-10.38-21.65-2.75-41.33,10.39-45.74,32.22C1110.36,141.08,1126.71,149.17,1141.24,154.3Zm133-6.92c4.14-20.48-12.21-28.56-26.74-33.69-9.9-3.5-17,9-8,12.52,15.19,5.9,23.39,9.85,20.77,21.79-2.71,12.32-15.82,20.9-29.61,18.11-11.34-2.29-14.52-5.68-19.78-8.73l-9.65,11.83c5.79,5,16.49,9,27.31,10.39C1250.15,182.35,1269.83,169.21,1274.24,147.38Zm-39,6.92c9.91,3.5,17-9,8-12.52-15.19-5.9-23.4-9.85-20.77-21.79,2.71-12.32,15.82-20.9,29.61-18.11,11.33,2.29,14.52,5.68,19.77,8.73l9.66-11.84c-5.8-5-16.49-9-27.31-10.38-21.66-2.75-41.34,10.39-45.75,32.22C1204.31,141.08,1220.67,149.17,1235.19,154.3Zm-336.76-6.92c4.14-20.48-12.22-28.56-26.75-33.69-9.89-3.5-17,9-8,12.52,15.19,5.9,23.4,9.85,20.77,21.79-2.71,12.32-15.82,20.9-29.6,18.11-11.34-2.29-14.53-5.68-19.79-8.73l-9.64,11.83c5.79,5,16.48,9,27.31,10.39C874.33,182.35,894,169.21,898.43,147.38ZM455.51,357.74c4.14-20.47-12.22-28.55-26.74-33.69-9.9-3.49-17,9.05-8,12.52,15.19,5.91,23.39,9.85,20.77,21.79-2.71,12.32-15.82,20.9-29.61,18.12-11.34-2.29-14.52-5.69-19.78-8.74l-9.65,11.84c5.79,5.05,16.49,9,27.31,10.39C431.42,392.71,451.1,379.57,455.51,357.74ZM255.41,575c9.9,3.5,17-9,8-12.52-15.19-5.9-23.4-9.85-20.78-21.79,2.72-12.32,15.83-20.9,29.61-18.11,11.34,2.29,14.53,5.68,19.78,8.73l9.65-11.84c-5.79-5-16.49-9-27.31-10.38-21.65-2.75-41.33,10.39-45.74,32.22C224.53,561.81,240.89,569.9,255.41,575Zm39-6.92c4.14-20.48-12.22-28.56-26.74-33.7-9.9-3.49-17,9.05-8,12.53,15.19,5.9,23.39,9.85,20.76,21.79-2.71,12.32-15.82,20.9-29.6,18.11-11.34-2.29-14.53-5.69-19.79-8.74l-9.64,11.84c5.79,5,16.49,9,27.31,10.39C270.37,603.08,290.05,589.94,294.46,568.11Zm41.48-98.26c9.9,3.5,17-9,8-12.52-15.19-5.9-23.4-9.85-20.77-21.79,2.72-12.33,15.82-20.9,29.61-18.11,11.33,2.29,14.52,5.68,19.78,8.73l9.65-11.84c-5.79-5-16.49-9-27.31-10.39-21.65-2.74-41.34,10.4-45.74,32.23C305.06,456.63,321.41,464.71,335.94,469.85ZM804.47,147.38c4.14-20.48-12.21-28.56-26.74-33.69-9.9-3.5-17,9-8,12.52,15.19,5.9,23.39,9.85,20.77,21.79-2.71,12.32-15.82,20.9-29.61,18.11-11.34-2.29-14.52-5.68-19.78-8.73l-9.65,11.83c5.79,5,16.49,9,27.32,10.39C780.38,182.35,800.06,169.21,804.47,147.38ZM285.72,627.79c11.33,2.29,14.52,5.68,19.78,8.74l9.65-11.84c-5.79-5.05-16.49-9-27.31-10.39-21.65-2.75-41.34,10.39-45.74,32.22C238,667,254.31,675.08,268.84,680.21c9.9,3.5,17-9,8-12.52-15.19-5.9-23.39-9.85-20.77-21.79C258.83,633.58,271.93,625,285.72,627.79Zm-71.79,45.5c4.14-20.48-12.21-28.56-26.74-33.69-9.9-3.5-17,9-8,12.52,15.19,5.9,23.39,9.85,20.77,21.79-2.71,12.32-15.82,20.9-29.61,18.11-11.34-2.29-14.52-5.68-19.78-8.73l-9.65,11.84c5.79,5,16.49,9,27.32,10.38C189.84,708.26,209.52,695.12,213.93,673.29ZM67.62,751.7c-4.14,20.48,12.21,28.56,26.74,33.7,9.9,3.5,17-9,8-12.52C87.21,767,79,763,81.63,751.08c2.72-12.32,15.82-20.9,29.61-18.11,11.33,2.29,14.52,5.69,19.78,8.74l9.65-11.84c-5.79-5-16.49-9-27.31-10.39C91.71,716.74,72,729.87,67.62,751.7Zm39-6.92c-9.89-3.5-17,9.05-8,12.52,15.19,5.9,23.4,9.85,20.77,21.79-2.71,12.32-15.82,20.9-29.6,18.12-11.34-2.29-14.53-5.69-19.79-8.74l-9.64,11.84c5.79,5,16.48,9,27.31,10.38,21.64,2.75,41.33-10.39,45.74-32.22C137.55,758,121.19,749.92,106.66,744.78Zm68.22-64.57c9.91,3.5,17-9,8.05-12.52-15.19-5.9-23.4-9.85-20.77-21.79,2.71-12.32,15.82-20.9,29.61-18.11,11.33,2.29,14.52,5.68,19.77,8.74l9.66-11.84c-5.79-5.05-16.49-9-27.31-10.39-21.65-2.75-41.34,10.39-45.75,32.22C144,667,160.36,675.08,174.88,680.21ZM375,462.93c4.14-20.48-12.22-28.56-26.75-33.7-9.89-3.49-17,9-8,12.52,15.19,5.91,23.4,9.86,20.77,21.8-2.71,12.32-15.82,20.89-29.6,18.11-11.34-2.29-14.53-5.69-19.79-8.74l-9.64,11.84c5.78,5.05,16.48,9,27.31,10.39C350.89,497.89,370.58,484.76,375,462.93ZM671.47,154.3c9.9,3.5,17-9,8-12.52-15.18-5.9-23.39-9.85-20.77-21.79,2.72-12.32,15.83-20.9,29.61-18.11,11.34,2.29,14.53,5.68,19.78,8.73l9.65-11.84c-5.79-5-16.49-9-27.31-10.38-21.65-2.75-41.33,10.39-45.74,32.22C640.59,141.08,657,149.17,671.47,154.3ZM564.2,225.79c-4.14,20.48,12.22,28.56,26.74,33.69,9.91,3.5,17-9,8-12.52-15.19-5.9-23.4-9.85-20.77-21.79,2.71-12.32,15.82-20.9,29.61-18.11,11.33,2.29,14.52,5.68,19.77,8.74L637.26,204c-5.8-5.05-16.49-9-27.31-10.39C588.3,190.82,568.61,204,564.2,225.79Zm146.32-78.41c4.14-20.48-12.22-28.56-26.74-33.69-9.9-3.5-17,9-8,12.52,15.18,5.9,23.39,9.85,20.76,21.79-2.71,12.32-15.82,20.9-29.6,18.11-11.34-2.29-14.53-5.68-19.79-8.73l-9.64,11.83c5.79,5,16.49,9,27.31,10.39C686.43,182.35,706.11,169.21,710.52,147.38ZM416.46,364.67c9.91,3.5,17-9,8.05-12.52-15.19-5.9-23.4-9.86-20.77-21.8,2.71-12.32,15.82-20.9,29.61-18.11,11.33,2.29,14.52,5.69,19.77,8.74l9.66-11.84c-5.8-5-16.49-9-27.32-10.39-21.64-2.74-41.33,10.4-45.74,32.22C385.58,351.45,401.94,359.53,416.46,364.67Zm241.7-138.88c-4.14,20.48,12.21,28.56,26.74,33.69,9.9,3.5,17-9,8-12.52-15.19-5.9-23.4-9.85-20.77-21.79,2.72-12.32,15.82-20.9,29.61-18.11,11.33,2.29,14.52,5.68,19.78,8.74L731.21,204c-5.79-5.05-16.49-9-27.31-10.39C682.25,190.82,662.56,204,658.16,225.79ZM536,252.56c4.14-20.48-12.22-28.55-26.74-33.69-9.9-3.5-17,9-8,12.52,15.18,5.9,23.39,9.85,20.76,21.79-2.71,12.32-15.82,20.9-29.6,18.12-11.34-2.3-14.53-5.69-19.79-8.74L463,274.4c5.79,5,16.49,9,27.31,10.38C512,287.53,531.63,274.39,536,252.56Zm-39,6.92c9.9,3.5,17-9,8-12.52-15.19-5.9-23.39-9.85-20.77-21.79,2.72-12.32,15.83-20.9,29.61-18.11,11.34,2.29,14.52,5.68,19.78,8.74L543.3,204c-5.79-5.05-16.49-9-27.31-10.39-21.65-2.75-41.33,10.39-45.74,32.22C466.11,246.27,482.46,254.35,497,259.48ZM577.52,154.3c9.9,3.5,17-9,8-12.52-15.19-5.9-23.4-9.85-20.77-21.79,2.71-12.32,15.82-20.9,29.61-18.11,11.33,2.29,14.52,5.68,19.78,8.73l9.65-11.84c-5.79-5-16.49-9-27.31-10.38-21.65-2.75-41.34,10.39-45.74,32.22C546.64,141.08,563,149.17,577.52,154.3Zm39.05-6.92c4.14-20.48-12.22-28.56-26.75-33.69-9.89-3.5-17,9-8,12.52,15.19,5.9,23.4,9.85,20.77,21.79-2.71,12.32-15.82,20.9-29.61,18.11-11.33-2.29-14.52-5.68-19.78-8.73l-9.64,11.83c5.78,5,16.48,9,27.31,10.39C592.47,182.35,612.16,169.21,616.57,147.38Z"/></g></g></svg>