<svg id="Layer_1" data-name="Layer 1" xmlns="http://www.w3.org/2000/svg" viewBox="0 0 204.71 202.82"><defs><style>.cls-1{fill:#939598;}.cls-2{fill:#ced0d1;}.cls-3{fill:#e4e5e6;}.cls-4{fill:#efeff0;}.cls-5{fill:#fff;}.cls-6{fill:#7bbdd6;}.cls-7{fill:#39bb9d;}.cls-8{fill:none;stroke:#939598;stroke-miterlimit:10;stroke-width:0.5px;}</style></defs><title>Artboard 58@4x2</title><path class="cls-1" d="M94.15,94.4l.15-1.71a3.23,3.23,0,0,0,.8-1.83l.19-2.26a3.25,3.25,0,0,0-.48-2c0-.12,0-.24,0-.36l0-.49a3.19,3.19,0,0,0,.8-1.84l.21-2.37a3.58,3.58,0,0,0-1.53-3.16l.07-.75c.22-2.49-2.24-3.64-3.79-4.18-.43-6.36-1.58-23.38-1.9-26.34A3.32,3.32,0,0,0,88,45.25a6.46,6.46,0,0,0-4.09-1.67,8.48,8.48,0,0,0-1.51,0A4.65,4.65,0,0,0,79.09,45a3.94,3.94,0,0,0-.67,1.35c-.62,2.31-4.3,16.69-6.57,25.54-1.5.24-4,.94-4.27,3.44l-.07.76a3.52,3.52,0,0,0-2,2.85l-.21,2.37a3.18,3.18,0,0,0,.47,2l0,.49c0,.12,0,.24,0,.36A3.27,3.27,0,0,0,64.85,86l-.19,2.26a3.1,3.1,0,0,0,.46,1.93h0L65,91.89c-3.21.41-6.25,1.3-6.49,4.07l-.63,7.31a3.11,3.11,0,0,0,.23,1.5A3.53,3.53,0,0,0,56,107.6L51.27,162c-.27,3.13,3.43,4.52,7.48,5.56a91.68,91.68,0,0,0,14.14,2.23,89.85,89.85,0,0,0,14.29.25h0c4.16-.33,8-1.06,8.32-4.19l4.74-54.38a3.55,3.55,0,0,0-1.54-3.16,3.27,3.27,0,0,0,.48-1.43l.64-7.31C100.07,96.83,97.14,95.36,94.15,94.4Z"/><path class="cls-2" d="M68,88.47l0-.66c3.15,1.92,11.36,2.66,11.79,2.7s8.64.73,12.08-.62l-.06.66c-.42.65-4.78,1.5-12.1.86S68.25,89.19,68,88.47Zm1.12-2.66c2.46,1.43,7.52,2.24,10.91,2.53s8.51.37,11.18-.6a2.21,2.21,0,0,1,.82.58c-.53.66-4.87,1.46-12.07.83S68.58,87,68.16,86.25A2.15,2.15,0,0,1,69.07,85.81Zm-.52-4.25.06-.74c2.45,1.55,8.07,2.44,11.78,2.77s9.41.41,12.09-.69l-.06.72c-.31.68-4.75,1.62-12.12,1S68.73,82.27,68.55,81.56Zm2.19-4.5c2.72,1.54,9.12,2.15,10,2.23s7.31.59,10.26-.46l-.06.72c-.48.49-4,1.19-10.28.64s-9.63-1.84-10-2.41Zm16.13-1.41a23,23,0,0,1-5.79.09,21.25,21.25,0,0,1-6-1.21c-.16-.07-.43-.32-.28-.87s6.52-25.44,6.52-25.44a6.35,6.35,0,0,0,2.11.53,6,6,0,0,0,2.19-.17S87.37,74,87.44,74.77,87.13,75.61,86.87,75.65ZM83.59,46.86a5.37,5.37,0,0,1,1.33.28.11.11,0,0,1,0,.22,6.38,6.38,0,0,1-1.36,0,5.6,5.6,0,0,1-1.25-.25c-.27-.09-.25-.22,0-.26A5.71,5.71,0,0,1,83.59,46.86ZM73.46,75c1.09,1.43,5.88,2,7.5,2.1s6.44.45,7.75-.78a6.65,6.65,0,0,1,2.38,1c-.7.49-4.16,1.1-10.2.58s-9.44-1.77-10-2.36A5.43,5.43,0,0,1,73.46,75ZM69.72,78.7c1.89,2,9.83,2.75,10.85,2.84s9,.72,11.18-.92a2.13,2.13,0,0,1,.86.66c-.41.68-4.82,1.59-12.1,1s-11.47-2.3-11.75-3A2.12,2.12,0,0,1,69.72,78.7ZM80.19,86c3.43.3,8.55.4,11.42-.46l0,.47c-.26.69-4.44,1.64-11.47,1s-11-2.28-11.13-3l0-.49C71.69,84.87,76.75,85.65,80.19,86Zm-.6,6.81c.41,0,7.7.65,11.43-.4l-.37,4.18c-.37.66-4.48,1.52-11.46.91S68.3,95.29,68.05,94.57l.36-4.17C71.9,92.07,79.19,92.73,79.59,92.76ZM66.78,95c.83,2.21,7.93,3.42,12.29,3.8s11.65.41,12.79-1.65c3.21.89,4.51,1.78,4.68,2.12-.11.13-.88.89-5.21,1.25a77.25,77.25,0,0,1-12.4-.19,77.15,77.15,0,0,1-12.24-2c-4.26-1.11-4.85-2-4.91-2.13S62.58,95.38,66.78,95Zm-5.65,8.54.5-5.65c4,2.61,16.55,3.74,17.19,3.79s13.19,1.12,17.58-.77l-.48,5.65s-.49.87-5.23,1.26a76,76,0,0,1-12.39-.19,76.86,76.86,0,0,1-12.24-2C61.48,104.49,61.14,103.55,61.13,103.55Zm3.49,3.16A85.67,85.67,0,0,0,78.18,109a85,85,0,0,0,13.76.08c3.75,1,4.87,1.81,5,2.09-.59.9-7.33,2-19,.94s-18.17-3.23-18.6-4.22C59.5,107.64,60.75,107,64.62,106.71Zm8.55,59.78c-11.81-1-18.27-3.26-18.61-4.24l4.6-52.74A17.93,17.93,0,0,0,64,111.29a88.84,88.84,0,0,0,13.82,2.17,88.66,88.66,0,0,0,14,.25,17.85,17.85,0,0,0,5-.92l-4.59,52.75C91.74,166.44,85,167.52,73.17,166.49Z"/><path class="cls-3" d="M69.77,88.63l.06-.66c2.65,1.88,9.6,2.51,10,2.54s7.32.61,10.25-.78l-.06.66c-.37.66-4.07,1.56-10.27,1S70,89.34,69.77,88.63Zm1-2.67c2.07,1.39,6.35,2.13,9.22,2.38s7.21.26,9.49-.75a2.05,2.05,0,0,1,.69.57c-.47.66-4.15,1.53-10.25,1s-9.58-2-9.92-2.74A1.79,1.79,0,0,1,70.76,86Zm-.38-4.24.06-.74c2.06,1.52,6.81,2.33,10,2.61s8,.29,10.26-.85l-.06.72c-.27.69-4,1.68-10.29,1.14S70.52,82.42,70.38,81.72Zm1.91-4.52c2.29,1.5,7.71,2,8.48,2.09s6.19.49,8.71-.59l-.06.71c-.41.5-3.39,1.24-8.73.78s-8.14-1.71-8.46-2.28ZM86,75.58a17,17,0,0,1-4.91.16A15.73,15.73,0,0,1,76,74.61c-.13-.07-.35-.31-.22-.86l5.87-25.51a4.51,4.51,0,0,0,1.78.51,4.34,4.34,0,0,0,1.86-.2s1.15,25.34,1.19,26.13S86.21,75.53,86,75.58Zm-2.4-28.72a4.21,4.21,0,0,1,1.12.26.11.11,0,0,1,0,.22,4,4,0,0,1-1.15.06,4.21,4.21,0,0,1-1.06-.23c-.23-.09-.21-.22,0-.26A3.92,3.92,0,0,1,83.59,46.86Zm-9,28.23c.9,1.41,5,1.88,6.33,2s5.46.36,6.58-.88a5.18,5.18,0,0,1,2,1c-.6.5-3.55,1.16-8.66.72s-8-1.64-8.43-2.23A4.41,4.41,0,0,1,74.63,75.09Zm-3.22,3.76c1.57,2,8.29,2.62,9.16,2.69s7.6.6,9.49-1.06c.55.33.69.57.72.64-.35.68-4.11,1.65-10.27,1.12s-9.69-2.14-9.92-2.88A1.79,1.79,0,0,1,71.41,78.85ZM80.19,86c2.91.26,7.25.29,9.69-.61l0,.47c-.23.69-3.78,1.7-9.74,1.18s-9.29-2.13-9.4-2.83l0-.49C73,85,77.28,85.7,80.19,86Zm-.6,6.81c.35,0,6.52.55,9.69-.55l-.36,4.18c-.32.66-3.82,1.58-9.73,1.06s-9.2-2-9.41-2.73l.37-4.17C73.08,92.17,79.25,92.73,79.59,92.76ZM68.7,95.18c.68,2.19,6.68,3.3,10.37,3.63S89,99.07,89.93,97c2.72.85,3.81,1.72,3.95,2.06-.09.13-.76.9-4.44,1.31a54.94,54.94,0,0,1-10.51,0,55.91,55.91,0,0,1-10.35-1.79c-3.6-1.06-4.09-1.94-4.14-2.07S65.13,95.6,68.7,95.18Zm-4.9,8.61.49-5.66c3.36,2.56,14,3.51,14.53,3.56s11.17.94,14.92-1l-.49,5.64s-.42.89-4.44,1.34a55.86,55.86,0,0,1-10.51,0A55.08,55.08,0,0,1,68,105.85C64.08,104.72,63.8,103.79,63.8,103.79Zm2.91,3.1a61.31,61.31,0,0,0,23.13,2c3.18.92,4.12,1.74,4.24,2-.52.91-6.25,2-16.17,1.19s-15.37-3-15.72-4C62.36,107.89,63.43,107.24,66.71,106.89Zm6.46,59.6c-10-.87-15.45-3-15.72-4L62,109.76a13.64,13.64,0,0,0,4.06,1.71,63.16,63.16,0,0,0,11.69,2,64.62,64.62,0,0,0,11.86.07,13.57,13.57,0,0,0,4.29-1l-4.59,52.74C88.92,166.19,83.18,167.36,73.17,166.49Z"/><path class="cls-4" d="M80.51,82.24a16.28,16.28,0,0,1-6.33-1.67A50.77,50.77,0,0,0,87,81.69,16.23,16.23,0,0,1,80.51,82.24ZM79.19,97.45c4.44.39,7.09-.6,7.35-1.27l.28-3.25a56.51,56.51,0,0,1-14.37-1.26l-.29,3.26C72.3,95.63,74.75,97.07,79.19,97.45Zm7.73-11.32A55.9,55.9,0,0,1,73.52,85c.89.76,3.14,1.73,6.58,2S85.9,86.72,86.92,86.13Zm-7,3a15,15,0,0,0,7-.69,48.24,48.24,0,0,1-7-.12,47.5,47.5,0,0,1-6.89-1.09A15.06,15.06,0,0,0,79.91,89.15ZM77.28,74.72a8.92,8.92,0,0,0,3.8,1,9.76,9.76,0,0,0,3.7-.27c.17,0,.41-.11.39-.9s-.3-23.36-.34-25.83a7.45,7.45,0,0,1-2.77-.24c-.47,2.41-4.82,24.84-4.93,25.36S77.18,74.66,77.28,74.72Zm3.61,3.22c3.84.33,6.07-.39,6.53-.9l-.08-.11a23.68,23.68,0,0,1-6.38.16,23.72,23.72,0,0,1-6.29-1.27.59.59,0,0,0-.08.08C74.91,76.47,77,77.6,80.89,77.94Zm-7.16,1.11h0Zm14,1.22h0ZM74.56,78.36c.64.6,2.66,1.53,6.13,1.83s5.62-.26,6.35-.75a52.72,52.72,0,0,1-6.27-.15A53.34,53.34,0,0,1,74.56,78.36Zm13,5.39a55.21,55.21,0,0,1-14.19-1.24c.94.76,3.33,1.77,7,2.09S86.45,84.34,87.52,83.75Zm-9.61,28.36c7.46.65,11.79-.62,12.2-1.53-.06-.21-.45-.69-1.58-1.27A102.54,102.54,0,0,1,78.18,109a103.49,103.49,0,0,1-10.25-1.48c-1.21.37-1.67.78-1.77,1C66.4,109.46,70.45,111.46,77.91,112.11Zm-12-.37-4.45,51.11c.18,1,4.24,3,11.75,3.64s11.86-.64,12.21-1.55l4.45-51.12a96.11,96.11,0,0,1-12-.36A96.63,96.63,0,0,1,65.87,111.74ZM82.76,47.19a2.2,2.2,0,0,0,.79.21,2.28,2.28,0,0,0,.87-.09c.08,0,.09-.17,0-.22a2.58,2.58,0,0,0-.84-.23,2.47,2.47,0,0,0-.81.07C82.6,47,82.59,47.11,82.76,47.19ZM71.18,98.77a31.51,31.51,0,0,0,7.75,1.57,32.18,32.18,0,0,0,7.92-.2c2.77-.49,3.29-1.27,3.36-1.41a1,1,0,0,0-.25-.38c-2.73.83-7.62.74-10.89.46s-8.12-1-10.66-2.34a1.07,1.07,0,0,0-.31.33C68.14,96.93,68.49,97.79,71.18,98.77Zm8.53-7.36c3.54.31,6-.18,7.12-.73a63.26,63.26,0,0,1-7-.17,62.53,62.53,0,0,1-7-1.05C73.83,90.19,76.17,91.1,79.71,91.41Zm-9.17,14.67a31.62,31.62,0,0,0,7.76,1.56,31.17,31.17,0,0,0,7.91-.2c3-.54,3.37-1.42,3.38-1.42l.35-4a95.43,95.43,0,0,1-11.12-.29,94.45,94.45,0,0,1-11-1.64l-.36,4S67.65,105,70.54,106.08Z"/><path class="cls-5" d="M85.65,83.8c-1.86,0-3.72-.08-5.26-.21s-3.39-.37-5.22-.7A9.77,9.77,0,0,0,80.3,84.6,9.74,9.74,0,0,0,85.65,83.8Zm-.46,2.37c-1.77,0-3.54-.09-5-.22s-3.22-.34-5-.65A8.81,8.81,0,0,0,80.1,87,8.79,8.79,0,0,0,85.19,86.17Zm-4.3-8.23a7.84,7.84,0,0,0,4.83-.77A31.72,31.72,0,0,1,81,77.09a32.1,32.1,0,0,1-4.7-.74A7.87,7.87,0,0,0,80.89,77.94Zm4.32,3.79c-2.19,0-4.16-.15-4.64-.19s-2.44-.23-4.6-.61a10.78,10.78,0,0,0,4.54,1.31A10.93,10.93,0,0,0,85.21,81.73Zm-1.78-33a7.24,7.24,0,0,1-1.07-.17C81.9,51.26,78.13,73.42,78,73.94s0,.79.1.85a5.58,5.58,0,0,0,2.94.95A6,6,0,0,0,84,75.4c.13-.06.32-.12.32-.91s.21-23,.23-25.73A6.63,6.63,0,0,1,83.43,48.75ZM85,88.53c-1.78,0-3.57-.06-5-.19a49.2,49.2,0,0,1-5-.68,10.44,10.44,0,0,0,4.92,1.49A10.38,10.38,0,0,0,85,88.53Zm-4.25-9.24c-.48,0-2.46-.23-4.63-.62a8.07,8.07,0,0,0,4.55,1.52,8.07,8.07,0,0,0,4.74-.71C83.23,79.49,81.25,79.33,80.77,79.29Zm-8.49,26.94a21.63,21.63,0,0,0,12.19,1.06c2.38-.59,2.65-1.48,2.66-1.49l.32-3.76c-4.26,0-8.28-.32-8.63-.35s-4.38-.39-8.57-1.15l-.33,3.78S70.05,105.24,72.28,106.23Zm15.17,4.11a2.22,2.22,0,0,0-.87-1c-4.17,0-8-.31-8.4-.34s-4.22-.38-8.33-1.11a2.19,2.19,0,0,0-1,.83c.17,1,3.29,2.88,9.09,3.39S87.11,111.26,87.45,110.34ZM82.93,47.21a1.68,1.68,0,0,0,.62.19,1.55,1.55,0,0,0,.68-.1c.06,0,.08-.18,0-.22a1.55,1.55,0,0,0-.65-.22A1.36,1.36,0,0,0,83,47,.14.14,0,0,0,82.93,47.21Zm-.21,117.5,4.42-50.83c-2.85,0-6-.13-9.35-.42s-6.47-.7-9.28-1.2l-4.43,50.82c.13,1,3.25,2.9,9.09,3.41S82.43,165.63,82.72,164.71Zm2.25-74c-2.65,0-5-.19-5.18-.21s-2.53-.23-5.13-.69a10.16,10.16,0,0,0,5,1.59A10.34,10.34,0,0,0,85,90.72Zm-5.78,6.73c3.45.3,5.54-.73,5.75-1.41L85.21,93c-2.83,0-5.38-.19-5.62-.21S76.81,92.51,74,92l-.27,3.07C73.86,95.77,75.73,97.15,79.19,97.45Zm-6.27,1.48A21.59,21.59,0,0,0,85.1,100a4.89,4.89,0,0,0,2.45-1.18,49,49,0,0,1-16.83-1.46A4.89,4.89,0,0,0,72.92,98.93Z"/><path class="cls-1" d="M95.48,108.35c1-.4,1.72-.93,1.78-1.65l.64-7.31c.11-1.24-1.71-2.41-5.39-3.46-.5-.14-.42-.24-.39-.56.07-.85.23-2.67.26-3.07a1.12,1.12,0,0,1,.37-.8,1.27,1.27,0,0,0,.41-.81l.2-2.25a1.54,1.54,0,0,0-.58-1.25c-.21-.2-.14-.35,0-.57a1.38,1.38,0,0,0,.17-.53s0-.58.07-.88a1,1,0,0,1,.32-.59,1.37,1.37,0,0,0,.45-.86l.2-2.37a2,2,0,0,0-1.16-1.73.84.84,0,0,1-.41-.84l.11-1.34c.06-.61-.24-1.48-3.12-2.38-.41-.13-.59-.28-.62-.71-.23-3.56-1.59-23.84-1.94-27a1.37,1.37,0,0,0-.31-.79,4.52,4.52,0,0,0-2.81-1c-1.28-.11-2.6.09-3.15.73a2.12,2.12,0,0,0-.26.58c-.74,2.74-5.86,22.75-6.76,26.28-.13.52-.35.55-.75.59-1.7.21-3.18.64-3.28,1.78l-.12,1.4a.81.81,0,0,1-.66.76c-.84.37-1.28.85-1.33,1.45l-.21,2.36a1.39,1.39,0,0,0,.22.83,1.23,1.23,0,0,1,.27.86c0,.47-.06.76-.06.76a1.13,1.13,0,0,0,0,.48c.1.35.19.42-.21.7a1.46,1.46,0,0,0-.67,1.05l-.2,2.26a1.31,1.31,0,0,0,.2.78,1.87,1.87,0,0,1,.29.94c-.08.88-.22,2.54-.26,3a.64.64,0,0,1-.66.64c-5,.5-5.67,1.61-5.74,2.42l-.64,7.31c-.06.68.45,1.29,1.33,1.84.21.13.21.47,0,.52-2.64.55-3.09,1.35-3.15,2l-4.73,54.39c-.07.82.47,2.08,6,3.51a89.13,89.13,0,0,0,13.82,2.18,89.75,89.75,0,0,0,14,.24c5.71-.44,6.47-1.59,6.54-2.42l4.73-54.38c.06-.63-.25-1.52-2.88-2.54C95.2,108.66,95.28,108.42,95.48,108.35ZM68,88.47l0-.66c3.15,1.92,11.36,2.66,11.79,2.7s8.64.73,12.08-.62l-.06.66c-.42.65-4.78,1.5-12.1.86S68.25,89.19,68,88.47Zm1.12-2.66c2.46,1.43,7.52,2.24,10.91,2.53s8.51.37,11.18-.6a2.21,2.21,0,0,1,.82.58c-.53.66-4.87,1.46-12.07.83S68.58,87,68.16,86.25A2.15,2.15,0,0,1,69.07,85.81Zm-.52-4.25.06-.74c2.45,1.55,8.07,2.44,11.78,2.77s9.41.41,12.09-.69l-.06.72c-.31.68-4.75,1.62-12.12,1S68.73,82.27,68.55,81.56Zm2.19-4.5c2.72,1.54,9.12,2.15,10,2.23s7.31.59,10.26-.46l-.06.72c-.48.49-4,1.19-10.28.64s-9.63-1.84-10-2.41Zm16.13-1.41a23,23,0,0,1-5.79.09,21.25,21.25,0,0,1-6-1.21c-.16-.07-.43-.32-.28-.87s6.52-25.44,6.52-25.44a6.35,6.35,0,0,0,2.11.53,6,6,0,0,0,2.19-.17S87.37,74,87.44,74.77,87.13,75.61,86.87,75.65ZM83.59,46.86a5.37,5.37,0,0,1,1.33.28.11.11,0,0,1,0,.22,6.38,6.38,0,0,1-1.36,0,5.6,5.6,0,0,1-1.25-.25c-.27-.09-.25-.22,0-.26A5.71,5.71,0,0,1,83.59,46.86ZM73.46,75c1.09,1.43,5.88,2,7.5,2.1s6.44.45,7.75-.78a6.65,6.65,0,0,1,2.38,1c-.7.49-4.16,1.1-10.2.58s-9.44-1.77-10-2.36A5.43,5.43,0,0,1,73.46,75ZM69.72,78.7c1.89,2,9.83,2.75,10.85,2.84s9,.72,11.18-.92a2.13,2.13,0,0,1,.86.66c-.41.68-4.82,1.59-12.1,1s-11.47-2.3-11.75-3A2.12,2.12,0,0,1,69.72,78.7ZM80.19,86c3.43.3,8.55.4,11.42-.46l0,.47c-.26.69-4.44,1.64-11.47,1s-11-2.28-11.13-3l0-.49C71.69,84.87,76.75,85.65,80.19,86Zm-.6,6.81c.41,0,7.7.65,11.43-.4l-.37,4.18c-.37.66-4.48,1.52-11.46.91S68.3,95.29,68.05,94.57l.36-4.17C71.9,92.07,79.19,92.73,79.59,92.76ZM66.78,95c.83,2.21,7.93,3.42,12.29,3.8s11.65.41,12.79-1.65c3.21.89,4.51,1.78,4.68,2.12-.11.13-.88.89-5.21,1.25a77.25,77.25,0,0,1-12.4-.19,77.15,77.15,0,0,1-12.24-2c-4.26-1.11-4.85-2-4.91-2.13S62.58,95.38,66.78,95Zm-5.65,8.54.5-5.65c4,2.61,16.55,3.74,17.19,3.79s13.19,1.12,17.58-.77l-.48,5.65s-.49.87-5.23,1.26a76,76,0,0,1-12.39-.19,76.86,76.86,0,0,1-12.24-2C61.48,104.49,61.14,103.55,61.13,103.55Zm3.49,3.16A85.67,85.67,0,0,0,78.18,109a85,85,0,0,0,13.76.08c3.75,1,4.87,1.81,5,2.09-.59.9-7.33,2-19,.94s-18.17-3.23-18.6-4.22C59.5,107.64,60.75,107,64.62,106.71Zm8.55,59.78c-11.81-1-18.27-3.26-18.61-4.24l4.6-52.74A17.93,17.93,0,0,0,64,111.29a88.84,88.84,0,0,0,13.82,2.17,88.66,88.66,0,0,0,14,.25,17.85,17.85,0,0,0,5-.92l-4.59,52.75C91.74,166.44,85,167.52,73.17,166.49Z"/><path class="cls-1" d="M158,33.62c-1.89-3.11-7-6.87-10.59-6.87a3.81,3.81,0,0,0-2.7,1C142.37,30,134.22,37.5,128.24,41.5c-5.23,3.48-7.66,3.8-8.13,3.84a4,4,0,0,0-2.63,1.09l-11,13.36,0,.06c-3.93,5.2,11,16.61,11.66,17.1,5.06,3.82,12.36,7.94,16.45,7.94a3.74,3.74,0,0,0,3.21-1.42c2.28-3.18,9.71-13.6,10-14.11a3.92,3.92,0,0,0,.4-2.89c-.11-.62-.33-3.09,1.51-8.75,2.23-6.9,7.33-16.86,8.84-19.75C159,37.1,159.24,35.64,158,33.62Z"/><path class="cls-2" d="M149.34,30.72a18.16,18.16,0,0,0,2.21,2,19.23,19.23,0,0,0,2.35,1.5c.38.2.58,0,.29-.33a19.52,19.52,0,0,0-2.1-1.88,19.26,19.26,0,0,0-2.49-1.57C149.27,30.27,149.09,30.46,149.34,30.72Z"/><path class="cls-5" d="M150.42,31.32a12.39,12.39,0,0,0,1.29,1.16,10.61,10.61,0,0,0,1.36.86c.22.12.33,0,.17-.19A13.24,13.24,0,0,0,152,32.06a10.55,10.55,0,0,0-1.44-.9C150.39,31.06,150.28,31.17,150.42,31.32Z"/><path class="cls-2" d="M125.11,56c.63.55,1.29,1.12,2,1.69l-10.6,13.74c-.66-.58-1.3-1.18-1.9-1.77ZM112.27,67.17c.42.48.86,1,1.33,1.45L124.08,55c-.48-.44-.93-.88-1.36-1.3Zm-3.21-5.31c0,.1,0,.55.43,1.44l10.3-12.78a9,9,0,0,1-.63-.93Zm1.19,2.71c.29.44.66.94,1.11,1.51l10.37-13.34-1-1.13Zm17.9-6L117.52,72.3c.73.62,1.47,1.22,2.23,1.8l10.41-14C129.48,59.58,128.81,59.06,128.15,58.52Zm16.68,8c-.18-1.57,0-4.57,1.69-9.89,2.33-7.21,7.57-17.43,9.11-20.37-1.76-.16-4.85-2.48-4.89-2.51s-2.77-2.12-3.62-3.74c-2.54,2.4-10.8,10.05-17,14.2-4.78,3.19-7.66,4.1-9.19,4.32-.4.06-.7.21-.46.58,1.18,1.81,5.17,5.85,10.94,10.21s10.8,7.15,12.83,7.76C144.66,67.26,144.88,67,144.83,66.56Zm-.54,2a6,6,0,0,1-.89-.26l-9.47,13.32c.71.1,1,0,1.11,0Zm-13-7.57-10.4,14c.71.52,1.42,1,2.13,1.48l10.37-14C132.66,62,132,61.46,131.26,60.94ZM140.69,67l-10,13.58q1,.41,1.77.63l9.61-13.52C141.67,67.52,141.2,67.29,140.69,67Zm-6.19-3.78L124.15,77.17c.75.47,1.5.91,2.24,1.33l10.28-13.83C136,64.22,135.23,63.74,134.5,63.24Zm3.35,2.16L127.62,79.16c.6.32,1.2.61,1.78.87l10.07-13.67C139,66.06,138.4,65.74,137.85,65.4Z"/><path class="cls-3" d="M125.37,56.16c.6.53,1.23,1.07,1.88,1.61l-10.6,13.75c-.63-.56-1.23-1.13-1.8-1.7Zm-12.71,11.3c.39.47.81.93,1.26,1.4L124.4,55.27c-.46-.43-.89-.84-1.3-1.25Zm-3-5.14c0,.1,0,.54.38,1.41l10.28-12.81a8.46,8.46,0,0,1-.59-.89ZM110.76,65c.27.43.62.92,1,1.46l10.37-13.34c-.38-.39-.71-.76-1-1.09Zm17.5-6.34L117.64,72.4q1,.87,2.13,1.71l10.4-14C129.53,59.62,128.89,59.12,128.26,58.61Zm16,7.52c-.14-1.54.07-4.49,1.86-9.75,2.43-7.14,7.74-17.31,9.29-20.23-1.7-.12-4.64-2.33-4.68-2.36a15.11,15.11,0,0,1-3.43-3.59c-2.52,2.41-10.71,10.12-16.83,14.33-4.72,3.25-7.53,4.21-9,4.46-.38.07-.68.22-.46.58,1.1,1.75,4.89,5.63,10.39,9.79s10.31,6.79,12.28,7.34C144.09,66.83,144.31,66.53,144.27,66.13Zm-.57,1.94a7.28,7.28,0,0,1-.86-.24l-9.48,13.31c.69.08,1,0,1.08-.08Zm-12.47-7.16-10.41,14q1,.73,2,1.41l10.37-14C132.56,61.89,131.89,61.41,131.23,60.91Zm9,5.78-10,13.56c.66.26,1.23.45,1.71.59l9.63-13.51C141.18,67.15,140.74,66.94,140.25,66.69Zm-5.93-3.58L124,77c.72.44,1.43.87,2.14,1.26l10.28-13.83C135.72,64,135,63.58,134.32,63.11Zm3.2,2L127.29,78.91c.58.3,1.14.57,1.7.82l10.08-13.68C138.57,65.78,138.05,65.48,137.52,65.15Z"/><path class="cls-4" d="M126.22,56.79c.5.46,1,.93,1.56,1.39L117.2,71.94c-.52-.48-1-1-1.49-1.47Zm-12.3,11.63c.32.4.66.81,1,1.22L125.41,56c-.38-.36-.74-.72-1.08-1.07Zm-2.3-4.63c-.06.11-.08.52.24,1.3l10.21-12.84a9.22,9.22,0,0,1-.46-.81Zm.78,2.41a14.13,14.13,0,0,0,.83,1.29l10.34-13.36c-.31-.34-.58-.66-.82-1Zm16.23-7.31L118,72.69c.58.5,1.17,1,1.78,1.46l10.43-14C129.69,59.75,129.16,59.32,128.63,58.89Zm13.84,5.88c0-1.44.4-4.24,2.41-9.34,2.72-6.91,8.27-16.9,9.9-19.77-1.53,0-4-1.85-4-1.87a10.48,10.48,0,0,1-2.81-3.13c-2.45,2.47-10.41,10.35-16.24,14.79-4.49,3.42-7.09,4.54-8.45,4.89-.35.09-.63.25-.46.57.86,1.58,4,4.94,8.61,8.45s8.77,5.61,10.49,6C142.25,65.43,142.47,65.14,142.47,64.77Zm-.66,1.87a5.8,5.8,0,0,1-.76-.16l-9.54,13.26a1.6,1.6,0,0,0,1-.16Zm-10.68-5.8-10.43,14c.57.41,1.15.8,1.73,1.18l10.39-13.94C132.25,61.66,131.69,61.25,131.13,60.84Zm7.67,4.75-10,13.55a15,15,0,0,0,1.49.42L140,66.1C139.61,66,139.23,65.79,138.8,65.59Zm-5.06-2.92-10.37,13.9c.61.37,1.23.72,1.83,1l10.3-13.81C134.93,63.44,134.34,63.06,133.74,62.67Zm2.73,1.69L126.22,78.1c.49.23,1,.45,1.47.64L137.8,65.09C137.37,64.86,136.92,64.62,136.47,64.36Z"/><path class="cls-5" d="M127.41,57.7c.36.35.73.7,1.13,1L118,72.54c-.38-.38-.73-.76-1.06-1.14ZM115.7,69.76c.22.33.45.66.7,1l10.43-13.63c-.26-.28-.52-.56-.75-.83Zm-1.32-3.88a1.86,1.86,0,0,0,0,1.14l10.13-12.91a5.62,5.62,0,0,1-.28-.66Zm.34,2.07a10.22,10.22,0,0,0,.52,1.07l10.3-13.39c-.21-.27-.39-.53-.55-.76Zm14.43-8.66L118.58,73.1c.41.38.85.75,1.3,1.09l10.45-14C129.93,59.93,129.54,59.61,129.15,59.29Zm10.77,3.55c.18-1.3.87-3.88,3.19-8.75,3.15-6.59,9-16.32,10.75-19.12-1.27.2-3.09-1.17-3.12-1.18a6,6,0,0,1-1.94-2.47c-2.36,2.54-10,10.68-15.39,15.43-4.17,3.66-6.48,5-7.65,5.49-.31.13-.56.31-.46.58.52,1.31,2.68,4,6.09,6.54s6.58,4,8,4.08C139.66,63.47,139.87,63.17,139.92,62.84Zm-.79,1.77a3.48,3.48,0,0,1-.61,0l-9.62,13.2a1.55,1.55,0,0,0,.83-.26ZM131,60.73l-10.45,14c.42.3.85.58,1.29.85L132.24,61.6Q131.61,61.18,131,60.73Zm5.79,3.32L126.7,77.57a9.18,9.18,0,0,0,1.18.19l9.78-13.4C137.39,64.28,137.09,64.18,136.77,64.05Zm-3.84-2-10.4,13.89c.46.25.93.48,1.39.69l10.33-13.79C133.81,62.59,133.37,62.33,132.93,62.05Zm2,1.18L124.7,77c.39.15.77.28,1.15.39L136,63.72C135.66,63.57,135.32,63.41,135,63.23Z"/><path class="cls-1" d="M146.12,68.32a2.09,2.09,0,0,0,.12-1.52c-.19-1.1-.29-3.91,1.58-9.68,2.28-7,7.38-17,9-20s-8.23-10.27-10.73-7.91-10.69,9.92-16.75,14c-5.29,3.54-8,4.1-9,4.16a2.17,2.17,0,0,0-1.48.59L108,61c-1.65,2.19,4.62,9.33,11.28,14.38s15.25,9.14,16.91,6.94C136.15,82.34,145.8,68.82,146.12,68.32Zm6-36.31a19.52,19.52,0,0,1,2.1,1.88c.29.3.09.53-.29.33a19.23,19.23,0,0,1-2.35-1.5,18.16,18.16,0,0,1-2.21-2c-.25-.26-.07-.45.26-.28A19.26,19.26,0,0,1,152.09,32Zm-22,12.24c6.22-4.15,14.48-11.8,17-14.2.85,1.62,3.59,3.71,3.62,3.74s3.13,2.35,4.89,2.51c-1.54,2.94-6.78,13.16-9.11,20.37-1.73,5.32-1.87,8.32-1.69,9.89,0,.4-.17.7-.61.56-2-.61-7-3.37-12.83-7.76s-9.76-8.4-10.94-10.21c-.24-.37.06-.52.46-.58C122.44,48.35,125.32,47.44,130.1,44.25Zm-8.37,8.49L111.36,66.08c-.45-.57-.82-1.07-1.11-1.51l10.43-13Zm1,1c.43.42.88.86,1.36,1.3L113.6,68.62c-.47-.49-.91-1-1.33-1.45ZM125.11,56c.63.55,1.29,1.12,2,1.69l-10.6,13.74c-.66-.58-1.3-1.18-1.9-1.77Zm3,2.56c.66.54,1.33,1.06,2,1.58l-10.41,14c-.76-.58-1.5-1.18-2.23-1.8Zm3.11,2.42c.7.52,1.4,1,2.1,1.51L123,76.41c-.71-.47-1.42-1-2.13-1.48Zm3.24,2.3c.73.5,1.46,1,2.17,1.43L126.39,78.5c-.74-.42-1.49-.86-2.24-1.33Zm3.35,2.16c.55.34,1.1.66,1.62,1L129.4,80c-.58-.26-1.18-.55-1.78-.87ZM140.69,67c.51.27,1,.5,1.39.69l-9.61,13.52q-.75-.23-1.77-.63Zm-31.63-5.16,10.1-12.27a9,9,0,0,0,.63.93L109.49,63.3C109,62.41,109,62,109.06,61.86Zm24.87,19.71,9.47-13.32a6,6,0,0,0,.89.26l-9.25,13C135,81.59,134.64,81.67,133.93,81.57Z"/><path class="cls-6" d="M102.82,200.54A99.28,99.28,0,0,1,32.62,31.07,99.28,99.28,0,1,1,173,171.47,98.62,98.62,0,0,1,102.82,200.54Zm0-189.11a89.84,89.84,0,1,0,89.84,89.84A89.94,89.94,0,0,0,102.82,11.43Z"/><path class="cls-7" d="M154.62,70.85a1.26,1.26,0,0,1-1.23-1l-2.08-9.56,10-2.18a1.26,1.26,0,1,1,.54,2.47l-7.55,1.64,1.55,7.09a1.27,1.27,0,0,1-1,1.5A1.24,1.24,0,0,1,154.62,70.85Z"/><path class="cls-7" d="M163.5,93c-5.08,0-12.18-2.7-20-7.83A1.3,1.3,0,1,1,144.9,83c10.42,6.83,20.06,9.31,22.92,5.91,1.72-2,1-6.25-2.1-11.51A62.66,62.66,0,0,0,154.4,63.72a1.3,1.3,0,0,1,1.77-1.9A65.6,65.6,0,0,1,168,76.1c3.69,6.35,4.34,11.49,1.84,14.47C168.43,92.2,166.26,93,163.5,93Z"/><path class="cls-7" d="M97.53,55.34a1.26,1.26,0,0,1,0-2.52l7.26-.11L104.65,45a1.26,1.26,0,1,1,2.52,0l.16,10.24-9.78.15Z"/><path class="cls-7" d="M104.49,53.62a1.28,1.28,0,0,1-.89-.36c-10.46-10-14.87-19.56-11.25-24.41,2.34-3.11,7.49-3.64,14.52-1.49a65.23,65.23,0,0,1,16.58,8.23A1.3,1.3,0,0,1,122,37.75a62.46,62.46,0,0,0-15.9-7.91c-5.82-1.78-10.08-1.57-11.68.57-2.67,3.55,1.94,12.37,11,21a1.3,1.3,0,0,1,0,1.83A1.27,1.27,0,0,1,104.49,53.62Z"/><path class="cls-1" d="M145.24,141.47l-15.18,16.8c-2.76,3.06-10.59-4.19-7.82-7.07l15.17-16.8,2.23-1.28c-.55-.49-3.83.66-4.32,1.2L99.88,173.57a1.23,1.23,0,0,0,0,1.75l8.48,7.66a1.25,1.25,0,0,0,1.75-.2l35.44-39.25c.48-.53,1.2-3.87.73-4.45Z"/><rect class="cls-5" x="100.93" y="163.06" width="26.1" height="10.31" rx="1.54" transform="translate(-87.26 140.07) rotate(-47.92)"/><path class="cls-8" d="M148.8,128l-11.39,6.43-15.17,16.8c-2.77,2.88,5.06,10.13,7.82,7.07l15.18-16.8,5-12.2Z"/><rect class="cls-8" x="149.33" y="127.01" width="0.93" height="2.48" rx="0.29" transform="translate(-45.78 153.48) rotate(-47.92)"/><path class="cls-4" d="M130.57,142l-8.33,9.22c-2.77,2.88,5.06,10.13,7.82,7.07l8.33-9.22C137.83,149.67,129.8,142.82,130.57,142Z"/><path class="cls-1" d="M159.17,111.37c-.34-.3-.69-.43-1,0L149.48,121l.72,3.17,3.77,3.4,3.32.49,8.69-9.63a.74.74,0,0,0,0-1Z"/><path class="cls-4" d="M149.79,122.4l3.64-1.82a5.53,5.53,0,0,1,3.78,3.41l-1.32,3.87-1.92-.29-3.77-3.41Z"/><path class="cls-3" d="M130.57,142c.63-.7,8.47,6.37,7.82,7.07S129.88,142.74,130.57,142Z"/><path class="cls-7" d="M160.77,133.74a.47.47,0,0,1-.44-.36l-.74-3.41,3.57-.77a.45.45,0,1,1,.19.87l-2.69.59.55,2.53a.45.45,0,0,1-.34.54Z"/><path class="cls-7" d="M163.94,141.64c-1.81,0-4.35-1-7.14-2.8a.46.46,0,0,1-.14-.64.47.47,0,0,1,.64-.13c3.72,2.43,7.16,3.32,8.18,2.11.61-.73.34-2.23-.75-4.11a22.38,22.38,0,0,0-4-4.88.47.47,0,0,1,0-.65.45.45,0,0,1,.65,0,23,23,0,0,1,4.21,5.09c1.32,2.26,1.55,4.1.66,5.16A2.81,2.81,0,0,1,163.94,141.64Z"/><path class="cls-7" d="M138,123a.44.44,0,0,1-.45-.44.45.45,0,0,1,.44-.46l2.59,0,0-2.75a.45.45,0,1,1,.9,0l.06,3.65L138,123Z"/><path class="cls-7" d="M140.49,122.36a.44.44,0,0,1-.32-.13c-3.74-3.56-5.31-7-4-8.71.84-1.11,2.67-1.3,5.18-.53a23.4,23.4,0,0,1,5.92,2.94.45.45,0,0,1,.12.64.46.46,0,0,1-.64.13,22.18,22.18,0,0,0-5.67-2.83c-2.07-.63-3.59-.56-4.17.21-.95,1.27.7,4.41,3.91,7.48a.45.45,0,0,1,0,.65A.44.44,0,0,1,140.49,122.36Z"/></svg>