<svg id="Layer_1" data-name="Layer 1" xmlns="http://www.w3.org/2000/svg" xmlns:xlink="http://www.w3.org/1999/xlink" viewBox="0 0 204.71 202.82"><defs><style>.cls-1{fill:none;}.cls-2{fill:#7bbdd6;}.cls-3{clip-path:url(#clip-path);}.cls-4{fill:#939598;}.cls-5{fill:#fff;}.cls-6{fill:#39bb9d;}</style><clipPath id="clip-path"><path class="cls-1" d="M102.19,20.07a82.19,82.19,0,1,0,82.19,82.18A82.27,82.27,0,0,0,102.19,20.07Z"/></clipPath></defs><title>Artboard 58@4x4</title><path class="cls-2" d="M102.19,201.53A99.27,99.27,0,0,1,32,32.06,99.27,99.27,0,1,1,172.39,172.45,98.63,98.63,0,0,1,102.19,201.53Zm0-189.12A89.85,89.85,0,1,0,192,102.25,89.95,89.95,0,0,0,102.19,12.41Z"/><g class="cls-3"><path class="cls-4" d="M236.83,164.21c-3.17,9.08-9.86,15.13-14.92,18.61a53.55,53.55,0,0,1-5.65,3.4,5.74,5.74,0,0,0-2.2,2.41c-3.8,7.15-13.28,9.08-16.85,9.81a25,25,0,0,1-4.94.45,45.49,45.49,0,0,1-9.91-1.22,37.46,37.46,0,0,1-6.47-2.25A43.15,43.15,0,0,1,171,193a23,23,0,0,1-8-7.72c-.27-.45-.53-.92-.77-1.41a118.29,118.29,0,0,1-14.36,3.73,119.94,119.94,0,0,1-13.37,1.93l-.84.06c-.33,0-.67,0-1,.08a.41.41,0,0,0-.16,0,4.13,4.13,0,0,0-1.15,1.85,10.13,10.13,0,0,0-.65,3.76,10.57,10.57,0,0,0,.21,1.94c.09.49.14.68.25.79l.07.06a1.68,1.68,0,0,1,.57,2.15,2.24,2.24,0,0,1-2.23,1.09l-.47,0h-.1a6.51,6.51,0,0,1-.83-.1h0c0,.18-.05.38-.07.58s0,.37,0,.56c-.13,1-.26,2-.39,3.33-.46,4.39-.59,8.92-.72,13.3-.09,3.07-.19,6.25-.39,9.37-.47,7.13-1.38,15.45-4.65,23-3.14,7.29-8.12,12.77-14.4,15.85a35,35,0,0,1-15.49,3.35,47.26,47.26,0,0,1-5.13-.29,47.8,47.8,0,0,1-20.3-7A41.55,41.55,0,0,1,52,247.36a56.82,56.82,0,0,1-5.8-21.27,113.18,113.18,0,0,1-.2-13.17c.12-3.88.31-7.82.49-11.62l.18-3.75c.26-5.67.43-10.42.41-15.21,0-2.81-.15-5.59-.29-8.19l-.06-1.38c-.2-4.1-.31-6.36-1.34-8.61-1.62-3.56-3.44-7.1-5.19-10.53l-1.47-2.85a127.06,127.06,0,0,1-5.42-11.55c-.11-.28-.31-.86-.58-1.66-.74-2.13-2-5.68-3.24-8.66-1.08-2.55-2.24-4.91-3.16-6.81s-1.66-3.41-2.05-4.49c-.81-2.28-2.14-6.67-2-10.39.33-7,5.88-9.46,7.7-10.26.32-.14.87-.32,1.7-.6,2.21-.73,7.4-2.44,8.57-3.9a32.44,32.44,0,0,0,2.64-4.08c.32-.55.65-1.1,1-1.65a14.56,14.56,0,0,1,1.55-2.18l.17-.18a2,2,0,0,0,.74-1.78,10.7,10.7,0,0,1,.24-1.66,9.66,9.66,0,0,1,3.92-5.76,6.13,6.13,0,0,1,3.26-.91h.13a5.14,5.14,0,0,0,2.52-.8c.13-.09,3.24-2.1,2.43-4.07a10.55,10.55,0,0,1-.73-2.67c-.47-3.62.64-8,4.18-9.49a8.08,8.08,0,0,1,4.48-.64,5.66,5.66,0,0,1,1.22.23c.22,0,.43.09.65.15a7.24,7.24,0,0,0,1.11,0A21.45,21.45,0,0,0,73,56.79a25.07,25.07,0,0,1,6.25-.64l.63,0c.62,0,1.25,0,1.89,0,.92,0,1.71,0,2.41-.11a4.93,4.93,0,0,1,0-1.72c.18-1.21.79-1.51,1.32-1.54a4.94,4.94,0,0,1,.19-1c.27-1,.8-1.25,1.25-1.31h0A1.34,1.34,0,0,1,88,49.94a4.28,4.28,0,0,1,.61-.71,1.71,1.71,0,0,1,1.15-.53h.79l0,0c.65-.56.82-.73.85-1s.05-.39.07-.58c0-.42.08-.85.16-1.29a6.32,6.32,0,0,1,3.72-4.92A14.17,14.17,0,0,1,99.24,40a7.18,7.18,0,0,0,1.33-.23c1.29-.76,2.68-1.49,4.51-2.35A59.71,59.71,0,0,1,114,33.87a48.45,48.45,0,0,1,13.26-2A51.19,51.19,0,0,0,134,31c3.11-.75,7.88-.74,13.48.05a48.07,48.07,0,0,1,12,3.65c8.78,3.7,15.81,8.07,21.48,13.38a94.26,94.26,0,0,1,9.18,10.24A128.26,128.26,0,0,1,198.46,70c1.62,2.59,7.26,11.47,8.54,13.21a40.44,40.44,0,0,1,4.26,7.43,56.12,56.12,0,0,1,4.38,15.9,63.88,63.88,0,0,1-.17,15.27c.45.22.89.45,1.3.67a45.79,45.79,0,0,1,17.06,16.38,33.27,33.27,0,0,1,4.47,12.3A27.76,27.76,0,0,1,236.83,164.21Z"/><path class="cls-4" d="M235.63,163.79A26.66,26.66,0,0,0,237,151.34a31.84,31.84,0,0,0-4.31-11.83,44.42,44.42,0,0,0-16.58-15.91c-7.42-4.13-22.07-6.17-31.67,4.07a40.54,40.54,0,0,0-5.66,8,37.23,37.23,0,0,1-5.42,7.66,55.87,55.87,0,0,0-4.38,4.59A33.93,33.93,0,0,0,162.76,159a51.71,51.71,0,0,0-1.9,13.49A25,25,0,0,0,164,184.59a21.78,21.78,0,0,0,7.61,7.29,39.87,39.87,0,0,0,4.76,2.38,36.11,36.11,0,0,0,6.25,2.17c4.4,1,9.9,1.66,14.31.77s12.64-2.86,16-9.16a7,7,0,0,1,2.73-2.95,51.74,51.74,0,0,0,5.52-3.32C227.61,177.36,233,171.21,235.63,163.79Zm-4.91,7.11c-4.55,6.56-11.31,11.42-18.58,14.54a38.08,38.08,0,0,1-19.09,3.13,42.07,42.07,0,0,1-9.33-2.19,81.37,81.37,0,0,1-11.57-5.24c-2.57-1.47-.62.29,1.78,2a40.76,40.76,0,0,0,11.83,5.24,37.56,37.56,0,0,0,24.7-.92c1.31-.5,1.48-.12.6.91-3.86,4.59-8.7,7.12-17,8-4.78.49-11.18-.83-15.62-2.68A32.1,32.1,0,0,1,169,188c-5.7-5.21-6.82-13.52-5.92-20.95a30.16,30.16,0,0,1,5.39-14.89,44,44,0,0,1,4-4.85c2.22-2.37,2-1.55,1.61.07-.56,2.28-.64,6.14-.05,3.94a92,92,0,0,1,3.9-10.77c.78-1.65,1.61-3.27,2.52-4.86a35.53,35.53,0,0,1,6.43-8.44c10.47-9.78,24.73-4.57,29.45-1.37,9.31,6.32,15.95,18.51,13.19,29.83-2.64,10.83-13,20-24.44,19.59-1.84-.06-1.43.28.41.43a20.86,20.86,0,0,0,10-1.88,24.86,24.86,0,0,0,8.69-6.26,26.49,26.49,0,0,0,7-19.87A29.08,29.08,0,0,0,223.89,131c-.92-1-.78-1.22.25-.27a38.16,38.16,0,0,1,10.72,16.1,25,25,0,0,1,.78,12.87A31,31,0,0,1,230.72,170.9Z"/><path class="cls-5" d="M230.72,170.9c-4.55,6.56-11.31,11.42-18.58,14.54a38.08,38.08,0,0,1-19.09,3.13,42.07,42.07,0,0,1-9.33-2.19,81.37,81.37,0,0,1-11.57-5.24c-2.57-1.47-.62.29,1.78,2a40.76,40.76,0,0,0,11.83,5.24,37.56,37.56,0,0,0,24.7-.92c1.31-.5,1.48-.12.6.91-3.86,4.59-8.7,7.12-17,8-4.78.49-11.18-.83-15.62-2.68A32.1,32.1,0,0,1,169,188c-5.7-5.21-6.82-13.52-5.92-20.95a30.16,30.16,0,0,1,5.39-14.89,44,44,0,0,1,4-4.85c2.22-2.37,2-1.55,1.61.07-.56,2.28-.64,6.14-.05,3.94a92,92,0,0,1,3.9-10.77c.78-1.65,1.61-3.27,2.52-4.86a35.53,35.53,0,0,1,6.43-8.44c10.47-9.78,24.73-4.57,29.45-1.37,9.31,6.32,15.95,18.51,13.19,29.83-2.64,10.83-13,20-24.44,19.59-1.84-.06-1.43.28.41.43a20.86,20.86,0,0,0,10-1.88,24.86,24.86,0,0,0,8.69-6.26,26.49,26.49,0,0,0,7-19.87A29.08,29.08,0,0,0,223.89,131c-.92-1-.78-1.22.25-.27a38.16,38.16,0,0,1,10.72,16.1,25,25,0,0,1,.78,12.87A31,31,0,0,1,230.72,170.9Z"/><path class="cls-5" d="M104.72,58.07a2.86,2.86,0,0,0,.47.22c.59.21,1.25.27,1.84.42s1.27.33,1.91.51l.1,0a20.38,20.38,0,0,1,7.85,4.38,12.42,12.42,0,0,1,3,3.77A22.76,22.76,0,0,1,121.45,72c.39,1.62,1.49,7.7,2,7.3s.34-6.63-.13-9.92a23.3,23.3,0,0,0-1.18-5,13.48,13.48,0,0,0-2.66-4.09,21.38,21.38,0,0,0-7.64-5.45c-.76-.32-1.53-.62-2.32-.88A20.64,20.64,0,0,0,105.4,53c-.45-.05-1.18.07-1.45-.38-.12-.18-.18-.47-.36-.61s-.29.11-.36.29a5.47,5.47,0,0,0-.54,2.05,4.74,4.74,0,0,0,.52,1.84A4,4,0,0,0,104.72,58.07Zm-1.1-4c.22-.15.59,0,.82.09l1.06.23c1.41.31,2.84.58,4.22,1a13.08,13.08,0,0,1,1.33.46,20.25,20.25,0,0,1,7.41,5.08,12.27,12.27,0,0,1,2.67,4,23.31,23.31,0,0,1,1.1,4.74c.07.5-.12.38-.29-.17a18.46,18.46,0,0,0-1.07-2.79,13.54,13.54,0,0,0-3-3.83,21.12,21.12,0,0,0-8.1-4.71,28.87,28.87,0,0,0-4.08-1,2,2,0,0,1-1-.37,3.69,3.69,0,0,1-.94-1.39C103.51,55.09,103.16,54.34,103.62,54Zm-9,18.07a6,6,0,0,1,3.88.73c.14.08.16.19,0,.15L98,72.87a8.25,8.25,0,0,0-2.76-.08c-.5.07-.5.15,0,.13a8.88,8.88,0,0,1,2.3.21,7.27,7.27,0,0,1,2.78,1.26c.17.19,0,.17-.11.15a7.8,7.8,0,0,0-1.87,0c-.19,0-.19,0,0,0a6.4,6.4,0,0,1,1.85.19,2.16,2.16,0,0,1,1.27,1c.14.17.06.17-.06.15a11.5,11.5,0,0,0-1.33-.07c-.49,0-.5.09,0,.12a9.43,9.43,0,0,1,1.68.23c.17,0,.29.24.61.6.12.15.08.14-.06.13a3.18,3.18,0,0,0-2.33.87c-.29.29-.24.3.08,0a3.53,3.53,0,0,1,2.33-.64c.29,0,.51.22,1,.71.11.13.09.18,0,.22a4,4,0,0,0-1.09.73c-.27.24-.24.29.06.07a4,4,0,0,1,1.18-.6.32.32,0,0,1,.35.12c.16.17.33.33.5.48s.14.21,0,.25a5.32,5.32,0,0,0-1.24.45c-.82.41-.79.53,0,.11a3.59,3.59,0,0,1,1.37-.42c.31,0,.73.38,1.45.87.09.06.07.15,0,.14a4.45,4.45,0,0,0-1.52.1c-.5.12-.47.21,0,.1a4.94,4.94,0,0,1,3.28.74c.26.14.22.2-.15.15a2.6,2.6,0,0,0-1.56.15c-.31.16-.29.21,0,.06,1-.43,3.83.77,4.24.93a4.83,4.83,0,0,0,.76.25,4.21,4.21,0,0,0,.48.12l.25,0a1,1,0,0,1,.24,0,.24.24,0,0,1,.13.07.58.58,0,0,1,.08.18,2.72,2.72,0,0,0,.11.25l0,.1a11.77,11.77,0,0,0,.83,1.29c.36.49,1.53,1.37,1.24.82-.16-.33-.32-.67-.47-1a4.68,4.68,0,0,1-.19-.45l-.09-.22c0-.06-.09-.18,0-.2a.25.25,0,0,1,.12,0l.13.07A.32.32,0,0,1,114,84c.06.16.12.33.19.48s.21.5.27.64a2,2,0,0,0,.24.42,2,2,0,0,0-.14-.46c-.06-.15-.14-.36-.24-.64a2.77,2.77,0,0,1-.1-.26.31.31,0,0,1,0-.19c0-.06.08,0,.12,0l.44.1c.5.08.52.07,0-.12h0a4.31,4.31,0,0,1-.49-.22.84.84,0,0,1-.21-.11.31.31,0,0,1-.07-.18,3.74,3.74,0,0,1-.12-.45l-.06-.24c0-.06,0-.16.07-.15l.11,0,.16,0a3.23,3.23,0,0,0,.51.14l.14,0c.66.09.68,0,0-.15a3.4,3.4,0,0,1-.92-.34.5.5,0,0,1-.17-.11.33.33,0,0,1,0-.13,3.33,3.33,0,0,1-.07-.54c0-.09,0-.19,0-.28s0-.14.08-.15l.09,0,.12,0,.24.07a3,3,0,0,0,.73,0c.24,0,.26,0,0,0a2.52,2.52,0,0,1-.77-.16l-.24-.11a1.48,1.48,0,0,1-.21-.13.17.17,0,0,1,0-.14,1.13,1.13,0,0,1,0-.26s0-.11,0-.16a.22.22,0,0,1,0-.11.06.06,0,0,1,.08,0h.17a3.33,3.33,0,0,0,1.76-.63c.3-.19.29-.2,0-.07a4.06,4.06,0,0,1-1.57.34c-.1,0-.3,0-.34-.11a.4.4,0,0,1,0-.19,2.38,2.38,0,0,0,.05-.26.28.28,0,0,1,.09-.17.15.15,0,0,1,.09,0h.13a4.7,4.7,0,0,0,.51-.12l.1,0c.51-.2.53-.23,0-.14h-.13a2.53,2.53,0,0,1-.55,0c-.07,0-.11,0-.1-.1a.36.36,0,0,1,.06-.2.13.13,0,0,1,.09-.06l.1,0a4,4,0,0,0,.45-.15l.32-.12c.29-.11.26-.12-.14,0l-.1,0a1.62,1.62,0,0,1-.54,0c-.16,0-.09-.24-.07-.34a.26.26,0,0,1,.08-.19s.07,0,.11,0l.13,0,.52-.11.19-.06c.37-.11.36-.14,0-.07l-.33.07-.27,0a.71.71,0,0,1-.25,0c-.06,0-.07-.07-.07-.13a2.56,2.56,0,0,1,0-.27c0-.12,0-.24.16-.27a4,4,0,0,0,.49-.16,4.85,4.85,0,0,0,.9-.48c.27-.18.34-.22,0-.1a5.61,5.61,0,0,1-.79.26l-.27,0a1.07,1.07,0,0,1-.25,0c-.16,0-.12-.19-.09-.3a.54.54,0,0,1,0-.21c0-.06.07-.07.12-.09a4.3,4.3,0,0,0,.48-.24c.26-.14.51-.3.76-.45.56-.33.51-.39-.08-.12l-.52.23a5.27,5.27,0,0,1-.51.19c-.06,0-.13,0-.16,0a.17.17,0,0,1,0-.1c0-.05,0-.09,0-.14a.39.39,0,0,1,.08-.2.54.54,0,0,1,.19-.07l.44-.17a3.88,3.88,0,0,0,.79-.46c.3-.23.32-.3.06-.1l-.07,0a3.58,3.58,0,0,1-.89.46l-.24.08c-.06,0-.15.07-.21.05s-.07-.1-.07-.16l0-.28c0-.18,0-.36,0-.53s.06-.15.13-.16l1-.16c.22,0,.24,0,0,0a8.77,8.77,0,0,0-1,.11c-.12,0-.16,0-.16-.11s0-.53,0-.8,0-.27-.06-.41l0-.24a.19.19,0,0,1,0-.13l.33-.15.77-.34c.16-.07.33-.13.49-.21.33-.15.3-.16,0,0l-.1,0-.56.23-.62.22-.27.09a.07.07,0,0,1-.06,0s0,0,0-.07a1.55,1.55,0,0,0,0-.21c0-.14-.07-.27-.1-.41s0-.13.1-.15l1.23-.18c.25,0,.27,0,0,0-.43,0-1.29.14-1.31.14s-.1,0-.14-.14-.12-.36-.19-.53,0-.29.15-.35a6.25,6.25,0,0,1,2-.36c.15,0,.1-.06-.06-.07a6.14,6.14,0,0,0-2,.21c-.25.07-.28.08-.39-.14a7.19,7.19,0,0,0-.39-.73c-.12-.19-.06-.26.07-.33l.88-.38c.23-.09.22-.14,0-.07s-.59.17-.91.28-.26.12-.44-.12a5,5,0,0,0-.36-.42c-.14-.16-.11-.29,0-.37a4.11,4.11,0,0,1,1.72-.76c.37-.07.36-.12,0-.12a4.62,4.62,0,0,0-2,.52c-.26.13-.3.15-.53,0l-.24-.17c-.22-.13-.2-.2,0-.37l.33-.24a7.21,7.21,0,0,1,3.29-.88c.34,0,.37-.1,0-.11a7.37,7.37,0,0,0-4,.79l-.27.19c-.25.2-.26.21-.56.13l-.23,0c-.45-.09-.58-.09-.45-.29a6.87,6.87,0,0,1,2.12-2.14c.21-.14.19-.17,0-.07a6.69,6.69,0,0,0-2.64,2.19c-.06.08-.19.27-.33.28s-.16-.14-.16-.23a2.49,2.49,0,0,1,.07-.84,3,3,0,0,1,1.71-1.92c.39-.15.37-.21,0-.1a3.23,3.23,0,0,0-2,1.72,3,3,0,0,0-.3,1.18c0,.23,0,.34-.19.38-.45.05-.57.07-.57-.44a4.67,4.67,0,0,1,1-2.7c.28-.38.23-.41-.09-.06a5.21,5.21,0,0,0-1.41,2.73,1.67,1.67,0,0,0,0,.39c0,.08,0,.22-.16.28s-.18-.16-.21-.25l-.12-.52a3.08,3.08,0,0,1,1-3.25c.25-.17.24-.19,0-.06a2.63,2.63,0,0,0-1.43,2.61,9,9,0,0,0,.12,1.33c0,.27,0,.33-.26.41a2.53,2.53,0,0,0-.36.12c-.24.08-.34.13-.45-.15a4.91,4.91,0,0,1-.24-.74,4.29,4.29,0,0,1,.55-3.52c.33-.47.27-.51-.1-.07a4.4,4.4,0,0,0-.87,3.67,5.41,5.41,0,0,0,.25.84c.09.23,0,.3-.16.37l-.29.13c-.26.13-.38.08-.48-.06a4.47,4.47,0,0,1-.65-3.14c.06-.37,0-.38-.1,0a4,4,0,0,0,.12,2.9c.08.21.24.51.21.63s-.61.4-1.37,1.08c-.37.32-.4.48-.18.32.41-.29,1.78-1.13,1.91-.9s-.1.34-.24.4a14.29,14.29,0,0,0-1.4.73l-.54.33A5,5,0,0,0,99.1,72.2c-.09.32-.28.16-.68-.08a5.42,5.42,0,0,0-3.88-.53,7.51,7.51,0,0,1,2,.23c.12.05.11.13,0,.12a6.47,6.47,0,0,0-1.88,0C94.26,72.05,94.17,72.15,94.58,72.11Zm9.32,5.79a4.34,4.34,0,0,1-.63-.57s0-.1,0-.06l.48.45C103.82,77.77,103.93,77.87,103.9,77.9ZM105.19,79q-.45-.35-.87-.72c-.1-.08,0-.11.07,0,.35.28.71.53,1.08.77C105.61,79.18,105.37,79.16,105.19,79Zm6.36,3.19-.33-.11-1-.36-1-.4-1-.44-.66-.33c-.43-.23-.83-.46-1.23-.71-.16-.11-.2-.23.09-.11.6.25,1.48.63,1.93.84a21.49,21.49,0,0,0,2.17.89,5.59,5.59,0,0,0,1.05.27c.13,0,.2.08.21.19a1.25,1.25,0,0,0,0,.19C111.88,82.27,111.74,82.29,111.55,82.23Zm1.51-.64a3.44,3.44,0,0,1,0-.45V81s0-.1,0-.13a.14.14,0,0,1,.11,0l.13.08s0,.1,0,.16a2.73,2.73,0,0,0,0,.41c0,.11.07.25,0,.36s-.19,0-.24-.09A.37.37,0,0,1,113.06,81.59Zm.38-2.49h0a.14.14,0,0,1,0,.11,2.34,2.34,0,0,1,0,.26s0,.06,0,.09a.11.11,0,0,1,0,.06s-.09,0-.12,0a.2.2,0,0,1-.09-.07.38.38,0,0,1,0-.21l0-.16s0-.1.07-.1A.47.47,0,0,1,113.44,79.1Zm-.1-.65a.13.13,0,0,1,0-.09s.09,0,.12,0,.09,0,.1.05a.29.29,0,0,1,0,.09s0,.07,0,.1-.08,0-.12,0a.14.14,0,0,1-.1-.07h0A.21.21,0,0,1,113.34,78.45Zm-.18,1.62a.18.18,0,0,1,.15.07s0,0,0,0a.32.32,0,0,1,0,.14c0,.07,0,.22-.06.25a.1.1,0,0,1-.1,0,.32.32,0,0,1-.1-.1.41.41,0,0,1,0-.29S113.11,80.06,113.16,80.07Zm.48,2.9a2.17,2.17,0,0,0,.07.24l0,.12s0,0,0,.07h-.06a1,1,0,0,1-.16-.12.38.38,0,0,1-.21-.28c0-.09,0-.18-.07-.27s0-.12,0-.18a.62.62,0,0,1,0-.18.07.07,0,0,1,.07-.07s.1,0,.14.07a.38.38,0,0,1,.12.09.29.29,0,0,1,.05.13C113.57,82.72,113.6,82.84,113.64,83Zm0-5.19a1.36,1.36,0,0,1,0,.2s0,0,0,0-.11,0-.15,0a.25.25,0,0,1,0-.17s0-.16.07-.18a.34.34,0,0,1,.1,0s.06,0,.06,0A.36.36,0,0,1,113.67,77.78Zm.12-.73,0,.21s0,.13-.05.16h0a.14.14,0,0,1-.15,0,.41.41,0,0,1,0-.22c0-.05,0-.1,0-.15a.18.18,0,0,1,0-.1,0,0,0,0,1,.06,0,.23.23,0,0,1,.12,0S113.79,77,113.79,77.05Zm.14-1s0,.08,0,.11,0,.07,0,.11a.09.09,0,0,1,0,.07h0a.17.17,0,0,1-.2,0,.2.2,0,0,1,0-.11s0-.12,0-.15.09,0,.13,0l.08,0h.06S113.93,76.07,113.93,76.08Zm.07-.55,0,0c-.08.07-.23.11-.3.05s0-.16,0-.2a.91.91,0,0,1,0-.23.18.18,0,0,1,.31-.08C114.09,75.19,114.07,75.43,114,75.53Zm.12-.83s0,0,0,0a.19.19,0,0,1-.35,0c-.09-.14,0-.32,0-.48s0-.31.1-.41h0l.1,0H114c.12,0,.12.07.12.18A3,3,0,0,1,114.12,74.7ZM114,72.46a.61.61,0,0,1,.08.28l0,.29c0,.22.12.55-.14.67s-.3-.18-.32-.37,0-.35-.06-.53-.09-.33.08-.43A.22.22,0,0,1,114,72.46Zm-.27-1.24s0,.13,0,.17,0,.12,0,.19.11.26.06.36a.1.1,0,0,1,0,0,.32.32,0,0,1-.42-.06.66.66,0,0,1-.14-.52C113.32,71.29,113.6,71.08,113.72,71.22Zm-.34-.92a.62.62,0,0,1,.1.22,1.16,1.16,0,0,1,.13.37c0,.13-.13.18-.24.23a.22.22,0,0,1-.27,0,.58.58,0,0,1-.14-.49C113,70.45,113.2,70.13,113.38,70.3ZM112.56,69a.24.24,0,0,1,.13.07,2.39,2.39,0,0,1,.26.41.72.72,0,0,1,.16.38c0,.15-.09.17-.21.24s-.13.09-.22.07-.19-.22-.27-.33a1.9,1.9,0,0,1-.26-.37C112.06,69.19,112.33,68.94,112.56,69Zm-1.21-.5a.59.59,0,0,1,.4-.37.19.19,0,0,1,.15,0,.55.55,0,0,1,.14.13c.07.07.32.3.24.41a1.32,1.32,0,0,1-.29.15.55.55,0,0,1-.25.1C111.54,68.89,111.29,68.68,111.35,68.46Zm-.78-.6a2.21,2.21,0,0,1,.05-.25.19.19,0,0,1,0-.07c0-.07.1-.15.19-.15a.6.6,0,0,1,.28.13s.1.11.08.16-.1.11-.13.14l-.16.16a.54.54,0,0,1-.09.12c0,.06-.22.07-.26,0A.57.57,0,0,1,110.57,67.86Zm-1.42-.79,0,0c.21-.16.79,0,.83.3s-.72.21-.86,0A.29.29,0,0,1,109.15,67.07Zm-1.24,0c0-.13.26-.17.42-.15l.13.05c.18.15,0,.41-.17.44S107.83,67.34,107.91,67.11Zm-.66,2.28.61-.16a2.24,2.24,0,0,1,1.23,0c3.58.87,3.22,6.41,3.17,7.91,0,.27,0,.54-.07.82s-.1.73-.16,1.09-.11.73-.16,1.1c0,.18,0,.37-.05.55s0,.25-.18.27a.61.61,0,0,1-.19,0l-.53-.15c-.35-.09-.69-.2-1-.31l-1-.36q-.51-.19-1-.42c-.44-.19-.86-.39-1.26-.61a1.24,1.24,0,0,1-.57-.49,1.74,1.74,0,0,0-.71-.63,4.29,4.29,0,0,1-.57-.32,3.11,3.11,0,0,0-.82-.46,1.7,1.7,0,0,1-.59-.47,1.61,1.61,0,0,0-.7-.54c-.24-.23-.48-.48-.72-.73a10.28,10.28,0,0,0-1.07-1.19c-.48-.5.67-1.88,1.36-2.53.31-.28.35-.17.18.11a2.42,2.42,0,0,0-.33,2c.45,1.56,2.64,2.28,4.87,1.62s3.67-2.44,3.22-4a3,3,0,0,0-2.84-1.84C106.94,69.58,106.9,69.49,107.25,69.39Zm-.4-2.2a.14.14,0,0,1,.15,0,.31.31,0,0,1,.15.23.17.17,0,0,1-.28.16A.28.28,0,0,1,106.85,67.19Zm-1.45.26a.71.71,0,0,1,.49-.27H106c.13,0,.21.06.26.22a.28.28,0,0,1-.07.31.77.77,0,0,1-.56.19A.33.33,0,0,1,105.4,67.45Zm0,2.92c1.67-.5,3.3,0,3.64,1.21s-.73,2.5-2.4,3-3.3,0-3.65-1.21S103.78,70.86,105.45,70.37Zm-1.18-2.58a.7.7,0,0,1,.39-.15l.07,0a.26.26,0,0,1,.14.3c0,.14-.13.18-.25.22a.35.35,0,0,1-.4,0A.21.21,0,0,1,104.27,67.79Zm-2.41,2.67a11.43,11.43,0,0,1,2.61-1.32c.6-.14.76-.08.48.09-.9.46-1.85.91-2.52,1.35a5.52,5.52,0,0,0-2.36,2.47c-.07.22-.11.3-.25.17C99.46,72.87,100.81,71.18,101.86,70.46ZM67,73.6c.11.73.28,1.46.46,2.21s.5-.12.56-.92a18.9,18.9,0,0,0,0-4.75,4,4,0,0,0-.83-2c-1.67-2.07-4.62-.63-3.17,2C65.11,72.18,66.88,72.75,67,73.6Zm-2.21-3.21c-1-1.21,0-2.71,1.35-1.55a2.73,2.73,0,0,1,.73,2c.08,1.31,0,1.38-1,.59A6.82,6.82,0,0,1,64.79,70.39Zm60.59,74.85a7.11,7.11,0,0,0,3.18.13,7.37,7.37,0,0,0,3.12-1.62c.81-.65,1-.26.23.44a8.16,8.16,0,0,1-3.1,1.9c-.84.25-.78.64-1,1.6a2.91,2.91,0,0,1-1.09,1.74,3,3,0,0,1-2.62.7c-.84-.23-1.74-.89-1.54-1.86A.37.37,0,0,1,123,148c.64.08,1,.66,1.58.78a2.26,2.26,0,0,0,1.59-.18c1.21-.65.57-2.28-.75-2.4-.68-.06-1.32-.34-2-.39-1.45-.12-3.44.34-3.32,2.23.09,1.34,3,2.42,5.1,5.76a4,4,0,0,0,3.16,1.72,9.72,9.72,0,0,0,6.17-2.33,6.15,6.15,0,0,0,2.25-2.52,6.83,6.83,0,0,0,.42-3.13,20.3,20.3,0,0,0-1-4.09c-.29-.93-.5-1.45-1.23-.61a14,14,0,0,0-1,1.31,26.49,26.49,0,0,0-1.63,2.75c-.45.86-2.92,4.29-2.23,2.13a13.32,13.32,0,0,1,.83-2.14c.33-.64.67-1.28,1-1.91a17.88,17.88,0,0,1,2.5-3.41,12,12,0,0,1,7-3.65,10.13,10.13,0,0,1,7.89,2.07,6.47,6.47,0,0,1,2,6.87c-1,3.37-4.1,6.37-7.18,8.35-.62.39-1.26.77-1.92,1.11-1.33,1-6.78,2.47-7.56,2.68a24.77,24.77,0,0,1-3.3.68,19.38,19.38,0,0,1-6.79-.28,12.89,12.89,0,0,1-6.12-3,4.91,4.91,0,0,1-1.55-2.88,12.7,12.7,0,0,1-.08-3.74c.22-1.26.57-1.18.53.1a10.67,10.67,0,0,0,.27,3.78,5.33,5.33,0,0,0,2.31,2.67,16.21,16.21,0,0,0,6.07,2,18.85,18.85,0,0,0,6-.08,21.78,21.78,0,0,0,2.95-.7c.61-.19,2.33-.6,3.86-1a21,21,0,0,0,8.69-5.65,11,11,0,0,0,2.71-4.51,5.26,5.26,0,0,0-.93-4.46c-1.14-1.52-1.06-.14-1.14,1a10,10,0,0,1-1.1,3.95c-1.24,2.44-3.1,5.16-5.56,6.48-.18.1-.34-.14-.24-.29.9-1.38,2.16-2.47,3.17-3.77a16.93,16.93,0,0,0,2-3.22c1.74-3.75.42-6.2-.56-6.53a9.91,9.91,0,0,0-5.59-.19c-.67.17-1.59,1.74,0,3.15a6.71,6.71,0,0,0,2.69,1.32.23.23,0,0,1,0,.41c-1.23.73-2.65-.37-3.43-1.31a6.14,6.14,0,0,1-1-1.61c-.29-.73-.36-1.23-1.28-.63s-.63,1.54-.1,3a13.88,13.88,0,0,1,.91,4.51,7.71,7.71,0,0,1-3.24,6.27c-2,1.62-4.47,2.91-7.1,2.7a4.72,4.72,0,0,1-3.59-2.4c-2-3.59-4.57-4.42-5-5.49a3.25,3.25,0,0,1,1.27-4C122.14,144.39,123.77,144.83,125.38,145.24ZM104.52,72.61c-.17-.56.4-1.22,1.26-1.47s1.69,0,1.86.56-.4,1.22-1.27,1.47S104.68,73.17,104.52,72.61Zm-27.84,0a23.82,23.82,0,0,1-.16,3c-.22,1.84-.6,3.91-1.9,5.32s-3.56,1.23-5.31.5C67,80.5,64.79,78.68,65,76c0-.76.18-.84.36-.1a6.85,6.85,0,0,0,4.52,4.83c1.74.59,3.51.72,4.54-1,.87-1.5,1.6-6.78,1.59-7.59C75.94,68.52,76.69,68.88,76.68,72.61ZM94.17,45.76A3.78,3.78,0,0,1,96.07,43c1.69-1,2.73-.31,1.7.68A21.53,21.53,0,0,0,95.69,46C94.76,46.83,93.53,48.74,94.17,45.76ZM89.6,54a7.53,7.53,0,0,1,1-2,10.38,10.38,0,0,1,.86-1.17c.81-.91.47.16.42.32l-.21.64a16.34,16.34,0,0,1-.93,2.44C89.93,55.73,89.15,55.6,89.6,54ZM48.77,86.78c.28-1.72.62-4.38.69-5a5.88,5.88,0,0,1,2.83-4.34c.34-.17.76-.34.8,0a6,6,0,0,1-.32.82.73.73,0,0,0,.28.8,3.88,3.88,0,0,0,1.08.48,11,11,0,0,1,1.64.74c2.41,1.34,2.27,4.58,2.52,7a41.53,41.53,0,0,0,1.08,6.92c.24.83.08,1.06-.53.39a18.79,18.79,0,0,1-2.19-2.89c-.87-1.47-.86-3.31-2.11-4.56a7.57,7.57,0,0,0-2-1.25c-1-.49-1.29-1-1.7-2.67-.12-.5-.24.68-.09,1.17a2,2,0,0,1-.12,1.34c-.52,1.13.1,2.29-1.32,2.12C48.58,87.75,48.66,87.48,48.77,86.78ZM54.44,90a8.05,8.05,0,0,0-3-2c-.79-.27-.52-1.6-.41-1.77.32-.53.82-.2,1.37.2s.84.54,1.23.85a4.12,4.12,0,0,1,1.24,2.13C55.16,90.36,55,90.6,54.44,90Zm-5.62-1.33a6.93,6.93,0,0,1,5,1.59c1,1.13,4.39,5.07,5.53,6.29.62.67,3.13,2.23,2.79,2.63s-3.24-.15-4.09-.47a15.35,15.35,0,0,1-5-2.87c-1.52-1.42-2.46-3.33-4-4.72a7.47,7.47,0,0,0-1.52-1.08c-.6-.32-1-.84-.05-1.12A6.88,6.88,0,0,1,48.82,88.71Zm-2.13-1.52a7,7,0,0,1,.59-.73c.52-.59.67,0,.66.29,0,1-.3,1-1.06,1.33S45.75,88.54,46.69,87.19Zm78.24,113.24q-.41,2.28-.66,4.59c-.34,3.08-.51,6.18-.64,9.28-.06,1.44-.11,2.88-.16,4.32-.31,7.9-.62,15.89-2.44,23.57-1.67,7.06-4.91,14-10.43,18.5-5.23,4.24-11.85,5.84-18.33,5.91a45,45,0,0,1-19.54-4.47C66.5,259.19,60,254.35,56.2,248.28c-3.68-5.9-7.23-16.15-7.23-29.92,0-5.12.3-11.39.53-16.49.36-7.62.29-21.34.1-28.42,0-1.61.28-1.43.75,0,.37,1.16.86,2.29,1.17,3.47,1,3.77,1.27,3.08.83-.21a31.11,31.11,0,0,0-1.74-6.35c-.79-2.23-1.71-4.42-2.68-6.57-1.89-4.22-4-8.32-6.14-12.43s-4.34-8.32-6.09-12.66c-1.08-2.67-1.91-5.5-3-8.23l-.25-.75a38.68,38.68,0,0,0-1.95-4.55c-1.44-3-.27-1.63,1.54-.24a39.15,39.15,0,0,1,5.22,5c3.13,3.48,6.12,7.11,9.16,10.67a55,55,0,0,0,7.83,7.87,23.66,23.66,0,0,0,10.34,4.38c3.08.48,5.48.19,2.22-.61s-5.29-.67-10.5-4.26a48.54,48.54,0,0,1-8.17-7.52c-3.06-3.37-6-6.82-9.08-10.2a46.56,46.56,0,0,0-5-5c-3.63-2.94-7.13-6.84-8.49-11.46a16.14,16.14,0,0,1-.23-8.8c1.27-4.74,7.38-6.41,9.43-7,2.29-.69,4.77-1.22,6.66-2.78a10.92,10.92,0,0,0,2.06-2.71c.32-.51,1.22-2.44,2.06-2.24,1.79.3,3.43,2.14,4.45,3.43.67.84,1.24,1.75,2,2.55A11.58,11.58,0,0,0,54.19,98a23.91,23.91,0,0,0,5,2.26c1.63.57,3.57.42,4.33-.68.48-.69-1.54-2.43-1.91-3a11.56,11.56,0,0,1-1.3-2.94,38.11,38.11,0,0,1-1.45-6.43c-.3-2-.35-4.23-1.42-6a4.59,4.59,0,0,0-1.91-1.66,8.47,8.47,0,0,0-1.3-.49c-.45-.15-1-.14-1.1-.53s.41-.89.24-1.21c-.07-.14-.16-.25.16-.3A16.71,16.71,0,0,0,56,76.69a6.84,6.84,0,0,0,2.49-1.37,8.18,8.18,0,0,0,1.8-2.17c.45-.8.64-1.39.89-.62.53,1.64-1.32,5.14-.59,4.47,2.29-2.11,1.92-5.69,1.69-6.47C61.7,68.62,60.75,67,60.66,65a6.56,6.56,0,0,1,1.46-4.62,4.5,4.5,0,0,1,3.79-1.41h0c1.64.18,3.25.9,4.13.9a11.9,11.9,0,0,0,3.24-.5,23.47,23.47,0,0,1,6.8-.46c5.71.1,9.69-1.22,11.12-3.1a9.33,9.33,0,0,0,1.24-2.49c1.14-3.12,1-3.31,2.9-5.2.58-.61,1.2-1.19,1.8-1.78s1.73-1.5,3-2.46c.32-.24.65-.48,1-.7a36.6,36.6,0,0,1,3.41-1.9c2.07-1.05,4.18-2.05,6.34-2.92a46.62,46.62,0,0,1,12.7-3.08,42.5,42.5,0,0,1,13.12.72c4.15.9,7.88,3.15,11.38,5.47,6.21,4.11,8.42,5.56,10.51,9a25.42,25.42,0,0,1,2.88,6.24c2.54,8.88-8.06,18.44-9.31,19.65A18.21,18.21,0,0,0,148,83a21.83,21.83,0,0,0-4.31,6.52,20.4,20.4,0,0,0-1.39,7.57c0,.52,0,1,.05,1.57a6.47,6.47,0,0,1-.54,3.37,21.53,21.53,0,0,0-1.16,4.1,15,15,0,0,0-.24,2.5,36.47,36.47,0,0,1-1.07,6.17,12.47,12.47,0,0,0,.55,5.87c.34,1.15,1.4,4.52,1.47,5.1a16.34,16.34,0,0,0,1.11,4.36c.58,1.4.24,1.5-.79.74a11.29,11.29,0,0,1-1.69-1.5c-1.58-1.71-1.61-5.06-1.79-7.27-.22-2.73-.44-1.89-.36.85,0,2.14.17,4.49,1.44,6.31a12.64,12.64,0,0,0,4.55,3.82,38,38,0,0,1,5.82,3.31,10.16,10.16,0,0,1,3.64,5.66c2.13,8.9-7.44,15.4-14.71,17.69a39.65,39.65,0,0,1-11.09,1.65,33.1,33.1,0,0,1-10.29-1c-.07,0-.69-.19-1.15-.31l-.93-.36a21.9,21.9,0,0,1-3.36-1.67,6.39,6.39,0,0,1-3.28-6.05c.25-3,3.35-3.26,5.45-4.52,2.51-1.5,5.49-3.75,8-5.32,2.18-1.39,1.13-1.38-1.16-.19-3,1.58-5.6,3.85-8.81,5.13-6.83,2.72-8.53,6.24-12,7.35-4.64,1.48-9.43.16-14-1-2.83-.7,1.24,2.28,6.12,2.89a20,20,0,0,0,7.15-.33,14.13,14.13,0,0,0,5.32-2.74c1.17-.9,2.42-1.91,2.35-.89-.21,3,1.51,5.35,3.86,7a20,20,0,0,0,4,2c1,.42,4.63,1.56,6.12,1.38a34.65,34.65,0,0,0,4.67.12,53,53,0,0,0,7.45-.57,32.89,32.89,0,0,0,12.74-4.66c.59-.37,1.2-.69.43,1.28-2.6,6.61-9.5,10.29-15.24,14.25-3.76,2.61-7.39,5.78-9.52,9.9a12.1,12.1,0,0,0,.31,12.12,10.92,10.92,0,0,0,1.78,2.22c.48.46,1.2.83,1.47,1.45A2.56,2.56,0,0,1,124.93,200.43Zm86.61-72.35a46.38,46.38,0,0,1-4.82,11.35,44.72,44.72,0,0,1-3.51,5,48.12,48.12,0,0,1-3.94,4.49c-2.08,2,0,.63.34.46,3.35-1.94,5.87-5.22,7.88-8.47.8-1.29,1.46-1.59,1-.42-2.47,6.35-6.61,12-11.19,17a103.64,103.64,0,0,1-19.35,16,93.72,93.72,0,0,1-24.87,10.07A134.59,134.59,0,0,1,127,187.22a8.73,8.73,0,0,0-1.61.27c-.2,0-.71.12-.54.43s.75.42,1,.5a11.31,11.31,0,0,0,2.33.09c.62.06.67.51.48,1a19.21,19.21,0,0,0-1.08,3.73,7.25,7.25,0,0,0,0,3c.09.35.2.7.31,1s.36,1.12-.32,1.1a3.1,3.1,0,0,1-1.12-.41,10.9,10.9,0,0,1-1.94-1.29c-1.06-.91-1.51-3.7-1.54-5.68-.05-3,.44-6.34,2.43-8.77.62-.75.47-.86-.2-.15-2.33,2.42-3,5.86-3.18,9.11-.09,1.74-.3,1.79-.73.07-1.24-5,1.8-9.6,5.21-13,5.82-5.78,14.12-8.74,18.74-15.8a17,17,0,0,0,1.81-3.71c.72-2.11,1-2.8,2.36-4a17.83,17.83,0,0,0,3.53-4.34,12,12,0,0,0,.56-10.67c-1.36-3-4-4.78-6.85-6.2a7.64,7.64,0,0,1-4.08-4.45c-.95-2.36-.89-4,.09-2.54a20.46,20.46,0,0,0,4.68,5.42c.91.66,1.06.5.42-.42-1.18-1.7-2.72-3.14-3.93-4.83a25,25,0,0,1-3.16-5.79c-1.28-3.4-.3-9.65.13-7.64a27.89,27.89,0,0,0,2.56,6.91c1,2,2.36,4.34,4.24,5.7,1.08.78,1.29.68.57-.51-1.15-1.9-2.61-3.59-3.7-5.54a26.91,26.91,0,0,1-2.67-6.77,20,20,0,0,1-.54-6.85,17.15,17.15,0,0,1,.78-3.46c.66-2.07.6-.67,1.28,1.81a37.06,37.06,0,0,0,1.3,3.85c.82,2.07,3.12,5.13,2.45,3-.31-1-.74-1.84-1.14-2.76a38.45,38.45,0,0,1-1.34-3.63,34.06,34.06,0,0,1-1.25-5.75.07.07,0,0,0,0-.09c-.05-.41-.09-.81-.13-1.22-.57-7.07,4.26-14.14,3.6-11.31a32.33,32.33,0,0,0-.78,8,32.78,32.78,0,0,0,.33,3.84c.19,1.28,1.24,4.64,1.67,4.81s-.36-3.54-.56-4.67a27.31,27.31,0,0,1-.41-3.72,34.42,34.42,0,0,1,.58-7.78c1.15-6.3,5.42-11.51,4-8.3-1.62,3.61-3.14,8.46-3.13,12.4,0,.71.42,1.39.63.16s.46-2.81.57-3.35c.21-1,.47-2,.76-3,.58-2,1.6-3.88,2.36-5.85,1.77-4.6,8.14-8.8,9.78-17a12.18,12.18,0,0,0-.27-5.94,22.63,22.63,0,0,0-2.12-4.83c-1-1.74-1.4-2.25.79-.75,4.22,2.88,6.71,7,6.62,6.13s-2.07-3.79-5.53-6.64c-4-3.26-6.54-5.17-10.7-8.19-3.57-2.58-7.17-5.19-11.28-6.85-2.42-1-6.93-1.76-2.64-2.21a42.87,42.87,0,0,1,14.36,1.66A72.77,72.77,0,0,1,163.7,39.4a68,68,0,0,1,10.64,6.49c7.26,5.46,13.1,12.74,18.29,20.13a88.5,88.5,0,0,1,12.84,25.66c.52,1.8,1.12,3.56,1.61,5.37,1.41,5.12,1.69,5.06,1-.21A39.3,39.3,0,0,0,206.6,90c-.45-1.41-.95-2.81-1.49-4.19-.43-1.09.15-1,.7-.2a42.94,42.94,0,0,1,2.59,4.52,50.44,50.44,0,0,1,4.45,14.36A51.9,51.9,0,0,1,211.54,128.08Z"/><path class="cls-4" d="M104.72,58.07a2.86,2.86,0,0,0,.47.22c.59.21,1.25.27,1.84.42s1.27.33,1.91.51l.1,0a20.38,20.38,0,0,1,7.85,4.38,12.42,12.42,0,0,1,3,3.77A22.76,22.76,0,0,1,121.45,72c.39,1.62,1.49,7.7,2,7.3s.34-6.63-.13-9.92a23.3,23.3,0,0,0-1.18-5,13.48,13.48,0,0,0-2.66-4.09,21.38,21.38,0,0,0-7.64-5.45c-.76-.32-1.53-.62-2.32-.88A20.64,20.64,0,0,0,105.4,53c-.45-.05-1.18.07-1.45-.38-.12-.18-.18-.47-.36-.61s-.29.11-.36.29a5.47,5.47,0,0,0-.54,2.05,4.74,4.74,0,0,0,.52,1.84A4,4,0,0,0,104.72,58.07Zm-1.1-4c.22-.15.59,0,.82.09l1.06.23c1.41.31,2.84.58,4.22,1a13.08,13.08,0,0,1,1.33.46,20.25,20.25,0,0,1,7.41,5.08,12.27,12.27,0,0,1,2.67,4,23.31,23.31,0,0,1,1.1,4.74c.07.5-.12.38-.29-.17a18.46,18.46,0,0,0-1.07-2.79,13.54,13.54,0,0,0-3-3.83,21.12,21.12,0,0,0-8.1-4.71,28.87,28.87,0,0,0-4.08-1,2,2,0,0,1-1-.37,3.69,3.69,0,0,1-.94-1.39C103.51,55.09,103.16,54.34,103.62,54Zm-9,18.07a6,6,0,0,1,3.88.73c.14.08.16.19,0,.15L98,72.87a8.25,8.25,0,0,0-2.76-.08c-.5.07-.5.15,0,.13a8.88,8.88,0,0,1,2.3.21,7.27,7.27,0,0,1,2.78,1.26c.17.19,0,.17-.11.15a7.8,7.8,0,0,0-1.87,0c-.19,0-.19,0,0,0a6.4,6.4,0,0,1,1.85.19,2.16,2.16,0,0,1,1.27,1c.14.17.06.17-.06.15a11.5,11.5,0,0,0-1.33-.07c-.49,0-.5.09,0,.12a9.43,9.43,0,0,1,1.68.23c.17,0,.29.24.61.6.12.15.08.14-.06.13a3.18,3.18,0,0,0-2.33.87c-.29.29-.24.3.08,0a3.53,3.53,0,0,1,2.33-.64c.29,0,.51.22,1,.71.11.13.09.18,0,.22a4,4,0,0,0-1.09.73c-.27.24-.24.29.06.07a4,4,0,0,1,1.18-.6.32.32,0,0,1,.35.12c.16.17.33.33.5.48s.14.21,0,.25a5.32,5.32,0,0,0-1.24.45c-.82.41-.79.53,0,.11a3.59,3.59,0,0,1,1.37-.42c.31,0,.73.38,1.45.87.09.06.07.15,0,.14a4.45,4.45,0,0,0-1.52.1c-.5.12-.47.21,0,.1a4.94,4.94,0,0,1,3.28.74c.26.14.22.2-.15.15a2.6,2.6,0,0,0-1.56.15c-.31.16-.29.21,0,.06,1-.43,3.83.77,4.24.93a4.83,4.83,0,0,0,.76.25,4.21,4.21,0,0,0,.48.12l.25,0a1,1,0,0,1,.24,0,.24.24,0,0,1,.13.07.58.58,0,0,1,.08.18,2.72,2.72,0,0,0,.11.25l0,.1a11.77,11.77,0,0,0,.83,1.29c.36.49,1.53,1.37,1.24.82-.16-.33-.32-.67-.47-1a4.68,4.68,0,0,1-.19-.45l-.09-.22c0-.06-.09-.18,0-.2a.25.25,0,0,1,.12,0l.13.07A.32.32,0,0,1,114,84c.06.16.12.33.19.48s.21.5.27.64a2,2,0,0,0,.24.42,2,2,0,0,0-.14-.46c-.06-.15-.14-.36-.24-.64a2.77,2.77,0,0,1-.1-.26.31.31,0,0,1,0-.19c0-.06.08,0,.12,0l.44.1c.5.08.52.07,0-.12h0a4.31,4.31,0,0,1-.49-.22.84.84,0,0,1-.21-.11.31.31,0,0,1-.07-.18,3.74,3.74,0,0,1-.12-.45l-.06-.24c0-.06,0-.16.07-.15l.11,0,.16,0a3.23,3.23,0,0,0,.51.14l.14,0c.66.09.68,0,0-.15a3.4,3.4,0,0,1-.92-.34.5.5,0,0,1-.17-.11.33.33,0,0,1,0-.13,3.33,3.33,0,0,1-.07-.54c0-.09,0-.19,0-.28s0-.14.08-.15l.09,0,.12,0,.24.07a3,3,0,0,0,.73,0c.24,0,.26,0,0,0a2.52,2.52,0,0,1-.77-.16l-.24-.11a1.48,1.48,0,0,1-.21-.13.17.17,0,0,1,0-.14,1.13,1.13,0,0,1,0-.26s0-.11,0-.16a.22.22,0,0,1,0-.11.06.06,0,0,1,.08,0h.17a3.33,3.33,0,0,0,1.76-.63c.3-.19.29-.2,0-.07a4.06,4.06,0,0,1-1.57.34c-.1,0-.3,0-.34-.11a.4.4,0,0,1,0-.19,2.38,2.38,0,0,0,.05-.26.28.28,0,0,1,.09-.17.15.15,0,0,1,.09,0h.13a4.7,4.7,0,0,0,.51-.12l.1,0c.51-.2.53-.23,0-.14h-.13a2.53,2.53,0,0,1-.55,0c-.07,0-.11,0-.1-.1a.36.36,0,0,1,.06-.2.13.13,0,0,1,.09-.06l.1,0a4,4,0,0,0,.45-.15l.32-.12c.29-.11.26-.12-.14,0l-.1,0a1.62,1.62,0,0,1-.54,0c-.16,0-.09-.24-.07-.34a.26.26,0,0,1,.08-.19s.07,0,.11,0l.13,0,.52-.11.19-.06c.37-.11.36-.14,0-.07l-.33.07-.27,0a.71.71,0,0,1-.25,0c-.06,0-.07-.07-.07-.13a2.56,2.56,0,0,1,0-.27c0-.12,0-.24.16-.27a4,4,0,0,0,.49-.16,4.85,4.85,0,0,0,.9-.48c.27-.18.34-.22,0-.1a5.61,5.61,0,0,1-.79.26l-.27,0a1.07,1.07,0,0,1-.25,0c-.16,0-.12-.19-.09-.3a.54.54,0,0,1,0-.21c0-.06.07-.07.12-.09a4.3,4.3,0,0,0,.48-.24c.26-.14.51-.3.76-.45.56-.33.51-.39-.08-.12l-.52.23a5.27,5.27,0,0,1-.51.19c-.06,0-.13,0-.16,0a.17.17,0,0,1,0-.1c0-.05,0-.09,0-.14a.39.39,0,0,1,.08-.2.54.54,0,0,1,.19-.07l.44-.17a3.88,3.88,0,0,0,.79-.46c.3-.23.32-.3.06-.1l-.07,0a3.58,3.58,0,0,1-.89.46l-.24.08c-.06,0-.15.07-.21.05s-.07-.1-.07-.16l0-.28c0-.18,0-.36,0-.53s.06-.15.13-.16l1-.16c.22,0,.24,0,0,0a8.77,8.77,0,0,0-1,.11c-.12,0-.16,0-.16-.11s0-.53,0-.8,0-.27-.06-.41l0-.24a.19.19,0,0,1,0-.13l.33-.15.77-.34c.16-.07.33-.13.49-.21.33-.15.3-.16,0,0l-.1,0-.56.23-.62.22-.27.09a.07.07,0,0,1-.06,0s0,0,0-.07a1.55,1.55,0,0,0,0-.21c0-.14-.07-.27-.1-.41s0-.13.1-.15l1.23-.18c.25,0,.27,0,0,0-.43,0-1.29.14-1.31.14s-.1,0-.14-.14-.12-.36-.19-.53,0-.29.15-.35a6.25,6.25,0,0,1,2-.36c.15,0,.1-.06-.06-.07a6.14,6.14,0,0,0-2,.21c-.25.07-.28.08-.39-.14a7.19,7.19,0,0,0-.39-.73c-.12-.19-.06-.26.07-.33l.88-.38c.23-.09.22-.14,0-.07s-.59.17-.91.28-.26.12-.44-.12a5,5,0,0,0-.36-.42c-.14-.16-.11-.29,0-.37a4.11,4.11,0,0,1,1.72-.76c.37-.07.36-.12,0-.12a4.62,4.62,0,0,0-2,.52c-.26.13-.3.15-.53,0l-.24-.17c-.22-.13-.2-.2,0-.37l.33-.24a7.21,7.21,0,0,1,3.29-.88c.34,0,.37-.1,0-.11a7.37,7.37,0,0,0-4,.79l-.27.19c-.25.2-.26.21-.56.13l-.23,0c-.45-.09-.58-.09-.45-.29a6.87,6.87,0,0,1,2.12-2.14c.21-.14.19-.17,0-.07a6.69,6.69,0,0,0-2.64,2.19c-.06.08-.19.27-.33.28s-.16-.14-.16-.23a2.49,2.49,0,0,1,.07-.84,3,3,0,0,1,1.71-1.92c.39-.15.37-.21,0-.1a3.23,3.23,0,0,0-2,1.72,3,3,0,0,0-.3,1.18c0,.23,0,.34-.19.38-.45.05-.57.07-.57-.44a4.67,4.67,0,0,1,1-2.7c.28-.38.23-.41-.09-.06a5.21,5.21,0,0,0-1.41,2.73,1.67,1.67,0,0,0,0,.39c0,.08,0,.22-.16.28s-.18-.16-.21-.25l-.12-.52a3.08,3.08,0,0,1,1-3.25c.25-.17.24-.19,0-.06a2.63,2.63,0,0,0-1.43,2.61,9,9,0,0,0,.12,1.33c0,.27,0,.33-.26.41a2.53,2.53,0,0,0-.36.12c-.24.08-.34.13-.45-.15a4.91,4.91,0,0,1-.24-.74,4.29,4.29,0,0,1,.55-3.52c.33-.47.27-.51-.1-.07a4.4,4.4,0,0,0-.87,3.67,5.41,5.41,0,0,0,.25.84c.09.23,0,.3-.16.37l-.29.13c-.26.13-.38.08-.48-.06a4.47,4.47,0,0,1-.65-3.14c.06-.37,0-.38-.1,0a4,4,0,0,0,.12,2.9c.08.21.24.51.21.63s-.61.4-1.37,1.08c-.37.32-.4.48-.18.32.41-.29,1.78-1.13,1.91-.9s-.1.34-.24.4a14.29,14.29,0,0,0-1.4.73l-.54.33A5,5,0,0,0,99.1,72.2c-.09.32-.28.16-.68-.08a5.42,5.42,0,0,0-3.88-.53,7.51,7.51,0,0,1,2,.23c.12.05.11.13,0,.12a6.47,6.47,0,0,0-1.88,0C94.26,72.05,94.17,72.15,94.58,72.11Zm9.32,5.79a4.34,4.34,0,0,1-.63-.57s0-.1,0-.06l.48.45C103.82,77.77,103.93,77.87,103.9,77.9ZM105.19,79q-.45-.35-.87-.72c-.1-.08,0-.11.07,0,.35.28.71.53,1.08.77C105.61,79.18,105.37,79.16,105.19,79Zm6.36,3.19-.33-.11-1-.36-1-.4-1-.44-.66-.33c-.43-.23-.83-.46-1.23-.71-.16-.11-.2-.23.09-.11.6.25,1.48.63,1.93.84a21.49,21.49,0,0,0,2.17.89,5.59,5.59,0,0,0,1.05.27c.13,0,.2.08.21.19a1.25,1.25,0,0,0,0,.19C111.88,82.27,111.74,82.29,111.55,82.23Zm1.51-.64a3.44,3.44,0,0,1,0-.45V81s0-.1,0-.13a.14.14,0,0,1,.11,0l.13.08s0,.1,0,.16a2.73,2.73,0,0,0,0,.41c0,.11.07.25,0,.36s-.19,0-.24-.09A.37.37,0,0,1,113.06,81.59Zm.38-2.49h0a.14.14,0,0,1,0,.11,2.34,2.34,0,0,1,0,.26s0,.06,0,.09a.11.11,0,0,1,0,.06s-.09,0-.12,0a.2.2,0,0,1-.09-.07.38.38,0,0,1,0-.21l0-.16s0-.1.07-.1A.47.47,0,0,1,113.44,79.1Zm-.1-.65a.13.13,0,0,1,0-.09s.09,0,.12,0,.09,0,.1.05a.29.29,0,0,1,0,.09s0,.07,0,.1-.08,0-.12,0a.14.14,0,0,1-.1-.07h0A.21.21,0,0,1,113.34,78.45Zm-.18,1.62a.18.18,0,0,1,.15.07s0,0,0,0a.32.32,0,0,1,0,.14c0,.07,0,.22-.06.25a.1.1,0,0,1-.1,0,.32.32,0,0,1-.1-.1.41.41,0,0,1,0-.29S113.11,80.06,113.16,80.07Zm.48,2.9a2.17,2.17,0,0,0,.07.24l0,.12s0,0,0,.07h-.06a1,1,0,0,1-.16-.12.38.38,0,0,1-.21-.28c0-.09,0-.18-.07-.27s0-.12,0-.18a.62.62,0,0,1,0-.18.07.07,0,0,1,.07-.07s.1,0,.14.07a.38.38,0,0,1,.12.09.29.29,0,0,1,.05.13C113.57,82.72,113.6,82.84,113.64,83Zm0-5.19a1.36,1.36,0,0,1,0,.2s0,0,0,0-.11,0-.15,0a.25.25,0,0,1,0-.17s0-.16.07-.18a.34.34,0,0,1,.1,0s.06,0,.06,0A.36.36,0,0,1,113.67,77.78Zm.12-.73,0,.21s0,.13-.05.16h0a.14.14,0,0,1-.15,0,.41.41,0,0,1,0-.22c0-.05,0-.1,0-.15a.18.18,0,0,1,0-.1,0,0,0,0,1,.06,0,.23.23,0,0,1,.12,0S113.79,77,113.79,77.05Zm.14-1s0,.08,0,.11,0,.07,0,.11a.09.09,0,0,1,0,.07h0a.17.17,0,0,1-.2,0,.2.2,0,0,1,0-.11s0-.12,0-.15.09,0,.13,0l.08,0h.06S113.93,76.07,113.93,76.08Zm.07-.55,0,0c-.08.07-.23.11-.3.05s0-.16,0-.2a.91.91,0,0,1,0-.23.18.18,0,0,1,.31-.08C114.09,75.19,114.07,75.43,114,75.53Zm.12-.83s0,0,0,0a.19.19,0,0,1-.35,0c-.09-.14,0-.32,0-.48s0-.31.1-.41h0l.1,0H114c.12,0,.12.07.12.18A3,3,0,0,1,114.12,74.7ZM114,72.46a.61.61,0,0,1,.08.28l0,.29c0,.22.12.55-.14.67s-.3-.18-.32-.37,0-.35-.06-.53-.09-.33.08-.43A.22.22,0,0,1,114,72.46Zm-.27-1.24s0,.13,0,.17,0,.12,0,.19.11.26.06.36a.1.1,0,0,1,0,0,.32.32,0,0,1-.42-.06.66.66,0,0,1-.14-.52C113.32,71.29,113.6,71.08,113.72,71.22Zm-.34-.92a.62.62,0,0,1,.1.22,1.16,1.16,0,0,1,.13.37c0,.13-.13.18-.24.23a.22.22,0,0,1-.27,0,.58.58,0,0,1-.14-.49C113,70.45,113.2,70.13,113.38,70.3ZM112.56,69a.24.24,0,0,1,.13.07,2.39,2.39,0,0,1,.26.41.72.72,0,0,1,.16.38c0,.15-.09.17-.21.24s-.13.09-.22.07-.19-.22-.27-.33a1.9,1.9,0,0,1-.26-.37C112.06,69.19,112.33,68.94,112.56,69Zm-1.21-.5a.59.59,0,0,1,.4-.37.19.19,0,0,1,.15,0,.55.55,0,0,1,.14.13c.07.07.32.3.24.41a1.32,1.32,0,0,1-.29.15.55.55,0,0,1-.25.1C111.54,68.89,111.29,68.68,111.35,68.46Zm-.78-.6a2.21,2.21,0,0,1,.05-.25.19.19,0,0,1,0-.07c0-.07.1-.15.19-.15a.6.6,0,0,1,.28.13s.1.11.08.16-.1.11-.13.14l-.16.16a.54.54,0,0,1-.09.12c0,.06-.22.07-.26,0A.57.57,0,0,1,110.57,67.86Zm-1.42-.79,0,0c.21-.16.79,0,.83.3s-.72.21-.86,0A.29.29,0,0,1,109.15,67.07Zm-1.24,0c0-.13.26-.17.42-.15l.13.05c.18.15,0,.41-.17.44S107.83,67.34,107.91,67.11Zm-.66,2.28.61-.16a2.24,2.24,0,0,1,1.23,0c3.58.87,3.22,6.41,3.17,7.91,0,.27,0,.54-.07.82s-.1.73-.16,1.09-.11.73-.16,1.1c0,.18,0,.37-.05.55s0,.25-.18.27a.61.61,0,0,1-.19,0l-.53-.15c-.35-.09-.69-.2-1-.31l-1-.36q-.51-.19-1-.42c-.44-.19-.86-.39-1.26-.61a1.24,1.24,0,0,1-.57-.49,1.74,1.74,0,0,0-.71-.63,4.29,4.29,0,0,1-.57-.32,3.11,3.11,0,0,0-.82-.46,1.7,1.7,0,0,1-.59-.47,1.61,1.61,0,0,0-.7-.54c-.24-.23-.48-.48-.72-.73a10.28,10.28,0,0,0-1.07-1.19c-.48-.5.67-1.88,1.36-2.53.31-.28.35-.17.18.11a2.42,2.42,0,0,0-.33,2c.45,1.56,2.64,2.28,4.87,1.62s3.67-2.44,3.22-4a3,3,0,0,0-2.84-1.84C106.94,69.58,106.9,69.49,107.25,69.39Zm-.4-2.2a.14.14,0,0,1,.15,0,.31.31,0,0,1,.15.23.17.17,0,0,1-.28.16A.28.28,0,0,1,106.85,67.19Zm-1.45.26a.71.71,0,0,1,.49-.27H106c.13,0,.21.06.26.22a.28.28,0,0,1-.07.31.77.77,0,0,1-.56.19A.33.33,0,0,1,105.4,67.45Zm0,2.92c1.67-.5,3.3,0,3.64,1.21s-.73,2.5-2.4,3-3.3,0-3.65-1.21S103.78,70.86,105.45,70.37Zm-1.18-2.58a.7.7,0,0,1,.39-.15l.07,0a.26.26,0,0,1,.14.3c0,.14-.13.18-.25.22a.35.35,0,0,1-.4,0A.21.21,0,0,1,104.27,67.79Zm-2.41,2.67a11.43,11.43,0,0,1,2.61-1.32c.6-.14.76-.08.48.09-.9.46-1.85.91-2.52,1.35a5.52,5.52,0,0,0-2.36,2.47c-.07.22-.11.3-.25.17C99.46,72.87,100.81,71.18,101.86,70.46ZM67,73.6c.11.73.28,1.46.46,2.21s.5-.12.56-.92a18.9,18.9,0,0,0,0-4.75,4,4,0,0,0-.83-2c-1.67-2.07-4.62-.63-3.17,2C65.11,72.18,66.88,72.75,67,73.6Zm-2.21-3.21c-1-1.21,0-2.71,1.35-1.55a2.73,2.73,0,0,1,.73,2c.08,1.31,0,1.38-1,.59A6.82,6.82,0,0,1,64.79,70.39Zm60.59,74.85a7.11,7.11,0,0,0,3.18.13,7.37,7.37,0,0,0,3.12-1.62c.81-.65,1-.26.23.44a8.16,8.16,0,0,1-3.1,1.9c-.84.25-.78.64-1,1.6a2.91,2.91,0,0,1-1.09,1.74,3,3,0,0,1-2.62.7c-.84-.23-1.74-.89-1.54-1.86A.37.37,0,0,1,123,148c.64.08,1,.66,1.58.78a2.26,2.26,0,0,0,1.59-.18c1.21-.65.57-2.28-.75-2.4-.68-.06-1.32-.34-2-.39-1.45-.12-3.44.34-3.32,2.23.09,1.34,3,2.42,5.1,5.76a4,4,0,0,0,3.16,1.72,9.72,9.72,0,0,0,6.17-2.33,6.15,6.15,0,0,0,2.25-2.52,6.83,6.83,0,0,0,.42-3.13,20.3,20.3,0,0,0-1-4.09c-.29-.93-.5-1.45-1.23-.61a14,14,0,0,0-1,1.31,26.49,26.49,0,0,0-1.63,2.75c-.45.86-2.92,4.29-2.23,2.13a13.32,13.32,0,0,1,.83-2.14c.33-.64.67-1.28,1-1.91a17.88,17.88,0,0,1,2.5-3.41,12,12,0,0,1,7-3.65,10.13,10.13,0,0,1,7.89,2.07,6.47,6.47,0,0,1,2,6.87c-1,3.37-4.1,6.37-7.18,8.35-.62.39-1.26.77-1.92,1.11-1.33,1-6.78,2.47-7.56,2.68a24.77,24.77,0,0,1-3.3.68,19.38,19.38,0,0,1-6.79-.28,12.89,12.89,0,0,1-6.12-3,4.91,4.91,0,0,1-1.55-2.88,12.7,12.7,0,0,1-.08-3.74c.22-1.26.57-1.18.53.1a10.67,10.67,0,0,0,.27,3.78,5.33,5.33,0,0,0,2.31,2.67,16.21,16.21,0,0,0,6.07,2,18.85,18.85,0,0,0,6-.08,21.78,21.78,0,0,0,2.95-.7c.61-.19,2.33-.6,3.86-1a21,21,0,0,0,8.69-5.65,11,11,0,0,0,2.71-4.51,5.26,5.26,0,0,0-.93-4.46c-1.14-1.52-1.06-.14-1.14,1a10,10,0,0,1-1.1,3.95c-1.24,2.44-3.1,5.16-5.56,6.48-.18.1-.34-.14-.24-.29.9-1.38,2.16-2.47,3.17-3.77a16.93,16.93,0,0,0,2-3.22c1.74-3.75.42-6.2-.56-6.53a9.91,9.91,0,0,0-5.59-.19c-.67.17-1.59,1.74,0,3.15a6.71,6.71,0,0,0,2.69,1.32.23.23,0,0,1,0,.41c-1.23.73-2.65-.37-3.43-1.31a6.14,6.14,0,0,1-1-1.61c-.29-.73-.36-1.23-1.28-.63s-.63,1.54-.1,3a13.88,13.88,0,0,1,.91,4.51,7.71,7.71,0,0,1-3.24,6.27c-2,1.62-4.47,2.91-7.1,2.7a4.72,4.72,0,0,1-3.59-2.4c-2-3.59-4.57-4.42-5-5.49a3.25,3.25,0,0,1,1.27-4C122.14,144.39,123.77,144.83,125.38,145.24ZM104.52,72.61c-.17-.56.4-1.22,1.26-1.47s1.69,0,1.86.56-.4,1.22-1.27,1.47S104.68,73.17,104.52,72.61Zm-27.84,0a23.82,23.82,0,0,1-.16,3c-.22,1.84-.6,3.91-1.9,5.32s-3.56,1.23-5.31.5C67,80.5,64.79,78.68,65,76c0-.76.18-.84.36-.1a6.85,6.85,0,0,0,4.52,4.83c1.74.59,3.51.72,4.54-1,.87-1.5,1.6-6.78,1.59-7.59C75.94,68.52,76.69,68.88,76.68,72.61Zm137.71,34.1a55.21,55.21,0,0,0-4.28-15.54A39,39,0,0,0,206,84c-1.3-1.78-6.95-10.67-8.58-13.28a126.83,126.83,0,0,0-8.29-11.62,93.31,93.31,0,0,0-9-10.11A70.61,70.61,0,0,0,159,35.83a46.7,46.7,0,0,0-11.66-3.57c-6-.84-10.37-.7-13-.07a52.75,52.75,0,0,1-7,1,47.09,47.09,0,0,0-12.91,1.93,58.88,58.88,0,0,0-8.71,3.45c-1.51.71-3,1.46-4.42,2.31-.83.49-3.12.27-5.32,1.17a5.12,5.12,0,0,0-3,4c-.1.6-.15,1.2-.22,1.8-.12,1-.81,1.41-1.7,2.22a9.2,9.2,0,0,0-1.62,2.1c-.11.17-.66,1.56-.55.4a4,4,0,0,1,.85-2.29c.16-.16.23-.45-.21,0a4.22,4.22,0,0,0-1,4.16c.18.74-.25.72-.35.48a2.73,2.73,0,0,1-.19-.55A5.79,5.79,0,0,1,88,51.31c.15-.58-1.1,1.33-.43,3.43,0,.17,0,.37,0,.28a3.42,3.42,0,0,1-.44-2.82c.07-.55-.08-.54-.23,0a3.93,3.93,0,0,0,.22,2.88,3.22,3.22,0,0,0,1.13,1.24c.25.15-.06.34-.28.26a2.21,2.21,0,0,1-1.6-2.23c0-.61-.15-.56-.26,0a3,3,0,0,0,.55,2.1c.17.24-.06.33-.37.07a2.34,2.34,0,0,1-.67-2c0-.63-.1-.64-.19,0a3.23,3.23,0,0,0,.31,2.1c0,.07.26.44-.27.54a32.63,32.63,0,0,1-6.22.22,22.77,22.77,0,0,0-5.93.61,21.25,21.25,0,0,1-5,.16L67.7,58a4.67,4.67,0,0,0-1-.2,6.83,6.83,0,0,0-3.85.54C59.74,59.7,59,63.6,59.38,66.55A9,9,0,0,0,60,68.89c1,2.45-1.44,4.68-2.92,5.63a6.5,6.5,0,0,1-3.11,1,5.25,5.25,0,0,0-2.75.68,8.33,8.33,0,0,0-3.41,5,10.57,10.57,0,0,0-.22,1.48,3.31,3.31,0,0,1-1.22,2.7,14.63,14.63,0,0,0-1.42,2,54.08,54.08,0,0,1-3.71,5.86c-1.8,2.24-9.57,4.35-10.74,4.87-2.12.93-6.67,3.17-6.95,9.16a28.36,28.36,0,0,0,1.9,9.91c.74,2.08,3,6.2,5.18,11.22,1.76,4.12,3.44,9.35,3.83,10.36,1.63,4.17,3.72,8.18,5.75,12.17,2.15,4.21,4.35,8.39,6.3,12.69,1.25,2.74,1.26,5.43,1.52,10.45.14,2.75.27,5.5.29,8.26,0,5.09-.18,10.18-.41,15.27s-.52,10.23-.67,15.35a113.14,113.14,0,0,0,.19,13,55.59,55.59,0,0,0,5.67,20.8,40.34,40.34,0,0,0,14.05,15.41A46.64,46.64,0,0,0,86.94,269c6.71.76,13.75.08,19.91-2.94s10.93-8.55,13.79-15.21c3-7.05,4-14.91,4.55-22.62.5-7.56.33-15.19,1.11-22.72.12-1.13.25-2.25.4-3.38a4.48,4.48,0,0,1,.48-2.08c.12-.17.2-.27.4-.25a5.67,5.67,0,0,1,.57.1,8,8,0,0,0,.84.1c.43,0,1.39.11,1.62-.36s-.21-.55-.41-.76a2.55,2.55,0,0,1-.6-1.43,12.1,12.1,0,0,1-.22-2.17,11.32,11.32,0,0,1,.73-4.23,5.44,5.44,0,0,1,1.49-2.36,1.47,1.47,0,0,1,.88-.33c.61-.07,1.24-.09,1.86-.14a120.42,120.42,0,0,0,13.23-1.91,97.49,97.49,0,0,0,25.24-8.25,80.88,80.88,0,0,0,11.25-6.74c3.49-2.57,18.57-14.62,23.72-26.33,3.4-7.71,5.3-17.44,5.59-18.71A61.11,61.11,0,0,0,214.39,106.71ZM94.17,45.76A3.78,3.78,0,0,1,96.07,43c1.69-1,2.73-.31,1.7.68A21.53,21.53,0,0,0,95.69,46C94.76,46.83,93.53,48.74,94.17,45.76ZM89.6,54a7.53,7.53,0,0,1,1-2,10.38,10.38,0,0,1,.86-1.17c.81-.91.47.16.42.32l-.21.64a16.34,16.34,0,0,1-.93,2.44C89.93,55.73,89.15,55.6,89.6,54ZM48.77,86.78c.28-1.72.62-4.38.69-5a5.88,5.88,0,0,1,2.83-4.34c.34-.17.76-.34.8,0a6,6,0,0,1-.32.82.73.73,0,0,0,.28.8,3.88,3.88,0,0,0,1.08.48,11,11,0,0,1,1.64.74c2.41,1.34,2.27,4.58,2.52,7a41.53,41.53,0,0,0,1.08,6.92c.24.83.08,1.06-.53.39a18.79,18.79,0,0,1-2.19-2.89c-.87-1.47-.86-3.31-2.11-4.56a7.57,7.57,0,0,0-2-1.25c-1-.49-1.29-1-1.7-2.67-.12-.5-.24.68-.09,1.17a2,2,0,0,1-.12,1.34c-.52,1.13.1,2.29-1.32,2.12C48.58,87.75,48.66,87.48,48.77,86.78ZM54.44,90a8.05,8.05,0,0,0-3-2c-.79-.27-.52-1.6-.41-1.77.32-.53.82-.2,1.37.2s.84.54,1.23.85a4.12,4.12,0,0,1,1.24,2.13C55.16,90.36,55,90.6,54.44,90Zm-5.62-1.33a6.93,6.93,0,0,1,5,1.59c1,1.13,4.39,5.07,5.53,6.29.62.67,3.13,2.23,2.79,2.63s-3.24-.15-4.09-.47a15.35,15.35,0,0,1-5-2.87c-1.52-1.42-2.46-3.33-4-4.72a7.47,7.47,0,0,0-1.52-1.08c-.6-.32-1-.84-.05-1.12A6.88,6.88,0,0,1,48.82,88.71Zm-2.13-1.52a7,7,0,0,1,.59-.73c.52-.59.67,0,.66.29,0,1-.3,1-1.06,1.33S45.75,88.54,46.69,87.19Zm78.24,113.24q-.41,2.28-.66,4.59c-.34,3.08-.51,6.18-.64,9.28-.06,1.44-.11,2.88-.16,4.32-.31,7.9-.62,15.89-2.44,23.57-1.67,7.06-4.91,14-10.43,18.5-5.23,4.24-11.85,5.84-18.33,5.91a45,45,0,0,1-19.54-4.47C66.5,259.19,60,254.35,56.2,248.28c-3.68-5.9-7.23-16.15-7.23-29.92,0-5.12.3-11.39.53-16.49.36-7.62.29-21.34.1-28.42,0-1.61.28-1.43.75,0,.37,1.16.86,2.29,1.17,3.47,1,3.77,1.27,3.08.83-.21a31.11,31.11,0,0,0-1.74-6.35c-.79-2.23-1.71-4.42-2.68-6.57-1.89-4.22-4-8.32-6.14-12.43s-4.34-8.32-6.09-12.66c-1.08-2.67-1.91-5.5-3-8.23l-.25-.75a38.68,38.68,0,0,0-1.95-4.55c-1.44-3-.27-1.63,1.54-.24a39.15,39.15,0,0,1,5.22,5c3.13,3.48,6.12,7.11,9.16,10.67a55,55,0,0,0,7.83,7.87,23.66,23.66,0,0,0,10.34,4.38c3.08.48,5.48.19,2.22-.61s-5.29-.67-10.5-4.26a48.54,48.54,0,0,1-8.17-7.52c-3.06-3.37-6-6.82-9.08-10.2a46.56,46.56,0,0,0-5-5c-3.63-2.94-7.13-6.84-8.49-11.46a16.14,16.14,0,0,1-.23-8.8c1.27-4.74,7.38-6.41,9.43-7,2.29-.69,4.77-1.22,6.66-2.78a10.92,10.92,0,0,0,2.06-2.71c.32-.51,1.22-2.44,2.06-2.24,1.79.3,3.43,2.14,4.45,3.43.67.84,1.24,1.75,2,2.55A11.58,11.58,0,0,0,54.19,98a23.91,23.91,0,0,0,5,2.26c1.63.57,3.57.42,4.33-.68.48-.69-1.54-2.43-1.91-3a11.56,11.56,0,0,1-1.3-2.94,38.11,38.11,0,0,1-1.45-6.43c-.3-2-.35-4.23-1.42-6a4.59,4.59,0,0,0-1.91-1.66,8.47,8.47,0,0,0-1.3-.49c-.45-.15-1-.14-1.1-.53s.41-.89.24-1.21c-.07-.14-.16-.25.16-.3A16.71,16.71,0,0,0,56,76.69a6.84,6.84,0,0,0,2.49-1.37,8.18,8.18,0,0,0,1.8-2.17c.45-.8.64-1.39.89-.62.53,1.64-1.32,5.14-.59,4.47,2.29-2.11,1.92-5.69,1.69-6.47C61.7,68.62,60.75,67,60.66,65a6.56,6.56,0,0,1,1.46-4.62,4.5,4.5,0,0,1,3.79-1.41h0c1.64.18,3.25.9,4.13.9a11.9,11.9,0,0,0,3.24-.5,23.47,23.47,0,0,1,6.8-.46c5.71.1,9.69-1.22,11.12-3.1a9.33,9.33,0,0,0,1.24-2.49c1.14-3.12,1-3.31,2.9-5.2.58-.61,1.2-1.19,1.8-1.78s1.73-1.5,3-2.46c.32-.24.65-.48,1-.7a36.6,36.6,0,0,1,3.41-1.9c2.07-1.05,4.18-2.05,6.34-2.92a46.62,46.62,0,0,1,12.7-3.08,42.5,42.5,0,0,1,13.12.72c4.15.9,7.88,3.15,11.38,5.47,6.21,4.11,8.42,5.56,10.51,9a25.42,25.42,0,0,1,2.88,6.24c2.54,8.88-8.06,18.44-9.31,19.65A18.21,18.21,0,0,0,148,83a21.83,21.83,0,0,0-4.31,6.52,20.4,20.4,0,0,0-1.39,7.57c0,.52,0,1,.05,1.57a6.47,6.47,0,0,1-.54,3.37,21.53,21.53,0,0,0-1.16,4.1,15,15,0,0,0-.24,2.5,36.47,36.47,0,0,1-1.07,6.17,12.47,12.47,0,0,0,.55,5.87c.34,1.15,1.4,4.52,1.47,5.1a16.34,16.34,0,0,0,1.11,4.36c.58,1.4.24,1.5-.79.74a11.29,11.29,0,0,1-1.69-1.5c-1.58-1.71-1.61-5.06-1.79-7.27-.22-2.73-.44-1.89-.36.85,0,2.14.17,4.49,1.44,6.31a12.64,12.64,0,0,0,4.55,3.82,38,38,0,0,1,5.82,3.31,10.16,10.16,0,0,1,3.64,5.66c2.13,8.9-7.44,15.4-14.71,17.69a39.65,39.65,0,0,1-11.09,1.65,33.1,33.1,0,0,1-10.29-1c-.07,0-.69-.19-1.15-.31l-.93-.36a21.9,21.9,0,0,1-3.36-1.67,6.39,6.39,0,0,1-3.28-6.05c.25-3,3.35-3.26,5.45-4.52,2.51-1.5,5.49-3.75,8-5.32,2.18-1.39,1.13-1.38-1.16-.19-3,1.58-5.6,3.85-8.81,5.13-6.83,2.72-8.53,6.24-12,7.35-4.64,1.48-9.43.16-14-1-2.83-.7,1.24,2.28,6.12,2.89a20,20,0,0,0,7.15-.33,14.13,14.13,0,0,0,5.32-2.74c1.17-.9,2.42-1.91,2.35-.89-.21,3,1.51,5.35,3.86,7a20,20,0,0,0,4,2c1,.42,4.63,1.56,6.12,1.38a34.65,34.65,0,0,0,4.67.12,53,53,0,0,0,7.45-.57,32.89,32.89,0,0,0,12.74-4.66c.59-.37,1.2-.69.43,1.28-2.6,6.61-9.5,10.29-15.24,14.25-3.76,2.61-7.39,5.78-9.52,9.9a12.1,12.1,0,0,0,.31,12.12,10.92,10.92,0,0,0,1.78,2.22c.48.46,1.2.83,1.47,1.45A2.56,2.56,0,0,1,124.93,200.43Zm86.61-72.35a46.38,46.38,0,0,1-4.82,11.35,44.72,44.72,0,0,1-3.51,5,48.12,48.12,0,0,1-3.94,4.49c-2.08,2,0,.63.34.46,3.35-1.94,5.87-5.22,7.88-8.47.8-1.29,1.46-1.59,1-.42-2.47,6.35-6.61,12-11.19,17a103.64,103.64,0,0,1-19.35,16,93.72,93.72,0,0,1-24.87,10.07A134.59,134.59,0,0,1,127,187.22a8.73,8.73,0,0,0-1.61.27c-.2,0-.71.12-.54.43s.75.42,1,.5a11.31,11.31,0,0,0,2.33.09c.62.06.67.51.48,1a19.21,19.21,0,0,0-1.08,3.73,7.25,7.25,0,0,0,0,3c.09.35.2.7.31,1s.36,1.12-.32,1.1a3.1,3.1,0,0,1-1.12-.41,10.9,10.9,0,0,1-1.94-1.29c-1.06-.91-1.51-3.7-1.54-5.68-.05-3,.44-6.34,2.43-8.77.62-.75.47-.86-.2-.15-2.33,2.42-3,5.86-3.18,9.11-.09,1.74-.3,1.79-.73.07-1.24-5,1.8-9.6,5.21-13,5.82-5.78,14.12-8.74,18.74-15.8a17,17,0,0,0,1.81-3.71c.72-2.11,1-2.8,2.36-4a17.83,17.83,0,0,0,3.53-4.34,12,12,0,0,0,.56-10.67c-1.36-3-4-4.78-6.85-6.2a7.64,7.64,0,0,1-4.08-4.45c-.95-2.36-.89-4,.09-2.54a20.46,20.46,0,0,0,4.68,5.42c.91.66,1.06.5.42-.42-1.18-1.7-2.72-3.14-3.93-4.83a25,25,0,0,1-3.16-5.79c-1.28-3.4-.3-9.65.13-7.64a27.89,27.89,0,0,0,2.56,6.91c1,2,2.36,4.34,4.24,5.7,1.08.78,1.29.68.57-.51-1.15-1.9-2.61-3.59-3.7-5.54a26.91,26.91,0,0,1-2.67-6.77,20,20,0,0,1-.54-6.85,17.15,17.15,0,0,1,.78-3.46c.66-2.07.6-.67,1.28,1.81a37.06,37.06,0,0,0,1.3,3.85c.82,2.07,3.12,5.13,2.45,3-.31-1-.74-1.84-1.14-2.76a38.45,38.45,0,0,1-1.34-3.63,34.06,34.06,0,0,1-1.25-5.75.07.07,0,0,0,0-.09c-.05-.41-.09-.81-.13-1.22-.57-7.07,4.26-14.14,3.6-11.31a32.33,32.33,0,0,0-.78,8,32.78,32.78,0,0,0,.33,3.84c.19,1.28,1.24,4.64,1.67,4.81s-.36-3.54-.56-4.67a27.31,27.31,0,0,1-.41-3.72,34.42,34.42,0,0,1,.58-7.78c1.15-6.3,5.42-11.51,4-8.3-1.62,3.61-3.14,8.46-3.13,12.4,0,.71.42,1.39.63.16s.46-2.81.57-3.35c.21-1,.47-2,.76-3,.58-2,1.6-3.88,2.36-5.85,1.77-4.6,8.14-8.8,9.78-17a12.18,12.18,0,0,0-.27-5.94,22.63,22.63,0,0,0-2.12-4.83c-1-1.74-1.4-2.25.79-.75,4.22,2.88,6.71,7,6.62,6.13s-2.07-3.79-5.53-6.64c-4-3.26-6.54-5.17-10.7-8.19-3.57-2.58-7.17-5.19-11.28-6.85-2.42-1-6.93-1.76-2.64-2.21a42.87,42.87,0,0,1,14.36,1.66A72.77,72.77,0,0,1,163.7,39.4a68,68,0,0,1,10.64,6.49c7.26,5.46,13.1,12.74,18.29,20.13a88.5,88.5,0,0,1,12.84,25.66c.52,1.8,1.12,3.56,1.61,5.37,1.41,5.12,1.69,5.06,1-.21A39.3,39.3,0,0,0,206.6,90c-.45-1.41-.95-2.81-1.49-4.19-.43-1.09.15-1,.7-.2a42.94,42.94,0,0,1,2.59,4.52,50.44,50.44,0,0,1,4.45,14.36A51.9,51.9,0,0,1,211.54,128.08Z"/><path class="cls-4" d="M100.27,139.79a24.27,24.27,0,0,1-1.77,2.64l-.16.21c-.64.88-1.21,1.83-1.81,2.83-.42.69-.85,1.41-1.31,2.11l-.13.19a26.64,26.64,0,0,0-2.82,5c-.48,1.25-.91,2.58-1.32,3.86s-.75,2.34-1.18,3.51L88.33,164l-1.08,2.89a27.71,27.71,0,0,1-3.16,6.4,34.2,34.2,0,0,1-2.65,2.92c-3.51,3.66-10,10.47-12.92,16.86a41.37,41.37,0,0,0-2,6.43c-.17.66-.35,1.32-.52,1.95-.88,3.18-1.58,6.48-2.26,9.67-.53,2.5-1.08,5.08-1.72,7.61a125.67,125.67,0,0,0-2,49.08c.35,2.32,1.3,6.05,2.4,10.36,2.91,11.42,6.9,27,6.33,40.38-.45,10.67-5.23,25.77-11.9,37.55-8.3,14.67-18.36,22.76-28.33,22.76h0a19.4,19.4,0,0,1-2.84-.22c-8.88-1.35-16.44-5-21.84-10.68-5.2-5.44-8.46-13-9.94-23.07a102.32,102.32,0,0,1-.16-25.65c.92-8.9,2.64-17.69,4.17-25.23l.23-1.1c1.73-8.5,3.52-17.29,5.57-25.89,2.84-11.84,5.34-21.34,7.86-29.89,1.79-6.06,5.36-20.1,6.33-25.17.68-3.51.48-8.52.37-11.2a19.69,19.69,0,0,1,0-2.25l.09-.93a43.61,43.61,0,0,0,.28-9.49c-1-9.32-2.94-21.27-4.48-30.88-.47-2.94-.89-5.62-1.24-7.89-1-6.61,3.58-23.53,5.33-27.67,1.63-3.85,4.11-6.47,7.35-7.78a10.14,10.14,0,0,1,3.85-.69c.42,0,.81,0,1.17,0l.69,0a22.31,22.31,0,0,1,1.47-3.65c1.81-3.46,4.91-5.53,8.27-5.53a8.49,8.49,0,0,1,1.66.16,11.74,11.74,0,0,1,3.85,1.49,7.87,7.87,0,0,1,4.06-3.3,9.68,9.68,0,0,1,5.3,0l1,.23c3.09.7,6.93,1.56,8.69,4.92a13.36,13.36,0,0,1,.95,2.64l.05.16a21.13,21.13,0,0,1,.7,3.49,31,31,0,0,1,0,6.24c1.46-2.55,2.93-5.26,3.77-7.16.62-1.42,3.66-7.57,4.75-9.17.95-1.4,1.88-2.93,2.78-4.55,1.91-3.44,3.43-6.31,4.8-9,3.06-6.07,6.36-7,8.06-7,3.38,0,5.84,3.24,6.13,8.07a23,23,0,0,1-.37,6.06l-.12.6a31.25,31.25,0,0,1-1.38,5.2,41.21,41.21,0,0,1-3.16,6,39.93,39.93,0,0,0-2.74,5.14,44.76,44.76,0,0,0-1.67,5.06c-.11.42-.23.83-.35,1.24l-.07.23c-.32,1.1-.66,2.24-1.06,3.37q-.09.24-.18.51a7.87,7.87,0,0,1-1,2.22c-2.5,4.48-5,9.47-7.59,15.27-.41.89-.85,1.78-1.28,2.64l0-.06c.62-.62,1.2-1.22,1.75-1.84a64.18,64.18,0,0,1,4.92-5.08c1.38-1.26,6.23-5.39,11-5.39A6.58,6.58,0,0,1,98,133.56C99.28,134.44,101.71,137.23,100.27,139.79Z"/><path class="cls-5" d="M88.49,88c.82-1.79,2.67-2.37,4.84-.65,2,1.6.28,6.44-1.45,7.2-1,.44-2.24-.11-3.14-.56C86.42,92.8,87.33,90.51,88.49,88ZM64.27,115.2a5.46,5.46,0,0,1,.14,2.21c0,.83-.06,1.67-.14,2.5a21.25,21.25,0,0,1-1.08,5.54,6.68,6.68,0,0,1-1.19,2c-.42.49-1.13,1.31-1.84,1.31s-1.09-.83-1.19-1.42a8.76,8.76,0,0,1,.05-2.11,29,29,0,0,1,.49-3.59c.37-1.84,1.9-3.13,2.66-4.8a5.21,5.21,0,0,1,1-1.85.76.76,0,0,1,.81-.12A.71.71,0,0,1,64.27,115.2ZM92,147.11c-.21.28-.41.57-.6.85-.39.56-.76,1.13-1.1,1.71a43.1,43.1,0,0,0-2.65,6.49c-.91,2.38-1.89,4.73-2.81,7.1a57.47,57.47,0,0,1-2.53,6.12,43.17,43.17,0,0,1-4.26,5.75c-1.78,2.31-10,8-14.07,20.67-1.37,4.25-2,9.1-3,13.44-1,4.15-2.09,8.24-3.07,12.37A106.6,106.6,0,0,0,55.72,234c-2,16.75-.25,33.71,3.8,50,5.21,20.95,4.91,28.74,5,33.11,0,.95-.19,4.8-.24,5.43C63.23,334.72,48,375,29.53,374.56a33.11,33.11,0,0,1-21.16-8.33,28,28,0,0,1-6.84-9.49,47.59,47.59,0,0,1-3.2-11.52,95.15,95.15,0,0,1-.36-25c.81-8.37,2.28-16.65,3.88-24.9,1.73-8.89,3.48-17.77,5.47-26.61,2.26-10.06,4.79-20,7.36-30,1.38-5.32,3.74-14.31,5.42-21.68a45.6,45.6,0,0,0,1.44-11.35,77,77,0,0,1-.13-8.05c.11-1.18.18-2.37.25-3.56a57.61,57.61,0,0,0,.06-6.7c-.19-3.66-4.11-26.3-5.76-37.58-1-6.77,2.34-19,4.24-24.59a15,15,0,0,1,4.58-7.3c2.88-2.33,7.49-2.33,7-.38s-.65,2.57-1.05,3.81c-.74,2.24-1.61,4.42-2.56,6.57-.44,1-.91,2-1.39,3-4.11,8.6-3.32,9.81.76,1.45.44-.91.87-1.83,1.29-2.75q1.25-2.71,2.33-5.52a56.18,56.18,0,0,0,1.89-5.85c.41-1.61.78-3.23,1.3-4.81,1-3.08,3-6.46,6.68-6.4a7.77,7.77,0,0,1,4.68,1.69c.68.59.56,1.1.28,2.12-.56,2.1-.84,4.32-1.31,6.39s-2.61,14.13-2.9,15.32c-1.08,4.42-4.16,10.35-3.32,10s3.12-4.62,4.1-9c.31-1.35,2.68-13.33,3.09-15.08,1.39-6,2-10.81,4.77-12.91a5.07,5.07,0,0,1,3.84-.69,28.94,28.94,0,0,1,4.38,1.1c1.9.58,4.92,2.4,5,4.85A6.91,6.91,0,0,1,63,114c-1,2.09-2.8,4.6-2.42,3.2.27-1,.52-3,0-3.21s-1.11,2.93-1.54,4.42a42.44,42.44,0,0,0-1.4,6.3,10.73,10.73,0,0,0,.47,5.39,4,4,0,0,0,1.26,1.67c.62.47.22,1.35-.85,1-1.25-.39-1.37.17-.31.84a3.4,3.4,0,0,0,3.59-.5,31.51,31.51,0,0,0,4.58-5.58c1.71-2.62,7.73-14.12,8.42-15.63a71,71,0,0,1,5.67-9.66c1.77-3,3.32-6.16,5-9.24.28-.51.83-.74,1-.38a3.87,3.87,0,0,0,.92,1.22,5.7,5.7,0,0,0,4,1.66c1.37,0,2.37-1.19,3-2.51.23-.46.7-.3.7.16a25,25,0,0,1-.88,5.35,24.9,24.9,0,0,1-1.79,5.39c-1.71,3.5-4.09,6.63-5.56,10.26-.8,2-1.38,4.06-2,6.09-.33,1-.67,2-1,3-.2.58-2,4-2.55,5.08-2.42,4.53-4.27,9-6.33,13.34-1.13,2.39-2.52,4.67-3.48,7.14a9.75,9.75,0,0,0-.67,3.15,6.51,6.51,0,0,0,.9,2.59,2.32,2.32,0,0,1,.32,2.14c-.07.35-.16.68-.21,1-.28,2.29.3,4,.62,3.95s.31-2.17.46-3c.18-1,.38-1.92.61-2.87a18.73,18.73,0,0,1,2.18-5.55,30.57,30.57,0,0,1,4-4.65c1.53-1.62,2.93-3.34,4.53-4.9a27,27,0,0,1,5.5-4.31,13.38,13.38,0,0,1,2.06-1c.4-.14,1-.44,1.38-.16s-.06.75-.3,1a12.54,12.54,0,0,0-1.92,2.55,3.35,3.35,0,0,0-.39,2.94,5.4,5.4,0,0,0,1.18,1.55c.35.4,1.46,1.8,1.36,2.28A11,11,0,0,1,92,147.11Zm6.17-8.4a12.82,12.82,0,0,1-1.24,1.71c-1,1.23-1.89,2.56-2.84,3.87-.27.37-1.37-1.5-1.79-2a2.32,2.32,0,0,1-.8-1.68,3.72,3.72,0,0,1,.55-1.39,14,14,0,0,1,2.24-2.68,6.6,6.6,0,0,1,1-.86,1.61,1.61,0,0,1,.88-.35C97.31,135.39,98.73,137.78,98.17,138.71Z"/><path class="cls-4" d="M97.06,134.91c-3.82-2.54-9.77,1.47-12.68,4.16a60.48,60.48,0,0,0-4.8,4.94,67.5,67.5,0,0,0-4.68,5.18,15.27,15.27,0,0,0-2,4.08c-.17.52-.3.76-.6-.18a3.93,3.93,0,0,1-.13-1.32,9.29,9.29,0,0,1,.76-3c1-2.48,2.31-4.83,3.41-7.26,2.36-5.23,4.9-10.45,7.7-15.48a8.53,8.53,0,0,0,1-2.41c.42-1.14.76-2.32,1.1-3.5a63.29,63.29,0,0,1,2.08-6.47c1.62-3.89,4.36-7.21,5.89-11.15A34.92,34.92,0,0,0,95.58,97a21.61,21.61,0,0,0,.33-5.63c-.45-7.46-6.46-9.74-11.12-.47C83.25,94,81.62,97,80,100c-.89,1.6-1.84,3.17-2.87,4.68s-3.93,7.39-4.6,8.91c-1.71,3.89-5.86,10.77-7.54,13.57-.53.88-1.1,1.74-1.72,2.57-.48.61-1,1.5-1.82,1.72s-1-.55-.66-1.14,1.1-.93,1.65-1.37a7.06,7.06,0,0,0,1.86-2.62,20.24,20.24,0,0,0,1.3-5.86,28.22,28.22,0,0,0,.07-6.43,19.76,19.76,0,0,0-.65-3.22,13.17,13.17,0,0,0-.88-2.49c-1.58-3-5.63-3.61-8.6-4.32a8.17,8.17,0,0,0-4.44,0,6.83,6.83,0,0,0-3.5,3.12c-.68,1.09-.55,1-1.35.41a9.59,9.59,0,0,0-3.85-1.67c-3.62-.69-6.58,1.44-8.19,4.53a21.58,21.58,0,0,0-1.51,3.84c-.43,1.48-3.17-.15-6.5,1.2a12.13,12.13,0,0,0-6.47,6.9c-1.83,4.33-6.15,20.78-5.22,26.79,1.48,9.63,4.37,26.6,5.72,38.84a49,49,0,0,1-.37,10.77c-.1,1,.61,8.56-.35,13.58s-4.51,19-6.37,25.33c-2.9,9.85-5.44,19.82-7.83,29.81-2.14,8.93-4,17.93-5.79,26.93C-2.21,302.63-3.8,311-4.67,319.4a101.67,101.67,0,0,0,.15,25.26c1.2,8.16,3.79,16.2,9.51,22.18,5.58,5.82,13.14,9,20.92,10.2,22.35,3.39,40.33-37.9,41.21-58.56.78-18.39-7.48-42.09-8.72-50.43a127.83,127.83,0,0,1,2-49.71c1.44-5.75,2.41-11.61,4-17.32A60.8,60.8,0,0,1,67,192.41c4-8.88,14.31-18,15.73-20.06a25.72,25.72,0,0,0,3-6c.84-2.26,1.69-4.51,2.52-6.76.9-2.44,1.58-5,2.51-7.39a29.16,29.16,0,0,1,3.11-5.49c1.09-1.64,2-3.43,3.17-5A25.76,25.76,0,0,0,98.86,139C99.77,137.38,97.78,135.39,97.06,134.91ZM88.49,88c.82-1.79,2.67-2.37,4.84-.65,2,1.6.28,6.44-1.45,7.2-1,.44-2.24-.11-3.14-.56C86.42,92.8,87.33,90.51,88.49,88ZM64.27,115.2a5.46,5.46,0,0,1,.14,2.21c0,.83-.06,1.67-.14,2.5a21.25,21.25,0,0,1-1.08,5.54,6.68,6.68,0,0,1-1.19,2c-.42.49-1.13,1.31-1.84,1.31s-1.09-.83-1.19-1.42a8.76,8.76,0,0,1,.05-2.11,29,29,0,0,1,.49-3.59c.37-1.84,1.9-3.13,2.66-4.8a5.21,5.21,0,0,1,1-1.85.76.76,0,0,1,.81-.12A.71.71,0,0,1,64.27,115.2ZM92,147.11c-.21.28-.41.57-.6.85-.39.56-.76,1.13-1.1,1.71a43.1,43.1,0,0,0-2.65,6.49c-.91,2.38-1.89,4.73-2.81,7.1a57.47,57.47,0,0,1-2.53,6.12,43.17,43.17,0,0,1-4.26,5.75c-1.78,2.31-10,8-14.07,20.67-1.37,4.25-2,9.1-3,13.44-1,4.15-2.09,8.24-3.07,12.37A106.6,106.6,0,0,0,55.72,234c-2,16.75-.25,33.71,3.8,50,5.21,20.95,4.91,28.74,5,33.11,0,.95-.19,4.8-.24,5.43C63.23,334.72,48,375,29.53,374.56a33.11,33.11,0,0,1-21.16-8.33,28,28,0,0,1-6.84-9.49,47.59,47.59,0,0,1-3.2-11.52,95.15,95.15,0,0,1-.36-25c.81-8.37,2.28-16.65,3.88-24.9,1.73-8.89,3.48-17.77,5.47-26.61,2.26-10.06,4.79-20,7.36-30,1.38-5.32,3.74-14.31,5.42-21.68a45.6,45.6,0,0,0,1.44-11.35,77,77,0,0,1-.13-8.05c.11-1.18.18-2.37.25-3.56a57.61,57.61,0,0,0,.06-6.7c-.19-3.66-4.11-26.3-5.76-37.58-1-6.77,2.34-19,4.24-24.59a15,15,0,0,1,4.58-7.3c2.88-2.33,7.49-2.33,7-.38s-.65,2.57-1.05,3.81c-.74,2.24-1.61,4.42-2.56,6.57-.44,1-.91,2-1.39,3-4.11,8.6-3.32,9.81.76,1.45.44-.91.87-1.83,1.29-2.75q1.25-2.71,2.33-5.52a56.18,56.18,0,0,0,1.89-5.85c.41-1.61.78-3.23,1.3-4.81,1-3.08,3-6.46,6.68-6.4a7.77,7.77,0,0,1,4.68,1.69c.68.59.56,1.1.28,2.12-.56,2.1-.84,4.32-1.31,6.39s-2.61,14.13-2.9,15.32c-1.08,4.42-4.16,10.35-3.32,10s3.12-4.62,4.1-9c.31-1.35,2.68-13.33,3.09-15.08,1.39-6,2-10.81,4.77-12.91a5.07,5.07,0,0,1,3.84-.69,28.94,28.94,0,0,1,4.38,1.1c1.9.58,4.92,2.4,5,4.85A6.91,6.91,0,0,1,63,114c-1,2.09-2.8,4.6-2.42,3.2.27-1,.52-3,0-3.21s-1.11,2.93-1.54,4.42a42.44,42.44,0,0,0-1.4,6.3,10.73,10.73,0,0,0,.47,5.39,4,4,0,0,0,1.26,1.67c.62.47.22,1.35-.85,1-1.25-.39-1.37.17-.31.84a3.4,3.4,0,0,0,3.59-.5,31.51,31.51,0,0,0,4.58-5.58c1.71-2.62,7.73-14.12,8.42-15.63a71,71,0,0,1,5.67-9.66c1.77-3,3.32-6.16,5-9.24.28-.51.83-.74,1-.38a3.87,3.87,0,0,0,.92,1.22,5.7,5.7,0,0,0,4,1.66c1.37,0,2.37-1.19,3-2.51.23-.46.7-.3.7.16a25,25,0,0,1-.88,5.35,24.9,24.9,0,0,1-1.79,5.39c-1.71,3.5-4.09,6.63-5.56,10.26-.8,2-1.38,4.06-2,6.09-.33,1-.67,2-1,3-.2.58-2,4-2.55,5.08-2.42,4.53-4.27,9-6.33,13.34-1.13,2.39-2.52,4.67-3.48,7.14a9.75,9.75,0,0,0-.67,3.15,6.51,6.51,0,0,0,.9,2.59,2.32,2.32,0,0,1,.32,2.14c-.07.35-.16.68-.21,1-.28,2.29.3,4,.62,3.95s.31-2.17.46-3c.18-1,.38-1.92.61-2.87a18.73,18.73,0,0,1,2.18-5.55,30.57,30.57,0,0,1,4-4.65c1.53-1.62,2.93-3.34,4.53-4.9a27,27,0,0,1,5.5-4.31,13.38,13.38,0,0,1,2.06-1c.4-.14,1-.44,1.38-.16s-.06.75-.3,1a12.54,12.54,0,0,0-1.92,2.55,3.35,3.35,0,0,0-.39,2.94,5.4,5.4,0,0,0,1.18,1.55c.35.4,1.46,1.8,1.36,2.28A11,11,0,0,1,92,147.11Zm6.17-8.4a12.82,12.82,0,0,1-1.24,1.71c-1,1.23-1.89,2.56-2.84,3.87-.27.37-1.37-1.5-1.79-2a2.32,2.32,0,0,1-.8-1.68,3.72,3.72,0,0,1,.55-1.39,14,14,0,0,1,2.24-2.68,6.6,6.6,0,0,1,1-.86,1.61,1.61,0,0,1,.88-.35C97.31,135.39,98.73,137.78,98.17,138.71Z"/></g><path class="cls-6" d="M96.29,128.27a1.36,1.36,0,0,1-.48-.09,1.31,1.31,0,0,1-.73-1.68l12.74-32.34a1.3,1.3,0,1,1,2.41,1L97.49,127.45A1.29,1.29,0,0,1,96.29,128.27Z"/><path class="cls-6" d="M95.15,129.88,91,120.47a1.29,1.29,0,1,1,2.37-1l3.09,7,7-3.09a1.3,1.3,0,0,1,1.71.67,1.28,1.28,0,0,1-.67,1.7Z"/><path class="cls-6" d="M99.79,62.19A1.29,1.29,0,0,1,98.5,60.9l-.1-34.75a1.3,1.3,0,0,1,1.29-1.3h0A1.29,1.29,0,0,1,101,26.14l.1,34.76a1.3,1.3,0,0,1-1.3,1.29Z"/><path class="cls-6" d="M93.37,32.54a1.32,1.32,0,0,1-.91-.38,1.3,1.3,0,0,1,0-1.83L99.68,23,107,30.25a1.29,1.29,0,1,1-1.82,1.84l-5.47-5.4-5.4,5.46A1.3,1.3,0,0,1,93.37,32.54Z"/></svg>