<svg id="Layer_1" data-name="Layer 1" xmlns="http://www.w3.org/2000/svg" viewBox="0 0 115.79 20.42"><defs><style>.cls-1{fill:#fff;}</style></defs><title>Artboard 15@4x1</title><path class="cls-1" d="M115.4,19.5c0-1.23-.71-1.66-1.88-1.66H104.9c-4.16,0-5.26-2.48-5.45-4.07h11.69c3.59,0,4.65-2.59,4.65-4.26s-1.15-4.25-4.65-4.25h-6.4c-6,0-8,4.12-8,7.46,0,3.68,2.26,7.47,8,7.47H115.4ZM105,7.45h5.61c2,0,2.49,1.25,2.49,2.06s-.42,2.07-2.49,2.07H99.46C99.6,10.17,100.77,7.45,105,7.45ZM80.07,19.25c-.63.87-.89,1.17-1.62,1.17s-1.06-.42-1.62-1.17c-1.33-1.82-9.19-14-9.19-14h1.13a3.12,3.12,0,0,1,3,1.74L78.6,17.47,85.41,7a3.29,3.29,0,0,1,3.09-1.7h.87S81.17,17.76,80.07,19.25Zm-58.86.94c-1.38,0-2-.52-2.19-1.66l-.31-1.65a7.19,7.19,0,0,1-6.38,3.31H8.12C1.78,20.19,0,15.9,0,12.72,0,9.15,2.14,5.26,8.12,5.26h4.46c4.53,0,7,2.65,7.66,5.86l1.69,9.07ZM12,7.61H8.38c-4.25,0-5.69,2.7-5.69,5.11s1.44,5.12,5.69,5.12H12c4.43,0,5.72-2.81,5.72-5.12C17.69,10.67,16.54,7.61,12,7.61ZM92.34,2.86a1.21,1.21,0,0,0,1.31-1.19V1.19A1.21,1.21,0,0,0,92.34,0a1.19,1.19,0,0,0-1.29,1.19v.48A1.19,1.19,0,0,0,92.34,2.86ZM91.1,5.26h.52a1.77,1.77,0,0,1,2,1.93v13h-.53a1.82,1.82,0,0,1-2-2ZM26.16,7.44a7.22,7.22,0,0,1,5.52-2.18h4.21c6.34,0,8.18,4.29,8.18,7.46,0,3.58-2.21,7.47-8.18,7.47H31.43c-4.53,0-7.81-2.93-7.81-7.46V.19h.71A1.59,1.59,0,0,1,26.16,2ZM32,17.84h3.59c4.24,0,5.69-2.7,5.69-5.12s-1.45-5.11-5.69-5.11H32c-4.43,0-5.73,2.81-5.73,5.11C26.31,14.78,27.47,17.84,32,17.84ZM49.55,7.44a7.2,7.2,0,0,1,5.52-2.18h4.21c6.33,0,8.12,4.29,8.12,7.46,0,3.58-2.15,7.47-8.12,7.47H54.82c-4.53,0-7.81-2.93-7.81-7.46V.19h.71A1.59,1.59,0,0,1,49.55,2Zm5.88,10.4H59c4.25,0,5.69-2.7,5.69-5.12S63.26,7.61,59,7.61H55.43c-4.44,0-5.73,2.81-5.73,5.11C49.7,14.78,50.86,17.84,55.43,17.84Z"/></svg>