<svg xmlns="http://www.w3.org/2000/svg" viewBox="0 0 287.07 44.16"><defs><style>.cls-1{fill:#fff;}</style></defs><title>Artboard 27@4x1</title><g id="OBJECT"><path class="cls-1" d="M285.49.1h1.57V-5.66H241.45a18.25,18.25,0,0,1-15.21,8.85,17.14,17.14,0,0,1-15-8.85H77.65A18.29,18.29,0,0,1,62.14,3.66,17.19,17.19,0,0,1,46.87-5.66H0V.1H1.57a4.37,4.37,0,1,1,0,8.73H0v3H1.57a4.37,4.37,0,1,1,0,8.73H0v3H1.57a4.37,4.37,0,1,1,0,8.73H0v3H1.57a4.37,4.37,0,1,1,0,8.73H0v3H1.57a4.37,4.37,0,1,1,0,8.73H0v3H1.57a4.37,4.37,0,1,1,0,8.73H0v3H1.57a4.37,4.37,0,1,1,0,8.73H0v3H1.57a4.37,4.37,0,1,1,0,8.73H0v3H1.57a4.37,4.37,0,1,1,0,8.73H0v3H1.57a4.37,4.37,0,1,1,0,8.73H0v3H1.57a4.37,4.37,0,1,1,0,8.73H0v5.77H55.57a8.14,8.14,0,0,1,16.21,0H287.06v-5.77h-1.57a4.37,4.37,0,0,1,0-8.73h1.57v-3h-1.57a4.37,4.37,0,0,1,0-8.73h1.57v-3h-1.57a4.37,4.37,0,0,1,0-8.73h1.57V91h-1.57a4.37,4.37,0,0,1,0-8.73h1.57v-3h-1.57a4.37,4.37,0,0,1,0-8.73h1.57v-3h-1.57a4.37,4.37,0,0,1,0-8.73h1.57v-3h-1.57a4.37,4.37,0,0,1,0-8.73h1.57V44h-1.57a4.37,4.37,0,0,1,0-8.73h1.57v-3h-1.57a4.37,4.37,0,0,1,0-8.73h1.57v-3h-1.57a4.37,4.37,0,0,1,0-8.73h1.57v-3h-1.57a4.37,4.37,0,0,1,0-8.73ZM60.73,75.81c-9.82,0-17.08-8-17.5-17.5s8.34-17.5,17.5-17.5c9.81,0,17.07,8,17.5,17.5S69.88,75.81,60.73,75.81Zm171.16,0c-9.81,0-17.07-8-17.5-17.5s8.35-17.5,17.5-17.5c9.82,0,17.08,8,17.5,17.5S241.05,75.81,231.89,75.81Z"/></g></svg>