<svg id="Layer_1" data-name="Layer 1" xmlns="http://www.w3.org/2000/svg" viewBox="0 0 91.59 90.14"><defs><style>.cls-1{fill:#fff;fill-rule:evenodd;}</style></defs><title>Artboard 11 copy 4@4x1</title><path class="cls-1" d="M66.85,38.56H64.7v2.36h2.15A21.09,21.09,0,0,1,47,60.8V58.65H44.61V60.8A21.09,21.09,0,0,1,24.74,40.92h2.15V38.56H24.74A21.08,21.08,0,0,1,44.61,18.69v2.15H47V18.69A21.08,21.08,0,0,1,66.85,38.56ZM45.79,13.93A25.82,25.82,0,1,1,20,39.74,25.82,25.82,0,0,1,45.79,13.93Z"/><path class="cls-1" d="M57.59,26.28,46.07,37.8h-.55l-7.91-7.91-1.67,1.67,7.91,7.91a2,2,0,1,0,3.89,0L59.26,28Z"/><path class="cls-1" d="M37.72,4.45H53.87a.76.76,0,0,1,.76.76h0a.77.77,0,0,1-.76.77H37.72A.77.77,0,0,1,37,5.21h0a.76.76,0,0,1,.76-.76ZM69.87,54.18V81.26A6.9,6.9,0,0,1,63,88.14H28.59a6.9,6.9,0,0,1-6.87-6.88V54.18a26.8,26.8,0,0,0,2.61,3.64V79.88a1.84,1.84,0,0,0,1.83,1.83H65.43a1.84,1.84,0,0,0,1.83-1.83V57.82A27.44,27.44,0,0,0,69.87,54.18ZM28.59,2H63a6.89,6.89,0,0,1,6.87,6.87V25.31a27.54,27.54,0,0,0-2.61-3.65V10.26a1.83,1.83,0,0,0-1.83-1.83H26.16a1.83,1.83,0,0,0-1.83,1.83v11.4a27.54,27.54,0,0,0-2.61,3.65V8.87A6.89,6.89,0,0,1,28.59,2Z"/><path class="cls-1" d="M59.76,72.1h3a2.38,2.38,0,0,1,2.38,2.37v3a2.39,2.39,0,0,1-2.38,2.38h-3a2.38,2.38,0,0,1-2.37-2.38v-3a2.38,2.38,0,0,1,2.37-2.37Z"/><path class="cls-1" d="M49.47,72.1h3a2.38,2.38,0,0,1,2.37,2.37v3a2.38,2.38,0,0,1-2.37,2.38h-3a2.39,2.39,0,0,1-2.38-2.38v-3a2.38,2.38,0,0,1,2.38-2.37Z"/><path class="cls-1" d="M39.17,72.1h2.95a2.38,2.38,0,0,1,2.38,2.37v3a2.39,2.39,0,0,1-2.38,2.38H39.17a2.38,2.38,0,0,1-2.37-2.38v-3a2.38,2.38,0,0,1,2.37-2.37Z"/><path class="cls-1" d="M28.88,72.1h2.95a2.38,2.38,0,0,1,2.37,2.37v3a2.38,2.38,0,0,1-2.37,2.38H28.88a2.39,2.39,0,0,1-2.38-2.38v-3a2.38,2.38,0,0,1,2.38-2.37Z"/></svg>