<svg xmlns="http://www.w3.org/2000/svg" xmlns:xlink="http://www.w3.org/1999/xlink" viewBox="0 0 861.93 521.87"><defs><style>.cls-1{fill:none;}.cls-2{isolation:isolate;}.cls-3{fill:#d2d2d2;}.cls-4{clip-path:url(#clip-path);}.cls-5{opacity:0.59;mix-blend-mode:soft-light;}.cls-6{fill:#222221;}</style><clipPath id="clip-path"><rect class="cls-1" x="172" y="-173.07" width="522.94" height="866.95" transform="translate(173.07 693.87) rotate(-90)"/></clipPath></defs><title>Artboard 3 copy 4@4x1</title><g class="cls-2"><g id="Layer_1" data-name="Layer 1"><rect class="cls-3" x="172" y="-173.07" width="522.94" height="866.95" transform="translate(173.07 693.87) rotate(-90)"/><g class="cls-4"><g class="cls-5"><path class="cls-6" d="M241.55,540.84a482.93,482.93,0,0,1-131.8-21.63C40.94,498.13-21.35,464.53-79.8,423.14a929.51,929.51,0,0,1-143-125.48c-8.86-9.51-17-19.7-25.56-29.49-3.52-4-2.2-7.43.91-10.78,19.79-21.28,38.88-43.26,59.51-63.69A856.87,856.87,0,0,1-27.21,68.88C10.13,46.34,49.42,27.43,90.73,13.34A533,533,0,0,1,175.81-7.89c40.77-6.73,81.57-6.77,122.16-1.8C331.75-5.55,364.7,3.44,397,15c38.27,13.7,75.17,30.28,109.48,51.81,31.57,19.81,62.09,41.42,92.21,63.4,40.87,29.82,76.53,65.53,111.13,102.25,8,8.52,15,18.07,22.78,26.79,3,3.31,2.67,5.3-.15,8.31-22.33,23.79-43.66,48.59-67,71.36A827.25,827.25,0,0,1,505.79,460.7c-44.14,25.92-90.32,47.61-139.81,60.88-26.49,7.11-53.87,11-81,15.47C270.68,539.37,256,539.64,241.55,540.84Zm.36-64.53c119.17-.76,213.54-96.09,214.38-213.2.87-120.67-96.28-216.95-215-216.24C121,47.59,27.35,143,27.44,261.49,27.52,380.78,121.82,475.08,241.91,476.31ZM374.26,45.43c78,55.44,121.39,127.94,118.08,224.92-3.31,96.76-52,165.83-133,214.89,14.19-4.44,28.36-8.55,42-14.05a680.42,680.42,0,0,0,135.1-73.77c50.45-35.28,96.57-75.69,139-120.27,15-15.72,14.85-12,0-27.67-42-44.36-87.72-84.58-137.87-119.62-36.82-25.71-75.48-48.23-116.74-66.06C405.51,57.19,389.79,51.53,374.26,45.43ZM110,46.74a8,8,0,0,0-2.53-.21A559,559,0,0,0,13.94,87.88a760.56,760.56,0,0,0-139,98.34c-24.52,21.92-47.53,45.51-71.32,68.25-8.52,8.15-8.66,8.26-.63,16.82,36.69,39.17,75.6,76.06,119,107.63a916.3,916.3,0,0,0,88.36,57.19c26.71,15.05,55.44,26.59,83.54,39.08,9.9,4.39,20.61,7,31,10.38-81.63-49-130.16-118.65-133.6-215S31,100.8,110,46.74Z"/><path class="cls-6" d="M289.82,152c-15.4,22.57-18.11,45.74,1.19,66,18.48,19.42,41.06,18.5,63.26,5.07,16.37,29.67,10,89.29-30,126.54-45.27,42.17-113.85,42.57-158.34,5.52-51.66-43-57.62-112.3-23.18-162.3C178.27,141.28,245.17,129.05,289.82,152Z"/></g></g></g></g></svg>