<svg id="Layer_1" data-name="Layer 1" xmlns="http://www.w3.org/2000/svg" viewBox="0 0 91.59 90.14"><defs><style>.cls-1{fill:#fff;}</style></defs><title>Artboard 11@4x1</title><g id="_5osUNg" data-name="5osUNg"><path class="cls-1" d="M77.6,34.15q0,13.35,0,26.7a1.79,1.79,0,0,0,.69,1.57,15.79,15.79,0,1,1-26,14.08,15.4,15.4,0,0,1,5.38-14.14,1.66,1.66,0,0,0,.65-1.4q0-8.64-.05-17.27,0-18,0-35.93A7.62,7.62,0,0,1,66.05,0h3.88a7.62,7.62,0,0,1,7.66,7.72Q77.62,20.93,77.6,34.15Zm-2.91.92h.06V8a4.77,4.77,0,0,0-5-5.1H66.43c-3.32,0-5.25,1.95-5.25,5.31q0,18.57,0,37.14c0,5.32,0,10.65,0,16a3.47,3.47,0,0,1-1.48,3.11A12.88,12.88,0,0,0,70.08,87.08c5.41-1,9-4.24,10.37-9.56s-.36-10-4.7-13.46a2.19,2.19,0,0,1-1-1.83c0-5,0-9.92,0-14.88C74.68,43.26,74.69,39.17,74.69,35.07Z"/><path class="cls-1" d="M36.46,56.46a16.31,16.31,0,1,1,16.33-16.2A16.3,16.3,0,0,1,36.46,56.46ZM49.9,40.18a13.42,13.42,0,1,0-13.38,13.4A13.39,13.39,0,0,0,49.9,40.18Z"/><path class="cls-1" d="M35.06,67.34c0-2.43,0-4.86,0-7.29,0-1.12.53-1.79,1.4-1.81s1.46.64,1.46,1.75q0,7.47,0,14.94c0,1-.55,1.69-1.4,1.71S35.06,76,35.06,74.9C35.05,72.38,35.06,69.86,35.06,67.34Z"/><path class="cls-1" d="M37.92,12.81c0,2.52,0,5,0,7.56,0,1.05-.57,1.68-1.42,1.69s-1.44-.63-1.44-1.67c0-2.79,0-5.59,0-8.39,0-2.18,0-4.36,0-6.55,0-1.12.52-1.77,1.42-1.78s1.44.64,1.44,1.76Q37.94,9.12,37.92,12.81Z"/><path class="cls-1" d="M21,50.23a3.6,3.6,0,0,1-.87,1Q13.57,55.08,7,58.85a1.43,1.43,0,1,1-1.38-2.49c3.32-1.94,6.65-3.85,10-5.78,1.09-.63,2.15-1.32,3.26-1.91S21,48.83,21,50.23Z"/><path class="cls-1" d="M28.31,23.4c-.34.39-.63,1-1,1.11a2.68,2.68,0,0,1-1.51-.26c-.21-.08-.35-.42-.48-.66Q21.6,17.24,18,10.89a2,2,0,0,1-.34-1.36,2,2,0,0,1,1.08-1.09c.69-.27,1.23.16,1.59.78,1.25,2.15,2.49,4.31,3.73,6.46s2.5,4.31,3.73,6.48C27.94,22.5,28.07,22.87,28.31,23.4Z"/><path class="cls-1" d="M19.12,71.93a1.44,1.44,0,0,1-1.5-1.88,2.22,2.22,0,0,1,.2-.41q3.78-6.56,7.55-13.1a1.45,1.45,0,0,1,1.75-.84,1.43,1.43,0,0,1,.75,2.24C27,59.57,26,61.19,25.06,62.81q-2.32,4-4.64,8.07C20.08,71.47,19.69,72,19.12,71.93Z"/><path class="cls-1" d="M6.26,21.19a6.9,6.9,0,0,1,.8.33q6.51,3.74,13,7.51a1.45,1.45,0,0,1,.75,2.07,1.46,1.46,0,0,1-2.17.41C14.31,29,10,26.5,5.63,24a1.46,1.46,0,0,1-.86-1.74A1.43,1.43,0,0,1,6.26,21.19Z"/><path class="cls-1" d="M9.19,41.58H1.54A1.39,1.39,0,0,1,.05,40.47a1.3,1.3,0,0,1,.71-1.55,2,2,0,0,1,.89-.17q7.56,0,15.12,0a1.44,1.44,0,0,1,1.63,1.38c0,.85-.63,1.45-1.65,1.46C14.23,41.59,11.71,41.58,9.19,41.58Z"/><path class="cls-1" d="M46.52,24.69a1.48,1.48,0,0,1-1.47-2.21c.64-1.19,1.34-2.35,2-3.52,1.27-2.21,2.54-4.43,3.83-6.63.66-1.11,2-1.24,2.51-.21a1.92,1.92,0,0,1,0,1.54c-1.92,3.44-3.89,6.84-5.89,10.23A3.25,3.25,0,0,1,46.52,24.69Z"/><path class="cls-1" d="M86.3,46.91c-1.23,0-2.46,0-3.68,0-1,0-1.67-.58-1.67-1.44a1.46,1.46,0,0,1,1.61-1.41c2.49,0,5,0,7.46,0a1.43,1.43,0,1,1,0,2.85C88.76,46.93,87.53,46.91,86.3,46.91Z"/><path class="cls-1" d="M86.28,19.2c1.23,0,2.45,0,3.68,0a1.48,1.48,0,0,1,1.63,1.39A1.46,1.46,0,0,1,90,22.06q-3.69,0-7.37,0A1.46,1.46,0,0,1,81,20.67a1.48,1.48,0,0,1,1.64-1.47C83.82,19.18,85.05,19.2,86.28,19.2Z"/><path class="cls-1" d="M86.25,34.5H82.66c-1,0-1.69-.57-1.71-1.41s.65-1.47,1.74-1.47c2.4,0,4.79,0,7.19,0,1,0,1.69.57,1.71,1.41s-.66,1.46-1.74,1.47Z"/><path class="cls-1" d="M51.68,64c-.33.35-.63.87-1.08,1.1a1.23,1.23,0,0,1-1.67-.56c-.69-1.13-1.34-2.28-2-3.42S45.69,59,45.1,57.93a1.44,1.44,0,0,1,.42-2.09,1.41,1.41,0,0,1,2,.62q1.89,3.23,3.73,6.46A8.15,8.15,0,0,1,51.68,64Z"/><path class="cls-1" d="M86.18,9.63c-1.2,0-2.4,0-3.6,0A1.46,1.46,0,0,1,81,8.23c0-.85.64-1.44,1.67-1.45q3.64,0,7.3,0c1,0,1.68.59,1.67,1.44s-.66,1.39-1.71,1.4Z"/><path class="cls-1" d="M86.28,59.33c-1.23,0-2.45,0-3.68,0-1,0-1.67-.6-1.65-1.45a1.45,1.45,0,0,1,1.63-1.38c2.48,0,5,0,7.45,0a1.42,1.42,0,1,1,0,2.83C88.8,59.35,87.54,59.33,86.28,59.33Z"/><path class="cls-1" d="M84.78,13c.73,0,1.47,0,2.21,0a1.43,1.43,0,1,1,0,2.86q-2.27,0-4.53,0A1.43,1.43,0,1,1,82.38,13c.79,0,1.6,0,2.4,0Z"/><path class="cls-1" d="M84.69,53.14c-.74,0-1.48,0-2.22,0a1.44,1.44,0,1,1,.06-2.87c1.45,0,2.89,0,4.34,0a1.44,1.44,0,0,1,1.6,1.41,1.47,1.47,0,0,1-1.57,1.47H84.69Z"/><path class="cls-1" d="M84.73,40.69c-.77,0-1.54,0-2.31,0a1.41,1.41,0,1,1,0-2.82c1.54,0,3.08,0,4.62,0a1.42,1.42,0,1,1,0,2.84H84.73Z"/><path class="cls-1" d="M84.7,25.43c.77,0,1.54,0,2.31,0a1.41,1.41,0,1,1,0,2.82q-2.31,0-4.62,0A1.42,1.42,0,0,1,81,26.82a1.45,1.45,0,0,1,1.54-1.39H84.7Z"/><path class="cls-1" d="M70.93,38.14q0,13.53,0,27.08a1.19,1.19,0,0,0,.82,1.3A9,9,0,1,1,59,74.77a8.62,8.62,0,0,1,5.15-8.21A1.35,1.35,0,0,0,65,65.11q0-27,0-54.06c0-2.1,1.2-3.42,3.06-3.37a2.92,2.92,0,0,1,2.84,2.64,8.68,8.68,0,0,1,0,1Q70.92,24.74,70.93,38.14Z"/></g></svg>