<svg xmlns="http://www.w3.org/2000/svg" xmlns:xlink="http://www.w3.org/1999/xlink" viewBox="0 0 857.86 512.15"><defs><style>.cls-1{fill:none;}.cls-2{isolation:isolate;}.cls-3{fill:#d2d2d2;}.cls-4{clip-path:url(#clip-path);}.cls-5{opacity:0.59;mix-blend-mode:soft-light;}.cls-6{fill:#222221;}</style><clipPath id="clip-path"><rect class="cls-1" x="167.93" y="-176.61" width="522.94" height="866.95" transform="translate(172.54 686.27) rotate(-90)"/></clipPath></defs><title>Artboard 18@4x1</title><g class="cls-2"><g id="Layer_1" data-name="Layer 1"><rect class="cls-3" x="167.93" y="-176.61" width="522.94" height="866.95" transform="translate(172.54 686.27) rotate(-90)"/><g class="cls-4"><g class="cls-5"><path class="cls-6" d="M237.48,537.31a483.05,483.05,0,0,1-131.8-21.63C36.87,494.6-25.42,461-83.87,419.61a930,930,0,0,1-143-125.48c-8.86-9.51-17-19.7-25.55-29.5-3.53-4-2.21-7.42.9-10.77,19.79-21.28,38.88-43.27,59.51-63.7A857.29,857.29,0,0,1-31.28,65.34C6.06,42.8,45.35,23.9,86.67,9.81a530.52,530.52,0,0,1,85.07-21.23c40.77-6.73,81.57-6.78,122.16-1.8,33.78,4.14,66.73,13.13,99,24.68,38.27,13.7,75.18,30.27,109.48,51.8,31.57,19.82,62.09,41.42,92.22,63.4,40.86,29.82,76.52,65.53,111.12,102.26,8,8.52,15,18.06,22.79,26.79,3,3.3,2.66,5.3-.16,8.3-22.33,23.79-43.65,48.6-67,71.37A827.85,827.85,0,0,1,501.73,457.16c-44.15,25.93-90.33,47.61-139.82,60.89-26.48,7.1-53.87,11.05-81,15.46C266.61,535.84,252,536.11,237.48,537.31Zm.36-64.54C357,472,451.39,376.69,452.23,259.57c.86-120.67-96.28-216.95-215-216.23C116.9,44.06,23.28,139.44,23.37,258,23.45,377.24,117.75,471.55,237.84,472.77ZM370.19,41.9c78,55.44,121.39,127.93,118.08,224.92-3.31,96.76-52,165.82-132.95,214.89,14.18-4.45,28.35-8.56,42-14.06a680.73,680.73,0,0,0,135.11-73.76c50.44-35.28,96.56-75.7,139-120.28,15-15.72,14.85-12,0-27.67-42.05-44.35-87.72-84.58-137.87-119.61C496.66,100.61,458,78.09,416.75,60.27,401.44,53.66,385.72,48,370.19,41.9ZM106,43.21a8,8,0,0,0-2.53-.21A558.14,558.14,0,0,0,9.87,84.34a761.44,761.44,0,0,0-139,98.35c-24.52,21.91-47.53,45.5-71.31,68.25-8.53,8.15-8.67,8.25-.64,16.82,36.7,39.16,75.6,76.06,119,107.62A912.65,912.65,0,0,0,6.29,432.57c26.7,15.06,55.43,26.6,83.53,39.08,9.91,4.4,20.61,7,31,10.39-81.63-49-130.16-118.65-133.6-215S26.91,97.26,106,43.21Z"/><path class="cls-6" d="M285.75,148.46c-15.4,22.56-18.11,45.74,1.2,66C305.43,233.92,328,233,350.2,219.57c16.37,29.67,10,89.28-30,126.54-45.27,42.16-113.84,42.57-158.34,5.51-51.65-43-57.62-112.3-23.18-162.29C174.2,137.75,241.11,125.52,285.75,148.46Z"/></g></g></g></g></svg>