<svg id="Layer_1" data-name="Layer 1" xmlns="http://www.w3.org/2000/svg" viewBox="0 0 183.59 76.58"><defs><style>.cls-1{fill:#6ab7d1;}.cls-2{fill:#98c14f;}.cls-3{fill:#4e82c1;}.cls-4{fill:#416b9c;}</style></defs><title>Artboard 12@4x1</title><path class="cls-1" d="M107.26,69.69c2.65.94,4.55-2.42,2.15-3.35-4.07-1.58-6.27-2.64-5.56-5.84a6.69,6.69,0,0,1,7.93-4.85,12.89,12.89,0,0,1,5.3,2.34l2.59-3.18A14.8,14.8,0,0,0,112.35,52a10.83,10.83,0,0,0-12.26,8.63C99,66.15,103.37,68.32,107.26,69.69Z"/><path class="cls-2" d="M110.56,58.81c-2.66-.94-4.56,2.42-2.16,3.35,4.07,1.59,6.27,2.64,5.57,5.84A6.71,6.71,0,0,1,106,72.86a13.23,13.23,0,0,1-5.3-2.34l-2.58,3.17a14.8,14.8,0,0,0,7.32,2.78,10.81,10.81,0,0,0,12.25-8.63C118.83,62.35,114.45,60.19,110.56,58.81Z"/><polygon class="cls-3" points="60.96 52.59 75.97 52.59 75.25 56.36 64.38 56.36 63.21 62.51 73.46 62.5 72.74 66.27 62.49 66.27 60.63 75.99 56.5 75.99 60.96 52.59"/><path class="cls-3" d="M95.31,67.39A11.13,11.13,0,0,1,84.2,76.58c-5.33,0-8.7-3.53-7.62-9.19l2.82-14.8h4.15l-2.8,14.67c-.44,2.31.22,5.35,4.2,5.35a6.27,6.27,0,0,0,6.25-5.35L94,52.58h4.14Z"/><polygon class="cls-3" points="123.96 52.58 128.1 52.57 123.64 75.97 119.5 75.97 123.96 52.58"/><path class="cls-3" d="M143.93,52c7.29-.14,11.49,4.75,10.06,12.25a15,15,0,0,1-14.75,12.33c-7.16,0-11.35-4.88-10-12.19A14.78,14.78,0,0,1,143.93,52ZM140,72.8c4.83,0,8.72-3.71,9.67-8.7.89-4.66-1.59-8.36-6.42-8.36a10,10,0,0,0-9.58,8.37C132.72,69.1,135.2,72.8,140,72.8Z"/><polygon class="cls-3" points="159.64 52.57 165.13 52.56 173.08 69.94 173.15 69.94 176.46 52.56 180.6 52.56 176.14 75.96 170.89 75.96 162.81 58.02 162.74 58.02 159.32 75.96 155.18 75.96 159.64 52.57"/><path class="cls-4" d="M89.17,15.22V13.66a.5.5,0,0,0-.48-.44H82.08a.56.56,0,0,1-.47-.6V2.1c0-.36-.2-.48-.52-.33L75.17,4.48c-1.09.5-1.62,1.64-1.61,3.39V12.7c0,.23-.14.52-.42.52H69.38a.46.46,0,0,0-.44.39v1.72a.44.44,0,0,0,.46.36H73a.53.53,0,0,1,.52.5V37.3c0,4.1,2.87,8,8.29,8h7.31a.42.42,0,0,0,0-.83h-.38a7.29,7.29,0,0,1-7.17-7.42V16.19a.54.54,0,0,1,.6-.5h6.5A.47.47,0,0,0,89.17,15.22Z"/><path class="cls-4" d="M18.2,12.29c-10,0-18.2,7.62-18.2,17s6.34,17,18.2,17c10.06,0,18.21-7.62,18.21-17S30,12.29,18.2,12.29Zm0,31.52c-6,0-9.66-6.52-9.66-14.55S12,14.71,18.17,14.71c6.44,0,9.67,6.52,9.67,14.55S24.58,43.81,18.17,43.81Z"/><path class="cls-4" d="M55.22,13a14,14,0,0,0-7,1.84c-.29.17-.48,0-.48-.25v-1c0-.27-.2-.42-.55-.42H37.71a.42.42,0,1,0,0,.83h.38a1.63,1.63,0,0,1,1.62,1.52V58.91a1.62,1.62,0,0,1-1.62,1.54h-.38a.42.42,0,1,0,0,.83h12a.42.42,0,1,0,0-.83h-.38a1.62,1.62,0,0,1-1.62-1.55V45.16a.39.39,0,0,1,.54-.41,18,18,0,0,0,5.85.87A16,16,0,0,0,70.32,29.24C70.32,20.29,63.56,13,55.22,13ZM52.1,42.34a10.05,10.05,0,0,1-3.78-.62c-.33-.14-.57-.59-.57-1.26V18.9a1.33,1.33,0,0,1,.5-1.25,8.49,8.49,0,0,1,4.59-1.38c5.66,0,10.25,5.81,10.25,13C63.09,37.26,58.61,42.34,52.1,42.34Z"/><path class="cls-4" d="M101.07,13.22H91.43a.4.4,0,0,0-.4.39V44.77a.48.48,0,0,0,.5.53h9.54c.61,0,.49-.83,0-.83h-.38a1.61,1.61,0,0,1-1.61-1.55V15.62a1.62,1.62,0,0,1,1.62-1.57h.39A.42.42,0,1,0,101.07,13.22Z"/><path class="cls-4" d="M125.3,13.22c-.49,0-.52.83,0,.83h.34c.93,0,1.33.79,1.58,1.59.62,2.38.33,5.08-1.94,11.17a72.71,72.71,0,0,1-3.83,8.66c-.15.29-.42.3-.53,0-.59-1.45-2.52-6.25-4-10-1.18-3.1-2.18-6.23-3.21-9.57a1.38,1.38,0,0,1,1.33-1.83h.34a.42.42,0,1,0,0-.83H102.35a.42.42,0,1,0,0,.83h.39c.81,0,1.28.62,1.66,1.53,1.11,2.77,3.65,9.06,6.17,15,3.41,8,6.31,14,7,15.36a.56.56,0,0,0,.53.28h.61a.51.51,0,0,0,.47-.33c.77-1.65,4.25-9.07,7.52-16.34,2.5-5.54,4.68-11,5.83-14,.31-.79.75-1.49,1.54-1.49h.34a.42.42,0,0,0,0-.83Z"/><path class="cls-4" d="M148.56,43.38c-6.05,0-8.33-6-8.4-15.84a.51.51,0,0,1,.55-.45H161c.3,0,.43-.33.43-.49,0-7.22-6.34-13.81-13.24-13.81A16.39,16.39,0,0,0,131.55,29.2c0,9.06,5.93,16.41,17,16.41a16.32,16.32,0,0,0,13.77-8.29,1.42,1.42,0,0,0-.2-1.48l-2.88-3.53a.45.45,0,0,0-.73.52,4.68,4.68,0,0,1,0,2.87A10,10,0,0,1,148.56,43.38ZM148.22,15c3.68,0,5.44,3.54,5.72,6.65A1.71,1.71,0,0,1,152,23.57H141.16c-.4,0-.42-.37-.38-.55C141.82,18.28,144.05,15,148.22,15Z"/><path class="cls-4" d="M100.05,4.53a5,5,0,0,1-10,0,5,5,0,0,1,10,0Z"/><path class="cls-3" d="M179.21,73.35l-.47,2.6h-.55l.47-2.6h-.83l.09-.5h2.21l-.09.5Zm3.26,2.6.36-2L182,75.22h-.52L181,73.93l-.36,2h-.56l.56-3.1h.56l.58,1.76L183,72.85h.56L183,76Z"/></svg>