<svg xmlns="http://www.w3.org/2000/svg" viewBox="0 0 790.07 869.1"><defs><style>.cls-1{fill:#0784c7;}</style></defs><title>Asset 3@3x1</title><g id="Layer_2" data-name="Layer 2"><g id="Layer_1-2" data-name="Layer 1"><path class="cls-1" d="M339.06,665.77c-8.14,0-8.11,0-9.12-8-.2-1.63-.93-3.19-1.12-4.81q-3.09-25.59-6.05-51.21c-.28-2.45-.21-5-.57-7.4-1.09-7.61-2.39-15.19-3.45-22.8-1.15-8.29-1.73-16.68-3.26-24.9-2.05-11.07-5-22-7.13-33a75.17,75.17,0,0,0-12.85-30.46,60.2,60.2,0,0,0-6.14-7.12c-7.47-7.53-18.08-8.74-27.15-13-9.78-4.57-20.26-7.74-30.6-11-17.72-5.58-33.89-14.62-49.76-23.76-14.82-8.54-28.79-18.92-40.15-32.16-3.39-3.95-7.25-7.61-10-12-5.07-8-9.53-16.36-14.15-24.62a126.34,126.34,0,0,1-13.43-35.74,214.54,214.54,0,0,1-3.82-26.46c-1.19-14.15-1.35-28.33,2-42.3,3.49-14.39,5.41-29.21,11.59-42.86,4.12-9.1,7.5-18.76,13-27,13-19.52,28.1-37.31,46.19-52.49,12.89-10.81,25.69-21.78,41-28.87q24.66-11.39,50-21.18c9.42-3.65,19.37-6.06,29.21-8.56,10.11-2.57,20.31-4.88,30.58-6.73,8-1.43,16.06-2.13,24.13-2.85,4.46-.4,9-.08,13.47-.25,8.64-.32,17.26-.78,25.9-1.12a5.68,5.68,0,0,1,2,.79,45.58,45.58,0,0,1-10.24,2.25c-10.64,1.2-21.31,2.17-31.93,3.51-6.12.77-12.23,1.84-18.24,3.21C320,75,310.9,77.39,301.87,79.8,293.94,81.92,286,84,278.2,86.61c-9.61,3.28-19,7.06-28.48,10.79a85.47,85.47,0,0,0-11.66,5.48c-4.83,2.82-9.16,6.53-14.07,9.15-14.15,7.56-27.59,16.17-39.11,27.3C177.4,146.56,171,154.91,164,162.67c-7.55,8.41-14.42,17.22-18.71,27.84-6.18,15.28-12.34,30.4-13.91,47.19-1.74,18.55-.5,36.55,5.63,54.12.91,2.59,2.76,6.17,4.9,6.79,10.51,3,21.29,5.18,31.94,7.76a72.78,72.78,0,0,1,7.22,2.54l-.27,1.43a11.85,11.85,0,0,1-2.92,0c-4.79-1.22-9.51-2.77-14.34-3.78-5.39-1.13-10.51-3.49-16.47-2-3.59.87-4.73,1.95-3.18,5.07,3.7,7.46,7.13,15.13,11.59,22.14,4.7,7.38,10.38,14.16,15.87,21,1,1.26,3.68,2.64,4.74,2.15,4.62-2.13,8.58,0,12.77,1,2.66.64,5.37,1.06,8,1.77,5,1.35,10,2.84,15,4.27l-.17,1-31.83-3.45a5,5,0,0,0,2,3.08c5.37,3.52,10.75,7,16.19,10.44,6.35,4,12.4,8.72,19.24,11.52,17.77,7.26,35.9,13.64,53.89,20.34a48.43,48.43,0,0,0,7.45,2.36c6.95,1.35,13.49,3.82,20.88,4.3,7.86.52,15.23,5.89,23.63,6.4a6,6,0,0,1,1.89.79c10.33,4.76,16.83,12.37,21.09,23.24a84.29,84.29,0,0,1,5.24,19.27c2.56,18.38,4.34,36.86,6.32,55.31.23,2.1.67,3.11,3,3.42,9.64,1.3,19.3,2.62,28.86,4.37,16.88,3.08,33.69,6.46,50.52,9.79,3,.59,5.88,1.53,8.82,2.31-.06.47-.12.94-.19,1.41a19.7,19.7,0,0,1-3.35,0c-7.69-1.38-15.37-2.77-23-4.28-6.87-1.36-13.68-3-20.55-4.31-8.36-1.64-16.71-3.38-25.13-4.58-4.6-.66-9.35-.39-14-.25-.86,0-2.07,1.31-2.37,2.25-.23.7.61,2.45,1.24,2.59,4.78,1.08,9.66,2.75,14.45,2.56,7.35-.28,13,3.37,19.06,6.26,0,0-.11.44,0,.18l-35.2-5.1c0,8.66-.14,16.77.14,24.87a5.13,5.13,0,0,0,3,3.66c19,5.78,38.16,11.31,57.23,17q9.09,2.7,18,5.82a30.7,30.7,0,0,1,5,2.85l-.72,1.31c-2.56-.83-5.11-1.68-7.68-2.48-15.18-4.78-30.31-9.76-45.58-14.24-7.88-2.31-16-3.82-24.08-5.42-1.45-.29-4.49.71-4.51,1.21a12.4,12.4,0,0,0,1.31,6.23c.57,1.06,2.54,1.5,4,2,8.38,2.65,16.8,5.16,25.16,7.88,1.37.45,2.49,1.67,3.73,2.53l-.53,1.23c-10.76-1.56-20.62-8.29-32.23-6.21-.82,3-.45,5.27,3.18,6.11s7.51,1.66,11.19,2.75c6.78,2,13.48,4.3,20.27,6.31,3.93,1.16,7.94,2.78,11.94,2.84,17,.28,34,.16,51.05,0,11.16-.12,22.31-.63,33.46-.93,2.76-.07,5.52.07,8.28-.08,10.74-.58,11.7-1.54,10.81-12.41a8,8,0,0,0-3.44-5.32c-4.35-2.58-9.08-4.53-13.68-6.67a471.16,471.16,0,0,0-70.25-26c-3.32-1-6.61-2.05-9.91-3.08.14-.45.27-.9.41-1.36,17.11,2.79,33.47,8.39,49.55,14.74s32,13.38,48.81,20.46c0-4.77,0-9,0-13.21a2.76,2.76,0,0,0-.73-1.85c-3.61-3.21-6.92-7-11-9.37-7.74-4.45-15.89-8.2-24-12-13.87-6.54-27.12-14.37-41.76-19.35-12.34-4.21-24.38-9.33-36.52-14.09-3.46-1.36-6.84-2.89-10.25-4.34l.59-1.47c21.11,7.5,42.45,14.45,62.81,23.87s40.16,19.56,60.52,29.54a22.46,22.46,0,0,0,.62-3.45c0-9,.18-17.94-.35-26.87a9.42,9.42,0,0,0-4.06-6.65c-9.71-5.39-19.6-10.51-29.69-15.16-21.08-9.7-41.76-20.38-64.25-26.69-12.82-3.61-25.57-7.5-38.43-10.95-5.55-1.48-11.34-2.06-16.95-3.35-1.38-.31-2.48-1.81-3.72-2.76a25.33,25.33,0,0,1,3.1-2.95,4.74,4.74,0,0,1,2.76-.65c6.46.3,13,.28,19.35,1.19,8.67,1.24,17.24,3.18,25.84,4.9,3.74.75,7.42,1.72,11.13,2.58l-.29,1.53-50.6-6.56c0,.39-.08.78-.13,1.17,4.4.86,8.89,1.37,13.17,2.64,17.36,5.15,35.06,9.51,51.87,16.09,21.22,8.3,41.7,18.48,62.48,27.87,5.95,2.68,11.85,5.46,18.87,8.7,0-5.18,0-9.27,0-13.37,0-3-.11-5.87-3.84-6.81-.52-.13-1.32-1-1.23-1.36,1-3.55-1.77-4.91-3.84-6.55a433.28,433.28,0,0,0-49.8-34.44c-3.6-2.12-7-4.65-10.44-7l1-1.48c11.47,7,23.19,13.66,34.35,21.14s22,16,33.64,24.48c0-2.64.11-4.28,0-5.91q-.79-10.68-1.72-21.36a39.84,39.84,0,0,0-.93-7.36,12.49,12.49,0,0,0-3-5c-1.49-1.55-3.51-2.57-5.23-3.91-6-4.63-11.44-10-17.87-13.82-15-8.87-30.42-17.11-45.77-25.41A900.82,900.82,0,0,0,355.67,369a19.93,19.93,0,0,1-2.81-1.83c4.46-1.49,36.73,12.7,79.72,35.1,25.9,13.49,51.7,27.17,76.54,44.09-.25-2.54-.12-4.38-.65-6-3-9.4-5.79-18.92-9.49-28.06-4.11-10.16-8-20.71-14-29.74-14.26-21.46-35.25-34.43-59.52-41.91-20.74-6.4-42.38-7.8-63.83-10.2-14.49-1.62-28.86-3.75-42.25-10.16-19.17-9.17-31.2-29.58-30.24-48.8.56-11.41.9-23.12,6.37-33.79,4.57-8.91,7.84-18.52,15.38-25.66a119.36,119.36,0,0,1,25-18.73c15-8.17,30.7-13.43,47.71-14.53,16.68-1.07,33,.64,48.5,7.44,19.95,8.75,38.27,19.5,48.77,39.78,3.72,7.18,8.39,14.18,10.43,21.84,2.67,10,3.11,20.56,4.57,30.87,1.95,13.77-.57,27.11-3.94,40.35-.69,2.72-1.51,5.41-2.32,8.27,1,.15,1.64.28,2.31.34,13.72,1.24,27.47,2.26,41.16,3.76,16.79,1.85,33.53,4.14,50.31,6.17,10.51,1.27,21,2.38,31.55,3.62,3.26.39,6.5,1.36,9.75,1.37,6.5,0,9-1.81,10.48-7.12,3.77-13.8,6.92-27.73,6.18-42.17s-1.42-28.85-2.65-43.23a85.88,85.88,0,0,0-3.78-19.76c-8.42-25-21.22-47.83-36.26-69.43-2.08-3-4.74-5.54-7-8.4-1.61-2-2.69-4.6-4.57-6.32-11.62-10.67-22.87-21.84-35.26-31.54-15.78-12.34-32.18-24-51.45-30.71-.48-.17-.78-.85-1.17-1.29l.56-1.12c5.84,2.16,12,3.7,17.47,6.59,22.18,11.71,43,25.39,61.81,42.21s32.48,37.28,46.57,57.57c5.23,7.53,8.55,16.42,12.44,24.82A140.33,140.33,0,0,1,645.49,231a204,204,0,0,1,5.77,24.4c1.82,10.54,3.11,21.18,4.19,31.82.24,2.32-1.91,4.8-2.05,7.25-.58,10.43-1.26,20.89-1.08,31.32.23,12.94-2.26,25.45-4.74,38-2.23,11.33-4.86,22.57-7.41,33.83-1.33,5.89-2.76,11.76-4.36,17.59-.84,3.06-2.8,5.26-6.34,4.42-4.42-1-8.7-2.68-13.13-3.62-13.68-2.91-27.33-6.12-41.14-8.25-16.31-2.51-32.75-4.16-49.17-5.85-5.46-.57-11-.09-16.69-.09,1.76,5.65,3.61,10.4,4.7,15.32,2.18,9.87,4,19.83,5.88,29.75,1.85,9.55,4.61,19,5.36,28.68,1.48,18.81,2.08,37.71,2.6,56.58.41,15-.09,30,.27,45,.59,24.51,1.54,49,2.34,73.52.19,5.76-.32,6.24-6.24,6.6-4.73.29-9.44.81-14.66,1.27,1.16,1.92,2,3.32,2.84,4.72,5,8.32,10.9,16.28,14.93,25.07a282.39,282.39,0,0,1,13.7,36.15c3.8,12.6,6.45,25.58,9,38.5a77.77,77.77,0,0,1-7.88,53.14c-5,9.43-12.37,16.89-19.62,24.23-12,12.15-27.51,18.87-43.57,23.78-8,2.46-16.71,2.89-25.1,4.21a26.75,26.75,0,0,1-6.12.71c-7.12-.56-14.22-1.46-21.35-2.08-19.58-1.72-37.43-8.74-54.11-18.58-14.18-8.36-24.36-21-32.08-35.33-3.79-7-5.78-15.08-8.27-22.77-2.73-8.43-4.22-17.07-2.7-26,1.29-7.51,2.09-15.17,3-22.64,2-17.23,5.62-33.73,12.49-49.6.49-1.13-.34-2.84-.6-4.27-.15-.85-.78-2.16-.46-2.44a4.68,4.68,0,0,1,2.84-1,7.74,7.74,0,0,1,2.53.82c4.66-6.36,9.17-12.5,14.28-19.45C354.69,665.77,346.88,665.75,339.06,665.77ZM530.32,342.05c-4.83,7-7.16,14.91-8.86,23.08l-5.28,14,1.62.51,3.6-14.51A55,55,0,0,0,530.32,342.05ZM352.57,201.64Q347.74,218,343,234.46a3.65,3.65,0,0,0,.09,1.17l1,.38c5.46-13.66,10.91-27.31,16.85-42.16l-10.87,4.93c-1.08,1.07-2.71,1.95-3.14,3.23a184.21,184.21,0,0,0-5.27,18.85l8.37-22.12C352.8,198.11,353.26,199.29,352.57,201.64ZM508.52,727c3.49.81,6.93,1.85,10.39,2.78l.7-1.29c-2.35-1.83-4.58-3.87-7.09-5.45a381,381,0,0,0-56.22-29.16c-14.82-6.14-30.08-11.33-45.43-16-10.32-3.14-21.13-4.66-31.73-6.82a3.6,3.6,0,0,0-2.72.48c-5.95,5.19-11.8,10.49-17.68,15.76l.5,1.33c5.37,1.4,10.84,2.48,16.08,4.25q23.42,7.9,46.66,16.28c4.49,1.61,8.79,3.81,13.12,5.85.77.36,1.26,1.3,1.88,2l0-.06a55.46,55.46,0,0,1-5.65-1.39c-15.49-5.6-30.85-11.61-46.49-16.76-8.14-2.69-16.76-4-25.2-5.75-4.24-.9-6.2,1.51-7.39,5.29-2.3,7.28-4.94,14.24-5.28,22.21a158,158,0,0,0,.35,22c1.33,13.84,8.63,24.93,18.24,34.71,10.08,10.26,22.68,15.95,36.13,19.75a123.17,123.17,0,0,0,25.47,4.72c17,1.08,32.57-4.08,47.05-12.76,6-3.61,12-7.3,17.93-11,6.82-4.2,11.94-10,16-16.62-20.78-13.18-45.06-17.31-67.81-25.41.12-.55.23-1.1.35-1.65a8.86,8.86,0,0,1,2.75-.11c12.67,3.63,25.39,7.08,37.95,11.08,8.11,2.58,16,5.88,23.91,9,6.39,2.53,7.46,2.07,9.48-4.34,1.23-3.91,2.88-7.69,4.08-11.6,1.08-3.51-.26-5.4-4-6.59-5.42-1.75-10.57-4.32-15.83-6.55l-.06.06C502.22,725.78,505.4,726.26,508.52,727ZM471.34,295.72a48.35,48.35,0,0,0-11.52-23.87c-7.11-8-13.14-17.15-23.17-21.94A98.71,98.71,0,0,0,421.32,244c-18.28-5.17-36.95-7.69-55.94-6.26-14.25,1.07-28,5.36-39.2,13.9-15.24,11.63-20.32,29.05-7,47,7.74,10.48,18.6,16,30.52,19.08,11,2.86,22.46,3.74,33.59,6.07,16.1,3.38,32.12,7.18,48.13,11a100.55,100.55,0,0,1,34.71,15.54C471.22,331.85,474.56,314,471.34,295.72Zm55.16,467a53.09,53.09,0,0,1-8.67,14.23c-12.93,15.55-30.07,25-48.6,32.2-3.65,1.41-7.49,2.32-11.24,3.47l-.43-1,21.86-13.21-.41-.75c-4.67,1.68-9.26,3.68-14,5-8.72,2.34-17.54,4.35-26.35,6.32-5.57,1.25-11.19,2.38-16.84,3.17-2.72.38-5.71.88-8-2-.59-.73-2.52-.4-4.43-.63.74,5.66,1.35,10.77,2.07,15.87,1.07,7.48,2.1,15,3.39,22.42.79,4.54,3,6.12,8.18,5.93-1.2-4.56-2.35-9-3.51-13.38l1.81-.72c1,2.12,2.18,4.19,3.1,6.36s1.29,4.54,2.47,6.48c.69,1.13,2.49,1.59,3.79,2.36.28-1.36,1.12-2.91.75-4.06-1.64-5.1-3.71-10-5.45-15.11-1.16-3.39-2-6.87-3.11-10.51,1,.06,1.43,0,1.48.11,4.07,8.64,9.08,17,10.18,26.69.35,3.07,1.9,3.16,4.15,3,13.61-.7,27.15-2,40.41-5.31,20.72-5.15,37.83-15.6,50.13-33.58,8.22-12,14.13-24.7,12.79-39.45-.93-10.22-3.23-20.32-5.24-30.41-.52-2.62-2.24-5-3.16-7C531.41,746.75,529.53,754.94,526.5,762.69ZM165.37,365.6c-.12-2.29.22-4.19-.42-5.66s-2.28-2.62-4.49-3.71c0,4.45-.43,8.94.11,13.32s2.11,8.62,3.07,12.95a10.23,10.23,0,0,1-.3,3.26c-1.07,7.81.36,15.36,2.68,22.76.43,1.4,1.86,2.49,2.83,3.72l1.56-.17q1.13-11.88,2.26-23.75l1.55.08c0,3.53,0,7.06,0,10.59,0,4,0,8-.28,12-.32,4.15,1.62,6.92,4.93,8.81,18.38,10.47,36.6,21.23,56.95,27.69,5.59,1.77,10.93,4.31,17.36,6.9-.89-14.41-2.31-27.9-1.55-41.38l1.55-.25c.6,1.83,1.61,3.63,1.73,5.49.52,8.66.79,17.33,1.16,26,.23,5.36,4.07,11,8.45,12.36-.79-15.08-2.83-30.08-2.93-45.15l1.72-.32c.51,1.1,1.36,2.16,1.47,3.3,1.26,13,2.39,26.05,3.61,39.08a7.64,7.64,0,0,0,1.93,4.57c0-12.08,0-24.16,0-36.24a93.29,93.29,0,0,1,.33-9.89c.28-2.58-.67-3.81-3.05-4.49-9.22-2.64-18.57-5-27.6-8.16a224.94,224.94,0,0,1-24.22-10.41c-14-6.93-27.87-14.27-41.73-21.55-2-1.07-3.77-2.74-6.54-4.81ZM430.18,664c9.25,3.19,19.41,4.3,27.64,10.1l-.41,1.13c-6.2-1.92-12.35-4-18.6-5.72-11.62-3.25-23.16-7.09-35-9.15-6.59-1.15-14.36-1.27-19.35,6.07,11.82,3,23.66,5.89,35.4,9.13,6.44,1.77,12.69,4.19,19,6.28a28.26,28.26,0,0,0,3.52.87c1.54.3,3.44-.08,2.89,2.74-.1.54,1.91,1.75,3.12,2.26,6.07,2.55,12.38,4.62,18.27,7.53,8.83,4.37,17.43,9.22,26.06,14s17.36,9.84,26.48,15a25,25,0,0,0,.36-5.07c-1.92-15.62-5.42-31-15.6-43.32-7.1-8.62-15.18-16.69-26.86-19.63-5.83-1.47-11.42-3.87-17.13-5.83-9.16-3.14-18.64-3.12-28.18-3.08A60.75,60.75,0,0,0,405,653.08c-1.27.62-2.47,1.37-4.76,2.66C411.07,658.67,420.82,660.78,430.18,664Zm-5.49-428.73c0,2.39.76,3.43,3.13,4.44,8.29,3.52,17.33,6.28,24.34,11.62C468.75,264,480.23,280.18,481,302.16a51.08,51.08,0,0,0,1.79,11.64c.72-5,2-10,2.05-14.95,0-13.07.38-26.24-1.14-39.17-.9-7.63-4.47-15.21-8-22.2-3-5.84-7.31-11.14-11.73-16.07-10.77-12-21.89-23.68-37.82-28.95a46.37,46.37,0,0,0-8.39-1.92c-3.35-.45-6.3.32-7.92,3.81-.33.7-1.22,1.15-2.69,2.47.46-2.81.72-4.46,1-6.37-.72-.07-1.44-.35-1.7-.13-2.86,2.57-6.66,4.71-8.29,7.94-5,9.89-9.23,20.21-13.7,30.38a12,12,0,0,0-.46,2.81c3,1.18,5.25,1.09,6.73-2,3-6.28,6.2-12.49,9.16-18.8,1.8-3.84,3.29-7.83,5-11.71.28-.63,1.13-1,2.2-1.25-1.08,12.76-8.36,23.24-12.88,34.89,3.59,1.67,5.42.63,6.37-3,1.35-5.17,2.94-10.29,4.59-15.38a26.52,26.52,0,0,1,2.28-4.3l1.27.3c-1.57,7.49-3.14,15-4.67,22.31,5.27,2.51,5.34,2.38,6.76-2.05q4.83-15.07,10-30c.52-1.52,1.84-2.76,2.79-4.13l1.28.57c-1.19,4.23-2.35,8.47-3.58,12.69-2,7-4.21,13.9-6.05,20.92-.58,2.21-1.45,5.13,2.21,6s3.34-2.36,4.32-4.23a10.55,10.55,0,0,0,.59-1.88l1.57-.22A30.07,30.07,0,0,1,424.69,235.27ZM564.84,354.79l1.29.09a14.6,14.6,0,0,1,.3,2.85c-1,12.19-2.09,24.38-3,36.57-.1,1.24.5,2.54.77,3.81l1.44-.39c-.31-2-.61-4-.92-6l1.13-.58c1.2,1.44,2.4,2.88,4.5,5.42.42-4.89.85-8.91,1.1-12.94.27-4.26.14-8.56.62-12.79.44-4,1.45-7.91,2.21-11.86l1.69.25c0,3.44.13,6.9,0,10.34-.38,8.53-1,17-1.26,25.58,0,1.46,1.11,3,1.72,4.46.73-1.37,1.92-2.67,2.09-4.1.36-3,.06-6.06.26-9.08a38.85,38.85,0,0,1,1-5.31l1.42.15a43,43,0,0,0,0,5.08c.48,4.06.61,8.29,2,12.07.6,1.69,3.76,2.46,5.76,3.64.64-1.41,1.77-2.81,1.82-4.24.13-4-.22-8-.31-12a3.57,3.57,0,0,1,1.13-2.65,15.32,15.32,0,0,1,1,2.36c1.1,4.94,2.28,9.87,3.14,14.85.55,3.14,3,3.57,5.17,3.83,7.51.87,15.05,1.48,22.59,1.94.68,0,2-1.68,2.14-2.71,1.44-11.29,2.65-22.62,4.06-33.92.43-3.46,1.52-6.84,1.93-10.3.5-4.25-.85-5.74-5.11-6.28-15.39-1.94-30.78-3.91-46.19-5.74-1.25-.15-3.3.31-3.82,1.18-1.92,3.24-3.55,1.56-4.5-.29-2.32-4.52-6.52-2.32-9.87-3-.37-.08-1.48,1.51-1.61,2.42q-1.29,8.54-2.26,17.12-1.51,13.3-2.78,26.65a20.05,20.05,0,0,0,.55,4.44C562.17,382.63,561.23,368.2,564.84,354.79ZM465.47,628.1c-2.25,9.38-1.48,10.48,7.77,12.42,5.09,1.07,10,2.79,15.07,4.11a17.4,17.4,0,0,0,5.22.79c6.57-.36,13.12-1,19.69-1.38,2.92-.15,4-.85,3.63-4.21-1.26-9.83-2.22-19.7-3-29.58-.28-3.74-1.84-5.26-5.4-5-12.34.77-24.68,1.58-37,2.3-3,.17-6.06.1-9.09.06-2.32,0-3.44.94-3.83,3.32-1.16,7.14-2.63,14.22-3.72,21.36-.2,1.3.81,2.78,1.27,4.18,1.53-.75,4-1.14,4.42-2.3,1.57-4.07,2.43-8.41,3.6-12.63a9.35,9.35,0,0,1,.81-1.69l1.68.24C466.25,622.74,466.1,625.47,465.47,628.1ZM342.23,639.92c3.85-9.1,7.72-18.21,11-27.5,1.24-3.47,1.39-7.48,1.32-11.23-.1-5.33-1-10.64-1.33-16-.45-7.82-.64-15.66-1-23.48a19.57,19.57,0,0,0-1.09-3.72c-5.55,13.76-7.93,27.66-14.45,39.92l-1.79-.61,15.66-50.65-1-.29c-2.22,6.65-4.31,13.34-6.68,19.94-4.17,11.63-8.56,23.18-12.73,34.81a13.68,13.68,0,0,0-.91,6c1.45,12.28,3.13,24.53,4.71,36.79.34,2.68.58,5.37.86,8.06l1.27.31C338.18,648.18,340.44,644.15,342.23,639.92ZM397.29,807c-1.41.61-1.83.66-1.88.83-3.87,12.7-2.14,25.11,1.92,37.41,1.14,3.45,3.84,4.22,7.05,4.32C402,835.39,399.68,821.35,397.29,807ZM546.36,390.2c.72-3.51,1.59-7,2.15-10.61,1.63-10.42,3.14-20.85,4.68-31.28.12-.81.49-1.78.19-2.41-.46-1-1.28-2.14-2.18-2.38-.57-.15-2.09,1.1-2.27,1.93-2.09,9.48-4,19-6,28.52-.62,3.08-1.13,6.17-1.7,9.26l1.33-.07ZM367,196l1.52.54q-3.62,12.7-7.24,25.42l1.19.4q6.64-14.85,13.32-29.72c-5.76-2.13-10.06-1-11.94,3.75-4.26,10.81-8,21.83-11.85,32.79-.39,1.1-.22,2.4-.39,4.68C358.67,221.27,360.45,207.61,367,196Zm-4.2,395.85c-.91,9.91-.55,10.44,9.17,9.94,7.92-.41,15.83-1.23,23.74-1.87l.18-1.54-32.33-8.33-.57,1.45C363,591.64,362.85,591.75,362.84,591.87ZM153.54,370.46c1.49,5.43-.43,10.33.52,15.43.83,4.43,1.13,9,1.82,13.43a9.78,9.78,0,0,0,1.45,2.76l1.32.11c.36-1.64,1.15-3.31,1-4.89-.8-8.9-2-17.76-2.71-26.66-.52-6.19-.31-12.43-.9-18.6-.2-2.08-1.86-4-2.85-6l-2,.77C151.87,354.72,151.46,362.94,153.54,370.46Zm256.68,468c-1.05-8.58-2.22-17.14-3.13-25.73-.26-2.39-.8-4.38-3.46-3.78-.84.19-1.82,2.74-1.63,4q2.44,17.09,5.42,34.08c.31,1.74,1.95,3.23,3,4.84l1.29-.69C411.19,847,410.74,842.72,410.22,838.47ZM449,612.18c-1.44,6.14-2.82,12.29-4.05,18.47-.2,1,.36,3,.86,3.08a8.6,8.6,0,0,0,4.23-.52,3,3,0,0,0,1.35-2c1.75-7.56,3.42-15.15,5.1-22.7C451.26,606.89,450.14,607.41,449,612.18ZM328.45,591.47c8.6-14.92,12.72-31.46,17.18-47.89A184,184,0,0,0,328.45,591.47Zm15.67,197.42c1.05-6.22,2.18-12.36,3.05-18.55a8.84,8.84,0,0,0-1-4.31c-2.22-5.27-4.58-10.49-7.13-16.28C340.32,763.3,339.17,776.55,344.12,788.89ZM282.26,413l-8.47-2.48c-.19,1.39-.35,2.51-.55,4,4.47-.64,5.08,2.13,5.07,5.27,0,11.82-.14,23.64-.21,35.46,0,1.9,0,3.81,0,5.72l.92-.07C280.09,445.15,281.16,429.35,282.26,413ZM540.6,343.58l-.77-.27c-1,3-2.22,6-3.09,9.12-2.76,9.76-5.36,19.57-8.12,29.33-.66,2.33-.66,4.06,2.71,4.66Q536,365,540.6,343.58ZM378.51,228.69c1.26-3.32,1.94-6.86,3-10.26,1.87-5.85,3.87-11.65,5.93-17.8-4,2.39-12.47,22.46-12.88,31.12C376.41,230.38,378.09,229.78,378.51,228.69Zm11.55,417.13c3.63-1.34,17.48-30.15,17.15-36.29C399.26,621.23,395.67,633.82,390.06,645.82Zm51.11-16.1a178.67,178.67,0,0,0,4.44-22c-.72.66-1.8,1.19-2.1,2-1.23,3.32-2.35,6.69-3.25,10.11-1.3,5-2.38,10-3.56,15l1.86.71A36.09,36.09,0,0,0,441.17,629.72Zm95.08-242.23c3.21-14.55,6.41-29.09,9.69-44C542.89,345.94,535.36,379,536.25,387.49ZM134.77,370.54l1.6.07V343.66C132.38,351.41,132.69,360.93,134.77,370.54Zm275.64,267c2.11-6.91,4.22-13.83,5.88-21l-11.5,23.79C407.94,641.23,409.6,640.18,410.41,637.52Zm13.5,0,1.39.46c1.75-4.72,3.6-9.4,5.21-14.16s3-9.56,4.42-14.34l-1.46-.42C430.06,618.42,426.63,627.83,423.91,637.47Zm-60.84-406c3.57.67,4.95-.53,5.56-3.6,1.05-5.3,2.51-10.52,3.79-15.78l-1-.34C368.65,218.2,365.92,224.69,363.07,231.43ZM350.2,775c-3.61,9.41-2,18.77,0,28ZM331.35,562.62l1.38.42q5.56-18.57,11.11-37.13l-1.1-.34Q337,544.09,331.35,562.62ZM340.09,205l-1.26-.45c-5.05,7.49-5.22,16.76-8.86,24.78l1.6.59Zm183.2,175.45,1.62.51,8.85-29.84-1.12-.35Q528,365.59,523.29,380.43Zm-6.87-21.23c2-4.16,1.71-9.34,6.23-12.45,1.27-.87,1.21-3.69.94-6.34-.71.48-1.83.81-2.08,1.46-2.69,7.12-5.25,14.29-7.84,21.45l1.18.43A40.67,40.67,0,0,1,516.42,359.2ZM415.16,637.36l.8,1c1.06-.79,2.76-1.37,3.08-2.38,1.6-5.17,2.85-10.45,4.22-15.69l-1-.32ZM274.49,419.05h-.95v28.34l.95.15Zm69,73.84-2.22-.53q-2.1,9.22-4.18,18.46l1.82.43Zm46-288.67,1.39.68,6.89-13.39-1.85-1C390.13,193.38,393.24,200.4,389.47,204.22ZM358.15,787.88v16.81l1.46-.08C359.64,799,360.36,793.37,358.15,787.88ZM328.07,514.79c-2.86,6.87-3.69,14.09-5.32,21.17l1.88.19Q326.34,525.47,328.07,514.79ZM378,836l1.74-.13L377,809l-.71-.07Q377.16,822.48,378,836ZM287.58,448.34l.95.12c.63-5.24,1.32-10.47,1.87-15.72.56-5.43,1-10.87,1.44-16.3l-.8-.1Q289.3,432.35,287.58,448.34Zm80.59,353-1.23.11,2.42,27.5,1.22-.11Q369.38,815.13,368.17,801.37ZM145.89,386.62l-.74.41q1.56,2.78,3.1,5.56l1.13-.33v-26.7c-1,7.59.82,15.44-1.1,23l-1.41.05ZM555,362.16l-.72-.08q-2,15.15-3.94,30.3l1,.12ZM388,823.81l-.91.18,4.51,21.86,1.25-.2Q390.46,834.73,388,823.81Zm-7.17-622.33,6.51-10.39C385.14,191,385.14,191,380.87,201.48Zm58.69,408.84-1-.3q-3.15,10.53-6.31,21.05l1,.32Zm-53.73,14-1-.47-8.71,18,.87.45Q381.42,633.35,385.83,624.37Zm-244.51-271,1,.15q1.23-7.67,2.45-15.32l-1.1-.18Zm3.13,25.74,1.06-.07-.72-10.63-1,.2Z"/><path class="cls-1" d="M691.15,328.22c-1,13.14-2.09,26.28-3.38,39.39a69.83,69.83,0,0,1-2.44,11.28c-.78,2.86-5.82,5.91-8.17,5-3.54-1.43-1.84-4.45-1.53-6.82q1.14-8.56,2.73-17.08c2.74-14.6,5-29.23,4.38-44.18-.59-13.2-.94-26.4-1.47-39.6-.6-15.13-1.51-30.29-5.16-45A185.42,185.42,0,0,0,665.89,200c-4.21-9.39-7.2-19.61-14.71-27.43-1.29-1.34-.17-5-.17-7.57,1.72,1.25,4,2.15,5,3.83,4.29,7.12,7.91,14.66,12.33,21.69,5,8,7.76,16.81,10.69,25.7,4.84,14.66,9.27,29.43,10.64,44.76,1.48,16.56,1.57,33.25,2.3,50.55C691.75,316.66,691.61,322.45,691.15,328.22Zm-2.54-7.4-.68,0q-.52,8.91-1.06,17.81l.77,0Q688.12,329.72,688.61,320.82Z"/><path class="cls-1" d="M47.29,248.78c-2.06,7.63-4.24,15.24-6.15,22.91-2.2,8.9-4.2,17.84-6.21,26.78a17.1,17.1,0,0,0-.28,4.11c.31,17.09.35,34.18,1.08,51.25.49,11.47,4.34,22.32,7.89,33.17,2,6,3.63,12.1,6,17.94,1.31,3.23,3.57,6.15,5.73,9,2.32,3,6.14,4,8.71,1.61a12.44,12.44,0,0,0,3.42-8.86c-.21-3.24-2.71-6.32-4.12-9.5-2.87-6.54-6.6-12.87-8.32-19.7-3.5-13.95-6-28.18-8.76-42.31a113.26,113.26,0,0,1-1.59-33.69c.67-6.64-.43-13.47.32-20.09,1-9.08,3.16-18,4.63-27.08.29-1.81-.28-3.77-.46-5.66Z"/><path class="cls-1" d="M716.86,254.81c.32,4.26.73,8.52.91,12.78.16,3.52,0,7.05.09,10.58a80.09,80.09,0,0,0,.72,10.63c1.88,11.26,3.16,22.51,1.3,33.9-.06.4.06.95-.17,1.21-6,6.95-3.64,15.61-4.81,23.54-2.29,15.35-4.4,30.73-6.91,46-1.44,8.8-3.43,17.52-5.35,26.24-.73,3.34-2.08,6.53-2.92,9.85a6,6,0,0,0,.18,3.93c1.16,2.16,2.8,5.68,4.3,5.71,3,.06,6.65-1,7.64-5.07,1.86-7.6,4.08-15.12,5.61-22.79,1.87-9.28,3.21-18.67,4.72-28a414.06,414.06,0,0,0,5.07-63.25c.09-13.81-3.28-27.32-2-41.09a2.82,2.82,0,0,0-.33-2c-4.65-4.56-2.63-10.25-3-15.61-.17-2.36-2-4.6-3.06-6.9Z"/><path class="cls-1" d="M73.68,120.52c1.1,1.08,2.2,2.7,3.73,3.54a4.35,4.35,0,0,0,6.14-1.56c3.46-5.27,6.67-10.71,10.34-15.82C105.71,90.19,119.54,75.57,134.61,62s32.75-23.54,50.27-33.55c2.9-1.66,6.55-2,9.58-3.49,5.07-2.53,10-5.4,14.8-8.41,1-.59,1.12-2.45,1.65-3.72-1.71-.46-3.77-1.77-5.07-1.23-7.36,3-14.82,6-21.71,9.91-13.82,7.88-27,16.9-41,24.46-14.61,7.9-26.74,18.66-37.95,30.52S83.18,101,75.24,115.6A32.3,32.3,0,0,0,73.68,120.52Z"/><path class="cls-1" d="M65.81,329.72C66.57,333.8,67,338,68.15,342c4,14,7.31,28.24,12.57,41.74,5.81,14.92,12.69,29.52,22,42.73,5.59,7.92,10.67,16.36,17.22,23.4,5.78,6.23,13.06,11.17,20.12,16,3.51,2.41,8.44-.13,10.14-4.17,1.52-3.63-.68-7-4.7-9.19A92.72,92.72,0,0,1,131,442.74a111.3,111.3,0,0,1-14.4-14.15A155.73,155.73,0,0,1,92.07,388c-4.24-10.43-7.91-21.16-13-31.14-4.14-8.1-8-16.16-10.32-24.94A9.78,9.78,0,0,0,67,329.24Z"/><path class="cls-1" d="M342.39,30.14a4.64,4.64,0,0,0-1.41-.76c-11-1.3-21.93-2.17-32.94-.59-9.21,1.32-18.4,2.9-27.63,4.09-8.89,1.15-17.84,1.92-26.75,3a6,6,0,0,0-2.8,1.49c-3,2.55-6.06,4-10.35,2.77-2.29-.65-5.16.22-7.64.88-17.73,4.72-33.71,13.23-48.62,23.66C180.11,67.54,177,72,173.74,76c-1.56,1.89.78,5.77,3.26,5.31s5.44-1.18,6.53-2.88c3.52-5.47,9.09-7.87,14.3-10.79C215,58,233,50.16,252.17,45.37c16.62-4.16,33.39-7.94,50.28-10.77,10.65-1.79,21.65-1.47,32.48-2.19,2.5-.16,5-.67,7.48-1C342.4,31,342.4,30.55,342.39,30.14Z"/><path class="cls-1" d="M343.22,854.57c.94-2.57,1.25-4.4,2.2-5.8,1.61-2.38.59-4.37-1.2-5.28-8.37-4.24-12-12.34-16-19.87a335.65,335.65,0,0,1-14.64-31.78c-2.16-5.4-2.46-11.53-3.84-17.27-1.21-5-1.09-9.78-.62-14.94.66-7.32-.83-14.83-1.37-22.27A57.17,57.17,0,0,0,306.39,727a9.94,9.94,0,0,0-1.26,2.32c-2,8.79-4.5,17.47-4.05,26.68.3,6.3-.74,12.71.06,18.91a235.24,235.24,0,0,0,5.43,27.82c3.23,12.69,7.83,25,16.17,35.29,4.71,5.81,10.6,10.7,16.22,15.71C340.09,854.74,342.41,854.43,343.22,854.57Z"/><path class="cls-1" d="M296.72,631.41c-.36-1.73-.78-3.46-1.07-5.21-1.17-7.32-2.37-14.64-3.45-22-1.74-11.88-3-23.85-5.18-35.65-2.71-14.67-5.14-29.35-10.21-43.6-2.37-6.67-4.19-13.23-9-18.38-1.89-2-4.65-4-7.21-4.31s-5.6,1.14-7.44,2.87c-1,1-.18,4.12.16,6.24a6.51,6.51,0,0,0,1.69,2.79c6.57,7.62,9.41,17.15,13.48,26.06,1.24,2.71,3.55,5,4.46,7.77,1.27,3.84,1.43,8,2.52,12,2,7.13,4.28,14.18,6.49,21.25,3.63,11.59,7.77,23,9.41,35.17.5,3.66,1.1,7.32,1.89,10.92a26.64,26.64,0,0,0,1.95,4.68Z"/><path class="cls-1" d="M611,778.23c-1.4,9.19-.18,18.88-7,27-2.51,3-3.31,7.89-3.77,12-1.2,11-5.24,20.94-9.64,30.82-.47,1.07-2.16,1.6-3.29,2.38-.34-1.3-1.23-2.76-.93-3.89.88-3.31,2.33-6.47,3.39-9.74,2-6.23,4.6-12.39,5.79-18.79a244.22,244.22,0,0,0,3.15-26.58c.92-12.46,2-25,1.81-37.44-.21-11.11-4.78-21.35-10.26-31-2.26-4-2.11-5.78,1.85-7.91,3.39-1.81,7.07-.48,8.74,3.84,2,5.22,3.61,10.63,5.12,16s2.69,10.92,4,16.39c1,4.23,2.05,8.46,2.77,11.43C612.1,768.94,611.73,773.61,611,778.23Zm-3.6,1.13-1-.07q-.78,10.51-1.55,21.05l.93-.07Q606.61,789.82,607.43,779.36Z"/><path class="cls-1" d="M289.4,713.28a429.13,429.13,0,0,0-17.21,58.66,56.72,56.72,0,0,1,0,6.87c-1,9.9-1.43,19.76,1.58,29.39.5,1.61,2.08,2.88,3.53,4-3.27-13.93-.93-27.76-1.74-41.44l1.2-.11c.36,3.14.76,6.28,1.09,9.43.36,3.56.35,7.2,1.06,10.69,1,5,1.79,10.15,4,14.6,2.78,5.68,6.85,10.74,10.41,16,.24.35,1,.38,1.79.67.83-6.29-1.93-11.57-3.25-17.17-1.89-8-3.43-16-4.6-24.13a169.72,169.72,0,0,1-1.34-18.47c-.09-2.71.66-5.44.86-8.17.13-1.74.5-3.75-.16-5.22-2.14-4.76-1.27-9.4-.1-14.06,1.42-5.66,3.11-11.25,4.46-16.93.33-1.4-.22-3-.36-4.52Z"/><path class="cls-1" d="M573.2,824.92c1.53-2.55,3.57-4.93,4.5-7.69,2.3-6.88,4-14,6.16-20.9,1-3.3,3.52-6.3,3.95-9.62,1.4-11,1.37-21.91-1.19-32.8-1.34-5.72-1.87-11.63-3-17.42a9.92,9.92,0,0,0-2.12-4.34c-1.71-2-3.56-4.69-6.8-2.88-5.24,2.93-6.41,5.59-4.11,9.9,4.4,8.25,5.29,17.29,6.21,26.29a161.89,161.89,0,0,1-1,39.95c-.66,4.46-2.11,8.8-3.16,13.21-.43,1.82-.76,3.66-1.14,5.49Z"/><path class="cls-1" d="M745.71,463.41c1.9-3.62,4.47-7,5.58-10.89,4.57-15.8,9-31.66,12.88-47.65,2.3-9.57,3.35-19.44,5-29.17.65-3.77,1.57-7.49,2.23-11.26a9.82,9.82,0,0,0-.14-3.7c-.69-3.05-1.75-6.22-5.53-6.15s-4.93,3.24-5.18,6.37c-.47,5.91-.24,11.89-.94,17.77-1.08,9.11-2.79,18.15-4,27.25-1.2,8.71-1.7,17.54-3.35,26.16-1.61,8.44-4.28,16.67-6.47,25-.5,1.92-.92,3.86-1.38,5.78Z"/><path class="cls-1" d="M549.32,590.09a20.39,20.39,0,0,0,.92-3.17c.46-3.62.75-7.26,1.2-10.88,1.4-11.29,2.56-22.62,4.34-33.84,2.47-15.59,5.27-31.13,8.26-46.62,1.15-5.92,3.64-11.68,1.51-17.76-.47-1.34-2.17-3.07-3.36-3.11a4.66,4.66,0,0,0-3.56,2.83c-1.92,9.25-3.75,18.53-5.09,27.88q-2.58,18-4.36,36c-.95,9.73-1.5,19.51-1.86,29.28-.2,5.68.31,11.38.55,17.08a10.6,10.6,0,0,0,.54,2.17Z"/><path class="cls-1" d="M277.57,612.74c-1-3.76-1.82-7.09-2.78-10.37-4.61-15.9-8.39-32.12-14.25-47.55-3.06-8-6.94-16.81-16.11-21.06-3.94-1.83-6.09-.33-7.77,2.6a4.94,4.94,0,0,0,.12,4.42c2.33,3.15,4.7,6.61,7.87,8.73,5.75,3.86,8.88,9.28,11.07,15.41,3.46,9.67,6.57,19.46,9.92,29.17,2.28,6.59,4.64,13.15,7.18,19.63.38,1,2,1.44,3,2.14Z"/><path class="cls-1" d="M.1,319.83c0,3.63-.25,7.27,0,10.87,1,11.77,1.77,23.56,3.3,35.26.95,7.31,3,14.47,4.73,21.67.68,2.84,2.22,5,5.57,5.18,3.76.2,5.91-1.86,5-5.56-2.49-10.24-5.29-20.4-7.84-30.63-1.59-6.38-2.93-12.83-4.4-19.24-.31-1.32-.75-2.62-1.09-3.94-.94-3.69-1.84-7.39-2.8-11.07-.25-.95-.66-1.86-1-2.79Z"/><path class="cls-1" d="M609.31,110.32c-3.92-4.36-8.49-8.76-12.26-13.77C587,83.15,573.24,74.47,559,66.36a26.72,26.72,0,0,0-7.77-2.58c-1-.23-2.35.73-3.54,1.16.52,1.11.74,2.69,1.62,3.26,6.29,4.14,13,7.67,19,12.16,9.1,6.82,17.7,14.29,26.58,21.4,2.16,1.72,4.59,3.09,6.9,4.62a5.22,5.22,0,0,1,.68.43C605.39,109.61,607.44,110.52,609.31,110.32Z"/><path class="cls-1" d="M392.22,4.18a27.8,27.8,0,0,0-5.28-1.54c-10.4-.93-20.8-2.11-31.23-2.41C341.54-.18,327.34.07,313.16.15c-4.51,0-8.89.75-12.61,3.84,4.21,4.86,8.39,6.24,14.37,3.88a40.6,40.6,0,0,1,14.9-2.5c19.39.1,38.78.71,58.17,1.06a19.64,19.64,0,0,0,4.25-.89C392.23,5.09,392.23,4.63,392.22,4.18Z"/><path class="cls-1" d="M617.91,84.38c2.9,2.88,4.65,5.54,7.11,6.91,10.65,5.93,17.16,16.11,25.57,24.32,5.29,5.16,9.92,11,14.92,16.48,3.78,4.12,8.1,7.82,11.41,12.27,3.56,4.77,6.18,10.22,9.31,15.31a4.76,4.76,0,0,0,2.24,1.9c.5.19,1.93-.54,1.94-.88a6.28,6.28,0,0,0-.71-3.46c-4.2-6.26-9.22-12.08-12.72-18.7-9.31-17.64-25.31-28.66-39.68-41.28-5-4.42-10.7-8.09-16.13-12C620.62,84.8,619.76,84.83,617.91,84.38Z"/><path class="cls-1" d="M283.88,676.2c-2.66,3.09-5.55,6-8,9.31-12.12,16.51-21.29,34.22-23.08,55.15-.49,5.76-2.17,11.42.27,17,.44,1,1.74,1.66,2.64,2.48.48-1.12,1.54-2.37,1.32-3.32a21.28,21.28,0,0,1,.69-12.74c3-8.89,4.44-18.41,6.77-27.63A78.24,78.24,0,0,1,282,682.87c1.39-1.56,2.49-3.38,3.73-5.08Z"/><path class="cls-1" d="M244.59,582c-2.08-4.59-3.83-9.2-6.18-13.47-3.29-6-6.89-11.78-10.61-17.5-1.91-2.93-4.77-3.11-7.48-1-2,1.59-2.34,6.47-.74,8.41.31.38.94.48,1.34.8,1.69,1.34,3.83,2.4,4.94,4.12,4.48,6.91,8.57,14,13,21,.61,1,2.1,1.36,3.19,2Z"/><path class="cls-1" d="M301.42,344.86c-37.49-15.86-77-25.43-116.25-35.57-.68-.18-1.66.74-2.41,1.61,40,10.31,79.46,21.63,118,36.17Z"/><path class="cls-1" d="M573,554.67c.39-1.19.77-2.38,1.23-3.78,2.41,1,3,0,3.58-2.49q5.22-21.54,11-42.92c.8-3,2.77-5.6,3.77-8.53.33-1-.71-2.4-1.13-3.62-1.23.44-2.65.63-3.64,1.39a6.37,6.37,0,0,0-1.93,3.07c-2.25,7.47-4.48,14.95-6.53,22.48q-3.53,12.87-6.7,25.83a73,73,0,0,0-1.07,8.4Z"/><path class="cls-1" d="M559.87,823.79c.76-1.61,1.59-3.17,2.25-4.81,5.5-13.76,9.1-27.91,8.21-42.87a19.26,19.26,0,0,0-1.65-6.29A3.4,3.4,0,0,0,566,768c-.89.15-1.6,1.57-2.29,2.5a2.11,2.11,0,0,0-.14,1.22A162.54,162.54,0,0,1,561,809.13c-.66,3.5-1.32,7-1.93,10.52-.21,1.24-.29,2.51-.43,3.77Z"/><path class="cls-1" d="M629.76,735c.34-1.62,1.28-3.39.92-4.83-2.35-9.24-4.77-18.47-7.64-27.55-.81-2.55-3-4.51-6.53-2.54s-4.11,3.42-2.17,7.15q5.38,10.41,10.6,20.91c1.12,2.26,2,4.65,3,7Z"/><path class="cls-1" d="M65.1,139.1c-1.31,1.28-3.7,3.07-5.38,5.39a37.41,37.41,0,0,0-3.82,7.74c-1.14,2.77,1.44,6.81,5.34,8.67,3.51,1.69,5.69-.56,7.13-3a59.65,59.65,0,0,0,4.47-10.18C74,144.41,69.88,139,65.1,139.1Z"/><path class="cls-1" d="M790.07,277.7c-.57-7-1.07-14-1.73-21a16.44,16.44,0,0,0-1.31-5.12,55.38,55.38,0,0,0-4.82-9.19c-.72-1-3-1-4.54-1.43-.15,1.41-.82,3-.37,4.18,1.64,4.18,3.72,8.19,5.5,12.33a26.93,26.93,0,0,1,1.64,5.28c.94,4.55,1.69,9.14,2.62,13.69.13.63.89,1.12,1.36,1.68Z"/><path class="cls-1" d="M212.43,291.55c-3.5-1.11-7-2.44-10.51-3.28-9.85-2.33-19.75-4.46-29.63-6.66a1.66,1.66,0,0,0-.81-.09c-1.73.61-4.87,1.18-4.91,1.91-.17,3.09,2.69,2.16,4.56,2.5l37.13,6.65c1.26.22,2.53.35,3.79.53Z"/><path class="cls-1" d="M319.16,728.65c-2.43,8.22-4.51,16.4-.78,25C321.17,751,322,733.05,319.16,728.65Z"/><path class="cls-1" d="M376,499.44c.06-1.33.19-1.76.07-1.83-4.94-3.32-9.85-6.7-14.92-9.81-.83-.51-2.4.18-3.63.32.2,1,.08,2.63.64,2.9C363.9,493.9,369.78,496.56,376,499.44Z"/><path class="cls-1" d="M421,594l-24-8.09C399,590.06,417.29,596.39,421,594Z"/><path class="cls-1" d="M233.37,298.12a43.69,43.69,0,0,0,5.83,3.12C244.07,303,249,304.46,254,306a9,9,0,0,0,2.6,0l.24-1.3a50.75,50.75,0,0,0-6.51-2.69c-5.6-1.47-11.26-2.66-16.9-4Z"/><path class="cls-1" d="M233.43,298c-2.05-1.19-4-2.81-6.19-3.48-4.26-1.29-8.69-2.05-14-3.24,2.05,3.37,15.2,7.18,20.09,6.8Z"/><path class="cls-1" d="M407.46,429.65l18.44,8.11C423.73,433.47,411.6,428,407.46,429.65Z"/><path class="cls-1" d="M428.85,439.23l14,7.14.69-1.35c-5.08-1.67-8-7.37-14.1-7.18C429.28,438.31,429.06,438.77,428.85,439.23Z"/><path class="cls-1" d="M305.44,348.84l13.79,5.32c.17-.48.35-1,.53-1.45-4.37-2.39-8.46-5.57-13.89-5Z"/><path class="cls-1" d="M335.88,360.93l11.42,4.45C346,361.63,342,359.87,335.88,360.93Z"/><path class="cls-1" d="M415.61,699.63l55.69,13.93c-2.24-1.54-3.51-2.92-5.05-3.39-8.63-2.62-17.26-5.28-26-7.42-7-1.7-14.18-2.7-21.29-3.91a13.48,13.48,0,0,0-3.43.33Z"/><path class="cls-1" d="M499.06,725.2c.36-3.12-2.32-3.47-4.17-4.18-6.25-2.37-12.59-4.5-18.91-6.68a2.26,2.26,0,0,0-2.05.59,103.57,103.57,0,0,0,25.19,10.21Z"/><path class="cls-1" d="M437,716.89l11.65,6.41c-.84-4.46-7.57-7.35-11.69-6.35Z"/><path class="cls-1" d="M393.34,261a11,11,0,0,0-2.82-1.7c-11.28-2.76-22.64-4.33-34-.92-1.55.47-3.89,2.83-3.67,3.82.6,2.63,2.9,2.51,5.24,1.44,10.78-4.92,21.95-3.31,33.1-1.84a14.59,14.59,0,0,0,1.87,0Z"/><path class="cls-1" d="M241.89,430.75a9.18,9.18,0,0,0-.94,3q.23,5.94.86,11.86a6.37,6.37,0,0,0,1.42,3.29,2,2,0,0,0,3.58-1.73c-1.29-5.36-2.76-10.67-4.18-16Z"/><path class="cls-1" d="M459.53,676.52l41.17,21.61.77-1.17c-1.76-1.24-3.43-2.62-5.28-3.69-9.48-5.5-18.94-11-28.55-16.26-2.25-1.23-5.07-1.4-7.63-2Z"/><path class="cls-1" d="M516,708.29l-42.45-14.8c-.21.59-.42,1.19-.64,1.78L515,710.81Z"/></g></g></svg>