<svg xmlns="http://www.w3.org/2000/svg" viewBox="0 0 1171.7 4438.45"><defs><style>.cls-1{font-size:40.37px;stroke:#fff;stroke-miterlimit:10;stroke-width:1.43px;}.cls-1,.cls-5{fill:#fff;}.cls-1,.cls-3,.cls-4{font-family:DIN-Medium, DIN;font-weight:500;}.cls-2{font-size:26px;}.cls-3{font-size:36.54px;}.cls-3,.cls-4{fill:#0068a6;}.cls-4{font-size:13.49px;}</style></defs><title>Asset 5@3x1</title><g id="Layer_2" data-name="Layer 2"><g id="Layer_1-2" data-name="Layer 1"><text class="cls-1" transform="translate(303.01 189.94)">STARING TEST <tspan class="cls-2"><tspan x="0" y="32.46">TAKE THIS SIMPLE TEST IN </tspan><tspan x="297.77" y="32.46">10</tspan><tspan x="323.2" y="32.46" xml:space="preserve"> SECONDS FIND OUT IF YOU MIGHT HAVE DRY EYE!</tspan></tspan></text><text class="cls-3" transform="translate(0 31.27)">BURNING</text><text class="cls-3" transform="translate(181.81 31.27)">DRYNESS</text><text class="cls-4" transform="translate(181.81 50.1)">(Foreign body sensation)</text><text class="cls-3" transform="translate(365.89 31.27)">STINGING</text><text class="cls-3" transform="translate(552.82 31.27)">WATERY EYES</text><path class="cls-5" d="M910.89,4438.45V4427h3.87l.59-4.51h-4.41c0-.05-.05-.07-.05-.08,0-1.12,0-2.24,0-3.36a1.49,1.49,0,0,1,1.48-1.57c.9-.09,1.81-.05,2.71-.07h.37v-4.05l-.7-.06a19.71,19.71,0,0,0-3.84,0,5.13,5.13,0,0,0-4.63,4.65c-.11,1-.08,1.95-.1,2.92,0,.54,0,1.08,0,1.65h-.31c-1.11,0-2.21,0-3.31,0-.21,0-.28.05-.28.27,0,1.33,0,2.66,0,4a2.27,2.27,0,0,0,0,.24h3.87v11.34a16.3,16.3,0,1,1,4.7.1Z"/></g></g></svg>