<svg xmlns="http://www.w3.org/2000/svg" xmlns:xlink="http://www.w3.org/1999/xlink" viewBox="0 0 62.85 51.19"><defs><style>.cls-1{fill:url(#linear-gradient);}.cls-2{fill:#fff;}</style><linearGradient id="linear-gradient" y1="25.59" x2="62.85" y2="25.59" gradientUnits="userSpaceOnUse"><stop offset="0" stop-color="#bcdaf6"/><stop offset="1" stop-color="#416b9c"/></linearGradient></defs><title>Asset 2@3x1</title><g id="Layer_2" data-name="Layer 2"><g id="Layer_1-2" data-name="Layer 1"><path class="cls-1" d="M25.59,0H62.85a0,0,0,0,1,0,0V51.19a0,0,0,0,1,0,0H25.59A25.59,25.59,0,0,1,0,25.59v0A25.59,25.59,0,0,1,25.59,0Z"/><path class="cls-2" d="M47.42,28.31h-14a.88.88,0,0,1-.85-.64h0a.88.88,0,0,1,.85-1.14H46.19a1.19,1.19,0,0,0,1.14-.88l1.3-4.89a.7.7,0,0,0-.68-.89H30.82a.89.89,0,0,1-.85-.63h0a.89.89,0,0,1,.85-1.14H50a.9.9,0,0,1,.87,1.13L48.72,27.3A1.35,1.35,0,0,1,47.42,28.31Z"/><path class="cls-2" d="M46.48,33.17H30.69a1.11,1.11,0,0,1-1.07-.79L24.54,15.44H18.37a.88.88,0,0,1-.86-.67h0a.88.88,0,0,1,.86-1.11h6.51a1.33,1.33,0,0,1,1.26.95l4.8,16A1.13,1.13,0,0,0,32,31.4H46.48a.89.89,0,0,1,.86,1.11h0A.88.88,0,0,1,46.48,33.17Z"/><circle class="cls-2" cx="33.18" cy="36.72" r="2.31" transform="translate(-10.18 60.57) rotate(-76.72)"/><circle class="cls-2" cx="43.82" cy="36.72" r="2.31" transform="translate(-1.91 71.03) rotate(-76.85)"/><path class="cls-2" d="M23.42,22.53H15.48a.88.88,0,0,1-.86-.66h0a.89.89,0,0,1,.86-1.11h7.94a.88.88,0,0,1,.85.63h0A.88.88,0,0,1,23.42,22.53Z"/><path class="cls-2" d="M24.47,26.08H19.19a.88.88,0,0,1-.86-.67h0a.89.89,0,0,1,.86-1.11h5.28a.89.89,0,0,1,.85.64h0A.89.89,0,0,1,24.47,26.08Z"/><path class="cls-2" d="M25.52,29.62H22.89A.88.88,0,0,1,22,29h0a.88.88,0,0,1,.85-1.11h2.63a.89.89,0,0,1,.85.64h0A.88.88,0,0,1,25.52,29.62Z"/></g></g></svg>