<svg xmlns="http://www.w3.org/2000/svg" viewBox="0 0 1171.7 4438.59"><defs><style>.cls-1{font-size:40.37px;stroke:#fff;stroke-miterlimit:10;stroke-width:1.43px;}.cls-1,.cls-5{fill:#fff;}.cls-1,.cls-3,.cls-4{font-family:DIN-Medium, DIN;font-weight:500;}.cls-2{font-size:26px;}.cls-3{font-size:36.54px;}.cls-3,.cls-4{fill:#0068a6;}.cls-4{font-size:13.49px;}</style></defs><title>Asset 7@3x1</title><g id="Layer_2" data-name="Layer 2"><g id="Layer_1-2" data-name="Layer 1"><text class="cls-1" transform="translate(303.01 189.94)">STARING TEST <tspan class="cls-2"><tspan x="0" y="32.46">TAKE THIS SIMPLE TEST IN </tspan><tspan x="297.77" y="32.46">10</tspan><tspan x="323.2" y="32.46" xml:space="preserve"> SECONDS FIND OUT IF YOU MIGHT HAVE DRY EYE!</tspan></tspan></text><text class="cls-3" transform="translate(0 31.27)">BURNING</text><text class="cls-3" transform="translate(181.81 31.27)">DRYNESS</text><text class="cls-4" transform="translate(181.81 50.1)">(Foreign body sensation)</text><text class="cls-3" transform="translate(365.89 31.27)">STINGING</text><text class="cls-3" transform="translate(552.82 31.27)">WATERY EYES</text><path class="cls-5" d="M952.17,4438.59a16.28,16.28,0,1,1,16.52-16.24A16.29,16.29,0,0,1,952.17,4438.59Zm9.67-16.26c0-1.33,0-2.67,0-4a6.46,6.46,0,0,0-.18-1.39,5.42,5.42,0,0,0-5.27-4c-2.62,0-5.23,0-7.85,0a5.43,5.43,0,0,0-5.54,5.46c0,2.64,0,5.29,0,7.93a5.43,5.43,0,0,0,5.54,5.46c2.6,0,5.21,0,7.82,0a5.44,5.44,0,0,0,5.49-5.49Z"/><path class="cls-5" d="M960.1,4422.35c0,1.38,0,2.76,0,4.13a3.56,3.56,0,0,1-3,3.5,3.91,3.91,0,0,1-.76.07h-7.9a3.62,3.62,0,0,1-3.74-3.74v-7.87a3.61,3.61,0,0,1,3.77-3.76h7.92a3.59,3.59,0,0,1,3.67,3.6c0,1.35,0,2.71,0,4.07Zm-2.8,0a4.89,4.89,0,1,0-4.9,4.88A4.88,4.88,0,0,0,957.3,4422.37Zm1.05-5.34a.85.85,0,0,0-.85-.87.87.87,0,1,0,0,1.73A.86.86,0,0,0,958.35,4417Z"/><path class="cls-5" d="M952.41,4425.53a3.17,3.17,0,1,1,3.17-3.17A3.18,3.18,0,0,1,952.41,4425.53Z"/></g></g></svg>