<svg xmlns="http://www.w3.org/2000/svg" xmlns:xlink="http://www.w3.org/1999/xlink" viewBox="0 0 131.3 231.87"><defs><style>.cls-1{isolation:isolate;}.cls-2{mix-blend-mode:multiply;}.cls-3{fill:#fff;opacity:0;}.cls-4{fill:#fefefe;opacity:0.01;}.cls-5{fill:#fdfdfd;opacity:0.01;}.cls-186,.cls-6{fill:#fcfcfc;}.cls-6{opacity:0.02;}.cls-7{fill:#fbfbfb;opacity:0.02;}.cls-8{fill:#fafafa;opacity:0.03;}.cls-9{fill:#f9f9f9;opacity:0.03;}.cls-10{fill:#f8f8f8;opacity:0.04;}.cls-11{fill:#f7f7f7;opacity:0.04;}.cls-12{fill:#f6f6f6;opacity:0.05;}.cls-13{fill:#f5f5f5;opacity:0.06;}.cls-14{fill:#f4f4f4;opacity:0.06;}.cls-15{fill:#f3f3f3;opacity:0.07;}.cls-16{fill:#f2f2f2;opacity:0.07;}.cls-17{fill:#f1f1f1;opacity:0.08;}.cls-18{fill:#f0f0f0;opacity:0.08;}.cls-19{fill:#efefef;opacity:0.09;}.cls-20{fill:#eee;opacity:0.09;}.cls-21{fill:#ededed;opacity:0.1;}.cls-22{fill:#ececec;opacity:0.1;}.cls-23{fill:#ebebeb;opacity:0.11;}.cls-24{fill:#eaeaea;opacity:0.12;}.cls-25{fill:#e9e9e9;opacity:0.12;}.cls-26{fill:#e8e8e8;opacity:0.13;}.cls-27{fill:#e7e7e7;opacity:0.13;}.cls-28{fill:#e6e6e6;opacity:0.14;}.cls-29{fill:#e5e5e5;opacity:0.14;}.cls-30{fill:#e4e4e4;opacity:0.15;}.cls-31{fill:#e3e3e3;opacity:0.15;}.cls-32{fill:#e2e2e2;opacity:0.16;}.cls-33{fill:#e1e1e1;opacity:0.17;}.cls-34{fill:#e0e0e0;opacity:0.17;}.cls-35{fill:#dfdfdf;opacity:0.18;}.cls-36{fill:#dedede;opacity:0.18;}.cls-37{fill:#ddd;opacity:0.19;}.cls-38{fill:#dcdcdc;opacity:0.19;}.cls-39{fill:#dbdbdb;opacity:0.2;}.cls-40{fill:#dadada;opacity:0.2;}.cls-41{fill:#d9d9d9;opacity:0.21;}.cls-42{fill:#d8d8d8;opacity:0.22;}.cls-43{fill:#d7d7d7;opacity:0.22;}.cls-44{fill:#d6d6d6;opacity:0.23;}.cls-45{fill:#d5d5d5;opacity:0.23;}.cls-46{fill:#d4d4d4;opacity:0.24;}.cls-47{fill:#d3d3d3;opacity:0.24;}.cls-48{fill:#d2d2d2;opacity:0.25;}.cls-49{fill:#d1d1d1;opacity:0.25;}.cls-50{fill:#d0d0d0;opacity:0.26;}.cls-51{fill:#cfcfcf;opacity:0.27;}.cls-52{fill:#cecece;opacity:0.27;}.cls-53{fill:#cdcdcd;opacity:0.28;}.cls-54{fill:#ccc;opacity:0.28;}.cls-55{fill:#cbcbcb;opacity:0.29;}.cls-56{fill:#cacaca;opacity:0.29;}.cls-57{fill:#c9c9c9;opacity:0.3;}.cls-58{fill:#c8c8c8;opacity:0.3;}.cls-59{fill:#c7c7c7;opacity:0.31;}.cls-60{fill:#c6c6c6;opacity:0.31;}.cls-61{fill:#c5c5c5;opacity:0.32;}.cls-62{fill:#c4c4c4;opacity:0.33;}.cls-63{fill:#c3c3c3;opacity:0.33;}.cls-64{fill:#c2c2c2;opacity:0.34;}.cls-65{fill:#c1c1c1;opacity:0.34;}.cls-66{fill:silver;opacity:0.35;}.cls-67{fill:#bfbfbf;opacity:0.35;}.cls-68{fill:#bebebe;opacity:0.36;}.cls-69{fill:#bdbdbd;opacity:0.36;}.cls-70{fill:#bcbcbc;opacity:0.37;}.cls-71{fill:#bbb;opacity:0.38;}.cls-72{fill:#bababa;opacity:0.38;}.cls-73{fill:#b9b9b9;opacity:0.39;}.cls-74{fill:#b8b8b8;opacity:0.39;}.cls-75{fill:#b7b7b7;opacity:0.4;}.cls-76{fill:#b6b6b6;opacity:0.4;}.cls-77{fill:#b5b5b5;opacity:0.41;}.cls-78{fill:#b4b4b4;opacity:0.41;}.cls-79{fill:#b3b3b3;opacity:0.42;}.cls-80{fill:#b2b2b2;opacity:0.43;}.cls-81{fill:#b1b1b1;opacity:0.43;}.cls-82{fill:#b0b0b0;opacity:0.44;}.cls-83{fill:#afafaf;opacity:0.44;}.cls-84{fill:#aeaeae;opacity:0.45;}.cls-85{fill:#adadad;opacity:0.45;}.cls-86{fill:#acacac;opacity:0.46;}.cls-87{fill:#ababab;opacity:0.46;}.cls-88{fill:#aaa;opacity:0.47;}.cls-89{fill:#a9a9a9;opacity:0.48;}.cls-90{fill:#a8a8a8;opacity:0.48;}.cls-91{fill:#a7a7a7;opacity:0.49;}.cls-92{fill:#a6a6a6;opacity:0.49;}.cls-93{fill:#a5a5a5;opacity:0.5;}.cls-94{fill:#a4a4a4;opacity:0.5;}.cls-95{fill:#a3a3a3;opacity:0.51;}.cls-96{fill:#a2a2a2;opacity:0.51;}.cls-97{fill:#a1a1a1;opacity:0.52;}.cls-98{fill:#a0a0a0;opacity:0.52;}.cls-99{fill:#9f9f9f;opacity:0.53;}.cls-100{fill:#9e9e9e;opacity:0.54;}.cls-101{fill:#9d9d9d;opacity:0.54;}.cls-102{fill:#9c9c9c;opacity:0.55;}.cls-103{fill:#9b9b9b;opacity:0.55;}.cls-104{fill:#9a9a9a;opacity:0.56;}.cls-105{fill:#999;opacity:0.56;}.cls-106{fill:#989898;opacity:0.57;}.cls-107{fill:#979797;opacity:0.57;}.cls-108{fill:#969696;opacity:0.58;}.cls-109{fill:#959595;opacity:0.59;}.cls-110{fill:#949494;opacity:0.59;}.cls-111{fill:#939393;opacity:0.6;}.cls-112{fill:#929292;opacity:0.6;}.cls-113{fill:#919191;opacity:0.61;}.cls-114{fill:#909090;opacity:0.61;}.cls-115{fill:#8f8f8f;opacity:0.62;}.cls-116{fill:#8e8e8e;opacity:0.62;}.cls-117{fill:#8d8d8d;opacity:0.63;}.cls-118{fill:#8c8c8c;opacity:0.64;}.cls-119{fill:#8b8b8b;opacity:0.64;}.cls-120{fill:#8a8a8a;opacity:0.65;}.cls-121{fill:#898989;opacity:0.65;}.cls-122{fill:#888;opacity:0.66;}.cls-123{fill:#878787;opacity:0.66;}.cls-124{fill:#868686;opacity:0.67;}.cls-125{fill:#858585;opacity:0.67;}.cls-126{fill:#848484;opacity:0.68;}.cls-127{fill:#838383;opacity:0.69;}.cls-128{fill:#828282;opacity:0.69;}.cls-129{fill:#818181;opacity:0.7;}.cls-130{fill:gray;opacity:0.7;}.cls-131{fill:#7f7f7f;opacity:0.71;}.cls-132{fill:#7e7e7e;opacity:0.71;}.cls-133{fill:#7d7d7d;opacity:0.72;}.cls-134{fill:#7c7c7c;opacity:0.72;}.cls-135{fill:#7b7b7b;opacity:0.73;}.cls-136{fill:#7a7a7a;opacity:0.73;}.cls-137{fill:#797979;opacity:0.74;}.cls-138{fill:#787878;opacity:0.75;}.cls-139{fill:#777;opacity:0.75;}.cls-140{fill:#767676;opacity:0.76;}.cls-141{fill:#757575;opacity:0.76;}.cls-142{fill:#747474;opacity:0.77;}.cls-143{fill:#737373;opacity:0.77;}.cls-144{fill:#727272;opacity:0.78;}.cls-145{fill:#717171;opacity:0.78;}.cls-146{fill:#707070;opacity:0.79;}.cls-147{fill:#6f6f6f;opacity:0.8;}.cls-148{fill:#6e6e6e;opacity:0.8;}.cls-149{fill:#6d6d6d;opacity:0.81;}.cls-150{fill:#6c6c6c;opacity:0.81;}.cls-151{fill:#6b6b6b;opacity:0.82;}.cls-152{fill:#6a6a6a;opacity:0.82;}.cls-153{fill:#696969;opacity:0.83;}.cls-154{fill:#686868;opacity:0.83;}.cls-155{fill:#676767;opacity:0.84;}.cls-156{fill:#666;opacity:0.85;}.cls-157{fill:#656565;opacity:0.85;}.cls-158{fill:#646464;opacity:0.86;}.cls-159{fill:#636363;opacity:0.86;}.cls-160{fill:#626262;opacity:0.87;}.cls-161{fill:#616161;opacity:0.87;}.cls-162{fill:#606060;opacity:0.88;}.cls-163{fill:#5f5f5f;opacity:0.88;}.cls-164{fill:#5e5e5e;opacity:0.89;}.cls-165{fill:#5d5d5d;opacity:0.9;}.cls-166{fill:#5c5c5c;opacity:0.9;}.cls-167{fill:#5b5b5b;opacity:0.91;}.cls-168{fill:#5a5a5a;opacity:0.91;}.cls-169{fill:#595959;opacity:0.92;}.cls-170{fill:#585858;opacity:0.92;}.cls-171{fill:#575757;opacity:0.93;}.cls-172{fill:#565656;opacity:0.93;}.cls-173{fill:#555;opacity:0.94;}.cls-174{fill:#545454;opacity:0.94;}.cls-175{fill:#535353;opacity:0.95;}.cls-176{fill:#525252;opacity:0.96;}.cls-177{fill:#515151;opacity:0.96;}.cls-178{fill:#505050;opacity:0.97;}.cls-179{fill:#4f4f4f;opacity:0.97;}.cls-180{fill:#4e4e4e;opacity:0.98;}.cls-181{fill:#4d4d4d;opacity:0.98;}.cls-182{fill:#4c4c4c;opacity:0.99;}.cls-183{fill:#4b4b4b;opacity:0.99;}.cls-184{fill:#4a4a4a;}.cls-185{fill:url(#_ÂÁ_Ï_ÌÌ_È_ËÂÌÚ_20);}.cls-187{fill:url(#_ÂÁ_Ï_ÌÌ_È_ËÂÌÚ_19);}.cls-188{fill:url(#_ÂÁ_Ï_ÌÌ_È_ËÂÌÚ_18);}.cls-189{fill:url(#_ÂÁ_Ï_ÌÌ_È_ËÂÌÚ_7);}</style><linearGradient id="_ÂÁ_Ï_ÌÌ_È_ËÂÌÚ_20" x1="61.13" y1="122.56" x2="61.13" y2="211.84" gradientUnits="userSpaceOnUse"><stop offset="0.09" stop-color="#ebebeb"/><stop offset="0.97" stop-color="#b3b3b3"/></linearGradient><linearGradient id="_ÂÁ_Ï_ÌÌ_È_ËÂÌÚ_19" x1="61.13" y1="0.51" x2="61.13" y2="108.35" gradientUnits="userSpaceOnUse"><stop offset="0.03" stop-color="#f2f2f2"/><stop offset="0.91" stop-color="#dedede"/></linearGradient><linearGradient id="_ÂÁ_Ï_ÌÌ_È_ËÂÌÚ_18" x1="61.13" y1="121.07" x2="61.13" y2="210.35" gradientUnits="userSpaceOnUse"><stop offset="0.09" stop-color="#ebebeb"/><stop offset="0.97" stop-color="#f2f2f2"/></linearGradient><linearGradient id="_ÂÁ_Ï_ÌÌ_È_ËÂÌÚ_7" x1="115.93" y1="96.29" x2="115.93" y2="126.18" gradientUnits="userSpaceOnUse"><stop offset="0.07" stop-color="#d9d9d9"/><stop offset="0.25" stop-color="#f5f5f5"/><stop offset="0.3" stop-color="#fff"/><stop offset="0.34" stop-color="#ececec"/><stop offset="0.41" stop-color="#cacaca"/><stop offset="0.49" stop-color="#b0b0b0"/><stop offset="0.55" stop-color="#a1a1a1"/><stop offset="0.6" stop-color="#9c9c9c"/><stop offset="0.84" stop-color="#fff"/><stop offset="0.86" stop-color="#ececec"/><stop offset="0.9" stop-color="#cacaca"/><stop offset="0.94" stop-color="#b0b0b0"/><stop offset="0.97" stop-color="#a1a1a1"/><stop offset="1" stop-color="#9c9c9c"/></linearGradient></defs><title>Asset 4@3x1</title><g class="cls-1"><g id="Layer_2" data-name="Layer 2"><g id="Layer_1-2" data-name="Layer 1"><g class="cls-2"><rect class="cls-3" x="2.68" y="3.72" width="128.62" height="228.15" rx="9.18"/><rect class="cls-4" x="2.72" y="3.89" width="128.49" height="227.93" rx="9.18"/><rect class="cls-5" x="2.76" y="4.05" width="128.37" height="227.7" rx="9.18"/><rect class="cls-6" x="2.8" y="4.22" width="128.24" height="227.47" rx="9.18"/><rect class="cls-7" x="2.84" y="4.39" width="128.12" height="227.25" rx="9.18"/><rect class="cls-8" x="2.88" y="4.55" width="127.99" height="227.02" rx="9.18"/><rect class="cls-9" x="2.92" y="4.72" width="127.87" height="226.79" rx="9.18"/><rect class="cls-10" x="2.96" y="4.88" width="127.74" height="226.57" rx="9.18"/><rect class="cls-11" x="3" y="5.05" width="127.62" height="226.34" rx="9.18"/><rect class="cls-12" x="3.04" y="5.22" width="127.49" height="226.11" rx="9.18"/><rect class="cls-13" x="3.08" y="5.38" width="127.37" height="225.89" rx="9.18"/><rect class="cls-14" x="3.12" y="5.55" width="127.24" height="225.66" rx="9.18"/><rect class="cls-15" x="3.16" y="5.71" width="127.12" height="225.43" rx="9.18"/><rect class="cls-16" x="3.2" y="5.88" width="126.99" height="225.21" rx="9.18"/><rect class="cls-17" x="3.24" y="6.05" width="126.87" height="224.98" rx="9.18"/><rect class="cls-18" x="3.28" y="6.21" width="126.74" height="224.75" rx="9.18"/><rect class="cls-19" x="3.32" y="6.38" width="126.61" height="224.53" rx="9.18"/><rect class="cls-20" x="3.36" y="6.55" width="126.49" height="224.3" rx="9.18"/><rect class="cls-21" x="3.4" y="6.71" width="126.36" height="224.07" rx="9.18"/><rect class="cls-22" x="3.44" y="6.88" width="126.24" height="223.85" rx="9.18"/><rect class="cls-23" x="3.48" y="7.04" width="126.11" height="223.62" rx="9.18"/><rect class="cls-24" x="3.53" y="7.21" width="125.99" height="223.39" rx="9.18"/><rect class="cls-25" x="3.57" y="7.38" width="125.86" height="223.17" rx="9.18"/><rect class="cls-26" x="3.61" y="7.54" width="125.74" height="222.94" rx="9.18"/><rect class="cls-27" x="3.65" y="7.71" width="125.61" height="222.71" rx="9.18"/><rect class="cls-28" x="3.69" y="7.88" width="125.49" height="222.49" rx="9.18"/><rect class="cls-29" x="3.73" y="8.04" width="125.36" height="222.26" rx="9.18"/><rect class="cls-30" x="3.77" y="8.21" width="125.24" height="222.03" rx="9.18"/><rect class="cls-31" x="3.81" y="8.37" width="125.11" height="221.81" rx="9.18"/><rect class="cls-32" x="3.85" y="8.54" width="124.99" height="221.58" rx="9.18"/><rect class="cls-33" x="3.89" y="8.71" width="124.86" height="221.35" rx="9.18"/><rect class="cls-34" x="3.93" y="8.87" width="124.73" height="221.13" rx="9.18"/><rect class="cls-35" x="3.97" y="9.04" width="124.61" height="220.9" rx="9.18"/><rect class="cls-36" x="4.01" y="9.2" width="124.48" height="220.67" rx="9.18"/><rect class="cls-37" x="4.05" y="9.37" width="124.36" height="220.45" rx="9.18"/><rect class="cls-38" x="4.09" y="9.54" width="124.23" height="220.22" rx="9.18"/><rect class="cls-39" x="4.13" y="9.7" width="124.11" height="219.99" rx="9.18"/><rect class="cls-40" x="4.17" y="9.87" width="123.98" height="219.77" rx="9.18"/><rect class="cls-41" x="4.21" y="10.04" width="123.86" height="219.54" rx="9.18"/><rect class="cls-42" x="4.25" y="10.2" width="123.73" height="219.31" rx="9.18"/><rect class="cls-43" x="4.29" y="10.37" width="123.61" height="219.09" rx="9.18"/><rect class="cls-44" x="4.33" y="10.53" width="123.48" height="218.86" rx="9.18"/><rect class="cls-45" x="4.37" y="10.7" width="123.36" height="218.63" rx="9.18"/><rect class="cls-46" x="4.41" y="10.87" width="123.23" height="218.41" rx="9.18"/><rect class="cls-47" x="4.46" y="11.03" width="123.11" height="218.18" rx="9.18"/><rect class="cls-48" x="4.5" y="11.2" width="122.98" height="217.95" rx="9.18"/><rect class="cls-49" x="4.54" y="11.37" width="122.85" height="217.73" rx="9.18"/><rect class="cls-50" x="4.58" y="11.53" width="122.73" height="217.5" rx="9.18"/><rect class="cls-51" x="4.62" y="11.7" width="122.6" height="217.27" rx="9.18"/><rect class="cls-52" x="4.66" y="11.86" width="122.48" height="217.05" rx="9.18"/><rect class="cls-53" x="4.7" y="12.03" width="122.35" height="216.82" rx="9.18"/><rect class="cls-54" x="4.74" y="12.2" width="122.23" height="216.6" rx="9.18"/><rect class="cls-55" x="4.78" y="12.36" width="122.1" height="216.37" rx="9.18"/><rect class="cls-56" x="4.82" y="12.53" width="121.98" height="216.14" rx="9.18"/><rect class="cls-57" x="4.86" y="12.69" width="121.85" height="215.92" rx="9.18"/><rect class="cls-58" x="4.9" y="12.86" width="121.73" height="215.69" rx="9.18"/><rect class="cls-59" x="4.94" y="13.03" width="121.6" height="215.46" rx="9.18"/><rect class="cls-60" x="4.98" y="13.19" width="121.48" height="215.24" rx="9.18"/><rect class="cls-61" x="5.02" y="13.36" width="121.35" height="215.01" rx="9.18"/><rect class="cls-62" x="5.06" y="13.53" width="121.22" height="214.78" rx="9.18"/><rect class="cls-63" x="5.1" y="13.69" width="121.1" height="214.56" rx="9.18"/><rect class="cls-64" x="5.14" y="13.86" width="120.97" height="214.33" rx="9.18"/><rect class="cls-65" x="5.18" y="14.02" width="120.85" height="214.1" rx="9.18"/><rect class="cls-66" x="5.22" y="14.19" width="120.72" height="213.88" rx="9.18"/><rect class="cls-67" x="5.26" y="14.36" width="120.6" height="213.65" rx="9.18"/><rect class="cls-68" x="5.3" y="14.52" width="120.47" height="213.42" rx="9.18"/><rect class="cls-69" x="5.35" y="14.69" width="120.35" height="213.2" rx="9.18"/><rect class="cls-70" x="5.39" y="14.85" width="120.22" height="212.97" rx="9.18"/><rect class="cls-71" x="5.43" y="15.02" width="120.1" height="212.74" rx="9.18"/><rect class="cls-72" x="5.47" y="15.19" width="119.97" height="212.52" rx="9.18"/><rect class="cls-73" x="5.51" y="15.35" width="119.85" height="212.29" rx="9.18"/><rect class="cls-74" x="5.55" y="15.52" width="119.72" height="212.06" rx="9.18"/><rect class="cls-75" x="5.59" y="15.69" width="119.6" height="211.84" rx="9.18"/><rect class="cls-76" x="5.63" y="15.85" width="119.47" height="211.61" rx="9.18"/><rect class="cls-77" x="5.67" y="16.02" width="119.34" height="211.38" rx="9.18"/><rect class="cls-78" x="5.71" y="16.18" width="119.22" height="211.16" rx="9.18"/><rect class="cls-79" x="5.75" y="16.35" width="119.09" height="210.93" rx="9.18"/><rect class="cls-80" x="5.79" y="16.52" width="118.97" height="210.7" rx="9.18"/><rect class="cls-81" x="5.83" y="16.68" width="118.84" height="210.48" rx="9.18"/><rect class="cls-82" x="5.87" y="16.85" width="118.72" height="210.25" rx="9.18"/><rect class="cls-83" x="5.91" y="17.02" width="118.59" height="210.02" rx="9.18"/><rect class="cls-84" x="5.95" y="17.18" width="118.47" height="209.8" rx="9.18"/><rect class="cls-85" x="5.99" y="17.35" width="118.34" height="209.57" rx="9.18"/><rect class="cls-86" x="6.03" y="17.51" width="118.22" height="209.34" rx="9.18"/><rect class="cls-87" x="6.07" y="17.68" width="118.09" height="209.12" rx="9.18"/><rect class="cls-88" x="6.11" y="17.85" width="117.97" height="208.89" rx="9.18"/><rect class="cls-89" x="6.15" y="18.01" width="117.84" height="208.66" rx="9.18"/><rect class="cls-90" x="6.19" y="18.18" width="117.72" height="208.44" rx="9.18"/><rect class="cls-91" x="6.24" y="18.34" width="117.59" height="208.21" rx="9.18"/><rect class="cls-92" x="6.28" y="18.51" width="117.46" height="207.98" rx="9.18"/><rect class="cls-93" x="6.32" y="18.68" width="117.34" height="207.76" rx="9.18"/><rect class="cls-94" x="6.36" y="18.84" width="117.21" height="207.53" rx="9.18"/><rect class="cls-95" x="6.4" y="19.01" width="117.09" height="207.3" rx="9.18"/><rect class="cls-96" x="6.44" y="19.18" width="116.96" height="207.08" rx="9.18"/><rect class="cls-97" x="6.48" y="19.34" width="116.84" height="206.85" rx="9.18"/><rect class="cls-98" x="6.52" y="19.51" width="116.71" height="206.62" rx="9.18"/><rect class="cls-99" x="6.56" y="19.67" width="116.59" height="206.4" rx="9.18"/><rect class="cls-100" x="6.6" y="19.84" width="116.46" height="206.17" rx="9.18"/><rect class="cls-101" x="6.64" y="20.01" width="116.34" height="205.94" rx="9.18"/><rect class="cls-102" x="6.68" y="20.17" width="116.21" height="205.72" rx="9.18"/><rect class="cls-103" x="6.72" y="20.34" width="116.09" height="205.49" rx="9.18"/><rect class="cls-104" x="6.76" y="20.51" width="115.96" height="205.27" rx="9.18"/><rect class="cls-105" x="6.8" y="20.67" width="115.84" height="205.04" rx="9.18"/><rect class="cls-106" x="6.84" y="20.84" width="115.71" height="204.81" rx="9.18"/><rect class="cls-107" x="6.88" y="21" width="115.58" height="204.59" rx="9.18"/><rect class="cls-108" x="6.92" y="21.17" width="115.46" height="204.36" rx="9.18"/><rect class="cls-109" x="6.96" y="21.34" width="115.33" height="204.13" rx="9.18"/><rect class="cls-110" x="7" y="21.5" width="115.21" height="203.91" rx="9.18"/><rect class="cls-111" x="7.04" y="21.67" width="115.08" height="203.68" rx="9.18"/><rect class="cls-112" x="7.08" y="21.83" width="114.96" height="203.45" rx="9.18"/><rect class="cls-113" x="7.12" y="22" width="114.83" height="203.23" rx="9.18"/><rect class="cls-114" x="7.17" y="22.17" width="114.71" height="203" rx="9.18"/><rect class="cls-115" x="7.21" y="22.33" width="114.58" height="202.77" rx="9.18"/><rect class="cls-116" x="7.25" y="22.5" width="114.46" height="202.55" rx="9.18"/><rect class="cls-117" x="7.29" y="22.67" width="114.33" height="202.32" rx="9.18"/><rect class="cls-118" x="7.33" y="22.83" width="114.21" height="202.09" rx="9.18"/><rect class="cls-119" x="7.37" y="23" width="114.08" height="201.87" rx="9.18"/><rect class="cls-120" x="7.41" y="23.16" width="113.95" height="201.64" rx="9.18"/><rect class="cls-121" x="7.45" y="23.33" width="113.83" height="201.41" rx="9.18"/><rect class="cls-122" x="7.49" y="23.5" width="113.7" height="201.19" rx="9.18"/><rect class="cls-123" x="7.53" y="23.66" width="113.58" height="200.96" rx="9.18"/><rect class="cls-124" x="7.57" y="23.83" width="113.45" height="200.73" rx="9.18"/><rect class="cls-125" x="7.61" y="24" width="113.33" height="200.51" rx="9.18"/><rect class="cls-126" x="7.65" y="24.16" width="113.2" height="200.28" rx="9.18"/><rect class="cls-127" x="7.69" y="24.33" width="113.08" height="200.05" rx="9.18"/><rect class="cls-128" x="7.73" y="24.49" width="112.95" height="199.83" rx="9.18"/><rect class="cls-129" x="7.77" y="24.66" width="112.83" height="199.6" rx="9.18"/><rect class="cls-130" x="7.81" y="24.83" width="112.7" height="199.37" rx="9.18"/><rect class="cls-131" x="7.85" y="24.99" width="112.58" height="199.15" rx="9.18"/><rect class="cls-132" x="7.89" y="25.16" width="112.45" height="198.92" rx="9.18"/><rect class="cls-133" x="7.93" y="25.32" width="112.33" height="198.69" rx="9.18"/><rect class="cls-134" x="7.97" y="25.49" width="112.2" height="198.47" rx="9.18"/><rect class="cls-135" x="8.01" y="25.66" width="112.07" height="198.24" rx="9.18"/><rect class="cls-136" x="8.06" y="25.82" width="111.95" height="198.01" rx="9.18"/><rect class="cls-137" x="8.1" y="25.99" width="111.82" height="197.79" rx="9.18"/><rect class="cls-138" x="8.14" y="26.16" width="111.7" height="197.56" rx="9.18"/><rect class="cls-139" x="8.18" y="26.32" width="111.57" height="197.33" rx="9.18"/><rect class="cls-140" x="8.22" y="26.49" width="111.45" height="197.11" rx="9.18"/><rect class="cls-141" x="8.26" y="26.65" width="111.32" height="196.88" rx="9.18"/><rect class="cls-142" x="8.3" y="26.82" width="111.2" height="196.65" rx="9.18"/><rect class="cls-143" x="8.34" y="26.99" width="111.07" height="196.43" rx="9.18"/><rect class="cls-144" x="8.38" y="27.15" width="110.95" height="196.2" rx="9.18"/><rect class="cls-145" x="8.42" y="27.32" width="110.82" height="195.97" rx="9.18"/><rect class="cls-146" x="8.46" y="27.48" width="110.7" height="195.75" rx="9.18"/><rect class="cls-147" x="8.5" y="27.65" width="110.57" height="195.52" rx="9.18"/><rect class="cls-148" x="8.54" y="27.82" width="110.45" height="195.29" rx="9.18"/><rect class="cls-149" x="8.58" y="27.98" width="110.32" height="195.07" rx="9.18"/><rect class="cls-150" x="8.62" y="28.15" width="110.19" height="194.84" rx="9.18"/><rect class="cls-151" x="8.66" y="28.32" width="110.07" height="194.61" rx="9.18"/><rect class="cls-152" x="8.7" y="28.48" width="109.94" height="194.39" rx="9.18"/><rect class="cls-153" x="8.74" y="28.65" width="109.82" height="194.16" rx="9.18"/><rect class="cls-154" x="8.78" y="28.81" width="109.69" height="193.94" rx="9.18"/><rect class="cls-155" x="8.82" y="28.98" width="109.57" height="193.71" rx="9.18"/><rect class="cls-156" x="8.86" y="29.15" width="109.44" height="193.48" rx="9.18"/><rect class="cls-157" x="8.9" y="29.31" width="109.32" height="193.26" rx="9.18"/><rect class="cls-158" x="8.94" y="29.48" width="109.19" height="193.03" rx="9.18"/><rect class="cls-159" x="8.99" y="29.65" width="109.07" height="192.8" rx="9.18"/><rect class="cls-160" x="9.03" y="29.81" width="108.94" height="192.58" rx="9.18"/><rect class="cls-161" x="9.07" y="29.98" width="108.82" height="192.35" rx="9.18"/><rect class="cls-162" x="9.11" y="30.14" width="108.69" height="192.12" rx="9.18"/><rect class="cls-163" x="9.15" y="30.31" width="108.57" height="191.9" rx="9.18"/><rect class="cls-164" x="9.19" y="30.48" width="108.44" height="191.67" rx="9.18"/><rect class="cls-165" x="9.23" y="30.64" width="108.31" height="191.44" rx="9.18"/><rect class="cls-166" x="9.27" y="30.81" width="108.19" height="191.22" rx="9.18"/><rect class="cls-167" x="9.31" y="30.97" width="108.06" height="190.99" rx="9.18"/><rect class="cls-168" x="9.35" y="31.14" width="107.94" height="190.76" rx="9.18"/><rect class="cls-169" x="9.39" y="31.31" width="107.81" height="190.54" rx="9.18"/><rect class="cls-170" x="9.43" y="31.47" width="107.69" height="190.31" rx="9.18"/><rect class="cls-171" x="9.47" y="31.64" width="107.56" height="190.08" rx="9.18"/><rect class="cls-172" x="9.51" y="31.81" width="107.44" height="189.86" rx="9.18"/><rect class="cls-173" x="9.55" y="31.97" width="107.31" height="189.63" rx="9.18"/><rect class="cls-174" x="9.59" y="32.14" width="107.19" height="189.4" rx="9.18"/><rect class="cls-175" x="9.63" y="32.3" width="107.06" height="189.18" rx="9.18"/><rect class="cls-176" x="9.67" y="32.47" width="106.94" height="188.95" rx="9.18"/><rect class="cls-177" x="9.71" y="32.64" width="106.81" height="188.72" rx="9.18"/><rect class="cls-178" x="9.75" y="32.8" width="106.68" height="188.5" rx="9.18"/><rect class="cls-179" x="9.79" y="32.97" width="106.56" height="188.27" rx="9.18"/><rect class="cls-180" x="9.83" y="33.14" width="106.43" height="188.04" rx="9.18"/><rect class="cls-181" x="9.88" y="33.3" width="106.31" height="187.82" rx="9.18"/><rect class="cls-182" x="9.92" y="33.47" width="106.18" height="187.59" rx="9.18"/><rect class="cls-183" x="9.96" y="33.63" width="106.06" height="187.36" rx="9.18"/><rect class="cls-184" x="10" y="33.8" width="105.93" height="187.14" rx="9.18"/></g><path class="cls-185" d="M122.26,214.64V130.39H108V115.11H14.3v15.28H0v84.25a9.64,9.64,0,0,0,9.63,9.64h103A9.65,9.65,0,0,0,122.26,214.64Z"/><path class="cls-186" d="M122.26,9.64V93.89H108v15.28H14.3V93.89H0V9.64A9.64,9.64,0,0,1,9.63,0h103A9.65,9.65,0,0,1,122.26,9.64Z"/><path class="cls-187" d="M122.26,11.13V95.37H108v15.29H14.3V95.37H0V11.13A9.64,9.64,0,0,1,9.63,1.48h103A9.65,9.65,0,0,1,122.26,11.13Z"/><path class="cls-188" d="M122.26,213.16V128.91H108V113.63H14.3v15.28H0v84.25a9.64,9.64,0,0,0,9.63,9.64h103A9.65,9.65,0,0,0,122.26,213.16Z"/><rect class="cls-189" x="109.6" y="96.82" width="12.66" height="30.63"/></g></g></g></svg>