<svg xmlns="http://www.w3.org/2000/svg" viewBox="0 0 168.98 81"><defs><style>.cls-1{fill:#fff;}</style></defs><title>Asset 2@3x1</title><g id="Layer_2" data-name="Layer 2"><g id="OBJECT"><path class="cls-1" d="M37.48,76.68A4.8,4.8,0,0,1,42.26,81H169V77.6h-.92a2.57,2.57,0,1,1,0-5.13H169V70.7h-.92a2.57,2.57,0,1,1,0-5.14H169V63.79h-.92a2.57,2.57,0,1,1,0-5.14H169V56.88h-.92a2.57,2.57,0,1,1,0-5.14H169V50h-.92a2.57,2.57,0,1,1,0-5.14H169V43.07h-.92a2.57,2.57,0,1,1,0-5.14H169V36.16h-.92a2.57,2.57,0,1,1,0-5.14H169V29.25h-.92a2.57,2.57,0,1,1,0-5.14H169V22.35h-.92a2.57,2.57,0,1,1,0-5.14H169V15.44h-.92a2.57,2.57,0,1,1,0-5.14H169V8.53h-.92a2.57,2.57,0,1,1,0-5.14H169V0H42.26a4.81,4.81,0,0,1-4.78,4.32A4.8,4.8,0,0,1,32.71,0H0V3.39H.93a2.57,2.57,0,0,1,0,5.14H0V10.3H.93a2.57,2.57,0,0,1,0,5.14H0v1.77H.93a2.57,2.57,0,0,1,0,5.14H0v1.76H.93a2.57,2.57,0,0,1,0,5.14H0V31H.93a2.57,2.57,0,0,1,0,5.14H0v1.77H.93a2.57,2.57,0,0,1,0,5.14H0v1.77H.93A2.57,2.57,0,0,1,.93,50H0v1.76H.93a2.57,2.57,0,0,1,0,5.14H0v1.77H.93a2.57,2.57,0,0,1,0,5.14H0v1.77H.93a2.57,2.57,0,0,1,0,5.14H0v1.77H.93a2.57,2.57,0,0,1,0,5.13H0V81H32.71A4.8,4.8,0,0,1,37.48,76.68Z"/></g></g></svg>