<svg xmlns="http://www.w3.org/2000/svg" xmlns:xlink="http://www.w3.org/1999/xlink" viewBox="0 0 187.09 34.02"><defs><style>.cls-1{fill:url(#linear-gradient);}</style><linearGradient id="linear-gradient" y1="17.01" x2="207.05" y2="17.01" gradientUnits="userSpaceOnUse"><stop offset="0.07" stop-color="#1c6b9a"/><stop offset="0.24" stop-color="#287590"/><stop offset="0.55" stop-color="#489074"/><stop offset="0.96" stop-color="#7bbb47"/><stop offset="1" stop-color="#80bf43"/></linearGradient></defs><title>Asset 1@3x2</title><g id="Layer_2" data-name="Layer 2"><g id="Layer_1-2" data-name="Layer 1"><path class="cls-1" d="M122.75,3l25.78,8.85s.95-1.75,3.69-.68l3.46-6.94a2.85,2.85,0,0,1,2.55-1.59h26.26a2.6,2.6,0,0,1,2.6,2.6V26.82a2.59,2.59,0,0,1-2.6,2.6H158.17a2.84,2.84,0,0,1-2.51-1.5l-3.44-6.39a3.13,3.13,0,0,1-3.21-.2l-26.18,9.52-3.52,2.38a4.56,4.56,0,0,1-2.58.79H5.42A5.41,5.41,0,0,1,0,28.61V5.42A5.41,5.41,0,0,1,5.42,0H116.79a4.58,4.58,0,0,1,2.49.73Z"/></g></g></svg>