<svg xmlns="http://www.w3.org/2000/svg" xmlns:xlink="http://www.w3.org/1999/xlink" viewBox="0 0 204.72 39.33"><defs><style>.cls-1{fill:url(#linear-gradient);}</style><linearGradient id="linear-gradient" y1="19.67" x2="226.56" y2="19.67" gradientUnits="userSpaceOnUse"><stop offset="0.07" stop-color="#1c6b9a"/><stop offset="0.24" stop-color="#287590"/><stop offset="0.55" stop-color="#489074"/><stop offset="0.96" stop-color="#7bbb47"/><stop offset="1" stop-color="#80bf43"/></linearGradient></defs><title>Asset 1@3x2</title><g id="Layer_2" data-name="Layer 2"><g id="Layer_1-2" data-name="Layer 1"><path class="cls-1" d="M130.34,3.42l29.81,10.23s1.1-2,4.26-.78l4-8a3.3,3.3,0,0,1,3-1.83h30.36a3,3,0,0,1,3,3V31a3,3,0,0,1-3,3H171.29a3.28,3.28,0,0,1-2.9-1.73l-4-7.39s-2.15,1.1-3.71-.23l-30.27,11-4.06,2.76a5.37,5.37,0,0,1-3,.91H6.26A6.26,6.26,0,0,1,0,33.07V6.26A6.26,6.26,0,0,1,6.26,0H123.45a5.27,5.27,0,0,1,2.88.85Z"/></g></g></svg>