<svg xmlns="http://www.w3.org/2000/svg" viewBox="0 0 219.84 192.16"><defs><style>.cls-1{isolation:isolate;}.cls-2{fill:#fff;}.cls-3{mix-blend-mode:soft-light;}.cls-4,.cls-5,.cls-6,.cls-7,.cls-8,.cls-9{fill:none;stroke:#fff;stroke-miterlimit:10;}.cls-4,.cls-5,.cls-6{stroke-width:0.93px;}.cls-5{stroke-dasharray:4.58 4.58 4.58 4.58;}.cls-6{stroke-dasharray:4.58 4.58 4.58 4.58 4.58 4.58;}.cls-7,.cls-8,.cls-9{stroke-width:0.87px;}.cls-8{stroke-dasharray:4.58 4.58 4.58 4.58;}.cls-9{stroke-dasharray:4.58 4.58 4.58 4.58 4.58 4.58;}</style></defs><title>Asset 6@3x2</title><g class="cls-1"><g id="Layer_2" data-name="Layer 2"><g id="Layer_1-2" data-name="Layer 1"><path class="cls-2" d="M43.35,26.4,57.23,29a67.77,67.77,0,0,0,17.86,1c8.07-.63,15.69-2.92,22.29-7.84,3.35-2.49,6.59-5.15,9.77-7.85a30.86,30.86,0,0,0,3.16-3.65c.66.74,1.52,1.62,2.29,2.56a39,39,0,0,0,17.63,12.68,56.5,56.5,0,0,0,16.85,3.25c4,.13,8-.06,12-.28,2.81-.15,5.61-.5,8.39-.92,3-.45,5.89-1.08,9.09-1.68V30l0,55.9c0,7.62-.08,15.25,0,22.87a25.07,25.07,0,0,1-1.88,9.09c-4,10.76-10.7,19.73-18.5,28a187.53,187.53,0,0,1-29.22,24.88c-5.35,3.73-10.93,7.15-16.43,10.67a1.53,1.53,0,0,1-1.32,0,226.24,226.24,0,0,1-33.07-23.63,144.09,144.09,0,0,1-18.68-19A72.19,72.19,0,0,1,45.65,118.8a30.74,30.74,0,0,1-2.33-12.12c.19-4.71,0-9.45,0-14.17V26.4Zm8.91,10.9V39c0,22,.07,44.05-.06,66.08a32.17,32.17,0,0,0,3.17,13.52A68.07,68.07,0,0,0,65,133.74a138.4,138.4,0,0,0,17.85,17.89,219.89,219.89,0,0,0,25.92,19,1.85,1.85,0,0,0,2.28-.09c3.75-2.53,7.58-4.95,11.26-7.56a184.93,184.93,0,0,0,24.3-20.3c7.5-7.53,14.27-15.59,18.46-25.5a30,30,0,0,0,2.7-11.91c-.08-20.68,0-41.36,0-62,0-.53.12-1.06.1-1.59,0-1.58-.12-3.16-.19-4.8l-2.41.25c-3.81.42-7.62,1-11.44,1.22a70.26,70.26,0,0,1-23.47-2.75,42.44,42.44,0,0,1-11-4.65c-3.3-2.13-6.52-4.38-9.86-6.63-.88.63-1.88,1.36-2.88,2.11A58,58,0,0,1,89.8,35.08a61.52,61.52,0,0,1-14.72,3c-4.6.31-9.21.28-13.82.34A24.41,24.41,0,0,1,52.26,37.3Z"/><path class="cls-2" d="M162.68,105.35c-.06-18.41,0-36.82,0-55.22,0-2,0-4,0-6,0-.86-.29-1.13-1.15-1.05a55.84,55.84,0,0,1-7.06.49c-4.48-.17-9-.48-13.42-1a69.94,69.94,0,0,1-9.42-1.71c-3.64-.91-7.24-2-10.78-3.29-3.72-1.32-7.39-2.84-10.26-5.73a.86.86,0,0,0-1.44,0c-2.46,2.43-5.56,3.81-8.67,5.12a84.91,84.91,0,0,1-17.4,4.95,90.8,90.8,0,0,1-17.24,1.65c-2.24,0-4.48-.29-6.72-.45-1.59-.11-1.64-.08-1.64,1.47,0,2.17,0,4.34,0,6.51,0,18.1,0,36.21,0,54.31a24.58,24.58,0,0,0,1.94,9.31,61.22,61.22,0,0,0,9.77,15.85,137.47,137.47,0,0,0,18.79,18.58,212.71,212.71,0,0,0,21.32,15.63,1.15,1.15,0,0,0,1.53,0c1.1-.81,2.28-1.5,3.42-2.26a208.41,208.41,0,0,0,20-15.14c.89-.77,1.77-1.54,2.64-2.32l.05,0c16.17-13,22.23-27,22.23-27h0c.41-.79.8-1.57,1.15-2.38A25.09,25.09,0,0,0,162.68,105.35Z"/><g class="cls-3"><line class="cls-4" y1="27.58" x2="2.31" y2="27.58"/><line class="cls-5" x1="6.89" y1="27.58" x2="22.92" y2="27.58"/><line class="cls-6" x1="25.21" y1="27.58" x2="215.24" y2="27.58"/><line class="cls-4" x1="217.53" y1="27.58" x2="219.84" y2="27.58"/><line class="cls-4" y1="10.71" x2="2.31" y2="10.71"/><line class="cls-5" x1="6.89" y1="10.71" x2="22.92" y2="10.71"/><line class="cls-6" x1="25.21" y1="10.71" x2="215.24" y2="10.71"/><line class="cls-4" x1="217.53" y1="10.71" x2="219.84" y2="10.71"/><line class="cls-4" y1="44.45" x2="2.31" y2="44.45"/><line class="cls-5" x1="6.89" y1="44.45" x2="22.92" y2="44.45"/><line class="cls-6" x1="25.21" y1="44.45" x2="215.24" y2="44.45"/><line class="cls-4" x1="217.53" y1="44.45" x2="219.84" y2="44.45"/><line class="cls-4" y1="61.32" x2="2.31" y2="61.32"/><line class="cls-5" x1="6.89" y1="61.32" x2="22.92" y2="61.32"/><line class="cls-6" x1="25.21" y1="61.32" x2="215.24" y2="61.32"/><line class="cls-4" x1="217.53" y1="61.32" x2="219.84" y2="61.32"/><line class="cls-4" y1="78.18" x2="2.31" y2="78.18"/><line class="cls-5" x1="6.89" y1="78.18" x2="22.92" y2="78.18"/><line class="cls-6" x1="25.21" y1="78.18" x2="215.24" y2="78.18"/><line class="cls-4" x1="217.53" y1="78.18" x2="219.84" y2="78.18"/><line class="cls-4" y1="95.05" x2="2.31" y2="95.05"/><line class="cls-5" x1="6.89" y1="95.05" x2="22.92" y2="95.05"/><line class="cls-6" x1="25.21" y1="95.05" x2="215.24" y2="95.05"/><line class="cls-4" x1="217.53" y1="95.05" x2="219.84" y2="95.05"/><line class="cls-4" y1="111.92" x2="2.31" y2="111.92"/><line class="cls-5" x1="6.89" y1="111.92" x2="22.92" y2="111.92"/><line class="cls-6" x1="25.21" y1="111.92" x2="215.24" y2="111.92"/><line class="cls-4" x1="217.53" y1="111.92" x2="219.84" y2="111.92"/><line class="cls-4" y1="128.79" x2="2.31" y2="128.79"/><line class="cls-5" x1="6.89" y1="128.79" x2="22.92" y2="128.79"/><line class="cls-6" x1="25.21" y1="128.79" x2="215.24" y2="128.79"/><line class="cls-4" x1="217.53" y1="128.79" x2="219.84" y2="128.79"/><line class="cls-4" y1="145.65" x2="2.31" y2="145.65"/><line class="cls-5" x1="6.89" y1="145.65" x2="22.92" y2="145.65"/><line class="cls-6" x1="25.21" y1="145.65" x2="215.24" y2="145.65"/><line class="cls-4" x1="217.53" y1="145.65" x2="219.84" y2="145.65"/><line class="cls-4" y1="162.52" x2="2.31" y2="162.52"/><line class="cls-5" x1="6.89" y1="162.52" x2="22.92" y2="162.52"/><line class="cls-6" x1="25.21" y1="162.52" x2="215.24" y2="162.52"/><line class="cls-4" x1="217.53" y1="162.52" x2="219.84" y2="162.52"/><line class="cls-4" y1="179.39" x2="2.31" y2="179.39"/><line class="cls-5" x1="6.89" y1="179.39" x2="22.92" y2="179.39"/><line class="cls-6" x1="25.21" y1="179.39" x2="215.24" y2="179.39"/><line class="cls-4" x1="217.53" y1="179.39" x2="219.84" y2="179.39"/><line class="cls-7" x1="164.66" x2="164.66" y2="2.16"/><line class="cls-8" x1="164.66" y1="6.74" x2="164.66" y2="22.78"/><line class="cls-9" x1="164.66" y1="25.07" x2="164.66" y2="187.71"/><line class="cls-7" x1="164.66" y1="190" x2="164.66" y2="192.16"/><line class="cls-7" x1="179.51" x2="179.51" y2="2.16"/><line class="cls-8" x1="179.51" y1="6.74" x2="179.51" y2="22.78"/><line class="cls-9" x1="179.51" y1="25.07" x2="179.51" y2="187.71"/><line class="cls-7" x1="179.51" y1="190" x2="179.51" y2="192.16"/><line class="cls-7" x1="194.37" x2="194.37" y2="2.16"/><line class="cls-8" x1="194.37" y1="6.74" x2="194.37" y2="22.78"/><line class="cls-9" x1="194.37" y1="25.07" x2="194.37" y2="187.71"/><line class="cls-7" x1="194.37" y1="190" x2="194.37" y2="192.16"/><line class="cls-7" x1="209.22" x2="209.22" y2="2.16"/><line class="cls-8" x1="209.22" y1="6.74" x2="209.22" y2="22.78"/><line class="cls-9" x1="209.22" y1="25.07" x2="209.22" y2="187.71"/><line class="cls-7" x1="209.22" y1="190" x2="209.22" y2="192.16"/><line class="cls-7" x1="147.79" x2="147.79" y2="2.16"/><line class="cls-8" x1="147.79" y1="6.74" x2="147.79" y2="22.78"/><line class="cls-9" x1="147.79" y1="25.07" x2="147.79" y2="187.71"/><line class="cls-7" x1="147.79" y1="190" x2="147.79" y2="192.16"/><line class="cls-7" x1="130.92" x2="130.92" y2="2.16"/><line class="cls-8" x1="130.92" y1="6.74" x2="130.92" y2="22.78"/><line class="cls-9" x1="130.92" y1="25.07" x2="130.92" y2="187.71"/><line class="cls-7" x1="130.92" y1="190" x2="130.92" y2="192.16"/><line class="cls-7" x1="114.06" x2="114.06" y2="2.16"/><line class="cls-8" x1="114.06" y1="6.74" x2="114.06" y2="22.78"/><line class="cls-9" x1="114.06" y1="25.07" x2="114.06" y2="187.71"/><line class="cls-7" x1="114.06" y1="190" x2="114.06" y2="192.16"/><line class="cls-7" x1="97.19" x2="97.19" y2="2.16"/><line class="cls-8" x1="97.19" y1="6.74" x2="97.19" y2="22.78"/><line class="cls-9" x1="97.19" y1="25.07" x2="97.19" y2="187.71"/><line class="cls-7" x1="97.19" y1="190" x2="97.19" y2="192.16"/><line class="cls-7" x1="80.32" x2="80.32" y2="2.16"/><line class="cls-8" x1="80.32" y1="6.74" x2="80.32" y2="22.78"/><line class="cls-9" x1="80.32" y1="25.07" x2="80.32" y2="187.71"/><line class="cls-7" x1="80.32" y1="190" x2="80.32" y2="192.16"/><line class="cls-7" x1="63.45" x2="63.45" y2="2.16"/><line class="cls-8" x1="63.45" y1="6.74" x2="63.45" y2="22.78"/><line class="cls-9" x1="63.45" y1="25.07" x2="63.45" y2="187.71"/><line class="cls-7" x1="63.45" y1="190" x2="63.45" y2="192.16"/><line class="cls-7" x1="46.59" x2="46.59" y2="2.16"/><line class="cls-8" x1="46.59" y1="6.74" x2="46.59" y2="22.78"/><line class="cls-9" x1="46.59" y1="25.07" x2="46.59" y2="187.71"/><line class="cls-7" x1="46.59" y1="190" x2="46.59" y2="192.16"/><line class="cls-7" x1="29.72" x2="29.72" y2="2.16"/><line class="cls-8" x1="29.72" y1="6.74" x2="29.72" y2="22.78"/><line class="cls-9" x1="29.72" y1="25.07" x2="29.72" y2="187.71"/><line class="cls-7" x1="29.72" y1="190" x2="29.72" y2="192.16"/><line class="cls-7" x1="12.85" x2="12.85" y2="2.16"/><line class="cls-8" x1="12.85" y1="6.74" x2="12.85" y2="22.78"/><line class="cls-9" x1="12.85" y1="25.07" x2="12.85" y2="187.71"/><line class="cls-7" x1="12.85" y1="190" x2="12.85" y2="192.16"/></g></g></g></g></svg>