<svg xmlns="http://www.w3.org/2000/svg" viewBox="0 0 40.26 22.64"><defs><style>.cls-1{fill:#0068a6;}</style></defs><title>Asset 4@3x1</title><g id="Layer_2" data-name="Layer 2"><g id="Layer_1-2" data-name="Layer 1"><path class="cls-1" d="M20.11,22.64a19.67,19.67,0,0,1-5.39-.88A27.23,27.23,0,0,1,7,17.83,37.93,37.93,0,0,1,1.13,12.7c-.36-.39-.69-.8-1-1.2a.29.29,0,0,1,0-.44c.81-.87,1.59-1.77,2.43-2.6A35.65,35.65,0,0,1,9.12,3.35a25.54,25.54,0,0,1,4.82-2.27A21.58,21.58,0,0,1,17.42.22a17.39,17.39,0,0,1,5-.08,19.06,19.06,0,0,1,4.05,1,22.88,22.88,0,0,1,4.47,2.12c1.29.81,2.54,1.69,3.77,2.59A33.3,33.3,0,0,1,39.24,10c.33.35.61.74.93,1.09.12.14.11.22,0,.34-.92,1-1.79,2-2.74,2.92a34.08,34.08,0,0,1-6.53,5,23,23,0,0,1-5.71,2.48,33.34,33.34,0,0,1-3.31.64C21.3,22.58,20.7,22.59,20.11,22.64Zm0-2.64a8.78,8.78,0,1,0-8.76-8.77A8.77,8.77,0,0,0,20.12,20ZM25.53,2.4c3.19,2.26,5,5.22,4.82,9.19s-2.12,6.77-5.43,8.78c.58-.18,1.16-.35,1.72-.58a27.88,27.88,0,0,0,5.52-3,37.92,37.92,0,0,0,5.68-4.91c.61-.65.6-.49,0-1.14A36.93,36.93,0,0,0,32.2,5.85a27,27,0,0,0-4.77-2.7C26.81,2.88,26.16,2.65,25.53,2.4Zm-10.8.05c-.05,0-.08,0-.1,0a22.08,22.08,0,0,0-3.82,1.69,31.1,31.1,0,0,0-5.69,4C4.12,9,3.18,10,2.21,10.94c-.35.33-.35.34,0,.69A34.38,34.38,0,0,0,7.05,16a35.32,35.32,0,0,0,3.61,2.34c1.09.62,2.26,1.09,3.41,1.6.41.18.84.28,1.27.42A10.24,10.24,0,0,1,9.88,11.6,10.14,10.14,0,0,1,14.73,2.45Z"/><path class="cls-1" d="M22.08,6.75a2,2,0,0,0,.05,2.7,1.91,1.91,0,0,0,2.58.21,4.7,4.7,0,0,1-1.22,5.17,4.93,4.93,0,0,1-7.42-6.41A4.83,4.83,0,0,1,22.08,6.75Z"/></g></g></svg>