<svg xmlns="http://www.w3.org/2000/svg" xmlns:xlink="http://www.w3.org/1999/xlink" viewBox="0 0 73.3 84.65"><defs><style>.cls-1{fill:url(#New_Gradient_Swatch_1);}.cls-2,.cls-3{fill:#fff;}.cls-3{stroke-miterlimit:10;stroke-width:1.15px;stroke:url(#New_Gradient_Swatch_1-2);}.cls-4{fill:url(#linear-gradient);}</style><linearGradient id="New_Gradient_Swatch_1" x1="36.65" y1="8.52" x2="36.65" y2="81.82" gradientUnits="userSpaceOnUse"><stop offset="0" stop-color="#1d6ba1"/><stop offset="1" stop-color="#80cd3d"/></linearGradient><linearGradient id="New_Gradient_Swatch_1-2" x1="25.23" y1="73.23" x2="48.07" y2="73.23" xlink:href="#New_Gradient_Swatch_1"/><linearGradient id="linear-gradient" x1="30.4" y1="74.41" x2="42.89" y2="74.41" gradientUnits="userSpaceOnUse"><stop offset="0" stop-color="#80cd3d"/><stop offset="0.09" stop-color="#6ab754"/><stop offset="0.23" stop-color="#4e9b70"/><stop offset="0.38" stop-color="#388686"/><stop offset="0.54" stop-color="#297795"/><stop offset="0.73" stop-color="#206e9e"/><stop offset="1" stop-color="#1d6ba1"/></linearGradient></defs><title>Asset 3@3x1</title><g id="Layer_2" data-name="Layer 2"><g id="Layer_1-2" data-name="Layer 1"><circle class="cls-1" cx="36.65" cy="36.65" r="36.65"/><path class="cls-2" d="M37.55,52.59A27.83,27.83,0,0,1,30,51.34a38.15,38.15,0,0,1-10.91-5.52,53.83,53.83,0,0,1-8.23-7.22c-.51-.55-1-1.14-1.47-1.7a.41.41,0,0,1,.05-.62c1.14-1.22,2.24-2.49,3.43-3.66a48.38,48.38,0,0,1,9.25-7.18,34.45,34.45,0,0,1,6.78-3.2A30.26,30.26,0,0,1,33.77,21a24.66,24.66,0,0,1,7-.11,26.87,26.87,0,0,1,5.7,1.42,32.46,32.46,0,0,1,6.3,3c1.81,1.14,3.57,2.38,5.3,3.64a47,47,0,0,1,6.4,5.89c.46.49.86,1,1.31,1.54.17.19.15.3,0,.48-1.29,1.36-2.51,2.79-3.85,4.1a47.85,47.85,0,0,1-9.19,7,32.63,32.63,0,0,1-8,3.5,46.12,46.12,0,0,1-4.66.89C39.22,52.5,38.38,52.52,37.55,52.59Zm0-3.71A12.36,12.36,0,1,0,25.23,36.52,12.36,12.36,0,0,0,37.57,48.88Zm7.61-24.79c4.49,3.19,7,7.36,6.8,12.94s-3,9.54-7.65,12.36c.81-.26,1.63-.49,2.41-.81a39.11,39.11,0,0,0,7.78-4.24,53.2,53.2,0,0,0,8-6.92c.86-.91.86-.69,0-1.59a52,52,0,0,0-7.93-6.89,38.32,38.32,0,0,0-6.72-3.8C47,24.76,46.08,24.44,45.18,24.09ZM30,24.16a.37.37,0,0,0-.14,0,32,32,0,0,0-5.39,2.38,43.43,43.43,0,0,0-8,5.66c-1.42,1.26-2.74,2.61-4.11,3.92-.49.47-.5.48,0,1a48.92,48.92,0,0,0,6.84,6.19,51.37,51.37,0,0,0,5.09,3.29c1.53.87,3.19,1.53,4.8,2.25.57.25,1.19.4,1.78.6-4.69-2.82-7.49-6.83-7.68-12.37S25.43,27.27,30,24.16Z"/><path class="cls-2" d="M40.33,30.22c-.89,1.3-1,2.63.06,3.8a2.71,2.71,0,0,0,3.64.29c.95,1.7.58,5.13-1.72,7.28a6.94,6.94,0,0,1-10.45-9A6.81,6.81,0,0,1,40.33,30.22Z"/><circle class="cls-3" cx="36.65" cy="73.23" r="10.84"/><path class="cls-4" d="M37.45,74.81v6h-1.6v-6H30.4V73.43h5.45V68.05h1.6v5.38h5.44v1.38Z"/></g></g></svg>