<svg xmlns="http://www.w3.org/2000/svg" xmlns:xlink="http://www.w3.org/1999/xlink" viewBox="0 0 165.28 247.44"><defs><style>.cls-1{isolation:isolate;}.cls-2,.cls-7{fill:#80cd3d;}.cls-2{opacity:0.47;mix-blend-mode:multiply;}.cls-3{fill:url(#New_Gradient_Swatch_1);}.cls-4{fill:#fff;}.cls-5{fill:url(#New_Gradient_Swatch_1-2);}.cls-6{fill:url(#New_Gradient_Swatch_1-3);}</style><linearGradient id="New_Gradient_Swatch_1" x1="23.82" y1="123.72" x2="141.51" y2="123.72" gradientUnits="userSpaceOnUse"><stop offset="0" stop-color="#1d6ba1"/><stop offset="1" stop-color="#80cd3d"/></linearGradient><linearGradient id="New_Gradient_Swatch_1-2" x1="70.62" y1="150.57" x2="101.17" y2="150.57" xlink:href="#New_Gradient_Swatch_1"/><linearGradient id="New_Gradient_Swatch_1-3" x1="41.38" y1="217.41" x2="123.95" y2="217.41" xlink:href="#New_Gradient_Swatch_1"/></defs><title>Asset 6@3x1</title><g class="cls-1"><g id="Layer_2" data-name="Layer 2"><g id="Layer_1-2" data-name="Layer 1"><circle class="cls-2" cx="82.64" cy="162.89" r="82.64"/><path class="cls-3" d="M141.5,180.93c0-12.32-.11-24.65,0-37a46.69,46.69,0,0,0-11.77-32.27,6,6,0,0,1-1.59-4.64c.25-8.7.13-17.43.07-26.13a3.33,3.33,0,0,0-3.63-3.52q-6.81-.09-13.62,0c-1.11,0-1.87-.23-2.28-1.37-2.93-8-6.26-15.87-8.77-24A142.65,142.65,0,0,1,93.83,9.26,8.11,8.11,0,0,0,91,2.92C88,.27,84.56-.29,80.83.12c-5.1.57-9.3,3.61-9.37,10.24A172.17,172.17,0,0,1,70.12,30c-2,16-6.81,31.16-13.28,45.86a2.06,2.06,0,0,1-2.2,1.49c-4.47-.07-9,0-13.43,0-2.88,0-4,1.16-4,4,0,5.77,0,11.52,0,17.28,0,3.13-.07,6.25.17,9.36a2.9,2.9,0,0,1-.74,2.58C28.42,119.4,24,129.81,24,141.81c-.14,28.1,0,56.19-.13,84.29A20.65,20.65,0,0,0,41.28,247c4.31.7,8.79.44,13.2.44q32.91.06,65.83,0a21.11,21.11,0,0,0,15.28-6.3A19.17,19.17,0,0,0,141.5,227C141.53,211.65,141.5,196.28,141.5,180.93ZM65.69,72.34A160.37,160.37,0,0,0,77,30.34C77.79,23.59,78,16.76,78.4,10c.08-1.55.66-2.61,2.09-2.8a14.73,14.73,0,0,1,4.87.08C86.57,7.48,87,8.68,87,10c.37,6.67.54,13.38,1.35,20a166.76,166.76,0,0,0,12.94,46.31c.09.21.16.43.27.74H63.87C64.48,75.47,65,73.89,65.69,72.34Zm69.05,73.83c-.3,10.19-.09,20.41-.08,30.61,0,16.44-.06,32.88.07,49.31a13.83,13.83,0,0,1-10.85,14,17.81,17.81,0,0,1-4.32.52h-2.32q-29.35,0-58.71,0c-3.47,0-6.94.07-10.4,0-1.63,0-3.25-.1-4.86-.23a11.91,11.91,0,0,1-1.79-.28,14.07,14.07,0,0,1-10.81-13.82c.15-27.91,0-55.8.06-83.71a38.1,38.1,0,0,1,7.59-23.23,73.06,73.06,0,0,1,6.77-7.54,4.87,4.87,0,0,1,2.78-1.09c2.5-.23,5-.31,7.51-.32,1.65,0,3.3.35,4.95.35,10.12,0,20.25,0,30.38-.06,1.76,0,3.42-.22,4.24-2a3.47,3.47,0,0,0-3.25-4.88c-6.14,0-12.27,0-18.41,0L44,103.68c0-6.17,0-12.25,0-18.33,0-1.28.65-1.17,1.52-1.18,8.64,0,17.29,0,25.92,0q24,0,48,.05c.6,0,1.2.06,1.74.09-.06,6.47-.12,12.8-.19,19.48-2.39,0-5.18-.1-8,0a12.48,12.48,0,0,0-4.51,1c-1.35.63-1.58,2.08-1.15,3.56a2.9,2.9,0,0,0,2.85,2.22c2.34.1,4.7,0,7,.16a5.78,5.78,0,0,1,3.11,1.22C130.67,121,135.14,132.47,134.74,146.17Z"/><path class="cls-4" d="M117.24,240.6q-29.35,0-58.71,0c-3.47,0-6.94.07-10.4,0a7.46,7.46,0,0,0,.11-1.35c0-11.46,0-21.91,0-33.36,0-2.45-.16-4.91-.25-7.58,4,0,7.62-.06,11.21-.06,16,0,40,0,56,0,1.4,0,1.91.24,1.9,1.81,0,13.42,0,25.86,0,39.3A6.89,6.89,0,0,0,117.24,240.6Z"/><path class="cls-4" d="M101.58,77.06H63.87c.61-1.58,1.17-3.16,1.82-4.71A160.37,160.37,0,0,0,77,30.34C77.79,23.59,78,16.76,78.4,10c.08-1.55.66-2.61,2.09-2.8a14.73,14.73,0,0,1,4.87.08C86.57,7.48,87,8.68,87,10c.37,6.67.54,13.38,1.35,20a166.76,166.76,0,0,0,12.94,46.31C101.4,76.53,101.47,76.75,101.58,77.06Z"/><path class="cls-4" d="M120.31,111.92a5.78,5.78,0,0,0-3.11-1.22c-2.32-.2-4.68-.06-7-.16a2.9,2.9,0,0,1-2.85-2.22c-.43-1.48-.2-2.93,1.15-3.56a12.48,12.48,0,0,1,4.51-1c2.77-.14,5.56,0,8,0,.07-6.68.13-13,.19-19.48-.54,0-1.14-.09-1.74-.09q-24,0-48-.05c-8.63,0-17.28,0-25.92,0-.87,0-1.53-.1-1.52,1.18.05,6.08,0,12.16,0,18.33l29.34.1c6.14,0,12.27.06,18.41,0A3.47,3.47,0,0,1,95,108.69c-.82,1.75-2.48,2-4.24,2-10.13,0-20.26.07-30.38.06-1.65,0-3.3-.35-4.95-.35-2.51,0-5,.09-7.51.32a4.87,4.87,0,0,0-2.78,1.09,73.06,73.06,0,0,0-6.77,7.54,38.1,38.1,0,0,0-7.59,23.23c0,27.91.09,55.8-.06,83.71a14.07,14.07,0,0,0,10.81,13.82,3.39,3.39,0,0,1,0-.64c0-15,0-28.93,0-43.87,0-3,1.16-4.15,4.18-4.15,22.07,0,52.11,0,74.17,0,3.13,0,4.22,1.17,4.22,4.28,0,14.88,0,28.79,0,43.68a5.43,5.43,0,0,1,0,.71,13.83,13.83,0,0,0,10.85-14c-.13-16.43-.07-32.87-.07-49.31,0-10.2-.22-20.42.08-30.61C135.14,132.47,130.67,121,120.31,111.92Zm-19.54,50.81A15,15,0,0,1,91,173.66a36.47,36.47,0,0,1-5,1.13,15.83,15.83,0,0,1-14.78-11.37,13.33,13.33,0,0,1,.09-8c.87-2.58,1.89-5.11,2.9-7.63,1.12-2.78,2.2-5.58,3.49-8.27,1.55-3.22,3.31-6.34,5-9.52.33-.64.54-1.35.85-2a2.64,2.64,0,0,1,2.33-1.66,2.45,2.45,0,0,1,2.38,1.49c4.3,8,8.46,16.1,11.5,24.71C100.83,155.83,101.71,159.17,100.77,162.73Z"/><path class="cls-5" d="M99.68,152.55c-3-8.61-7.2-16.69-11.5-24.71a2.45,2.45,0,0,0-2.38-1.49A2.64,2.64,0,0,0,83.47,128c-.31.66-.52,1.37-.85,2-1.64,3.18-3.4,6.3-5,9.52-1.29,2.69-2.37,5.49-3.49,8.27-1,2.52-2,5.05-2.9,7.63a13.33,13.33,0,0,0-.09,8A15.83,15.83,0,0,0,86,174.79a36.47,36.47,0,0,0,5-1.13,15,15,0,0,0,9.76-10.93C101.71,159.17,100.83,155.83,99.68,152.55Zm-3.86,9.28c-1,4.92-7.11,8.81-12,7.47-4.54-1.24-7.31-4.08-8-8.79-.36-2.39.49-4.6,1.29-6.77,1.23-3.38,2.48-6.75,4-10s3.21-6.25,4.92-9.54a7.32,7.32,0,0,1,.66,1c2.66,6,5.37,12,7.91,18.14A14,14,0,0,1,95.82,161.83Z"/><path class="cls-6" d="M124,195.69c0,14.88,0,28.79,0,43.68a5.43,5.43,0,0,1,0,.71c-.23,2.15-1.49,3.37-3.46,3.32a3.14,3.14,0,0,1-3.18-2.8,6.89,6.89,0,0,1-.11-1.24c0-13.44,0-25.88,0-39.3,0-1.57-.5-1.81-1.9-1.81-16,0-40,0-56,0-3.59,0-7.19,0-11.21.06.09,2.67.24,5.13.25,7.58,0,11.45,0,21.9,0,33.36a7.46,7.46,0,0,1-.11,1.35,3.09,3.09,0,0,1-1.71,2.4c-2.35,1.2-4.63-.21-4.94-2.91a3.39,3.39,0,0,1,0-.64c0-15,0-28.93,0-43.87,0-3,1.16-4.15,4.18-4.15,22.07,0,52.11,0,74.17,0C122.86,191.41,124,192.58,124,195.69Z"/><path class="cls-7" d="M72,212.38v6.22h7.2v-6.22h1.94v14.88H79.23v-7H72v7H70.11V212.38Z"/><path class="cls-7" d="M86.91,222.58l-1.54,4.68h-2l5.06-14.88h2.31l5.08,14.88h-2l-1.59-4.68Zm4.88-1.51-1.46-4.28c-.33-1-.55-1.85-.77-2.71h0c-.22.88-.47,1.78-.75,2.69l-1.46,4.3Z"/></g></g></g></svg>