<svg xmlns="http://www.w3.org/2000/svg" viewBox="0 0 32.61 32.48"><defs><style>.cls-1{fill:#fff;}</style></defs><title>Asset 1@3x1</title><g id="Layer_2" data-name="Layer 2"><g id="Layer_1-2" data-name="Layer 1"><path class="cls-1" d="M18.35,32.46V21h3.87l.59-4.51H18.4c0-.05,0-.07,0-.08V13.06a1.5,1.5,0,0,1,1.41-1.57h.07c.9-.09,1.81-.05,2.71-.07h.37v-4l-.7-.06a19,19,0,0,0-3.84,0A5.13,5.13,0,0,0,13.74,12c-.11,1-.08,1.95-.1,2.92v1.65H10c-.21,0-.28,0-.28.27v4a1,1,0,0,0,0,.24h3.87V32.38a16.3,16.3,0,1,1,4.7.1Z"/></g></g></svg>