<svg xmlns="http://www.w3.org/2000/svg" viewBox="0 0 21.92 21.83"><defs><style>.cls-1{fill:#0783c6;}</style></defs><title>Asset 2@3x2</title><g id="Layer_2" data-name="Layer 2"><g id="Layer_1-2" data-name="Layer 1"><path class="cls-1" d="M12.3,21.83v-7.7h2.6l.4-3h-3s0,0,0-.05c0-.76,0-1.51,0-2.26a1,1,0,0,1,1-1.06c.61-.06,1.22,0,1.83,0h.25V5l-.48,0a13.08,13.08,0,0,0-2.58,0A3.46,3.46,0,0,0,9.21,8c-.07.65-.05,1.31-.07,2,0,.36,0,.72,0,1.11H6.7c-.14,0-.19,0-.19.19,0,.89,0,1.79,0,2.69v.16H9.13v7.64a11,11,0,1,1,3.17.07Z"/></g></g></svg>