<svg xmlns="http://www.w3.org/2000/svg" viewBox="0 0 32.56 32.56"><defs><style>.cls-1{fill:#fff;}</style></defs><title>Asset 1@3x1</title><g id="Layer_2" data-name="Layer 2"><g id="Layer_1-2" data-name="Layer 1"><path class="cls-1" d="M16,32.56a16.43,16.43,0,1,1,.18,0ZM25.71,16.3v-4a6.46,6.46,0,0,0-.18-1.39,5.41,5.41,0,0,0-5.27-4H12.41a5.43,5.43,0,0,0-5.54,5.32V20.3a5.43,5.43,0,0,0,5.4,5.46h8a5.45,5.45,0,0,0,5.49-5.39V16.3Z"/><path class="cls-1" d="M24,16.32v4.13A3.57,3.57,0,0,1,21,24a3.91,3.91,0,0,1-.76.07h-7.9a3.62,3.62,0,0,1-3.74-3.5V12.41A3.61,3.61,0,0,1,12,8.65h8.24a3.59,3.59,0,0,1,3.67,3.51v4.16Zm-2.8,0a4.89,4.89,0,1,0-4.9,4.88h0a4.88,4.88,0,0,0,4.9-4.86Zm1-5.34a.85.85,0,0,0-.83-.87h0a.87.87,0,0,0-.19,1.73h.19a.87.87,0,0,0,.85-.87h0Z"/><path class="cls-1" d="M16.28,19.5a3.17,3.17,0,1,1,3.17-3.17h0A3.18,3.18,0,0,1,16.28,19.5Z"/></g></g></svg>