<svg xmlns="http://www.w3.org/2000/svg" viewBox="0 0 21.92 21.92"><defs><style>.cls-1{fill:#0783c6;}</style></defs><title>Asset 3@3x2</title><g id="Layer_2" data-name="Layer 2"><g id="Layer_1-2" data-name="Layer 1"><path class="cls-1" d="M10.8,21.92A11,11,0,1,1,21.92,11,11,11,0,0,1,10.8,21.92Zm6.51-11c0-.89,0-1.79,0-2.69a3.73,3.73,0,0,0-.12-.94,3.63,3.63,0,0,0-3.55-2.72H8.35A3.65,3.65,0,0,0,4.62,8.29q0,2.67,0,5.34a3.64,3.64,0,0,0,3.73,3.68h5.26a3.66,3.66,0,0,0,3.7-3.69Z"/><path class="cls-1" d="M16.14,11c0,.93,0,1.85,0,2.78a2.4,2.4,0,0,1-2,2.36,3,3,0,0,1-.52,0H8.31a2.44,2.44,0,0,1-2.52-2.52V8.35A2.43,2.43,0,0,1,8.33,5.82h5.33a2.41,2.41,0,0,1,2.47,2.42c0,.92,0,1.83,0,2.75Zm-1.88,0A3.3,3.3,0,1,0,11,14.29,3.3,3.3,0,0,0,14.26,11ZM15,7.41a.57.57,0,0,0-.57-.59.58.58,0,1,0,.57.59Z"/><path class="cls-1" d="M11,13.13A2.14,2.14,0,1,1,13.1,11,2.14,2.14,0,0,1,11,13.13Z"/></g></g></svg>