<svg xmlns="http://www.w3.org/2000/svg" viewBox="0 0 32.57 32.56"><defs><style>.cls-1{fill:#fff;}</style></defs><title>Asset 8@3x1</title><g id="Layer_2" data-name="Layer 2"><g id="Layer_1-2" data-name="Layer 1"><path class="cls-1" d="M16.51,0A16.28,16.28,0,1,0,32.57,16.31,16.29,16.29,0,0,0,16.51,0Zm8.17,15h-.37a6.85,6.85,0,0,1-2.55-.48,15.32,15.32,0,0,1-1.59-.71.61.61,0,0,1-.17-.07v5.88a6,6,0,0,1-3.95,5.76,5.78,5.78,0,0,1-2.12.4,6,6,0,0,1-3.19-.92A6.08,6.08,0,0,1,9.4,15.73a6.1,6.1,0,0,1,4.41-2h1.41v3.67H13.86a2.39,2.39,0,0,0-.38,4.74,2.45,2.45,0,0,0,1.93-.48,2.34,2.34,0,0,0,.9-1.63c0-.18,0-.34,0-.52l0-12.73h3.57l.05.32c.38,2.77,1.62,4,4.41,4.33l.31,0Z"/></g></g></svg>