<svg id="Layer_1" data-name="Layer 1" xmlns="http://www.w3.org/2000/svg" xmlns:xlink="http://www.w3.org/1999/xlink" viewBox="0 0 204.71 202.82"><defs><style>.cls-1{fill:none;}.cls-2{fill:#7bbdd6;}.cls-3{clip-path:url(#clip-path);}.cls-4{fill:#939598;}.cls-5{fill:#fff;}.cls-6{fill:#39bb9d;}</style><clipPath id="clip-path"><path class="cls-1" d="M102.35,19.23a82.19,82.19,0,1,0,82.18,82.18A82.28,82.28,0,0,0,102.35,19.23Z"/></clipPath></defs><title>Artboard 58@4x3</title><path class="cls-2" d="M102.34,200.69A99.27,99.27,0,0,1,32.15,31.22,99.27,99.27,0,1,1,172.54,171.61,98.63,98.63,0,0,1,102.34,200.69Zm0-189.12a89.85,89.85,0,1,0,89.85,89.84A90,90,0,0,0,102.34,11.57Z"/><g class="cls-3"><path class="cls-4" d="M237,163.37c-3.17,9.08-9.86,15.13-14.92,18.61a55.3,55.3,0,0,1-5.65,3.4,5.66,5.66,0,0,0-2.19,2.41c-3.8,7.15-13.29,9.08-16.86,9.81a24.89,24.89,0,0,1-4.94.45,45.31,45.31,0,0,1-9.9-1.22,37.59,37.59,0,0,1-6.48-2.25,43.15,43.15,0,0,1-4.91-2.45,23,23,0,0,1-8-7.72c-.27-.45-.53-.92-.77-1.41a128,128,0,0,1-27.73,5.66l-.83.06c-.34,0-.68,0-1,.08a.41.41,0,0,0-.16,0,4,4,0,0,0-1.14,1.85,9.93,9.93,0,0,0-.65,3.76,10.55,10.55,0,0,0,.2,1.94c.1.49.14.68.25.79l.07.06a1.7,1.7,0,0,1,.58,2.15,2.26,2.26,0,0,1-2.24,1.09l-.47,0h-.1a6.13,6.13,0,0,1-.82-.1h0a5.16,5.16,0,0,0-.06.58l-.06.56c-.13,1-.25,2-.39,3.33-.46,4.39-.59,8.92-.72,13.3-.09,3.07-.19,6.25-.39,9.37-.47,7.13-1.38,15.45-4.65,23-3.14,7.29-8.12,12.77-14.4,15.85a34.9,34.9,0,0,1-15.49,3.35,46.94,46.94,0,0,1-5.12-.29,47.79,47.79,0,0,1-20.31-7,41.55,41.55,0,0,1-14.5-15.89,56.82,56.82,0,0,1-5.8-21.27,113.18,113.18,0,0,1-.2-13.17c.12-3.88.31-7.82.49-11.62l.18-3.75c.26-5.67.44-10.42.41-15.21,0-2.81-.15-5.59-.28-8.2l-.07-1.37c-.2-4.1-.31-6.36-1.34-8.61-1.62-3.56-3.43-7.1-5.19-10.53l-1.46-2.85a124.49,124.49,0,0,1-5.43-11.55c-.11-.28-.31-.86-.58-1.66-.74-2.13-2-5.68-3.24-8.66-1.08-2.55-2.23-4.91-3.16-6.81s-1.66-3.41-2-4.49c-.81-2.28-2.14-6.67-2-10.39.33-7,5.88-9.46,7.71-10.26.31-.14.86-.32,1.69-.6,2.21-.73,7.4-2.44,8.57-3.9a32.44,32.44,0,0,0,2.64-4.08l1-1.65a15.32,15.32,0,0,1,1.55-2.18l.17-.18a2,2,0,0,0,.74-1.78,13.8,13.8,0,0,1,.24-1.66,9.66,9.66,0,0,1,3.92-5.76,6,6,0,0,1,3.26-.91h.13a5.14,5.14,0,0,0,2.52-.8c.13-.09,3.24-2.1,2.43-4.07a10.55,10.55,0,0,1-.73-2.67c-.47-3.62.64-8,4.18-9.49a8.08,8.08,0,0,1,4.48-.64,5.66,5.66,0,0,1,1.22.23c.22,0,.43.09.65.15a7.33,7.33,0,0,0,1.12.05A21.4,21.4,0,0,0,73.18,56a24.61,24.61,0,0,1,6.25-.64l.63,0c.62,0,1.25,0,1.89,0,.92,0,1.71,0,2.41-.11a4.93,4.93,0,0,1,0-1.72c.18-1.21.8-1.51,1.32-1.54a4.94,4.94,0,0,1,.19-1c.27-1,.8-1.25,1.25-1.31h0a1.39,1.39,0,0,1,1.09-.59,4.64,4.64,0,0,1,.61-.7,1.71,1.71,0,0,1,1.15-.53h.8l0,0c.64-.56.81-.73.85-1l.06-.58c0-.42.08-.85.16-1.29A6.32,6.32,0,0,1,95.56,40a14.17,14.17,0,0,1,3.83-.87,7.18,7.18,0,0,0,1.33-.23c1.29-.76,2.68-1.49,4.51-2.35A59.71,59.71,0,0,1,114.14,33a48.51,48.51,0,0,1,13.26-2,51.19,51.19,0,0,0,6.74-.93c3.11-.75,7.88-.74,13.48.05a47.65,47.65,0,0,1,12,3.65c8.78,3.7,15.81,8.07,21.48,13.38a94.26,94.26,0,0,1,9.18,10.24,128.26,128.26,0,0,1,8.36,11.73c1.62,2.59,7.26,11.47,8.54,13.21a41.05,41.05,0,0,1,4.27,7.43,56.44,56.44,0,0,1,4.37,15.9,63.36,63.36,0,0,1-.17,15.27c.46.22.89.45,1.3.67A45.79,45.79,0,0,1,234,138a33.09,33.09,0,0,1,4.47,12.3A27.76,27.76,0,0,1,237,163.37Z"/><path class="cls-4" d="M235.78,163a26.53,26.53,0,0,0,1.41-12.45,32,32,0,0,0-4.3-11.83,44.45,44.45,0,0,0-16.59-15.91c-7.42-4.13-22.07-6.17-31.66,4.07a40.17,40.17,0,0,0-5.67,8,37.23,37.23,0,0,1-5.41,7.66,56,56,0,0,0-4.39,4.59,33.93,33.93,0,0,0-6.26,11.09,52.14,52.14,0,0,0-1.9,13.49,24.85,24.85,0,0,0,3.18,12.08,21.66,21.66,0,0,0,7.6,7.29,39.87,39.87,0,0,0,4.76,2.38,36.4,36.4,0,0,0,6.25,2.17c4.4,1,9.91,1.66,14.31.77s12.64-2.86,16-9.16a7,7,0,0,1,2.74-2.95,52.61,52.61,0,0,0,5.51-3.32C227.76,176.52,233.19,170.37,235.78,163Zm-4.91,7.11c-4.55,6.55-11.31,11.42-18.58,14.54a38.08,38.08,0,0,1-19.09,3.13,42.07,42.07,0,0,1-9.33-2.19,81.87,81.87,0,0,1-11.57-5.24c-2.57-1.47-.61.29,1.78,2a40.76,40.76,0,0,0,11.83,5.24,37.56,37.56,0,0,0,24.7-.92c1.31-.5,1.48-.12.61.91-3.86,4.59-8.71,7.12-17,8-4.79.49-11.19-.83-15.62-2.68a32,32,0,0,1-9.42-5.68c-5.71-5.21-6.83-13.52-5.93-21a30.26,30.26,0,0,1,5.39-14.89,42.93,42.93,0,0,1,4-4.85c2.21-2.37,2-1.55,1.6.07-.56,2.28-.64,6.14,0,3.94a92,92,0,0,1,3.9-10.77q1.17-2.47,2.52-4.86a35.53,35.53,0,0,1,6.43-8.44c10.47-9.78,24.73-4.57,29.45-1.37,9.32,6.32,16,18.51,13.19,29.83-2.64,10.83-13,20-24.44,19.59-1.84-.06-1.42.28.41.43a20.86,20.86,0,0,0,10-1.88,24.86,24.86,0,0,0,8.69-6.26,26.49,26.49,0,0,0,7-19.87A29.08,29.08,0,0,0,224,130.2c-.92-1-.78-1.22.25-.27A38.09,38.09,0,0,1,235,146a25.12,25.12,0,0,1,.77,12.87A31,31,0,0,1,230.87,170.06Z"/><path class="cls-5" d="M230.87,170.06c-4.55,6.55-11.31,11.42-18.58,14.54a38.08,38.08,0,0,1-19.09,3.13,42.07,42.07,0,0,1-9.33-2.19,81.87,81.87,0,0,1-11.57-5.24c-2.57-1.47-.61.29,1.78,2a40.76,40.76,0,0,0,11.83,5.24,37.56,37.56,0,0,0,24.7-.92c1.31-.5,1.48-.12.61.91-3.86,4.59-8.71,7.12-17,8-4.79.49-11.19-.83-15.62-2.68a32,32,0,0,1-9.42-5.68c-5.71-5.21-6.83-13.52-5.93-21a30.26,30.26,0,0,1,5.39-14.89,42.93,42.93,0,0,1,4-4.85c2.21-2.37,2-1.55,1.6.07-.56,2.28-.64,6.14,0,3.94a92,92,0,0,1,3.9-10.77q1.17-2.47,2.52-4.86a35.53,35.53,0,0,1,6.43-8.44c10.47-9.78,24.73-4.57,29.45-1.37,9.32,6.32,16,18.51,13.19,29.83-2.64,10.83-13,20-24.44,19.59-1.84-.06-1.42.28.41.43a20.86,20.86,0,0,0,10-1.88,24.86,24.86,0,0,0,8.69-6.26,26.49,26.49,0,0,0,7-19.87A29.08,29.08,0,0,0,224,130.2c-.92-1-.78-1.22.25-.27A38.09,38.09,0,0,1,235,146a25.12,25.12,0,0,1,.77,12.87A31,31,0,0,1,230.87,170.06Z"/><path class="cls-5" d="M104.88,57.23a2.26,2.26,0,0,0,.47.22c.58.21,1.24.27,1.83.42s1.28.33,1.91.51l.1,0A20.38,20.38,0,0,1,117,62.79a12.27,12.27,0,0,1,3,3.77,22.76,22.76,0,0,1,1.53,4.62c.39,1.62,1.49,7.7,2,7.3s.34-6.64-.13-9.92a23.3,23.3,0,0,0-1.18-5,13.48,13.48,0,0,0-2.66-4.09A21.38,21.38,0,0,0,112,54c-.76-.32-1.53-.62-2.32-.88a20.7,20.7,0,0,0-4.11-.92c-.46,0-1.19.07-1.46-.38-.12-.18-.18-.47-.36-.61s-.29.11-.36.29a5.47,5.47,0,0,0-.54,2,4.74,4.74,0,0,0,.52,1.84A4,4,0,0,0,104.88,57.23Zm-1.1-4c.21-.15.58,0,.81.09l1.06.23c1.42.31,2.84.58,4.22,1a13.08,13.08,0,0,1,1.33.46,20.37,20.37,0,0,1,7.42,5.08,12.4,12.4,0,0,1,2.66,4,22.66,22.66,0,0,1,1.1,4.74c.07.5-.12.38-.29-.17A18.46,18.46,0,0,0,121,65.89a13.2,13.2,0,0,0-3-3.83,21.12,21.12,0,0,0-8.1-4.71,28.87,28.87,0,0,0-4.08-1,2.08,2.08,0,0,1-1-.37,3.69,3.69,0,0,1-.94-1.39C103.66,54.25,103.31,53.5,103.78,53.2Zm-9,18.07a6,6,0,0,1,3.88.73c.14.08.17.19,0,.15L98.14,72A8.25,8.25,0,0,0,95.38,72c-.5.07-.5.15,0,.13a8.88,8.88,0,0,1,2.3.21,7.27,7.27,0,0,1,2.78,1.26c.17.19,0,.17-.11.15a7.8,7.8,0,0,0-1.87,0c-.19,0-.18,0,0,0a6.37,6.37,0,0,1,1.84.19,2.16,2.16,0,0,1,1.27,1c.14.17.06.17-.06.15a11.5,11.5,0,0,0-1.33-.07c-.48,0-.5.09,0,.12a9.43,9.43,0,0,1,1.68.23c.17,0,.29.24.61.6.12.15.08.14-.06.13a3.18,3.18,0,0,0-2.33.87c-.29.29-.23.3.08,0a3.53,3.53,0,0,1,2.33-.64c.3,0,.51.22,1,.71.11.13.09.18,0,.22a4,4,0,0,0-1.09.73c-.27.24-.23.29.06.07a4,4,0,0,1,1.18-.6.32.32,0,0,1,.35.12c.17.17.33.33.5.48s.14.21,0,.25a5.24,5.24,0,0,0-1.25.45c-.82.41-.79.53,0,.11a3.52,3.52,0,0,1,1.37-.42c.31,0,.74.38,1.45.87.1.06.07.15,0,.14a4.45,4.45,0,0,0-1.52.1c-.49.12-.47.21,0,.1a5,5,0,0,1,3.29.74c.25.14.21.2-.16.15a2.6,2.6,0,0,0-1.56.15c-.31.16-.29.21,0,.06,1-.43,3.83.77,4.24.93a4.83,4.83,0,0,0,.76.25,4.21,4.21,0,0,0,.48.12l.25,0a1,1,0,0,1,.24,0,.24.24,0,0,1,.13.07.58.58,0,0,1,.08.18c0,.08.07.17.11.25a.47.47,0,0,1,0,.1,11.77,11.77,0,0,0,.83,1.29c.36.49,1.53,1.37,1.25.82-.17-.33-.33-.67-.48-1-.06-.14-.13-.29-.19-.45a1.43,1.43,0,0,1-.08-.22c0-.06-.1-.18,0-.2a.25.25,0,0,1,.12,0,.4.4,0,0,1,.13.07.23.23,0,0,1,.08.12l.19.48c.12.28.21.5.28.64a1.72,1.72,0,0,0,.23.42,1.6,1.6,0,0,0-.14-.46c-.06-.15-.14-.36-.24-.64a2.67,2.67,0,0,1-.09-.26.45.45,0,0,1,0-.19c0-.06.08,0,.12,0a3.43,3.43,0,0,0,.44.09c.5.09.52.08,0-.11h0a5.27,5.27,0,0,1-.49-.22.64.64,0,0,1-.2-.11.33.33,0,0,1-.08-.18c-.05-.15-.08-.3-.12-.45l-.06-.24c0-.06,0-.16.07-.15l.11,0,.16.05a3.23,3.23,0,0,0,.51.14l.15,0c.65.09.68,0,0-.15a3.4,3.4,0,0,1-.92-.34.82.82,0,0,1-.17-.11.33.33,0,0,1,0-.13,5,5,0,0,1-.07-.54c0-.09,0-.19,0-.28s0-.14.07-.15l.09,0,.12,0a1.05,1.05,0,0,0,.24.06,2.57,2.57,0,0,0,.73,0c.24,0,.26,0,0,0a2.52,2.52,0,0,1-.77-.16l-.24-.11a1.48,1.48,0,0,1-.21-.13.17.17,0,0,1,0-.14,1.13,1.13,0,0,1,0-.26c0-.05,0-.11,0-.16a.22.22,0,0,1,0-.11.06.06,0,0,1,.08,0h.17a3.36,3.36,0,0,0,1.77-.63c.29-.19.28-.2,0-.07a4.06,4.06,0,0,1-1.57.34c-.1,0-.3,0-.34-.11a.58.58,0,0,1,0-.19,2.38,2.38,0,0,0,0-.26.25.25,0,0,1,.1-.17.11.11,0,0,1,.08,0h.13a4.7,4.7,0,0,0,.51-.12l.1,0c.51-.2.53-.23,0-.15l-.13,0a2.53,2.53,0,0,1-.55,0c-.07,0-.11,0-.1-.1a.47.47,0,0,1,.06-.2.13.13,0,0,1,.09-.06l.1,0a4,4,0,0,0,.45-.15l.32-.12c.3-.11.26-.12-.14,0l-.1,0a1.62,1.62,0,0,1-.54,0c-.15,0-.09-.24-.07-.34a.26.26,0,0,1,.08-.19s.07,0,.11,0l.13,0,.52-.11.19-.06c.37-.11.36-.14,0-.07l-.32.07-.28,0a.71.71,0,0,1-.25,0c-.06,0-.07-.07-.07-.13s0-.18.05-.27,0-.24.16-.27l.49-.16a4.85,4.85,0,0,0,.9-.48c.27-.18.34-.22,0-.1a5.61,5.61,0,0,1-.79.26l-.27.05a1.07,1.07,0,0,1-.25,0c-.16,0-.11-.19-.09-.3a.8.8,0,0,1,0-.21c0-.06.07-.07.12-.09a3.58,3.58,0,0,0,.48-.24c.26-.14.51-.3.76-.45.56-.33.51-.39-.08-.12l-.52.23a5.27,5.27,0,0,1-.51.19c-.06,0-.13,0-.16,0a.34.34,0,0,1,0-.1.68.68,0,0,0,0-.14.5.5,0,0,1,.08-.2A.54.54,0,0,1,115,74l.45-.17a4.1,4.1,0,0,0,.78-.46c.3-.23.32-.3.07-.1l-.08,0a3.69,3.69,0,0,1-.88.46l-.24.08c-.06,0-.16.07-.22,0s-.07-.1-.06-.16,0-.18,0-.28,0-.36,0-.54.06-.14.13-.15l1-.16c.22,0,.24,0,0,0a8.77,8.77,0,0,0-1,.11c-.12,0-.16,0-.16-.11a7.16,7.16,0,0,0,0-.8c0-.14,0-.27,0-.41a2,2,0,0,1,0-.24.16.16,0,0,1,0-.13,2.37,2.37,0,0,1,.32-.15l.77-.34c.16-.07.33-.13.49-.21.33-.15.3-.16,0,0l-.1,0-.56.23-.62.22-.27.09a.06.06,0,0,1-.06,0s0,0,0-.07,0-.14-.05-.21-.07-.27-.1-.41,0-.13.1-.15l1.23-.18c.25,0,.27,0,0,0-.43,0-1.29.14-1.3.14s-.11,0-.15-.14l-.18-.53c-.11-.27,0-.29.14-.35a6.25,6.25,0,0,1,2-.36c.16,0,.1-.06-.06-.07a6.06,6.06,0,0,0-2,.21c-.26.07-.29.08-.4-.14a7.19,7.19,0,0,0-.39-.73c-.12-.19-.06-.26.07-.33l.88-.38c.23-.09.22-.14,0-.07l-.91.27c-.28.09-.26.13-.44-.11s-.23-.29-.35-.42-.12-.29,0-.37a4.17,4.17,0,0,1,1.72-.76c.38-.07.36-.12,0-.12a4.66,4.66,0,0,0-2,.52c-.26.13-.29.15-.53,0l-.24-.17c-.22-.13-.2-.2,0-.37l.33-.24a7.25,7.25,0,0,1,3.29-.88c.35,0,.37-.1,0-.11a7.39,7.39,0,0,0-4,.79l-.27.19c-.24.2-.26.21-.56.13l-.22-.05c-.46-.09-.59-.09-.46-.29A6.8,6.8,0,0,1,112,63c.2-.14.18-.17,0-.07a6.69,6.69,0,0,0-2.64,2.19c-.06.08-.19.26-.33.28s-.16-.14-.16-.23a2.28,2.28,0,0,1,.08-.84,3,3,0,0,1,1.71-1.92c.38-.15.36-.21,0-.1a3.26,3.26,0,0,0-2,1.72,3.16,3.16,0,0,0-.3,1.18c0,.23,0,.34-.19.38-.45,0-.57.07-.57-.44a4.74,4.74,0,0,1,1-2.7c.28-.38.23-.41-.09-.06A5.29,5.29,0,0,0,107,65.07a1.67,1.67,0,0,0,0,.39c0,.08,0,.22-.16.28s-.18-.16-.2-.25a4.87,4.87,0,0,1-.12-.52,3.06,3.06,0,0,1,1-3.25q.38-.26,0-.06A2.65,2.65,0,0,0,106,64.27a9,9,0,0,0,.12,1.33c.05.27,0,.33-.26.41a2.53,2.53,0,0,0-.36.12c-.24.08-.34.13-.45-.15a6.39,6.39,0,0,1-.24-.74,4.33,4.33,0,0,1,.55-3.52c.33-.47.27-.51-.1-.07a4.4,4.4,0,0,0-.87,3.67,5,5,0,0,0,.25.83c.09.24,0,.31-.16.38l-.29.13c-.26.13-.38.08-.47-.06a4.48,4.48,0,0,1-.66-3.14c.06-.37,0-.38-.1,0a4,4,0,0,0,.12,2.9c.08.21.24.51.21.63s-.61.4-1.37,1.08c-.37.32-.4.48-.18.32.41-.29,1.78-1.13,1.91-.9s-.1.34-.24.4a14.29,14.29,0,0,0-1.4.73l-.53.33a5.06,5.06,0,0,0-2.24,2.44c-.09.32-.28.16-.68-.08a5.37,5.37,0,0,0-3.88-.53,7.51,7.51,0,0,1,2,.23c.12,0,.12.13,0,.12a6.47,6.47,0,0,0-1.88,0C94.41,71.21,94.32,71.31,94.73,71.27Zm9.32,5.79a4,4,0,0,1-.62-.57c-.05,0-.05-.1,0-.06l.48.45C104,76.93,104.08,77,104.05,77.06Zm1.29,1.14c-.29-.23-.59-.47-.87-.72-.1-.08,0-.11.07,0,.35.28.71.53,1.08.77C105.76,78.34,105.52,78.32,105.34,78.2Zm6.37,3.19-.34-.12-1-.35-1-.4-1-.44-.66-.33c-.43-.23-.83-.46-1.22-.71-.17-.11-.2-.23.09-.11.59.25,1.47.63,1.92.84a20.74,20.74,0,0,0,2.18.89,5.3,5.3,0,0,0,1,.27c.13,0,.21.08.21.19l0,.19C112,81.43,111.89,81.45,111.71,81.39Zm1.5-.64a2.28,2.28,0,0,1,0-.45,1,1,0,0,1,0-.17s0-.11,0-.13a.13.13,0,0,1,.1,0l.13.08s0,.1,0,.16l0,.41c0,.11.07.25,0,.36s-.19,0-.24-.09A.46.46,0,0,1,113.21,80.75Zm.38-2.49h0s0,.07,0,.11a2.34,2.34,0,0,0,0,.26s0,.06,0,.09,0,0,0,.06-.09,0-.12,0a.14.14,0,0,1-.08-.07c0-.06,0-.15,0-.21l0-.16s0-.1.07-.1A.24.24,0,0,1,113.59,78.26Zm-.1-.65a.13.13,0,0,1,0-.09s.09,0,.12,0,.09,0,.1,0,0,.06,0,.09,0,.07,0,.1-.07,0-.12,0-.08,0-.09-.07h0A.21.21,0,0,1,113.49,77.61Zm-.18,1.62a.21.21,0,0,1,.16.07s0,0,0,0a.33.33,0,0,1,0,.14c0,.07,0,.22-.06.25a.1.1,0,0,1-.1,0,.21.21,0,0,1-.09-.1.33.33,0,0,1,0-.29S113.26,79.22,113.31,79.23Zm.48,2.9a2.17,2.17,0,0,0,.07.24l0,.12s0,.05,0,.07h-.06a1,1,0,0,1-.16-.12.38.38,0,0,1-.21-.28,2.68,2.68,0,0,0-.07-.27,1.16,1.16,0,0,0,0-.18.62.62,0,0,1,0-.18.07.07,0,0,1,.07-.07c.05,0,.1.05.14.07a.38.38,0,0,1,.12.09.29.29,0,0,1,0,.13C113.72,81.87,113.75,82,113.79,82.13Zm0-5.19,0,.19s0,.05,0,.05-.12,0-.15-.06,0-.11,0-.16,0-.16.08-.18a.33.33,0,0,1,.1,0s0,0,0,0S113.83,76.91,113.83,76.94Zm.11-.73,0,.21s0,.13,0,.16h0a.13.13,0,0,1-.15-.06.5.5,0,0,1,0-.21s0-.1,0-.15a.18.18,0,0,1,0-.1,0,0,0,0,1,.06,0,.23.23,0,0,1,.12,0S114,76.17,113.94,76.21Zm.14-1s0,.08,0,.11,0,.07,0,.11a.09.09,0,0,1,0,.07h0a.17.17,0,0,1-.2,0,.2.2,0,0,1,0-.11s0-.12,0-.15.09,0,.14,0l.07,0s0,0,.06,0S114.09,75.23,114.08,75.24Zm.08-.55,0,0a.26.26,0,0,1-.3,0s0-.16,0-.2a.6.6,0,0,1,0-.23.18.18,0,0,1,.31-.08C114.24,74.35,114.22,74.59,114.16,74.69Zm.11-.83s0,0,0,0a.19.19,0,0,1-.35,0c-.09-.14,0-.32,0-.48s0-.31.1-.41h0l.11,0a.17.17,0,0,1,.1,0c.12,0,.12.07.12.18A3,3,0,0,1,114.27,73.86Zm-.13-2.24a.61.61,0,0,1,.08.27c0,.1,0,.21,0,.3s.13.55-.14.67-.3-.18-.32-.37a4.78,4.78,0,0,0-.06-.53c0-.16-.09-.33.08-.43A.22.22,0,0,1,114.14,71.62Zm-.27-1.24s0,.13,0,.17a1.05,1.05,0,0,1,0,.19c0,.09.11.26.06.36a.1.1,0,0,1,0,.05.33.33,0,0,1-.42-.06.66.66,0,0,1-.14-.52C113.47,70.45,113.75,70.24,113.87,70.38Zm-.34-.92a.62.62,0,0,1,.1.22,1.16,1.16,0,0,1,.13.37c0,.13-.13.18-.24.23a.22.22,0,0,1-.27,0,.54.54,0,0,1-.13-.49C113.16,69.61,113.35,69.29,113.53,69.46Zm-.82-1.34a.24.24,0,0,1,.13.07,2.39,2.39,0,0,1,.26.41.72.72,0,0,1,.16.38c0,.15-.08.17-.2.24s-.14.09-.23.07-.19-.22-.27-.33a2.45,2.45,0,0,1-.26-.37C112.21,68.35,112.48,68.1,112.71,68.12Zm-1.21-.5a.62.62,0,0,1,.4-.37.19.19,0,0,1,.15,0,.55.55,0,0,1,.14.13c.07.07.32.3.24.41a1.32,1.32,0,0,1-.29.15.56.56,0,0,1-.24.1C111.69,68.05,111.44,67.84,111.5,67.62Zm-.78-.6c0-.08,0-.17,0-.26s0,0,0-.06.1-.15.19-.15a.6.6,0,0,1,.28.13s.1.11.08.16-.1.11-.13.14l-.15.16s-.06.09-.1.12-.21.07-.25,0S110.71,67.08,110.72,67Zm-1.41-.79s0,0,0,0c.21-.16.8,0,.83.3s-.72.21-.86,0A.27.27,0,0,1,109.31,66.23Zm-1.25,0c0-.13.26-.17.42-.15l.13,0c.18.15,0,.41-.17.44S108,66.49,108.06,66.27Zm-.66,2.28.61-.16a2.28,2.28,0,0,1,1.24,0c3.57.87,3.21,6.41,3.16,7.91,0,.27,0,.54-.07.81s-.1.74-.16,1.1-.11.73-.15,1.1a4.87,4.87,0,0,0-.06.55c0,.11,0,.25-.18.27a.61.61,0,0,1-.19,0l-.53-.15c-.34-.09-.69-.2-1-.31l-1-.36q-.52-.19-1-.42c-.44-.19-.87-.39-1.27-.61a1.24,1.24,0,0,1-.57-.49,1.74,1.74,0,0,0-.71-.63,5,5,0,0,1-.57-.32,3.21,3.21,0,0,0-.81-.46,1.64,1.64,0,0,1-.6-.47,1.64,1.64,0,0,0-.69-.54c-.25-.23-.49-.48-.72-.73A12.66,12.66,0,0,0,101,73.46c-.49-.5.66-1.88,1.35-2.53.31-.28.35-.17.18.11a2.42,2.42,0,0,0-.33,1.95c.46,1.56,2.64,2.28,4.87,1.62s3.68-2.45,3.22-4a3,3,0,0,0-2.83-1.84C107.09,68.74,107.05,68.65,107.4,68.55Zm-.39-2.2a.12.12,0,0,1,.14,0,.31.31,0,0,1,.15.23.17.17,0,0,1-.28.16A.27.27,0,0,1,107,66.35Zm-1.46.26c.09-.17.33-.23.5-.27h.08a.25.25,0,0,1,.26.21.29.29,0,0,1-.07.32.71.71,0,0,1-.55.18A.33.33,0,0,1,105.55,66.61Zm0,2.92c1.67-.5,3.3,0,3.64,1.21s-.73,2.5-2.4,3-3.3,0-3.64-1.21S103.93,70,105.6,69.53ZM104.42,67a.7.7,0,0,1,.39-.15l.07,0a.25.25,0,0,1,.14.3c0,.14-.13.18-.25.22a.35.35,0,0,1-.4,0A.22.22,0,0,1,104.42,67ZM102,69.62a11.64,11.64,0,0,1,2.61-1.32c.61-.14.76-.08.49.09a28.67,28.67,0,0,0-2.53,1.35,5.52,5.52,0,0,0-2.36,2.47c-.07.21-.1.3-.24.17C99.61,72,101,70.34,102,69.62ZM67.15,72.76c.11.73.28,1.46.46,2.21s.5-.12.56-.92a18.45,18.45,0,0,0,0-4.75,4,4,0,0,0-.82-2c-1.68-2.07-4.63-.63-3.17,2C65.26,71.33,67,71.91,67.15,72.76Zm-2.21-3.22c-.95-1.2,0-2.7,1.36-1.54A2.77,2.77,0,0,1,67,70c.08,1.31,0,1.38-1,.59A6.4,6.4,0,0,1,64.94,69.54Zm60.59,74.86a7.11,7.11,0,0,0,3.18.13,7.31,7.31,0,0,0,3.12-1.62c.81-.65,1-.26.23.44a8.16,8.16,0,0,1-3.1,1.9c-.84.25-.78.64-1,1.6a2.91,2.91,0,0,1-1.09,1.74,3,3,0,0,1-2.62.7c-.84-.23-1.74-.89-1.54-1.86a.37.37,0,0,1,.42-.28c.64.08,1,.66,1.58.78a2.26,2.26,0,0,0,1.59-.18c1.22-.65.57-2.28-.75-2.4-.68-.06-1.32-.34-2-.39-1.45-.12-3.43.34-3.32,2.23.09,1.34,3,2.42,5.1,5.76a4,4,0,0,0,3.16,1.72,9.72,9.72,0,0,0,6.17-2.33,6.15,6.15,0,0,0,2.25-2.52,6.85,6.85,0,0,0,.42-3.14,20.37,20.37,0,0,0-1-4.08c-.29-.93-.49-1.45-1.23-.61a15.88,15.88,0,0,0-1,1.31,26.49,26.49,0,0,0-1.63,2.75c-.45.86-2.91,4.29-2.23,2.13a13.32,13.32,0,0,1,.83-2.14c.33-.64.67-1.28,1-1.91a17.88,17.88,0,0,1,2.5-3.41,12,12,0,0,1,7-3.65,10.13,10.13,0,0,1,7.89,2.07,6.44,6.44,0,0,1,2,6.87c-1,3.37-4.1,6.37-7.18,8.35-.62.39-1.26.77-1.91,1.11-1.34,1-6.78,2.47-7.57,2.68a24.44,24.44,0,0,1-3.3.68,19.31,19.31,0,0,1-6.78-.28,12.84,12.84,0,0,1-6.12-3,4.93,4.93,0,0,1-1.56-2.88,12.7,12.7,0,0,1-.08-3.74c.22-1.26.58-1.18.54.1a10.66,10.66,0,0,0,.26,3.78,5.38,5.38,0,0,0,2.31,2.67,16.21,16.21,0,0,0,6.07,2,18.85,18.85,0,0,0,5.95-.08,21.43,21.43,0,0,0,3-.7c.61-.19,2.33-.6,3.86-1a21,21,0,0,0,8.69-5.65,11,11,0,0,0,2.71-4.51,5.26,5.26,0,0,0-.93-4.46c-1.14-1.52-1.06-.14-1.13,1a10.17,10.17,0,0,1-1.11,3.95c-1.24,2.44-3.1,5.16-5.56,6.48-.18.1-.34-.14-.24-.29.91-1.38,2.16-2.47,3.17-3.78a16.55,16.55,0,0,0,2-3.21c1.75-3.75.42-6.2-.56-6.53a9.87,9.87,0,0,0-5.58-.19c-.68.17-1.6,1.74,0,3.15a6.78,6.78,0,0,0,2.69,1.32.23.23,0,0,1,0,.41c-1.23.73-2.65-.37-3.42-1.31a5.92,5.92,0,0,1-1-1.61c-.29-.73-.36-1.23-1.28-.63s-.63,1.54-.09,3a14.13,14.13,0,0,1,.9,4.51,7.71,7.71,0,0,1-3.24,6.27,10.27,10.27,0,0,1-7.1,2.7,4.72,4.72,0,0,1-3.59-2.4c-2-3.59-4.57-4.42-5-5.49a3.25,3.25,0,0,1,1.27-4C122.29,143.55,123.93,144,125.53,144.4ZM104.67,71.77c-.16-.56.4-1.22,1.26-1.47s1.69,0,1.86.56-.4,1.22-1.26,1.47S104.83,72.33,104.67,71.77Zm-27.84,0a25.79,25.79,0,0,1-.15,3c-.23,1.83-.61,3.91-1.91,5.32s-3.55,1.23-5.31.5c-2.31-1-4.52-2.79-4.33-5.45.05-.76.18-.84.36-.1A6.87,6.87,0,0,0,70,79.91c1.74.59,3.51.72,4.54-1,.87-1.5,1.6-6.78,1.59-7.59C76.09,67.68,76.84,68,76.83,71.77ZM94.32,44.92a3.78,3.78,0,0,1,1.9-2.75c1.7-1,2.73-.31,1.7.68a21.53,21.53,0,0,0-2.08,2.26C94.91,46,93.68,47.9,94.32,44.92Zm-4.56,8.2a7.21,7.21,0,0,1,1-2,9.35,9.35,0,0,1,.87-1.17c.8-.91.47.16.41.32s-.14.42-.2.63a16.09,16.09,0,0,1-.94,2.45C90.08,54.89,89.3,54.76,89.76,53.12ZM48.93,85.94c.27-1.72.61-4.38.68-5a5.91,5.91,0,0,1,2.83-4.34c.34-.17.76-.34.81,0a7.81,7.81,0,0,1-.33.82.72.72,0,0,0,.29.8,3.69,3.69,0,0,0,1.07.48,10.54,10.54,0,0,1,1.64.74c2.41,1.34,2.27,4.58,2.52,7a41.53,41.53,0,0,0,1.08,6.92c.24.83.08,1.06-.53.39a18.79,18.79,0,0,1-2.19-2.89c-.87-1.47-.86-3.31-2.11-4.56a7.42,7.42,0,0,0-2-1.25c-1-.49-1.29-1-1.7-2.67-.12-.5-.24.68-.09,1.17a2,2,0,0,1-.12,1.34c-.51,1.13.1,2.29-1.32,2.12C48.73,86.91,48.81,86.64,48.93,85.94ZM54.6,89.2a8.09,8.09,0,0,0-3-2c-.79-.27-.52-1.6-.41-1.77.32-.53.82-.2,1.37.2s.85.54,1.23.85A4.12,4.12,0,0,1,55,88.66C55.31,89.52,55.17,89.76,54.6,89.2ZM49,87.87A6.93,6.93,0,0,1,54,89.46c1,1.13,4.4,5.07,5.53,6.29.62.67,3.13,2.23,2.79,2.63s-3.24-.15-4.09-.47a15.2,15.2,0,0,1-5-2.87c-1.53-1.42-2.47-3.33-4-4.72a7.47,7.47,0,0,0-1.52-1.08c-.6-.32-1-.84,0-1.12A7,7,0,0,1,49,87.87Zm-2.13-1.52a8.54,8.54,0,0,1,.59-.73c.52-.59.68,0,.66.29-.05,1-.3,1-1.06,1.33S45.91,87.7,46.84,86.35Zm78.24,113.24q-.4,2.28-.66,4.59c-.34,3.08-.51,6.18-.64,9.28-.06,1.44-.11,2.88-.16,4.32-.3,7.9-.62,15.89-2.44,23.57-1.67,7.06-4.91,14-10.43,18.5-5.23,4.24-11.85,5.84-18.33,5.91a45,45,0,0,1-19.54-4.47c-6.23-2.94-12.73-7.78-16.53-13.85-3.68-5.9-7.23-16.15-7.23-29.92,0-5.12.3-11.39.54-16.49.35-7.62.28-21.34.09-28.42,0-1.61.28-1.43.75,0,.38,1.16.87,2.29,1.17,3.47,1,3.77,1.28,3.08.83-.21a31.74,31.74,0,0,0-1.73-6.35c-.8-2.23-1.72-4.42-2.69-6.58-1.89-4.21-4-8.31-6.14-12.42s-4.33-8.32-6.09-12.66c-1.08-2.67-1.91-5.5-3-8.23-.08-.25-.16-.5-.25-.75a40.36,40.36,0,0,0-1.94-4.55c-1.45-3-.28-1.63,1.53-.24a39.15,39.15,0,0,1,5.22,5c3.13,3.48,6.12,7.11,9.16,10.67a55,55,0,0,0,7.83,7.87A23.66,23.66,0,0,0,64.79,152c3.08.48,5.48.19,2.22-.61s-5.29-.67-10.5-4.26a48.54,48.54,0,0,1-8.17-7.52c-3.06-3.37-6-6.83-9.08-10.2a46.47,46.47,0,0,0-5-5c-3.64-2.94-7.13-6.84-8.5-11.47a16.1,16.1,0,0,1-.22-8.79c1.26-4.74,7.37-6.41,9.42-7,2.29-.69,4.78-1.22,6.66-2.78a11,11,0,0,0,2.07-2.71c.31-.51,1.21-2.44,2.05-2.24,1.79.3,3.43,2.14,4.45,3.42.67.85,1.24,1.76,2,2.56a11.33,11.33,0,0,0,2.18,1.77,23.6,23.6,0,0,0,5,2.26c1.63.57,3.57.42,4.33-.69.48-.68-1.54-2.42-1.91-3a11.56,11.56,0,0,1-1.3-2.94A38.11,38.11,0,0,1,59,86.4c-.3-2-.35-4.23-1.42-6a4.59,4.59,0,0,0-1.91-1.66,8.47,8.47,0,0,0-1.3-.49c-.45-.15-1-.14-1.1-.53s.41-.89.24-1.21c-.07-.14-.16-.25.16-.3a18.21,18.21,0,0,0,2.43-.34,6.84,6.84,0,0,0,2.49-1.37,8.18,8.18,0,0,0,1.8-2.17c.45-.8.64-1.39.89-.62.53,1.64-1.32,5.14-.59,4.47,2.29-2.11,1.92-5.69,1.69-6.47-.57-1.91-1.51-3.56-1.61-5.58a6.56,6.56,0,0,1,1.46-4.62,4.5,4.5,0,0,1,3.79-1.41h0c1.64.18,3.25.9,4.13.9a11.84,11.84,0,0,0,3.24-.5,23.47,23.47,0,0,1,6.8-.46c5.71.1,9.69-1.22,11.13-3.1a9.6,9.6,0,0,0,1.23-2.49c1.14-3.12,1.06-3.31,2.9-5.2.58-.61,1.2-1.19,1.8-1.78s1.73-1.5,3-2.46c.33-.24.65-.48,1-.7a36.6,36.6,0,0,1,3.41-1.9c2.07-1,4.18-2,6.34-2.92a46.71,46.71,0,0,1,12.7-3.08,42.5,42.5,0,0,1,13.12.71c4.16.91,7.88,3.16,11.39,5.48,6.2,4.11,8.41,5.56,10.5,9a25.65,25.65,0,0,1,2.89,6.24c2.53,8.88-8.07,18.44-9.32,19.65a18.21,18.21,0,0,0-4.15,6.64,22,22,0,0,0-4.31,6.52,20.4,20.4,0,0,0-1.39,7.57c0,.52,0,1.05.05,1.57a6.47,6.47,0,0,1-.54,3.37,21.53,21.53,0,0,0-1.16,4.1,16.15,16.15,0,0,0-.24,2.5,37.63,37.63,0,0,1-1.06,6.17,12.34,12.34,0,0,0,.54,5.87c.34,1.15,1.4,4.52,1.47,5.1a16.46,16.46,0,0,0,1.12,4.36c.57,1.4.23,1.5-.8.74a11.87,11.87,0,0,1-1.69-1.5c-1.58-1.71-1.61-5.06-1.79-7.27-.22-2.73-.44-1.89-.36.85.05,2.14.17,4.49,1.44,6.31A12.64,12.64,0,0,0,144,132.2a38,38,0,0,1,5.82,3.31,10.23,10.23,0,0,1,3.65,5.66c2.12,8.9-7.45,15.4-14.72,17.69a39.65,39.65,0,0,1-11.09,1.65,33,33,0,0,1-10.28-1l-1.15-.31-.94-.36a21.9,21.9,0,0,1-3.36-1.67,6.39,6.39,0,0,1-3.28-6c.26-3,3.35-3.26,5.46-4.52,2.5-1.5,5.49-3.75,8-5.32,2.18-1.39,1.13-1.38-1.16-.19-3,1.58-5.6,3.85-8.81,5.13-6.83,2.72-8.53,6.24-12,7.35-4.64,1.48-9.43.16-14-.95-2.83-.7,1.25,2.28,6.12,2.88a19.82,19.82,0,0,0,7.16-.32,14.17,14.17,0,0,0,5.31-2.74c1.17-.9,2.42-1.91,2.35-.89-.21,3,1.51,5.35,3.86,7a20.26,20.26,0,0,0,4,2c1,.42,4.63,1.56,6.12,1.38a34.69,34.69,0,0,0,4.67.12,53,53,0,0,0,7.45-.57,33,33,0,0,0,12.74-4.66c.59-.37,1.2-.69.43,1.28-2.6,6.61-9.5,10.29-15.24,14.25-3.76,2.61-7.38,5.78-9.52,9.9a12.12,12.12,0,0,0,.31,12.12,10.92,10.92,0,0,0,1.78,2.22c.48.46,1.2.83,1.47,1.45A2.56,2.56,0,0,1,125.08,199.59Zm86.61-72.35a46.38,46.38,0,0,1-4.82,11.35,43.44,43.44,0,0,1-3.51,5,48.12,48.12,0,0,1-3.94,4.49c-2.08,2,0,.63.34.46,3.36-1.94,5.87-5.22,7.89-8.47.8-1.29,1.45-1.59,1-.42-2.47,6.35-6.6,12-11.19,17a103.64,103.64,0,0,1-19.35,16,93.58,93.58,0,0,1-24.87,10.07,134.59,134.59,0,0,1-26,3.68,8.73,8.73,0,0,0-1.61.27c-.2,0-.71.12-.54.43s.75.42,1,.5a11.34,11.34,0,0,0,2.33.09c.62.06.67.51.49,1a18.56,18.56,0,0,0-1.09,3.73,7.25,7.25,0,0,0,0,3c.09.35.2.7.32,1s.35,1.12-.32,1.1a3.08,3.08,0,0,1-1.13-.41,10.9,10.9,0,0,1-1.94-1.29c-1.06-.91-1.51-3.7-1.54-5.68,0-3,.45-6.34,2.43-8.77.62-.75.47-.86-.2-.15-2.33,2.42-3,5.86-3.18,9.11-.09,1.74-.3,1.79-.72.07-1.25-5,1.79-9.6,5.2-13,5.82-5.78,14.12-8.74,18.74-15.8a17,17,0,0,0,1.81-3.71c.72-2.11,1-2.8,2.36-4a17.83,17.83,0,0,0,3.53-4.34,12,12,0,0,0,.56-10.67c-1.36-3-4-4.78-6.85-6.2a7.64,7.64,0,0,1-4.08-4.45c-.95-2.36-.89-4,.09-2.54a20.46,20.46,0,0,0,4.68,5.42c.91.66,1.06.5.42-.42-1.18-1.7-2.72-3.14-3.93-4.83a25,25,0,0,1-3.16-5.79c-1.28-3.4-.3-9.65.13-7.64a27.89,27.89,0,0,0,2.56,6.91c1,2,2.36,4.34,4.24,5.7,1.09.78,1.29.68.57-.51-1.15-1.9-2.6-3.59-3.7-5.54a27.05,27.05,0,0,1-2.67-6.77,20.24,20.24,0,0,1-.54-6.85,17.15,17.15,0,0,1,.78-3.46c.66-2.07.6-.67,1.28,1.81a37.06,37.06,0,0,0,1.3,3.85c.82,2.07,3.12,5.13,2.45,3a25.44,25.44,0,0,0-1.14-2.76,35.8,35.8,0,0,1-1.33-3.63,32.22,32.22,0,0,1-1.25-5.75.09.09,0,0,0,0-.09c-.05-.41-.09-.81-.12-1.22C142.85,90,147.68,83,147,85.79a32.76,32.76,0,0,0-.45,11.88c.19,1.27,1.24,4.64,1.67,4.81s-.36-3.54-.56-4.67a29,29,0,0,1-.41-3.72,35,35,0,0,1,.58-7.78c1.15-6.3,5.42-11.51,4-8.3-1.62,3.61-3.13,8.46-3.13,12.4,0,.71.42,1.39.63.16s.46-2.81.57-3.35c.21-1,.47-2,.76-3,.59-2,1.6-3.88,2.36-5.85,1.77-4.6,8.14-8.8,9.79-17a12.31,12.31,0,0,0-.28-5.94,23.11,23.11,0,0,0-2.11-4.83c-1-1.74-1.41-2.25.78-.75,4.23,2.88,6.71,7,6.62,6.13s-2.06-3.79-5.53-6.64c-4-3.26-6.54-5.17-10.7-8.19-3.57-2.58-7.17-5.19-11.28-6.85-2.41-1-6.93-1.76-2.64-2.21A42.87,42.87,0,0,1,152,33.69a71.53,71.53,0,0,1,11.82,4.87,68,68,0,0,1,10.64,6.49c7.26,5.45,13.1,12.74,18.29,20.13a88.25,88.25,0,0,1,12.84,25.66c.52,1.8,1.12,3.56,1.62,5.37,1.41,5.12,1.68,5.06,1-.21a38.41,38.41,0,0,0-1.48-6.87c-.45-1.41-.95-2.81-1.49-4.19-.42-1.09.16-1,.7-.2a41.25,41.25,0,0,1,2.59,4.52A50.12,50.12,0,0,1,213,103.62,51.9,51.9,0,0,1,211.69,127.24Z"/><path class="cls-4" d="M104.88,57.23a2.26,2.26,0,0,0,.47.22c.58.21,1.24.27,1.83.42s1.28.33,1.91.51l.1,0A20.38,20.38,0,0,1,117,62.79a12.27,12.27,0,0,1,3,3.77,22.76,22.76,0,0,1,1.53,4.62c.39,1.62,1.49,7.7,2,7.3s.34-6.64-.13-9.92a23.3,23.3,0,0,0-1.18-5,13.48,13.48,0,0,0-2.66-4.09A21.38,21.38,0,0,0,112,54c-.76-.32-1.53-.62-2.32-.88a20.7,20.7,0,0,0-4.11-.92c-.46,0-1.19.07-1.46-.38-.12-.18-.18-.47-.36-.61s-.29.11-.36.29a5.47,5.47,0,0,0-.54,2,4.74,4.74,0,0,0,.52,1.84A4,4,0,0,0,104.88,57.23Zm-1.1-4c.21-.15.58,0,.81.09l1.06.23c1.42.31,2.84.58,4.22,1a13.08,13.08,0,0,1,1.33.46,20.37,20.37,0,0,1,7.42,5.08,12.4,12.4,0,0,1,2.66,4,22.66,22.66,0,0,1,1.1,4.74c.07.5-.12.38-.29-.17A18.46,18.46,0,0,0,121,65.89a13.2,13.2,0,0,0-3-3.83,21.12,21.12,0,0,0-8.1-4.71,28.87,28.87,0,0,0-4.08-1,2.08,2.08,0,0,1-1-.37,3.69,3.69,0,0,1-.94-1.39C103.66,54.25,103.31,53.5,103.78,53.2Zm-9,18.07a6,6,0,0,1,3.88.73c.14.08.17.19,0,.15L98.14,72A8.25,8.25,0,0,0,95.38,72c-.5.07-.5.15,0,.13a8.88,8.88,0,0,1,2.3.21,7.27,7.27,0,0,1,2.78,1.26c.17.19,0,.17-.11.15a7.8,7.8,0,0,0-1.87,0c-.19,0-.18,0,0,0a6.37,6.37,0,0,1,1.84.19,2.16,2.16,0,0,1,1.27,1c.14.17.06.17-.06.15a11.5,11.5,0,0,0-1.33-.07c-.48,0-.5.09,0,.12a9.43,9.43,0,0,1,1.68.23c.17,0,.29.24.61.6.12.15.08.14-.06.13a3.18,3.18,0,0,0-2.33.87c-.29.29-.23.3.08,0a3.53,3.53,0,0,1,2.33-.64c.3,0,.51.22,1,.71.11.13.09.18,0,.22a4,4,0,0,0-1.09.73c-.27.24-.23.29.06.07a4,4,0,0,1,1.18-.6.32.32,0,0,1,.35.12c.17.17.33.33.5.48s.14.21,0,.25a5.24,5.24,0,0,0-1.25.45c-.82.41-.79.53,0,.11a3.52,3.52,0,0,1,1.37-.42c.31,0,.74.38,1.45.87.1.06.07.15,0,.14a4.45,4.45,0,0,0-1.52.1c-.49.12-.47.21,0,.1a5,5,0,0,1,3.29.74c.25.14.21.2-.16.15a2.6,2.6,0,0,0-1.56.15c-.31.16-.29.21,0,.06,1-.43,3.83.77,4.24.93a4.83,4.83,0,0,0,.76.25,4.21,4.21,0,0,0,.48.12l.25,0a1,1,0,0,1,.24,0,.24.24,0,0,1,.13.07.58.58,0,0,1,.08.18c0,.08.07.17.11.25a.47.47,0,0,1,0,.1,11.77,11.77,0,0,0,.83,1.29c.36.49,1.53,1.37,1.25.82-.17-.33-.33-.67-.48-1-.06-.14-.13-.29-.19-.45a1.43,1.43,0,0,1-.08-.22c0-.06-.1-.18,0-.2a.25.25,0,0,1,.12,0,.4.4,0,0,1,.13.07.23.23,0,0,1,.08.12l.19.48c.12.28.21.5.28.64a1.72,1.72,0,0,0,.23.42,1.6,1.6,0,0,0-.14-.46c-.06-.15-.14-.36-.24-.64a2.67,2.67,0,0,1-.09-.26.45.45,0,0,1,0-.19c0-.06.08,0,.12,0a3.43,3.43,0,0,0,.44.09c.5.09.52.08,0-.11h0a5.27,5.27,0,0,1-.49-.22.64.64,0,0,1-.2-.11.33.33,0,0,1-.08-.18c-.05-.15-.08-.3-.12-.45l-.06-.24c0-.06,0-.16.07-.15l.11,0,.16.05a3.23,3.23,0,0,0,.51.14l.15,0c.65.09.68,0,0-.15a3.4,3.4,0,0,1-.92-.34.82.82,0,0,1-.17-.11.33.33,0,0,1,0-.13,5,5,0,0,1-.07-.54c0-.09,0-.19,0-.28s0-.14.07-.15l.09,0,.12,0a1.05,1.05,0,0,0,.24.06,2.57,2.57,0,0,0,.73,0c.24,0,.26,0,0,0a2.52,2.52,0,0,1-.77-.16l-.24-.11a1.48,1.48,0,0,1-.21-.13.17.17,0,0,1,0-.14,1.13,1.13,0,0,1,0-.26c0-.05,0-.11,0-.16a.22.22,0,0,1,0-.11.06.06,0,0,1,.08,0h.17a3.36,3.36,0,0,0,1.77-.63c.29-.19.28-.2,0-.07a4.06,4.06,0,0,1-1.57.34c-.1,0-.3,0-.34-.11a.58.58,0,0,1,0-.19,2.38,2.38,0,0,0,0-.26.25.25,0,0,1,.1-.17.11.11,0,0,1,.08,0h.13a4.7,4.7,0,0,0,.51-.12l.1,0c.51-.2.53-.23,0-.15l-.13,0a2.53,2.53,0,0,1-.55,0c-.07,0-.11,0-.1-.1a.47.47,0,0,1,.06-.2.13.13,0,0,1,.09-.06l.1,0a4,4,0,0,0,.45-.15l.32-.12c.3-.11.26-.12-.14,0l-.1,0a1.62,1.62,0,0,1-.54,0c-.15,0-.09-.24-.07-.34a.26.26,0,0,1,.08-.19s.07,0,.11,0l.13,0,.52-.11.19-.06c.37-.11.36-.14,0-.07l-.32.07-.28,0a.71.71,0,0,1-.25,0c-.06,0-.07-.07-.07-.13s0-.18.05-.27,0-.24.16-.27l.49-.16a4.85,4.85,0,0,0,.9-.48c.27-.18.34-.22,0-.1a5.61,5.61,0,0,1-.79.26l-.27.05a1.07,1.07,0,0,1-.25,0c-.16,0-.11-.19-.09-.3a.8.8,0,0,1,0-.21c0-.06.07-.07.12-.09a3.58,3.58,0,0,0,.48-.24c.26-.14.51-.3.76-.45.56-.33.51-.39-.08-.12l-.52.23a5.27,5.27,0,0,1-.51.19c-.06,0-.13,0-.16,0a.34.34,0,0,1,0-.1.68.68,0,0,0,0-.14.5.5,0,0,1,.08-.2A.54.54,0,0,1,115,74l.45-.17a4.1,4.1,0,0,0,.78-.46c.3-.23.32-.3.07-.1l-.08,0a3.69,3.69,0,0,1-.88.46l-.24.08c-.06,0-.16.07-.22,0s-.07-.1-.06-.16,0-.18,0-.28,0-.36,0-.54.06-.14.13-.15l1-.16c.22,0,.24,0,0,0a8.77,8.77,0,0,0-1,.11c-.12,0-.16,0-.16-.11a7.16,7.16,0,0,0,0-.8c0-.14,0-.27,0-.41a2,2,0,0,1,0-.24.16.16,0,0,1,0-.13,2.37,2.37,0,0,1,.32-.15l.77-.34c.16-.07.33-.13.49-.21.33-.15.3-.16,0,0l-.1,0-.56.23-.62.22-.27.09a.06.06,0,0,1-.06,0s0,0,0-.07,0-.14-.05-.21-.07-.27-.1-.41,0-.13.1-.15l1.23-.18c.25,0,.27,0,0,0-.43,0-1.29.14-1.3.14s-.11,0-.15-.14l-.18-.53c-.11-.27,0-.29.14-.35a6.25,6.25,0,0,1,2-.36c.16,0,.1-.06-.06-.07a6.06,6.06,0,0,0-2,.21c-.26.07-.29.08-.4-.14a7.19,7.19,0,0,0-.39-.73c-.12-.19-.06-.26.07-.33l.88-.38c.23-.09.22-.14,0-.07l-.91.27c-.28.09-.26.13-.44-.11s-.23-.29-.35-.42-.12-.29,0-.37a4.17,4.17,0,0,1,1.72-.76c.38-.07.36-.12,0-.12a4.66,4.66,0,0,0-2,.52c-.26.13-.29.15-.53,0l-.24-.17c-.22-.13-.2-.2,0-.37l.33-.24a7.25,7.25,0,0,1,3.29-.88c.35,0,.37-.1,0-.11a7.39,7.39,0,0,0-4,.79l-.27.19c-.24.2-.26.21-.56.13l-.22-.05c-.46-.09-.59-.09-.46-.29A6.8,6.8,0,0,1,112,63c.2-.14.18-.17,0-.07a6.69,6.69,0,0,0-2.64,2.19c-.06.08-.19.26-.33.28s-.16-.14-.16-.23a2.28,2.28,0,0,1,.08-.84,3,3,0,0,1,1.71-1.92c.38-.15.36-.21,0-.1a3.26,3.26,0,0,0-2,1.72,3.16,3.16,0,0,0-.3,1.18c0,.23,0,.34-.19.38-.45,0-.57.07-.57-.44a4.74,4.74,0,0,1,1-2.7c.28-.38.23-.41-.09-.06A5.29,5.29,0,0,0,107,65.07a1.67,1.67,0,0,0,0,.39c0,.08,0,.22-.16.28s-.18-.16-.2-.25a4.87,4.87,0,0,1-.12-.52,3.06,3.06,0,0,1,1-3.25q.38-.26,0-.06A2.65,2.65,0,0,0,106,64.27a9,9,0,0,0,.12,1.33c.05.27,0,.33-.26.41a2.53,2.53,0,0,0-.36.12c-.24.08-.34.13-.45-.15a6.39,6.39,0,0,1-.24-.74,4.33,4.33,0,0,1,.55-3.52c.33-.47.27-.51-.1-.07a4.4,4.4,0,0,0-.87,3.67,5,5,0,0,0,.25.83c.09.24,0,.31-.16.38l-.29.13c-.26.13-.38.08-.47-.06a4.48,4.48,0,0,1-.66-3.14c.06-.37,0-.38-.1,0a4,4,0,0,0,.12,2.9c.08.21.24.51.21.63s-.61.4-1.37,1.08c-.37.32-.4.48-.18.32.41-.29,1.78-1.13,1.91-.9s-.1.34-.24.4a14.29,14.29,0,0,0-1.4.73l-.53.33a5.06,5.06,0,0,0-2.24,2.44c-.09.32-.28.16-.68-.08a5.37,5.37,0,0,0-3.88-.53,7.51,7.51,0,0,1,2,.23c.12,0,.12.13,0,.12a6.47,6.47,0,0,0-1.88,0C94.41,71.21,94.32,71.31,94.73,71.27Zm9.32,5.79a4,4,0,0,1-.62-.57c-.05,0-.05-.1,0-.06l.48.45C104,76.93,104.08,77,104.05,77.06Zm1.29,1.14c-.29-.23-.59-.47-.87-.72-.1-.08,0-.11.07,0,.35.28.71.53,1.08.77C105.76,78.34,105.52,78.32,105.34,78.2Zm6.37,3.19-.34-.12-1-.35-1-.4-1-.44-.66-.33c-.43-.23-.83-.46-1.22-.71-.17-.11-.2-.23.09-.11.59.25,1.47.63,1.92.84a20.74,20.74,0,0,0,2.18.89,5.3,5.3,0,0,0,1,.27c.13,0,.21.08.21.19l0,.19C112,81.43,111.89,81.45,111.71,81.39Zm1.5-.64a2.28,2.28,0,0,1,0-.45,1,1,0,0,1,0-.17s0-.11,0-.13a.13.13,0,0,1,.1,0l.13.08s0,.1,0,.16l0,.41c0,.11.07.25,0,.36s-.19,0-.24-.09A.46.46,0,0,1,113.21,80.75Zm.38-2.49h0s0,.07,0,.11a2.34,2.34,0,0,0,0,.26s0,.06,0,.09,0,0,0,.06-.09,0-.12,0a.14.14,0,0,1-.08-.07c0-.06,0-.15,0-.21l0-.16s0-.1.07-.1A.24.24,0,0,1,113.59,78.26Zm-.1-.65a.13.13,0,0,1,0-.09s.09,0,.12,0,.09,0,.1,0,0,.06,0,.09,0,.07,0,.1-.07,0-.12,0-.08,0-.09-.07h0A.21.21,0,0,1,113.49,77.61Zm-.18,1.62a.21.21,0,0,1,.16.07s0,0,0,0a.33.33,0,0,1,0,.14c0,.07,0,.22-.06.25a.1.1,0,0,1-.1,0,.21.21,0,0,1-.09-.1.33.33,0,0,1,0-.29S113.26,79.22,113.31,79.23Zm.48,2.9a2.17,2.17,0,0,0,.07.24l0,.12s0,.05,0,.07h-.06a1,1,0,0,1-.16-.12.38.38,0,0,1-.21-.28,2.68,2.68,0,0,0-.07-.27,1.16,1.16,0,0,0,0-.18.62.62,0,0,1,0-.18.07.07,0,0,1,.07-.07c.05,0,.1.05.14.07a.38.38,0,0,1,.12.09.29.29,0,0,1,0,.13C113.72,81.87,113.75,82,113.79,82.13Zm0-5.19,0,.19s0,.05,0,.05-.12,0-.15-.06,0-.11,0-.16,0-.16.08-.18a.33.33,0,0,1,.1,0s0,0,0,0S113.83,76.91,113.83,76.94Zm.11-.73,0,.21s0,.13,0,.16h0a.13.13,0,0,1-.15-.06.5.5,0,0,1,0-.21s0-.1,0-.15a.18.18,0,0,1,0-.1,0,0,0,0,1,.06,0,.23.23,0,0,1,.12,0S114,76.17,113.94,76.21Zm.14-1s0,.08,0,.11,0,.07,0,.11a.09.09,0,0,1,0,.07h0a.17.17,0,0,1-.2,0,.2.2,0,0,1,0-.11s0-.12,0-.15.09,0,.14,0l.07,0s0,0,.06,0S114.09,75.23,114.08,75.24Zm.08-.55,0,0a.26.26,0,0,1-.3,0s0-.16,0-.2a.6.6,0,0,1,0-.23.18.18,0,0,1,.31-.08C114.24,74.35,114.22,74.59,114.16,74.69Zm.11-.83s0,0,0,0a.19.19,0,0,1-.35,0c-.09-.14,0-.32,0-.48s0-.31.1-.41h0l.11,0a.17.17,0,0,1,.1,0c.12,0,.12.07.12.18A3,3,0,0,1,114.27,73.86Zm-.13-2.24a.61.61,0,0,1,.08.27c0,.1,0,.21,0,.3s.13.55-.14.67-.3-.18-.32-.37a4.78,4.78,0,0,0-.06-.53c0-.16-.09-.33.08-.43A.22.22,0,0,1,114.14,71.62Zm-.27-1.24s0,.13,0,.17a1.05,1.05,0,0,1,0,.19c0,.09.11.26.06.36a.1.1,0,0,1,0,.05.33.33,0,0,1-.42-.06.66.66,0,0,1-.14-.52C113.47,70.45,113.75,70.24,113.87,70.38Zm-.34-.92a.62.62,0,0,1,.1.22,1.16,1.16,0,0,1,.13.37c0,.13-.13.18-.24.23a.22.22,0,0,1-.27,0,.54.54,0,0,1-.13-.49C113.16,69.61,113.35,69.29,113.53,69.46Zm-.82-1.34a.24.24,0,0,1,.13.07,2.39,2.39,0,0,1,.26.41.72.72,0,0,1,.16.38c0,.15-.08.17-.2.24s-.14.09-.23.07-.19-.22-.27-.33a2.45,2.45,0,0,1-.26-.37C112.21,68.35,112.48,68.1,112.71,68.12Zm-1.21-.5a.62.62,0,0,1,.4-.37.19.19,0,0,1,.15,0,.55.55,0,0,1,.14.13c.07.07.32.3.24.41a1.32,1.32,0,0,1-.29.15.56.56,0,0,1-.24.1C111.69,68.05,111.44,67.84,111.5,67.62Zm-.78-.6c0-.08,0-.17,0-.26s0,0,0-.06.1-.15.19-.15a.6.6,0,0,1,.28.13s.1.11.08.16-.1.11-.13.14l-.15.16s-.06.09-.1.12-.21.07-.25,0S110.71,67.08,110.72,67Zm-1.41-.79s0,0,0,0c.21-.16.8,0,.83.3s-.72.21-.86,0A.27.27,0,0,1,109.31,66.23Zm-1.25,0c0-.13.26-.17.42-.15l.13,0c.18.15,0,.41-.17.44S108,66.49,108.06,66.27Zm-.66,2.28.61-.16a2.28,2.28,0,0,1,1.24,0c3.57.87,3.21,6.41,3.16,7.91,0,.27,0,.54-.07.81s-.1.74-.16,1.1-.11.73-.15,1.1a4.87,4.87,0,0,0-.06.55c0,.11,0,.25-.18.27a.61.61,0,0,1-.19,0l-.53-.15c-.34-.09-.69-.2-1-.31l-1-.36q-.52-.19-1-.42c-.44-.19-.87-.39-1.27-.61a1.24,1.24,0,0,1-.57-.49,1.74,1.74,0,0,0-.71-.63,5,5,0,0,1-.57-.32,3.21,3.21,0,0,0-.81-.46,1.64,1.64,0,0,1-.6-.47,1.64,1.64,0,0,0-.69-.54c-.25-.23-.49-.48-.72-.73A12.66,12.66,0,0,0,101,73.46c-.49-.5.66-1.88,1.35-2.53.31-.28.35-.17.18.11a2.42,2.42,0,0,0-.33,1.95c.46,1.56,2.64,2.28,4.87,1.62s3.68-2.45,3.22-4a3,3,0,0,0-2.83-1.84C107.09,68.74,107.05,68.65,107.4,68.55Zm-.39-2.2a.12.12,0,0,1,.14,0,.31.31,0,0,1,.15.23.17.17,0,0,1-.28.16A.27.27,0,0,1,107,66.35Zm-1.46.26c.09-.17.33-.23.5-.27h.08a.25.25,0,0,1,.26.21.29.29,0,0,1-.07.32.71.71,0,0,1-.55.18A.33.33,0,0,1,105.55,66.61Zm0,2.92c1.67-.5,3.3,0,3.64,1.21s-.73,2.5-2.4,3-3.3,0-3.64-1.21S103.93,70,105.6,69.53ZM104.42,67a.7.7,0,0,1,.39-.15l.07,0a.25.25,0,0,1,.14.3c0,.14-.13.18-.25.22a.35.35,0,0,1-.4,0A.22.22,0,0,1,104.42,67ZM102,69.62a11.64,11.64,0,0,1,2.61-1.32c.61-.14.76-.08.49.09a28.67,28.67,0,0,0-2.53,1.35,5.52,5.52,0,0,0-2.36,2.47c-.07.21-.1.3-.24.17C99.61,72,101,70.34,102,69.62ZM67.15,72.76c.11.73.28,1.46.46,2.21s.5-.12.56-.92a18.45,18.45,0,0,0,0-4.75,4,4,0,0,0-.82-2c-1.68-2.07-4.63-.63-3.17,2C65.26,71.33,67,71.91,67.15,72.76Zm-2.21-3.22c-.95-1.2,0-2.7,1.36-1.54A2.77,2.77,0,0,1,67,70c.08,1.31,0,1.38-1,.59A6.4,6.4,0,0,1,64.94,69.54Zm60.59,74.86a7.11,7.11,0,0,0,3.18.13,7.31,7.31,0,0,0,3.12-1.62c.81-.65,1-.26.23.44a8.16,8.16,0,0,1-3.1,1.9c-.84.25-.78.64-1,1.6a2.91,2.91,0,0,1-1.09,1.74,3,3,0,0,1-2.62.7c-.84-.23-1.74-.89-1.54-1.86a.37.37,0,0,1,.42-.28c.64.08,1,.66,1.58.78a2.26,2.26,0,0,0,1.59-.18c1.22-.65.57-2.28-.75-2.4-.68-.06-1.32-.34-2-.39-1.45-.12-3.43.34-3.32,2.23.09,1.34,3,2.42,5.1,5.76a4,4,0,0,0,3.16,1.72,9.72,9.72,0,0,0,6.17-2.33,6.15,6.15,0,0,0,2.25-2.52,6.85,6.85,0,0,0,.42-3.14,20.37,20.37,0,0,0-1-4.08c-.29-.93-.49-1.45-1.23-.61a15.88,15.88,0,0,0-1,1.31,26.49,26.49,0,0,0-1.63,2.75c-.45.86-2.91,4.29-2.23,2.13a13.32,13.32,0,0,1,.83-2.14c.33-.64.67-1.28,1-1.91a17.88,17.88,0,0,1,2.5-3.41,12,12,0,0,1,7-3.65,10.13,10.13,0,0,1,7.89,2.07,6.44,6.44,0,0,1,2,6.87c-1,3.37-4.1,6.37-7.18,8.35-.62.39-1.26.77-1.91,1.11-1.34,1-6.78,2.47-7.57,2.68a24.44,24.44,0,0,1-3.3.68,19.31,19.31,0,0,1-6.78-.28,12.84,12.84,0,0,1-6.12-3,4.93,4.93,0,0,1-1.56-2.88,12.7,12.7,0,0,1-.08-3.74c.22-1.26.58-1.18.54.1a10.66,10.66,0,0,0,.26,3.78,5.38,5.38,0,0,0,2.31,2.67,16.21,16.21,0,0,0,6.07,2,18.85,18.85,0,0,0,5.95-.08,21.43,21.43,0,0,0,3-.7c.61-.19,2.33-.6,3.86-1a21,21,0,0,0,8.69-5.65,11,11,0,0,0,2.71-4.51,5.26,5.26,0,0,0-.93-4.46c-1.14-1.52-1.06-.14-1.13,1a10.17,10.17,0,0,1-1.11,3.95c-1.24,2.44-3.1,5.16-5.56,6.48-.18.1-.34-.14-.24-.29.91-1.38,2.16-2.47,3.17-3.78a16.55,16.55,0,0,0,2-3.21c1.75-3.75.42-6.2-.56-6.53a9.87,9.87,0,0,0-5.58-.19c-.68.17-1.6,1.74,0,3.15a6.78,6.78,0,0,0,2.69,1.32.23.23,0,0,1,0,.41c-1.23.73-2.65-.37-3.42-1.31a5.92,5.92,0,0,1-1-1.61c-.29-.73-.36-1.23-1.28-.63s-.63,1.54-.09,3a14.13,14.13,0,0,1,.9,4.51,7.71,7.71,0,0,1-3.24,6.27,10.27,10.27,0,0,1-7.1,2.7,4.72,4.72,0,0,1-3.59-2.4c-2-3.59-4.57-4.42-5-5.49a3.25,3.25,0,0,1,1.27-4C122.29,143.55,123.93,144,125.53,144.4ZM104.67,71.77c-.16-.56.4-1.22,1.26-1.47s1.69,0,1.86.56-.4,1.22-1.26,1.47S104.83,72.33,104.67,71.77Zm-27.84,0a25.79,25.79,0,0,1-.15,3c-.23,1.83-.61,3.91-1.91,5.32s-3.55,1.23-5.31.5c-2.31-1-4.52-2.79-4.33-5.45.05-.76.18-.84.36-.1A6.87,6.87,0,0,0,70,79.91c1.74.59,3.51.72,4.54-1,.87-1.5,1.6-6.78,1.59-7.59C76.09,67.68,76.84,68,76.83,71.77Zm137.71,34.1a55.21,55.21,0,0,0-4.28-15.54,39.5,39.5,0,0,0-4.13-7.2c-1.31-1.78-6.95-10.67-8.59-13.28a126.83,126.83,0,0,0-8.29-11.62,92.27,92.27,0,0,0-9.05-10.11A70.49,70.49,0,0,0,159.1,35a46.75,46.75,0,0,0-11.65-3.57c-6-.84-10.38-.7-13-.07a53.13,53.13,0,0,1-7,1,47,47,0,0,0-12.9,1.93,58.57,58.57,0,0,0-8.72,3.45c-1.51.71-3,1.46-4.42,2.31-.83.49-3.12.27-5.32,1.17a5.14,5.14,0,0,0-3,4c-.1.6-.14,1.2-.22,1.8-.11,1-.81,1.41-1.7,2.22a9.49,9.49,0,0,0-1.62,2.1c-.11.17-.66,1.56-.54.4a3.9,3.9,0,0,1,.85-2.29c.15-.16.22-.45-.22-.05a3.92,3.92,0,0,0-1,1.59,3.84,3.84,0,0,0,0,2.57c.18.74-.25.72-.35.48a3.53,3.53,0,0,1-.19-.55,5.79,5.79,0,0,1,.08-3c.15-.58-1.1,1.33-.43,3.43.06.17,0,.37,0,.28a3.42,3.42,0,0,1-.44-2.82c.08-.55-.08-.54-.23,0a3.93,3.93,0,0,0,.22,2.88,3.38,3.38,0,0,0,1.13,1.24c.25.15,0,.34-.28.26a2.21,2.21,0,0,1-1.6-2.23c0-.61-.15-.56-.26,0a3,3,0,0,0,.55,2.1c.17.24-.06.33-.37.07a2.34,2.34,0,0,1-.67-2c0-.63-.1-.64-.19,0a3.32,3.32,0,0,0,.31,2.11c0,.07.26.44-.27.54a32.6,32.6,0,0,1-6.22.22,22.77,22.77,0,0,0-5.93.61,21.25,21.25,0,0,1-5,.16l-.66-.15a4.67,4.67,0,0,0-1-.2,6.84,6.84,0,0,0-3.85.54c-3.05,1.32-3.81,5.22-3.42,8.17a9,9,0,0,0,.64,2.34c1,2.45-1.44,4.68-2.92,5.63a6.5,6.5,0,0,1-3.11,1,5.25,5.25,0,0,0-2.75.68,8.33,8.33,0,0,0-3.41,5,10.57,10.57,0,0,0-.22,1.48,3.31,3.31,0,0,1-1.22,2.7,14.63,14.63,0,0,0-1.42,2,54.08,54.08,0,0,1-3.71,5.86c-1.8,2.24-9.57,4.35-10.74,4.87-2.12.93-6.67,3.17-7,9.16a28.36,28.36,0,0,0,1.9,9.91c.74,2.08,3,6.2,5.18,11.22,1.76,4.12,3.44,9.35,3.83,10.36,1.63,4.17,3.72,8.18,5.75,12.17,2.15,4.21,4.35,8.39,6.31,12.69,1.24,2.74,1.25,5.43,1.51,10.45.14,2.75.27,5.5.29,8.26,0,5.09-.18,10.18-.41,15.27s-.52,10.23-.67,15.35a110.93,110.93,0,0,0,.2,13,55.39,55.39,0,0,0,5.66,20.8,40.29,40.29,0,0,0,14.06,15.41,46.55,46.55,0,0,0,19.76,6.83c6.71.76,13.75.08,19.91-2.94s10.93-8.55,13.79-15.21c3-7.05,4-14.91,4.56-22.62.49-7.56.32-15.19,1.11-22.72.11-1.13.24-2.25.39-3.38a4.48,4.48,0,0,1,.48-2.08c.12-.17.2-.27.4-.25a5.21,5.21,0,0,1,.57.1,8,8,0,0,0,.84.1c.43,0,1.39.11,1.62-.36s-.21-.55-.41-.76a2.47,2.47,0,0,1-.59-1.43,12.11,12.11,0,0,1-.23-2.17,11.53,11.53,0,0,1,.73-4.23,5.37,5.37,0,0,1,1.5-2.36,1.51,1.51,0,0,1,.87-.34c.62-.06,1.24-.08,1.86-.13a120.42,120.42,0,0,0,13.23-1.91A97.49,97.49,0,0,0,173,177.24a80.88,80.88,0,0,0,11.25-6.74c3.49-2.57,18.57-14.62,23.72-26.33,3.4-7.71,5.3-17.44,5.6-18.71A61.35,61.35,0,0,0,214.54,105.87ZM94.32,44.92a3.78,3.78,0,0,1,1.9-2.75c1.7-1,2.73-.31,1.7.68a21.53,21.53,0,0,0-2.08,2.26C94.91,46,93.68,47.9,94.32,44.92Zm-4.56,8.2a7.21,7.21,0,0,1,1-2,9.35,9.35,0,0,1,.87-1.17c.8-.91.47.16.41.32s-.14.42-.2.63a16.09,16.09,0,0,1-.94,2.45C90.08,54.89,89.3,54.76,89.76,53.12ZM48.93,85.94c.27-1.72.61-4.38.68-5a5.91,5.91,0,0,1,2.83-4.34c.34-.17.76-.34.81,0a7.81,7.81,0,0,1-.33.82.72.72,0,0,0,.29.8,3.69,3.69,0,0,0,1.07.48,10.54,10.54,0,0,1,1.64.74c2.41,1.34,2.27,4.58,2.52,7a41.53,41.53,0,0,0,1.08,6.92c.24.83.08,1.06-.53.39a18.79,18.79,0,0,1-2.19-2.89c-.87-1.47-.86-3.31-2.11-4.56a7.42,7.42,0,0,0-2-1.25c-1-.49-1.29-1-1.7-2.67-.12-.5-.24.68-.09,1.17a2,2,0,0,1-.12,1.34c-.51,1.13.1,2.29-1.32,2.12C48.73,86.91,48.81,86.64,48.93,85.94ZM54.6,89.2a8.09,8.09,0,0,0-3-2c-.79-.27-.52-1.6-.41-1.77.32-.53.82-.2,1.37.2s.85.54,1.23.85A4.12,4.12,0,0,1,55,88.66C55.31,89.52,55.17,89.76,54.6,89.2ZM49,87.87A6.93,6.93,0,0,1,54,89.46c1,1.13,4.4,5.07,5.53,6.29.62.67,3.13,2.23,2.79,2.63s-3.24-.15-4.09-.47a15.2,15.2,0,0,1-5-2.87c-1.53-1.42-2.47-3.33-4-4.72a7.47,7.47,0,0,0-1.52-1.08c-.6-.32-1-.84,0-1.12A7,7,0,0,1,49,87.87Zm-2.13-1.52a8.54,8.54,0,0,1,.59-.73c.52-.59.68,0,.66.29-.05,1-.3,1-1.06,1.33S45.91,87.7,46.84,86.35Zm78.24,113.24q-.4,2.28-.66,4.59c-.34,3.08-.51,6.18-.64,9.28-.06,1.44-.11,2.88-.16,4.32-.3,7.9-.62,15.89-2.44,23.57-1.67,7.06-4.91,14-10.43,18.5-5.23,4.24-11.85,5.84-18.33,5.91a45,45,0,0,1-19.54-4.47c-6.23-2.94-12.73-7.78-16.53-13.85-3.68-5.9-7.23-16.15-7.23-29.92,0-5.12.3-11.39.54-16.49.35-7.62.28-21.34.09-28.42,0-1.61.28-1.43.75,0,.38,1.16.87,2.29,1.17,3.47,1,3.77,1.28,3.08.83-.21a31.74,31.74,0,0,0-1.73-6.35c-.8-2.23-1.72-4.42-2.69-6.58-1.89-4.21-4-8.31-6.14-12.42s-4.33-8.32-6.09-12.66c-1.08-2.67-1.91-5.5-3-8.23-.08-.25-.16-.5-.25-.75a40.36,40.36,0,0,0-1.94-4.55c-1.45-3-.28-1.63,1.53-.24a39.15,39.15,0,0,1,5.22,5c3.13,3.48,6.12,7.11,9.16,10.67a55,55,0,0,0,7.83,7.87A23.66,23.66,0,0,0,64.79,152c3.08.48,5.48.19,2.22-.61s-5.29-.67-10.5-4.26a48.54,48.54,0,0,1-8.17-7.52c-3.06-3.37-6-6.83-9.08-10.2a46.47,46.47,0,0,0-5-5c-3.64-2.94-7.13-6.84-8.5-11.47a16.1,16.1,0,0,1-.22-8.79c1.26-4.74,7.37-6.41,9.42-7,2.29-.69,4.78-1.22,6.66-2.78a11,11,0,0,0,2.07-2.71c.31-.51,1.21-2.44,2.05-2.24,1.79.3,3.43,2.14,4.45,3.42.67.85,1.24,1.76,2,2.56a11.33,11.33,0,0,0,2.18,1.77,23.6,23.6,0,0,0,5,2.26c1.63.57,3.57.42,4.33-.69.48-.68-1.54-2.42-1.91-3a11.56,11.56,0,0,1-1.3-2.94A38.11,38.11,0,0,1,59,86.4c-.3-2-.35-4.23-1.42-6a4.59,4.59,0,0,0-1.91-1.66,8.47,8.47,0,0,0-1.3-.49c-.45-.15-1-.14-1.1-.53s.41-.89.24-1.21c-.07-.14-.16-.25.16-.3a18.21,18.21,0,0,0,2.43-.34,6.84,6.84,0,0,0,2.49-1.37,8.18,8.18,0,0,0,1.8-2.17c.45-.8.64-1.39.89-.62.53,1.64-1.32,5.14-.59,4.47,2.29-2.11,1.92-5.69,1.69-6.47-.57-1.91-1.51-3.56-1.61-5.58a6.56,6.56,0,0,1,1.46-4.62,4.5,4.5,0,0,1,3.79-1.41h0c1.64.18,3.25.9,4.13.9a11.84,11.84,0,0,0,3.24-.5,23.47,23.47,0,0,1,6.8-.46c5.71.1,9.69-1.22,11.13-3.1a9.6,9.6,0,0,0,1.23-2.49c1.14-3.12,1.06-3.31,2.9-5.2.58-.61,1.2-1.19,1.8-1.78s1.73-1.5,3-2.46c.33-.24.65-.48,1-.7a36.6,36.6,0,0,1,3.41-1.9c2.07-1,4.18-2,6.34-2.92a46.71,46.71,0,0,1,12.7-3.08,42.5,42.5,0,0,1,13.12.71c4.16.91,7.88,3.16,11.39,5.48,6.2,4.11,8.41,5.56,10.5,9a25.65,25.65,0,0,1,2.89,6.24c2.53,8.88-8.07,18.44-9.32,19.65a18.21,18.21,0,0,0-4.15,6.64,22,22,0,0,0-4.31,6.52,20.4,20.4,0,0,0-1.39,7.57c0,.52,0,1.05.05,1.57a6.47,6.47,0,0,1-.54,3.37,21.53,21.53,0,0,0-1.16,4.1,16.15,16.15,0,0,0-.24,2.5,37.63,37.63,0,0,1-1.06,6.17,12.34,12.34,0,0,0,.54,5.87c.34,1.15,1.4,4.52,1.47,5.1a16.46,16.46,0,0,0,1.12,4.36c.57,1.4.23,1.5-.8.74a11.87,11.87,0,0,1-1.69-1.5c-1.58-1.71-1.61-5.06-1.79-7.27-.22-2.73-.44-1.89-.36.85.05,2.14.17,4.49,1.44,6.31A12.64,12.64,0,0,0,144,132.2a38,38,0,0,1,5.82,3.31,10.23,10.23,0,0,1,3.65,5.66c2.12,8.9-7.45,15.4-14.72,17.69a39.65,39.65,0,0,1-11.09,1.65,33,33,0,0,1-10.28-1l-1.15-.31-.94-.36a21.9,21.9,0,0,1-3.36-1.67,6.39,6.39,0,0,1-3.28-6c.26-3,3.35-3.26,5.46-4.52,2.5-1.5,5.49-3.75,8-5.32,2.18-1.39,1.13-1.38-1.16-.19-3,1.58-5.6,3.85-8.81,5.13-6.83,2.72-8.53,6.24-12,7.35-4.64,1.48-9.43.16-14-.95-2.83-.7,1.25,2.28,6.12,2.88a19.82,19.82,0,0,0,7.16-.32,14.17,14.17,0,0,0,5.31-2.74c1.17-.9,2.42-1.91,2.35-.89-.21,3,1.51,5.35,3.86,7a20.26,20.26,0,0,0,4,2c1,.42,4.63,1.56,6.12,1.38a34.69,34.69,0,0,0,4.67.12,53,53,0,0,0,7.45-.57,33,33,0,0,0,12.74-4.66c.59-.37,1.2-.69.43,1.28-2.6,6.61-9.5,10.29-15.24,14.25-3.76,2.61-7.38,5.78-9.52,9.9a12.12,12.12,0,0,0,.31,12.12,10.92,10.92,0,0,0,1.78,2.22c.48.46,1.2.83,1.47,1.45A2.56,2.56,0,0,1,125.08,199.59Zm86.61-72.35a46.38,46.38,0,0,1-4.82,11.35,43.44,43.44,0,0,1-3.51,5,48.12,48.12,0,0,1-3.94,4.49c-2.08,2,0,.63.34.46,3.36-1.94,5.87-5.22,7.89-8.47.8-1.29,1.45-1.59,1-.42-2.47,6.35-6.6,12-11.19,17a103.64,103.64,0,0,1-19.35,16,93.58,93.58,0,0,1-24.87,10.07,134.59,134.59,0,0,1-26,3.68,8.73,8.73,0,0,0-1.61.27c-.2,0-.71.12-.54.43s.75.42,1,.5a11.34,11.34,0,0,0,2.33.09c.62.06.67.51.49,1a18.56,18.56,0,0,0-1.09,3.73,7.25,7.25,0,0,0,0,3c.09.35.2.7.32,1s.35,1.12-.32,1.1a3.08,3.08,0,0,1-1.13-.41,10.9,10.9,0,0,1-1.94-1.29c-1.06-.91-1.51-3.7-1.54-5.68,0-3,.45-6.34,2.43-8.77.62-.75.47-.86-.2-.15-2.33,2.42-3,5.86-3.18,9.11-.09,1.74-.3,1.79-.72.07-1.25-5,1.79-9.6,5.2-13,5.82-5.78,14.12-8.74,18.74-15.8a17,17,0,0,0,1.81-3.71c.72-2.11,1-2.8,2.36-4a17.83,17.83,0,0,0,3.53-4.34,12,12,0,0,0,.56-10.67c-1.36-3-4-4.78-6.85-6.2a7.64,7.64,0,0,1-4.08-4.45c-.95-2.36-.89-4,.09-2.54a20.46,20.46,0,0,0,4.68,5.42c.91.66,1.06.5.42-.42-1.18-1.7-2.72-3.14-3.93-4.83a25,25,0,0,1-3.16-5.79c-1.28-3.4-.3-9.65.13-7.64a27.89,27.89,0,0,0,2.56,6.91c1,2,2.36,4.34,4.24,5.7,1.09.78,1.29.68.57-.51-1.15-1.9-2.6-3.59-3.7-5.54a27.05,27.05,0,0,1-2.67-6.77,20.24,20.24,0,0,1-.54-6.85,17.15,17.15,0,0,1,.78-3.46c.66-2.07.6-.67,1.28,1.81a37.06,37.06,0,0,0,1.3,3.85c.82,2.07,3.12,5.13,2.45,3a25.44,25.44,0,0,0-1.14-2.76,35.8,35.8,0,0,1-1.33-3.63,32.22,32.22,0,0,1-1.25-5.75.09.09,0,0,0,0-.09c-.05-.41-.09-.81-.12-1.22C142.85,90,147.68,83,147,85.79a32.76,32.76,0,0,0-.45,11.88c.19,1.27,1.24,4.64,1.67,4.81s-.36-3.54-.56-4.67a29,29,0,0,1-.41-3.72,35,35,0,0,1,.58-7.78c1.15-6.3,5.42-11.51,4-8.3-1.62,3.61-3.13,8.46-3.13,12.4,0,.71.42,1.39.63.16s.46-2.81.57-3.35c.21-1,.47-2,.76-3,.59-2,1.6-3.88,2.36-5.85,1.77-4.6,8.14-8.8,9.79-17a12.31,12.31,0,0,0-.28-5.94,23.11,23.11,0,0,0-2.11-4.83c-1-1.74-1.41-2.25.78-.75,4.23,2.88,6.71,7,6.62,6.13s-2.06-3.79-5.53-6.64c-4-3.26-6.54-5.17-10.7-8.19-3.57-2.58-7.17-5.19-11.28-6.85-2.41-1-6.93-1.76-2.64-2.21A42.87,42.87,0,0,1,152,33.69a71.53,71.53,0,0,1,11.82,4.87,68,68,0,0,1,10.64,6.49c7.26,5.45,13.1,12.74,18.29,20.13a88.25,88.25,0,0,1,12.84,25.66c.52,1.8,1.12,3.56,1.62,5.37,1.41,5.12,1.68,5.06,1-.21a38.41,38.41,0,0,0-1.48-6.87c-.45-1.41-.95-2.81-1.49-4.19-.42-1.09.16-1,.7-.2a41.25,41.25,0,0,1,2.59,4.52A50.12,50.12,0,0,1,213,103.62,51.9,51.9,0,0,1,211.69,127.24Z"/></g><path class="cls-6" d="M75.23,164.77a1.3,1.3,0,0,1-1.3-1.29l-.09-34.75a1.3,1.3,0,0,1,1.29-1.3h0a1.29,1.29,0,0,1,1.29,1.29l.09,34.76a1.28,1.28,0,0,1-1.29,1.29Z"/><path class="cls-6" d="M68.81,135.12a1.3,1.3,0,0,1-.92-2.21l7.23-7.31,7.31,7.23a1.29,1.29,0,1,1-1.82,1.84l-5.47-5.4-5.41,5.46A1.26,1.26,0,0,1,68.81,135.12Z"/></svg>