<svg xmlns="http://www.w3.org/2000/svg" xmlns:xlink="http://www.w3.org/1999/xlink" viewBox="0 0 62.85 51.19"><defs><style>.cls-1{fill:url(#linear-gradient);}.cls-2{fill:#fff;}</style><linearGradient id="linear-gradient" x1="1591.36" y1="25.59" x2="1654.21" y2="25.59" gradientTransform="matrix(1, 0, 0, -1, -1591.36, 51.19)" gradientUnits="userSpaceOnUse"><stop offset="0" stop-color="#b6d3ec"/><stop offset="1" stop-color="#416c96"/></linearGradient></defs><title>Asset 1@3x2</title><g id="Layer_2" data-name="Layer 2"><g id="Layer_1-2" data-name="Layer 1"><path class="cls-1" d="M25.59,0H62.85a0,0,0,0,1,0,0V51.19a0,0,0,0,1,0,0H25.59A25.59,25.59,0,0,1,0,25.59v0A25.59,25.59,0,0,1,25.59,0Z" transform="translate(62.85 51.19) rotate(180)"/><path class="cls-2" d="M15.43,28.31h14a.89.89,0,0,0,.85-.64h0a.89.89,0,0,0-.85-1.14H16.67a1.19,1.19,0,0,1-1.15-.88l-1.3-4.89a.71.71,0,0,1,.68-.89H32a.88.88,0,0,0,.85-.63h0A.88.88,0,0,0,32,18.1H12.85A.89.89,0,0,0,12,19.23l2.15,8.07A1.36,1.36,0,0,0,15.43,28.31Z"/><path class="cls-2" d="M16.37,33.17h15.8a1.1,1.1,0,0,0,1.06-.79l5.09-16.94h6.17a.89.89,0,0,0,.86-.67h0a.89.89,0,0,0-.86-1.11H38a1.34,1.34,0,0,0-1.27.95l-4.79,16a1.15,1.15,0,0,1-1.09.81H16.37a.89.89,0,0,0-.86,1.11h0A.9.9,0,0,0,16.37,33.17Z"/><circle class="cls-2" cx="29.68" cy="36.72" r="2.31" transform="translate(-7.64 7.8) rotate(-13.28)"/><circle class="cls-2" cx="19.04" cy="36.72" r="2.31" transform="translate(-7.85 5.29) rotate(-13.15)"/><path class="cls-2" d="M39.43,22.53h8a.88.88,0,0,0,.85-.66h0a.88.88,0,0,0-.85-1.11h-8a.89.89,0,0,0-.85.63h0A.89.89,0,0,0,39.43,22.53Z"/><path class="cls-2" d="M38.38,26.08h5.29a.89.89,0,0,0,.86-.67h0a.89.89,0,0,0-.86-1.11H38.38a.9.9,0,0,0-.85.64h0A.89.89,0,0,0,38.38,26.08Z"/><path class="cls-2" d="M37.34,29.62H40a.89.89,0,0,0,.86-.66h0A.89.89,0,0,0,40,27.85H37.34a.88.88,0,0,0-.85.64h0A.88.88,0,0,0,37.34,29.62Z"/></g></g></svg>