<svg xmlns="http://www.w3.org/2000/svg" viewBox="0 0 36.32 25.36"><defs><style>.cls-1{fill:#fff;}</style></defs><title>Asset 1@3x1</title><g id="Layer_2" data-name="Layer 2"><g id="Layer_1-2" data-name="Layer 1"><path class="cls-1" d="M32.83,14.64h-14A.9.9,0,0,1,18,14h0a.89.89,0,0,1,.85-1.14H31.59A1.19,1.19,0,0,0,32.74,12L34,7.1a.71.71,0,0,0-.68-.89H16.23a.89.89,0,0,1-.85-.64h0a.89.89,0,0,1,.85-1.14H35.42a.91.91,0,0,1,.87,1.14l-2.16,8.07A1.34,1.34,0,0,1,32.83,14.64Z"/><path class="cls-1" d="M31.89,19.51H16.09A1.1,1.1,0,0,1,15,18.72L10,1.77H3.77a.88.88,0,0,1-.85-.66h0A.88.88,0,0,1,3.77,0h6.51a1.32,1.32,0,0,1,1.27.94l4.79,16a1.15,1.15,0,0,0,1.09.81H31.89a.89.89,0,0,1,.86,1.11h0A.9.9,0,0,1,31.89,19.51Z"/><circle class="cls-1" cx="18.59" cy="23.05" r="2.31" transform="translate(-8.12 35.85) rotate(-76.72)"/><circle class="cls-1" cx="29.23" cy="23.05" r="2.31" transform="translate(0.13 46.27) rotate(-76.85)"/><path class="cls-1" d="M8.83,8.87H.89A.89.89,0,0,1,0,8.2H0A.89.89,0,0,1,.89,7.09H8.83a.89.89,0,0,1,.85.64h0A.88.88,0,0,1,8.83,8.87Z"/><path class="cls-1" d="M9.88,12.41H4.59a.88.88,0,0,1-.85-.66h0a.88.88,0,0,1,.85-1.11H9.88a.89.89,0,0,1,.85.63h0A.89.89,0,0,1,9.88,12.41Z"/><path class="cls-1" d="M10.93,16H8.3a.9.9,0,0,1-.86-.66h0a.89.89,0,0,1,.86-1.11h2.63a.88.88,0,0,1,.85.63h0A.89.89,0,0,1,10.93,16Z"/></g></g></svg>