<?xml version="1.0" encoding="utf-8"?>
<!-- Generator: Adobe Illustrator 24.0.2, SVG Export Plug-In . SVG Version: 6.00 Build 0)  -->
<svg version="1.1" id="Layer_1" xmlns="http://www.w3.org/2000/svg" xmlns:xlink="http://www.w3.org/1999/xlink" x="0px" y="0px"
	 viewBox="0 0 60.5 60.5" style="enable-background:new 0 0 60.5 60.5;" xml:space="preserve">
<style type="text/css">
	.st0{fill:#5E87D5;}
	.st1{fill:#FFFFFF;}
</style>
<title>Asset 1@3x1</title>
<g id="Layer_2_1_">
	<g id="Layer_1-2">
		<circle class="st0" cx="29.9" cy="30.3" r="29.9"/>
		<path class="st1" d="M21.2,27.8c-0.2,0.4-0.4,0.8-0.8,1.1c-0.3,0.3-0.7,0.5-1.2,0.6c-0.5,0.2-1,0.2-1.5,0.2h-4.9V17.6h4.7
			c1-0.1,1.9,0.3,2.7,0.9c0.7,0.6,1,1.5,1,2.4c0,0.3,0,0.6-0.1,0.9c-0.1,0.3-0.2,0.5-0.4,0.8c-0.1,0.2-0.3,0.4-0.5,0.6
			c-0.2,0.1-0.4,0.3-0.6,0.4c0.2,0.1,0.5,0.2,0.7,0.4c0.2,0.2,0.4,0.4,0.6,0.6c0.2,0.2,0.3,0.5,0.4,0.8c0.1,0.3,0.2,0.7,0.2,1
			C21.5,26.8,21.4,27.3,21.2,27.8z M18.9,19.7c-0.4-0.3-0.9-0.5-1.4-0.4h-2.7v3.5h2.7c0.5,0,1-0.1,1.4-0.4
			C19.6,21.6,19.6,20.4,18.9,19.7C18.9,19.7,18.9,19.7,18.9,19.7z M19.1,24.9c-0.4-0.4-0.9-0.5-1.5-0.5h-2.9v3.7h2.9
			c0.5,0,1.1-0.2,1.5-0.5c0.3-0.4,0.5-0.8,0.5-1.3C19.7,25.7,19.5,25.2,19.1,24.9z"/>
		<path class="st1" d="M31.7,27.4c-0.2,0.5-0.5,0.9-0.9,1.3c-0.4,0.4-0.9,0.7-1.4,0.9c-0.6,0.2-1.1,0.3-1.7,0.3
			c-0.6,0-1.2-0.1-1.7-0.3c-0.5-0.2-1-0.5-1.4-0.9c-0.4-0.4-0.7-0.8-0.9-1.3c-0.2-0.5-0.3-1.1-0.3-1.7v-8.1h1.8v8
			c0,0.7,0.2,1.4,0.7,1.9c0.5,0.5,1.1,0.7,1.8,0.7c0.7,0,1.3-0.2,1.8-0.7c0.5-0.5,0.7-1.2,0.7-1.9v-8h1.8v8.1
			C32.1,26.2,32,26.8,31.7,27.4z"/>
		<path class="st1" d="M38.3,24.7v5h-1.8v-5l-3.6-7.2h2l2.5,5.4l2.6-5.4h2L38.3,24.7z"/>
		<path class="st1" d="M17.4,44.7l-5.6-8.5v8.5H9.9V32.5h1.7l5.6,8.5v-8.5h1.8v12.1H17.4z"/>
		<path class="st1" d="M29.9,40.2c0,0.4,0,0.9-0.1,1.3c-0.1,0.4-0.2,0.7-0.3,1.1c-0.2,0.3-0.4,0.7-0.7,0.9c-0.4,0.4-0.9,0.8-1.4,1
			c-1.1,0.4-2.4,0.4-3.5,0c-0.5-0.2-1-0.6-1.4-1c-0.3-0.3-0.5-0.6-0.7-0.9c-0.2-0.3-0.3-0.7-0.4-1.1c-0.1-0.4-0.1-0.9-0.1-1.3
			c0-0.5,0-1,0-1.6s0-1.1,0-1.6c0-0.4,0-0.9,0.1-1.3c0.1-0.4,0.2-0.7,0.4-1.1c0.2-0.3,0.4-0.7,0.7-0.9c0.4-0.4,0.9-0.8,1.4-1
			c1.1-0.4,2.4-0.4,3.5,0c0.5,0.2,1,0.6,1.4,1c0.3,0.3,0.5,0.6,0.7,0.9c0.2,0.3,0.3,0.7,0.3,1.1c0.1,0.4,0.1,0.8,0.1,1.3
			c0,0.5,0,1,0,1.6S29.9,39.7,29.9,40.2z M28,37.1c0-0.3,0-0.7-0.1-1c0-0.2-0.1-0.5-0.2-0.7c-0.1-0.2-0.2-0.4-0.4-0.5
			c-0.2-0.2-0.5-0.4-0.8-0.5c-0.6-0.3-1.4-0.3-2,0c-0.3,0.1-0.6,0.3-0.8,0.5c-0.1,0.2-0.3,0.3-0.4,0.5c-0.1,0.2-0.2,0.5-0.2,0.7
			c-0.1,0.3-0.1,0.7-0.1,1c0,0.4,0,0.9,0,1.5c0,0.6,0,1.1,0,1.5c0,0.3,0,0.7,0.1,1c0,0.2,0.1,0.5,0.2,0.7c0.1,0.2,0.2,0.4,0.4,0.5
			c0.2,0.2,0.5,0.4,0.8,0.5c0.6,0.3,1.4,0.3,2,0c0.3-0.1,0.6-0.3,0.8-0.5c0.1-0.2,0.3-0.3,0.4-0.5c0.1-0.2,0.2-0.5,0.2-0.7
			c0.1-0.3,0.1-0.7,0.1-1c0-0.4,0-0.9,0-1.5S28,37.5,28,37.1z"/>
		<path class="st1" d="M41.7,44.7h-1.6l-2.5-8.5l-2.5,8.5h-1.6l-3.2-12.1h1.9l2.1,8.7l2.4-8.7h1.5l2.4,8.7l2.1-8.7h2L41.7,44.7z"/>
		<path class="st1" d="M0,30.3c0-7.9,3.1-15.6,8.7-21.2c2.8-2.8,6.1-5.1,9.7-6.6c11.3-4.8,24.4-2.4,33.1,6.2
			c5.8,5.7,9,13.5,9.1,21.6c0,8.1-3.3,15.9-9.1,21.6C39.6,63.6,20.4,63.4,8.7,51.5c0,0,0,0,0,0C3.1,45.8,0,38.2,0,30.3z M0,30.3
			c0,7.9,3.2,15.5,8.8,21c11.6,11.4,30.3,11.2,41.7-0.4C56,45.4,59,38,59,30.3c0-7.7-3-15.2-8.5-20.7C39.1-2,20.5-2.2,8.8,9.2
			c0,0,0,0,0,0C3.2,14.8,0.1,22.4,0,30.3z"/>
	</g>
</g>
</svg>
