<?xml version="1.0" standalone="no"?>
<!DOCTYPE svg PUBLIC "-//W3C//DTD SVG 20010904//EN"
 "http://www.w3.org/TR/2001/REC-SVG-20010904/DTD/svg10.dtd">
<svg version="1.0" xmlns="http://www.w3.org/2000/svg"
 width="100.000000pt" height="100.000000pt" viewBox="0 0 100.000000 100.000000"
 preserveAspectRatio="xMidYMid meet">
<metadata>
Created by potrace 1.14, written by Peter Selinger 2001-2017
</metadata>
<g transform="translate(0.000000,100.000000) scale(0.100000,-0.100000)"
fill="#000000" stroke="none">
<path d="M515 993 c-208 -36 -356 -191 -372 -390 -11 -121 52 -211 194 -279
122 -59 198 -55 223 10 18 48 2 66 -99 113 -133 61 -171 101 -165 172 11 126
119 225 252 230 69 2 161 -24 230 -67 l50 -30 53 65 c61 75 61 74 -40 119 -97
44 -250 70 -326 57z"/>
<path d="M490 720 c-30 -12 -59 -56 -55 -83 5 -30 22 -43 92 -72 177 -74 216
-148 146 -277 -78 -144 -270 -173 -446 -67 -26 16 -51 29 -55 29 -4 -1 -28
-28 -55 -62 -33 -43 -44 -64 -37 -73 17 -21 119 -66 193 -85 51 -13 100 -18
167 -16 87 1 103 5 172 38 122 58 208 163 237 289 36 156 -21 261 -186 340
-89 44 -134 54 -173 39z"/>
</g>
</svg>
