<?xml version="1.0" encoding="utf-8"?>
<!-- Generator: Adobe Illustrator 24.0.2, SVG Export Plug-In . SVG Version: 6.00 Build 0)  -->
<svg version="1.1" id="Layer_1" xmlns="http://www.w3.org/2000/svg" xmlns:xlink="http://www.w3.org/1999/xlink" x="0px" y="0px"
	 viewBox="0 0 131.3 231.9" style="enable-background:new 0 0 131.3 231.9;" xml:space="preserve">
<style type="text/css">
	.st0{fill:url(#SVGID_1_);}
	.st1{fill:#FCFCFC;}
	.st2{fill:url(#SVGID_2_);}
	.st3{fill:url(#SVGID_3_);}
	.st4{fill:url(#SVGID_4_);}
	.st5{fill:url(#SVGID_5_);}
</style>
<title>Asset 5@3x1</title>
<g>
	<linearGradient id="SVGID_1_" gradientUnits="userSpaceOnUse" x1="65.65" y1="126.3506" x2="65.65" y2="215.6301">
		<stop  offset="9.089410e-02" style="stop-color:#EBEBEB"/>
		<stop  offset="0.968" style="stop-color:#B3B3B3"/>
	</linearGradient>
	<path class="st0" d="M126.8,218.4v-84.2h-14.3v-15.3H18.8v15.3H4.5v84.2c0,5.3,4.3,9.6,9.6,9.6h103
		C122.5,228.1,126.8,223.8,126.8,218.4z"/>
	<path class="st1" d="M126.8,13.4v84.2h-14.3V113H18.8V97.7H4.5V13.4c0-5.3,4.3-9.6,9.6-9.6h103C122.5,3.8,126.8,8.1,126.8,13.4z"/>
	<linearGradient id="SVGID_2_" gradientUnits="userSpaceOnUse" x1="65.65" y1="4.308" x2="65.65" y2="112.142">
		<stop  offset="3.197820e-02" style="stop-color:#F2F2F2"/>
		<stop  offset="0.9091" style="stop-color:#DEDEDE"/>
	</linearGradient>
	<path class="st2" d="M126.8,14.9v84.2h-14.3v15.3H18.8V99.2H4.5V14.9c0-5.3,4.3-9.6,9.6-9.6h103C122.5,5.3,126.8,9.6,126.8,14.9z"
		/>
	<linearGradient id="SVGID_3_" gradientUnits="userSpaceOnUse" x1="65.65" y1="124.8661" x2="65.65" y2="214.1455">
		<stop  offset="9.089410e-02" style="stop-color:#EBEBEB"/>
		<stop  offset="0.968" style="stop-color:#F2F2F2"/>
	</linearGradient>
	<path class="st3" d="M126.8,216.9v-84.2h-14.3v-15.3H18.8v15.3H4.5v84.2c0,5.3,4.3,9.6,9.6,9.6h103
		C122.5,226.6,126.8,222.3,126.8,216.9z"/>
</g>
<linearGradient id="SVGID_4_" gradientUnits="userSpaceOnUse" x1="10.8496" y1="100.0831" x2="10.8496" y2="129.9718">
	<stop  offset="6.586710e-02" style="stop-color:#D9D9D9"/>
	<stop  offset="0.2443" style="stop-color:#F5F5F5"/>
	<stop  offset="0.2994" style="stop-color:#FFFFFF"/>
	<stop  offset="0.3358" style="stop-color:#ECECEC"/>
	<stop  offset="0.4127" style="stop-color:#C9C9C9"/>
	<stop  offset="0.4853" style="stop-color:#B0B0B0"/>
	<stop  offset="0.5514" style="stop-color:#A1A1A1"/>
	<stop  offset="0.6048" style="stop-color:#9C9C9C"/>
	<stop  offset="0.8383" style="stop-color:#FFFFFF"/>
	<stop  offset="0.8576" style="stop-color:#ECECEC"/>
	<stop  offset="0.8983" style="stop-color:#C9C9C9"/>
	<stop  offset="0.9368" style="stop-color:#B0B0B0"/>
	<stop  offset="0.9717" style="stop-color:#A1A1A1"/>
	<stop  offset="1" style="stop-color:#9C9C9C"/>
</linearGradient>
<rect x="4.5" y="100.6" class="st4" width="12.7" height="30.6"/>
<linearGradient id="SVGID_5_" gradientUnits="userSpaceOnUse" x1="120.4504" y1="100.0831" x2="120.4504" y2="129.9718">
	<stop  offset="6.586710e-02" style="stop-color:#D9D9D9"/>
	<stop  offset="0.2443" style="stop-color:#F5F5F5"/>
	<stop  offset="0.2994" style="stop-color:#FFFFFF"/>
	<stop  offset="0.3358" style="stop-color:#ECECEC"/>
	<stop  offset="0.4127" style="stop-color:#C9C9C9"/>
	<stop  offset="0.4853" style="stop-color:#B0B0B0"/>
	<stop  offset="0.5514" style="stop-color:#A1A1A1"/>
	<stop  offset="0.6048" style="stop-color:#9C9C9C"/>
	<stop  offset="0.8383" style="stop-color:#FFFFFF"/>
	<stop  offset="0.8576" style="stop-color:#ECECEC"/>
	<stop  offset="0.8983" style="stop-color:#C9C9C9"/>
	<stop  offset="0.9368" style="stop-color:#B0B0B0"/>
	<stop  offset="0.9717" style="stop-color:#A1A1A1"/>
	<stop  offset="1" style="stop-color:#9C9C9C"/>
</linearGradient>
<rect x="114.1" y="100.6" class="st5" width="12.7" height="30.6"/>
</svg>
