<svg id="Layer_1" data-name="Layer 1" xmlns="http://www.w3.org/2000/svg" viewBox="0 0 91.59 90.14"><defs><style>.cls-1{fill:#fff;}</style></defs><title>Artboard 11 copy@4x1</title><path class="cls-1" d="M47.74,64.52H70.07c1.25,0,1.26,0,1.25,1.26,0,2.89-.09,5.78-.11,8.68,0,.8.06,1.61.12,2.42,0,.63-.22.89-.86.87-.89,0-1.79,0-2.68,0H25.47c-1.31,0-1.31,0-1.31-1.29,0-3.56,0-7.12-.05-10.68,0-1.16.1-1.27,1.3-1.27H47.74Z"/><path class="cls-1" d="M47.24,37.07c-.76-.3-1.49-.55-2.18-.87a12.44,12.44,0,0,1,.1-22.79,18.23,18.23,0,0,1,4.87-1A2.67,2.67,0,0,1,52.85,15a2.78,2.78,0,0,1-2.68,2.76c-3.28.18-5.66,1.67-6.71,4.82a6.85,6.85,0,0,0,4.25,8.86,14.68,14.68,0,0,0,3.83.51c1.33.08,2.67,0,4,0a2.65,2.65,0,1,1,.13,5.3A3.87,3.87,0,1,0,55.89,45c4.18,0,8.35.1,12.52,0a9.24,9.24,0,0,1,8.91,6.21,11.46,11.46,0,0,1,.34,6.33,2.52,2.52,0,0,1-2.71,2,2.68,2.68,0,0,1-2.49-2.28,13.49,13.49,0,0,1-.08-2.77,3.92,3.92,0,0,0-4.12-4.13c-4.35,0-8.7,0-13,0a9.36,9.36,0,0,1-8.67-6.79A9.72,9.72,0,0,1,47.24,37.07Z"/><path class="cls-1" d="M71.6,37.16h1.28c2.26,0,4.52,0,6.78,0,4,.06,8.06,3.52,8.36,7.54s.26,8,.26,12.06a2.7,2.7,0,0,1-2.83,2.69,2.77,2.77,0,0,1-2.63-2.9c0-3.34-.09-6.67,0-10a4,4,0,0,0-4.16-4.11c-5.59,0-11.19,0-16.78,0a2.54,2.54,0,0,1-2.62-1.84,2.63,2.63,0,0,1,2.51-3.47,6.07,6.07,0,0,0,5.16-3,5.91,5.91,0,0,0-3.2-8.51,10.14,10.14,0,0,0-2.12-.38,2.76,2.76,0,0,1-2.53-2.63,2.71,2.71,0,0,1,2.52-2.7A11.33,11.33,0,0,1,73,29.34a12.06,12.06,0,0,1-1.11,7.06C71.78,36.6,71.72,36.82,71.6,37.16Z"/><path class="cls-1" d="M11.21,77.75c-3.18,0-6.37,0-9.56,0-.73,0-1-.18-1-1,0-3.7,0-7.41,0-11.12,0-1.09.06-1.14,1.13-1.14,6.31,0,12.62,0,18.94,0,.8,0,1,.27,1,1.06,0,3.73,0,7.47,0,11.2,0,.77-.26,1-1,1C17.58,77.73,14.4,77.75,11.21,77.75Z"/><path class="cls-1" d="M88,71.07c0-1.88,0-3.77,0-5.65,0-.68.25-.92.92-.91,2.23,0,2-.19,2,1.91q0,5.08,0,10.16c0,1.11-.05,1.17-1.1,1.16-2.06,0-1.8.16-1.81-1.81C88,74.31,88,72.69,88,71.07Z"/><path class="cls-1" d="M84.37,71.13c0,1.88,0,3.76,0,5.64,0,.78-.28,1-1,1-2.06-.05-1.91.2-1.91-1.93,0-3.36,0-6.71,0-10.07,0-1.19.05-1.24,1.21-1.24,1.91,0,1.69-.13,1.7,1.65S84.37,69.47,84.37,71.13Z"/><path class="cls-1" d="M77.89,66.88c0,3.25,0,6.51,0,9.77,0,.81-.24,1.13-1.1,1.11C75,77.73,75,77.77,75,76c0-3.47,0-6.93,0-10.4,0-.83.26-1.11,1.1-1.1,1.82,0,1.82,0,1.82,1.77Z"/></svg>