<svg id="Layer_1" data-name="Layer 1" xmlns="http://www.w3.org/2000/svg" viewBox="0 0 91.59 90.14"><defs><style>.cls-1{fill:#416b9c;}</style></defs><title>Artboard 11 copy 2@4x1</title><g id="ZwQJkP"><path class="cls-1" d="M77.12,55.12a10.17,10.17,0,0,1-6.47,8.07,10.05,10.05,0,0,1-10.18-1.47c0,.53.06,1,.11,1.49.09.81.15,1.61.29,2.41s.33,1.45.5,2.17L62.42,72c.08.32.18.63.26.94A1,1,0,0,1,62,74a1,1,0,0,1-1.12-.49,9,9,0,0,1-.33-1.08c-.27-1.08-.55-2.17-.81-3.26s-.54-2.28-.79-3.43a6,6,0,0,1-.15-1,.41.41,0,0,0-.37-.41,18,18,0,0,1-5.9-2.46c-1-.67-2-1.47-3-2.24-.34-.27-.68-.17-1-.16-.93,0-1.86.12-2.79.1-1.55,0-3.09-.1-4.64-.22C40,59.34,39,59.18,38,59s-2-.33-3-.57c-1.55-.38-3.1-.78-4.61-1.26q-2.49-.81-4.92-1.79A52,52,0,0,1,19,52.19a58.39,58.39,0,0,1-6.14-4C11.38,47.09,10,46,8.61,44.81c-.82-.68-1.62-1.39-2.38-2.14-1.37-1.35-2.71-2.73-4-4.11a1,1,0,0,1,.07-1.48,76.31,76.31,0,0,1,6.38-6.21,67.91,67.91,0,0,1,8.85-6.52A54.91,54.91,0,0,1,23.82,21c1.69-.75,3.41-1.41,5.14-2,1.36-.48,2.75-.87,4.14-1.26.78-.22,1.58-.34,2.38-.5s1.86-.38,2.79-.53c.72-.12,1.46-.16,2.19-.26a45,45,0,0,1,7.06-.29c1.07,0,2.14.11,3.2.21s2,.2,3,.38c1.6.29,3.21.56,4.77,1,2,.56,4.05,1.21,6,1.92a47.28,47.28,0,0,1,6.15,2.79A58.49,58.49,0,0,1,78.08,27c1.67,1.24,3.29,2.54,4.89,3.88A72.17,72.17,0,0,1,89.32,37a1.18,1.18,0,0,1,0,1.71c-1.71,1.66-3.37,3.37-5.09,5a1.66,1.66,0,0,0-.69,1.38,11.65,11.65,0,0,1-.17,2.2c-.14.88-.34,1.75-.55,2.62a16.49,16.49,0,0,1-1.32,3.57c-.4.76-.83,1.51-1.28,2.25a.57.57,0,0,0,0,.65,24.3,24.3,0,0,1,1.92,4.73l1.32,4.66a1.21,1.21,0,0,1-.05,1.08,1,1,0,0,1-1,.43,1,1,0,0,1-.77-.74c-.31-1.07-.6-2.14-.88-3.21a26.23,26.23,0,0,0-3.34-7.92C77.31,55.35,77.23,55.26,77.12,55.12ZM60.36,24.43l-.09-.11a19.32,19.32,0,0,0-8.21-5.27,17.27,17.27,0,0,0-4.71-.93,18,18,0,0,0-4.46.16,25.13,25.13,0,0,0-2.47.51A20,20,0,0,0,29,27.36,17.79,17.79,0,0,0,27,31.78a28.48,28.48,0,0,0-.8,3.55,21.54,21.54,0,0,0-.09,4.25,1.74,1.74,0,0,1,0,.32,1,1,0,0,1-1,.82.93.93,0,0,1-.92-.83c-.05-.83-.13-1.66-.11-2.49a19.92,19.92,0,0,1,.23-2.78A21.26,21.26,0,0,1,25,31.7a26.47,26.47,0,0,1,1.1-3,20.29,20.29,0,0,1,2.62-4.29,21,21,0,0,1,3.78-3.75c.53-.41,1.08-.8,1.62-1.19-1.19.28-2.38.6-3.54,1s-2.36.77-3.5,1.25c-1.64.7-3.27,1.45-4.87,2.25a54.62,54.62,0,0,0-7,4.25,58.36,58.36,0,0,0-6,4.83C7.53,34.55,6,36.12,4.41,37.65c-.14.13-.19.24,0,.4,1.3,1.29,2.56,2.62,3.91,3.86s2.71,2.38,4.13,3.48,3.09,2.29,4.69,3.35a52.78,52.78,0,0,0,6,3.45,52.57,52.57,0,0,0,6.25,2.62c1,.33,1.92.64,2.89.94.53.16,1.07.27,1.61.41a.11.11,0,0,0-.08-.12c-.78-.6-1.6-1.17-2.35-1.82a22.23,22.23,0,0,1-1.88-1.88,1,1,0,0,1,0-1.17A.93.93,0,0,1,31,51.08c.38.37.74.76,1.12,1.13a17.86,17.86,0,0,0,4.91,3.43,26.83,26.83,0,0,0,3.12,1.21,15.6,15.6,0,0,0,3,.65c1.21.13,2.44.09,3.66.12.2,0,.4,0,.64,0-.42-.57-.8-1.09-1.17-1.62a19.88,19.88,0,0,1-2.63-5.52,20.83,20.83,0,0,1-.79-4.15.4.4,0,0,0-.28-.38,8.83,8.83,0,0,1-3.74-2.85,8.47,8.47,0,0,1-1.75-4.85,11.67,11.67,0,0,1,.18-2.12,1.05,1.05,0,0,1,1.39-1A4.44,4.44,0,0,0,40.87,35a4.19,4.19,0,0,0,2.8-3.8c0-.31,0-.63,0-.94a.9.9,0,0,1,.75-.95,8.13,8.13,0,0,1,1.09-.14,7.82,7.82,0,0,1,3.11.5.76.76,0,0,0,1-.2,2.6,2.6,0,0,1,.43-.38,19.74,19.74,0,0,1,4.48-2.87A17.35,17.35,0,0,1,58,25Zm-1.87,38c0-.52,0-1,0-1.51,0-.26-.07-.36-.32-.46a25,25,0,0,1-2.52-1,16.16,16.16,0,0,1-5.37-4.34,16.34,16.34,0,0,1-3.14-6.22,15.93,15.93,0,0,1,.08-8.74A16.63,16.63,0,0,1,53.72,31a15.84,15.84,0,0,1,4.42-2.18,14.29,14.29,0,0,1,4-.75c1,0,2,0,2.95.07a1,1,0,0,1,1,1.12,1,1,0,0,1-.75.79,6.3,6.3,0,0,1-.87,0,12.93,12.93,0,0,0-3.29.1A14.64,14.64,0,0,0,48.58,43.64a12.63,12.63,0,0,0,.21,3.58,19.94,19.94,0,0,0,.91,3,13.54,13.54,0,0,0,3.24,4.81,14.64,14.64,0,0,0,4.49,3c.39.16.8.3,1.16.43.23-1,.43-2,.66-2.94a13.33,13.33,0,0,1,2-4.4,8.66,8.66,0,0,1,5.72-3.86,8.23,8.23,0,0,1,4.31.4,12.6,12.6,0,0,1,4.24,2.56c.27.24.55.47.8.7l.07,0a13.49,13.49,0,0,0,1.21-3.63A13.23,13.23,0,0,0,77.79,44a6.53,6.53,0,0,0-.08-1,1.08,1.08,0,0,1,.65-1.2.94.94,0,0,1,1.21.57,4.68,4.68,0,0,1,.18,1.12,17.1,17.1,0,0,1-.55,5.42,16.76,16.76,0,0,1-1.34,3.38.38.38,0,0,0,0,.5c.26.31.48.66.72,1l.27.31a18.36,18.36,0,1,0-20.4,8.27ZM68,49.16a5.25,5.25,0,0,0-2.48.7,8.7,8.7,0,0,0-3.86,4.74,15.07,15.07,0,0,0-1,4.24.62.62,0,0,0,.13.42A7.68,7.68,0,0,0,62.94,61a8.36,8.36,0,0,0,10.47-2.15,7.92,7.92,0,0,0,1.49-2.88,9.15,9.15,0,0,0,.27-1.46,9.62,9.62,0,0,0,0-1.52.91.91,0,0,0-.31-.54,11.63,11.63,0,0,0-2.55-2A8.37,8.37,0,0,0,68,49.16Zm15.41-7.35a1,1,0,0,0,.21-.13L87.27,38c.15-.15.1-.25,0-.38L86,36.39a64.5,64.5,0,0,0-6.5-5.87c-1.49-1.17-3-2.28-4.61-3.35-1.25-.85-2.55-1.65-3.88-2.38-1.49-.82-3-1.59-4.57-2.29-1.35-.61-2.75-1.11-4.15-1.63-.91-.34-1.85-.61-2.79-.91-.31-.09-.62-.16-.94-.24l-.92-.24a.38.38,0,0,0,.14.16,22.27,22.27,0,0,1,4.93,4.46.66.66,0,0,0,.42.16c.86.07,1.72.09,2.58.18a20,20,0,0,1,3.32.7A19.52,19.52,0,0,1,73.44,27a20.05,20.05,0,0,1,6.94,6.7,19.7,19.7,0,0,1,2.9,7.78A1.82,1.82,0,0,0,83.38,41.81ZM47.67,31.42a4.2,4.2,0,0,0-1.82-.25c-.07,0-.2.15-.2.24a6.06,6.06,0,0,1-.83,2.66,5.85,5.85,0,0,1-3.55,2.82,14.42,14.42,0,0,1-1.84.31c-.15,0-.31,0-.3.2a12.1,12.1,0,0,0,.12,1.91,6.32,6.32,0,0,0,1.67,3.15,6.43,6.43,0,0,0,1.93,1.43A20.41,20.41,0,0,1,47.67,31.42Z"/><path class="cls-1" d="M28.32,47.39a1,1,0,0,1-.76,1,.91.91,0,0,1-1-.45c-.37-.79-.7-1.6-1-2.41a1.79,1.79,0,0,1-.16-.44A1,1,0,0,1,26,44a1,1,0,0,1,.62,0,2,2,0,0,1,.61.67c.36.72.66,1.47,1,2.21A3.9,3.9,0,0,1,28.32,47.39Z"/><path class="cls-1" d="M75.53,36.2a3.49,3.49,0,0,1-.67-.43c-.76-.76-1.5-1.55-2.25-2.32-.17-.17-.38-.31-.57-.47a1,1,0,0,1-.15-1.35.92.92,0,0,1,1.32-.2c.77.65,1.51,1.34,2.24,2a10.93,10.93,0,0,1,.93,1.11,1,1,0,0,1-.8,1.54Z"/></g></svg>