<svg xmlns="http://www.w3.org/2000/svg" viewBox="0 0 152.06 100.46"><defs><style>.cls-1{fill:#fff;}</style></defs><title>Asset 1@3x2</title><g id="Layer_2" data-name="Layer 2"><g id="Layer_1-2" data-name="Layer 1"><g id="ZwQJkP"><path class="cls-1" d="M130.29,67.64c-1.29,6.74-5,11.5-11.2,14s-12.17,1.48-17.63-2.54c.06.91.1,1.75.18,2.58.15,1.39.27,2.79.51,4.17s.56,2.51.87,3.76c.6,2.45,1.2,4.89,1.82,7.33.13.55.29,1.08.43,1.62a1.76,1.76,0,0,1-1.24,1.85,1.66,1.66,0,0,1-1.94-.85,14.92,14.92,0,0,1-.56-1.87c-.48-1.88-1-3.76-1.42-5.65s-.92-4-1.37-6a10.28,10.28,0,0,1-.25-1.65.7.7,0,0,0-.64-.72,31.3,31.3,0,0,1-10.22-4.27c-1.8-1.16-3.46-2.54-5.14-3.87-.57-.46-1.17-.29-1.76-.28-1.61,0-3.22.21-4.83.17-2.68,0-5.36-.18-8-.37-1.8-.13-3.6-.4-5.39-.68s-3.51-.58-5.22-1c-2.68-.66-5.36-1.33-8-2.18-2.87-.92-5.71-2-8.52-3.1a90.83,90.83,0,0,1-11.23-5.56,102.22,102.22,0,0,1-10.63-7c-2.47-1.87-4.87-3.84-7.26-5.82C10.2,48.6,8.82,47.37,7.5,46.07,5.13,43.74,2.81,41.35.49,39a1.77,1.77,0,0,1,.13-2.57A132.15,132.15,0,0,1,11.68,25.63,116.75,116.75,0,0,1,27,14.35,93.72,93.72,0,0,1,38,8.49C40.89,7.2,43.87,6,46.87,5c2.35-.85,4.76-1.52,7.17-2.19,1.35-.37,2.74-.59,4.12-.87C59.77,1.58,61.38,1.25,63,1,64.25.78,65.52.7,66.78.54A79.4,79.4,0,0,1,79,0c1.86,0,3.71.18,5.56.35s3.5.36,5.22.67c2.77.5,5.56,1,8.27,1.72,3.52,1,7,2.09,10.45,3.33a80.87,80.87,0,0,1,10.65,4.83,99.61,99.61,0,0,1,12.79,8c2.9,2.15,5.71,4.41,8.47,6.72a125.78,125.78,0,0,1,11,10.65,2,2,0,0,1,0,3c-3,2.87-5.85,5.84-8.82,8.71a2.91,2.91,0,0,0-1.2,2.39,18.77,18.77,0,0,1-.29,3.81c-.24,1.52-.59,3-1,4.53a27.22,27.22,0,0,1-2.28,6.19c-.69,1.32-1.44,2.62-2.22,3.9a1,1,0,0,0,0,1.13,41.81,41.81,0,0,1,3.31,8.19q1.15,4,2.29,8.07a2.08,2.08,0,0,1-.09,1.88,1.66,1.66,0,0,1-1.75.73A1.62,1.62,0,0,1,138,87.47q-.79-2.77-1.52-5.56a45.3,45.3,0,0,0-5.78-13.71C130.62,68,130.48,67.89,130.29,67.64Zm-29-53.16-.15-.2A33.85,33.85,0,0,0,86.89,5.16a30.93,30.93,0,0,0-8.16-1.62A32.35,32.35,0,0,0,71,3.83c-1.42.28-2.88.47-4.27.88A34.53,34.53,0,0,0,47,19.56a30.89,30.89,0,0,0-3.56,7.64A45.05,45.05,0,0,0,42,33.37a36.8,36.8,0,0,0-.17,7.35,3.49,3.49,0,0,1,0,.56,1.72,1.72,0,0,1-1.7,1.41,1.62,1.62,0,0,1-1.61-1.43c-.08-1.44-.21-2.88-.18-4.31a35.06,35.06,0,0,1,.39-4.81,37.85,37.85,0,0,1,1.16-5.06,44.64,44.64,0,0,1,1.91-5.14,33.86,33.86,0,0,1,4.54-7.43A36.31,36.31,0,0,1,52.91,8c.93-.71,1.88-1.38,2.82-2.07-2.08.49-4.13,1-6.14,1.7S45.5,9,43.53,9.81q-4.28,1.81-8.43,3.89A93.06,93.06,0,0,0,23,21.06a99.35,99.35,0,0,0-10.46,8.37c-2.8,2.59-5.48,5.3-8.21,8-.24.23-.33.42,0,.69,2.26,2.24,4.44,4.55,6.78,6.69s4.69,4.13,7.16,6c2.63,2,5.35,4,8.11,5.81a91.19,91.19,0,0,0,10.45,6,92.52,92.52,0,0,0,10.83,4.55c1.65.57,3.33,1.11,5,1.62.92.28,1.86.48,2.78.72,0-.15-.06-.17-.12-.22-1.37-1-2.79-2-4.08-3.14A40,40,0,0,1,48,62.83a1.7,1.7,0,0,1,0-2,1.63,1.63,0,0,1,2.51-.15c.65.63,1.28,1.31,1.94,1.94a30.73,30.73,0,0,0,8.49,5.94,42.5,42.5,0,0,0,5.42,2.11,27.23,27.23,0,0,0,5.18,1.13c2.1.23,4.23.15,6.35.2H79c-.71-1-1.38-1.89-2-2.81a34.08,34.08,0,0,1-4.57-9.56A36,36,0,0,1,71,52.41a.65.65,0,0,0-.48-.65,15.25,15.25,0,0,1-6.48-4.93,14.73,14.73,0,0,1-3-8.41,19.77,19.77,0,0,1,.31-3.67A1.83,1.83,0,0,1,63.74,33a7.55,7.55,0,0,0,3.77-.26,7.24,7.24,0,0,0,4.83-6.58c0-.54,0-1.08,0-1.63a1.56,1.56,0,0,1,1.31-1.64,12,12,0,0,1,1.89-.23,13.55,13.55,0,0,1,5.39.85,1.29,1.29,0,0,0,1.73-.34,5.44,5.44,0,0,1,.76-.67,34.13,34.13,0,0,1,7.76-5,29.68,29.68,0,0,1,6-2.16ZM98,80.23c0-.9,0-1.76,0-2.61,0-.45-.13-.63-.56-.79a41.19,41.19,0,0,1-4.35-1.76,28,28,0,0,1-9.32-7.52,28.3,28.3,0,0,1-5.43-10.76,29.2,29.2,0,0,1-1-6.29,28.81,28.81,0,0,1,20-28.39,24.45,24.45,0,0,1,6.92-1.28c1.7,0,3.41.06,5.11.12a1.71,1.71,0,0,1,1.65,1.93,1.66,1.66,0,0,1-1.3,1.37,11,11,0,0,1-1.52,0,21.77,21.77,0,0,0-5.7.17A25.36,25.36,0,0,0,80.86,47.75,21.2,21.2,0,0,0,81.23,54a34.27,34.27,0,0,0,1.56,5.24,23.42,23.42,0,0,0,5.62,8.35,25.34,25.34,0,0,0,7.78,5.2c.68.29,1.37.51,2,.75.39-1.75.74-3.43,1.15-5.1a22.76,22.76,0,0,1,3.41-7.62,15,15,0,0,1,9.9-6.69,14.41,14.41,0,0,1,7.47.7,22.15,22.15,0,0,1,7.34,4.43c.47.42.94.82,1.39,1.21.09,0,.12,0,.12-.07a23.65,23.65,0,0,0,2.1-6.29,23.24,23.24,0,0,0,.37-5.65,12.59,12.59,0,0,0-.13-1.73,1.83,1.83,0,0,1,1.13-2.07,1.61,1.61,0,0,1,2.09,1,7.26,7.26,0,0,1,.3,1.92,28.89,28.89,0,0,1-1,9.39,29.39,29.39,0,0,1-2.32,5.87.66.66,0,0,0,.07.85c.46.54.84,1.14,1.26,1.72.13.18.29.36.45.55A31.81,31.81,0,1,0,98,80.23Zm16.41-22.9a9.19,9.19,0,0,0-4.3,1.2c-3.35,1.82-5.31,4.79-6.68,8.22a25.6,25.6,0,0,0-1.72,7.33,1.08,1.08,0,0,0,.22.74,13.54,13.54,0,0,0,3.77,3,14.46,14.46,0,0,0,18.13-3.73,13.59,13.59,0,0,0,2.58-5,15.47,15.47,0,0,0,.48-2.53,16.38,16.38,0,0,0,.06-2.62,1.73,1.73,0,0,0-.52-.95,20,20,0,0,0-4.43-3.5A14.31,14.31,0,0,0,114.44,57.33Zm26.7-12.74a2.25,2.25,0,0,0,.37-.23l6.37-6.31c.25-.25.17-.43,0-.65-.73-.73-1.44-1.47-2.15-2.2A113.17,113.17,0,0,0,134.41,25c-2.58-2-5.26-3.94-8-5.79q-3.27-2.22-6.73-4.13c-2.58-1.42-5.23-2.74-7.92-3.95-2.34-1.06-4.76-1.94-7.18-2.83-1.59-.59-3.22-1.07-4.84-1.58-.53-.16-1.08-.28-1.62-.42l-1.6-.41a.51.51,0,0,0,.25.27,39,39,0,0,1,8.54,7.73,1.14,1.14,0,0,0,.72.28c1.49.12,3,.15,4.47.31a33.33,33.33,0,0,1,5.74,1.22A32.73,32.73,0,0,1,123.92,19a34.79,34.79,0,0,1,12,11.6,34,34,0,0,1,5,13.49A4.76,4.76,0,0,0,141.14,44.59Zm-61.86-18a7.32,7.32,0,0,0-3.15-.44c-.13,0-.34.27-.35.42a10.72,10.72,0,0,1-1.43,4.62,10.22,10.22,0,0,1-6.16,4.88A25.88,25.88,0,0,1,65,36.6c-.25,0-.53,0-.51.35a19.06,19.06,0,0,0,.2,3.3,11.07,11.07,0,0,0,2.89,5.47,11.26,11.26,0,0,0,3.34,2.46A35.48,35.48,0,0,1,79.28,26.59Z"/><path class="cls-1" d="M45.76,54.26a1.75,1.75,0,0,1-1.32,1.65,1.59,1.59,0,0,1-1.82-.77c-.63-1.37-1.2-2.78-1.79-4.17a3.46,3.46,0,0,1-.29-.77,1.76,1.76,0,0,1,1.19-1.82,1.6,1.6,0,0,1,1.07.09,3.24,3.24,0,0,1,1.05,1.16c.62,1.25,1.15,2.54,1.7,3.83A5.22,5.22,0,0,1,45.76,54.26Z"/><path class="cls-1" d="M127.54,34.87a6.29,6.29,0,0,1-1.17-.74c-1.32-1.32-2.59-2.69-3.89-4-.3-.31-.67-.54-1-.82a1.76,1.76,0,0,1-.26-2.33,1.58,1.58,0,0,1,2.29-.35c1.34,1.11,2.62,2.31,3.87,3.53A16.72,16.72,0,0,1,129,32.07a1.55,1.55,0,0,1,.1,1.84,1.5,1.5,0,0,1-1.49.81Z"/></g></g></g></svg>