<svg id="Layer_1" data-name="Layer 1" xmlns="http://www.w3.org/2000/svg" viewBox="0 0 91.59 90.14"><defs><style>.cls-1{fill:#fff;}</style></defs><title>Artboard 11 copy 3@4x1</title><path class="cls-1" d="M89.63,55.32q-1.34-2-2.84-3.84c-.74-.93-1.61-1.77-2.4-2.66a70.59,70.59,0,0,0-8.67-8.18,59.2,59.2,0,0,0-11.28-7.21,44.18,44.18,0,0,0-9.84-3.49A32.73,32.73,0,0,0,51,29.32a1.46,1.46,0,0,0-1.57,1.33,1.62,1.62,0,0,0,1.24,1.9c1.08.22,2.17.36,3.22.64a42.37,42.37,0,0,1,5.49,1.64,74.78,74.78,0,0,1,7.09,3.45,52.55,52.55,0,0,1,9,6.38,75.58,75.58,0,0,1,7.82,7.78c1,1.19,2,2.43,3,3.65a5.48,5.48,0,0,1-.35.51C84.4,58.29,83,60,81.52,61.66a61.11,61.11,0,0,1-10.24,9.17C69.18,72.31,67,73.67,64.76,75a34.15,34.15,0,0,1-7,3,40.72,40.72,0,0,1-4,1.1,41.18,41.18,0,0,1-5.72.88,56.25,56.25,0,0,1-5.8-.16,28.35,28.35,0,0,1-6-1.08,42.48,42.48,0,0,1-7.65-2.88,59.5,59.5,0,0,1-13.71-9.43,73.71,73.71,0,0,1-9.07-9.79c-.19-.25-.45-.44-.14-.82.64-.75,1.24-1.53,1.87-2.29l.06-.07c.34-.41.68-.81,1-1.18.12-.14.24-.29.37-.42.54-.61,1.1-1.2,1.64-1.8,1.65-1.74,3-3,3.89-3.77,0,0,0,0,0,0,2.07-1.73,4.11-3.5,6.26-5.13A45,45,0,0,1,31.32,35.2a53.9,53.9,0,0,1,5.85-1.89c1.54-.4,3.13-.58,4.7-.85a1.71,1.71,0,0,0,1.42-1.75,1.69,1.69,0,0,0-2-1.52,19.65,19.65,0,0,0-2.3.36c-1.79.4-3.61.73-5.34,1.3a63.44,63.44,0,0,0-5.95,2.36,43.21,43.21,0,0,0-8.46,5,84.3,84.3,0,0,0-7,5.64c-.9.84-1.78,1.71-2.64,2.6a57.38,57.38,0,0,0-4.39,4.67c-.16.19-.31.36-.45.54h0l-.42.5a.49.49,0,0,0-.15.19c-.81,1-1.29,1.68-1.34,1.75h0A13.41,13.41,0,0,0,2,55.32,1.54,1.54,0,0,0,2,57.08c1,1.29,1.88,2.59,2.91,3.81a78.34,78.34,0,0,0,10.6,10.48,60.69,60.69,0,0,0,9.58,6.46A42.07,42.07,0,0,0,35.55,82a53.15,53.15,0,0,0,7.07,1.26,37,37,0,0,0,9.28-.32,44.87,44.87,0,0,0,8.27-2.21,54,54,0,0,0,12.16-6.52,71.73,71.73,0,0,0,10.14-8.68,68.12,68.12,0,0,0,7.1-8.43A1.52,1.52,0,0,0,89.63,55.32Z"/><path class="cls-1" d="M30.77,15.41a3.38,3.38,0,0,0,.05.78,4.66,4.66,0,0,0,4.65,3.66c1.1,0,2.21,0,3.31,0,1.54,0,1.37-.22,1.33,1.32A4.59,4.59,0,0,0,44,25.91c.64.13.68.39.68.9,0,4.85,0,9.69,0,14.54s0,9.74,0,14.6a2.58,2.58,0,0,0,.21,1,1.59,1.59,0,0,0,1.86.74A1.65,1.65,0,0,0,48,56.13c0-1.9,0-3.81,0-5.71,0-5,0-10,0-15q0-4.39,0-8.77c0-.43.09-.61.57-.7a4.69,4.69,0,0,0,3.19-2,5.07,5.07,0,0,0,.79-3.26c0-.59.14-.82.77-.8,1.38.05,2.76,0,4.14,0a2.88,2.88,0,0,0,.72-.06,4.73,4.73,0,0,0,3.75-5c0-1.14,0-2.29,0-3.43a4.61,4.61,0,0,0-4.64-4.65H35.32a4.58,4.58,0,0,0-4.56,4.53C30.79,12.65,30.76,14,30.77,15.41Zm16.3,7.21c-.74,0-1.48,0-2.22,0-.94,0-1.35-.43-1.35-1.35,0-1.66-.17-1.39,1.39-1.42h1.43c.78,0,1.56,0,2.34,0,.35,0,.53.13.5.49v.12C49.22,22.33,48.94,22.62,47.07,22.62ZM34.13,11.51c0-1.07.34-1.41,1.4-1.41H57c1.09,0,1.5.4,1.5,1.48s0,2.16,0,3.24c0,1.28-.38,1.67-1.63,1.67-2.43,0-4.85,0-7.27,0q-6.84,0-13.68,0h-.6a1.11,1.11,0,0,1-1.22-1.24C34.12,14,34.12,12.75,34.13,11.51Z"/><path class="cls-1" d="M42.6,37.19c-.72-.53-1.42-.27-2.17,0a19.07,19.07,0,0,0-7.83,4.6,20,20,0,0,0-6.2,14.85c.05.49.16,1.42.25,2.35a17,17,0,0,0,1.69,5.71,19.87,19.87,0,0,0,14.29,11,18.49,18.49,0,0,0,5.85.22,21.62,21.62,0,0,0,6.15-1.71,19.68,19.68,0,0,0,9.31-8.91,19.48,19.48,0,0,0,2-12.2,19.26,19.26,0,0,0-2.82-7.51,20,20,0,0,0-11.63-8.66,2,2,0,0,0-1.17.08,1.53,1.53,0,0,0-1,1.8,1.62,1.62,0,0,0,1.22,1.32,16.47,16.47,0,0,1,6.9,3.81,16.26,16.26,0,0,1,5.26,10.65,15.57,15.57,0,0,1-2.2,9.94,16.06,16.06,0,0,1-15.3,8.09,15.2,15.2,0,0,1-6.74-1.87A16.19,16.19,0,0,1,30,59.06a16.55,16.55,0,0,1,3-12.82,16.61,16.61,0,0,1,9.1-6.15,1.55,1.55,0,0,0,1.14-1.34A1.53,1.53,0,0,0,42.6,37.19Z"/><path class="cls-1" d="M59.43,57c.78-.22,1.18-.89,1.17-2l.15,0c-.3-1.26-.51-2.54-.93-3.76a11.26,11.26,0,0,0-4.39-5.69,2,2,0,0,0-1.28-.26,1.59,1.59,0,0,0-1.32,1.46,1.75,1.75,0,0,0,.86,1.61,8.94,8.94,0,0,1,3.62,7.11A1.63,1.63,0,0,0,59.43,57Z"/><path class="cls-1" d="M51.2,49.51A2.76,2.76,0,0,0,49,51.67a1.75,1.75,0,0,0,1.74,1.7,2.59,2.59,0,0,0,2.11-2.19A1.72,1.72,0,0,0,51.2,49.51Z"/><path class="cls-1" d="M41.37,62.75a2.54,2.54,0,0,0,2.14-2.16,1.8,1.8,0,0,0-1.65-1.69,2.72,2.72,0,0,0-2.18,2.16A1.73,1.73,0,0,0,41.37,62.75Z"/><path class="cls-1" d="M41.25,55.1a2.41,2.41,0,0,0-2.7-.41,1.58,1.58,0,0,0-.6,2.39,1.9,1.9,0,0,0,1.69.76,7.72,7.72,0,0,0,.82-.12A1.6,1.6,0,0,0,41.25,55.1Z"/><path class="cls-1" d="M42.21,49.82a1.45,1.45,0,0,0-2.05.25,1.57,1.57,0,0,0-.11,2.13,3.84,3.84,0,0,0,.81.8,1.46,1.46,0,0,0,1.73.15,1.81,1.81,0,0,0,.94-1.45A2.55,2.55,0,0,0,42.21,49.82Z"/><path class="cls-1" d="M49.5,59.56a1.54,1.54,0,0,0-.06,2,4.33,4.33,0,0,0,.8.8,1.48,1.48,0,0,0,1.62.23,1.78,1.78,0,0,0,1-1.59,2.47,2.47,0,0,0-1.45-1.89A1.46,1.46,0,0,0,49.5,59.56Z"/><path class="cls-1" d="M54.83,56.71a1.53,1.53,0,0,0-.76-2,4.17,4.17,0,0,0-1.8-.17A1.54,1.54,0,0,0,51,56c0,1.09.73,1.77,2,1.77A1.8,1.8,0,0,0,54.83,56.71Z"/><path class="cls-1" d="M46.13,64.74a1.64,1.64,0,0,0,1.8-1.3,4.36,4.36,0,0,0,0-1.25,1.67,1.67,0,0,0-2.1-1.3c-.87.31-1.15.72-1.15,1.89v.36A1.5,1.5,0,0,0,46.13,64.74Z"/></svg>