<svg xmlns="http://www.w3.org/2000/svg" viewBox="0 0 790.07 869.1"><defs><style>.cls-1{fill:#0784c7;}</style></defs><title>Asset 4@3x2</title><g id="Layer_2" data-name="Layer 2"><g id="Layer_1-2" data-name="Layer 1"><path class="cls-1" d="M426.76,665.77,441,685.22a7.74,7.74,0,0,1,2.53-.82,4.7,4.7,0,0,1,2.84,1c.31.28-.32,1.59-.47,2.44-.25,1.43-1.09,3.14-.6,4.27,6.88,15.87,10.51,32.37,12.49,49.6.87,7.47,1.67,15.13,2.95,22.64,1.52,8.9,0,17.54-2.7,26-2.49,7.69-4.47,15.74-8.27,22.77-7.72,14.29-17.89,27-32.08,35.33-16.67,9.84-34.53,16.86-54.11,18.58-7.12.62-14.22,1.52-21.35,2.08a26.82,26.82,0,0,1-6.12-.71c-8.39-1.32-17-1.75-25.1-4.21-16.05-4.91-31.58-11.63-43.57-23.78-7.24-7.34-14.6-14.8-19.61-24.23A77.77,77.77,0,0,1,240,763c2.57-12.92,5.22-25.9,9-38.5a280.86,280.86,0,0,1,13.69-36.15c4-8.79,9.9-16.75,14.94-25.07l2.84-4.72c-5.22-.46-9.94-1-14.67-1.27-5.91-.36-6.43-.84-6.24-6.6.81-24.5,1.76-49,2.35-73.52.35-15-.14-30,.27-45,.52-18.87,1.11-37.77,2.59-56.58.76-9.64,3.51-19.13,5.37-28.68,1.93-9.92,3.7-19.88,5.88-29.75,1.09-4.92,2.93-9.67,4.69-15.32-5.65,0-11.22-.48-16.69.09-16.42,1.69-32.86,3.34-49.16,5.85-13.81,2.13-27.46,5.34-41.15,8.25-4.43.94-8.71,2.58-13.12,3.62-3.54.84-5.51-1.36-6.35-4.42-1.59-5.83-3-11.7-4.36-17.59-2.55-11.26-5.17-22.5-7.41-33.83-2.47-12.53-5-25-4.74-38,.19-10.43-.49-20.89-1.07-31.32-.14-2.45-2.29-4.93-2.06-7.25,1.08-10.64,2.37-21.28,4.19-31.82a205.9,205.9,0,0,1,5.77-24.4A141.75,141.75,0,0,1,152,212.68c3.9-8.4,7.21-17.29,12.44-24.82,14.1-20.29,27.89-40.86,46.58-57.57s39.62-30.5,61.8-42.21c5.47-2.89,11.63-4.43,17.48-6.59l.56,1.12c-.39.44-.7,1.12-1.18,1.29-19.26,6.69-35.67,18.37-51.44,30.71-12.4,9.7-23.65,20.87-35.27,31.54-1.87,1.72-3,4.28-4.57,6.32-2.26,2.86-4.92,5.42-7,8.4-15,21.6-27.85,44.42-36.26,69.43a85.35,85.35,0,0,0-3.78,19.76c-1.24,14.38-1.93,28.81-2.66,43.23s2.42,28.37,6.18,42.17c1.45,5.31,4,7.13,10.49,7.12,3.25,0,6.49-1,9.74-1.37,10.52-1.24,21-2.35,31.56-3.62,16.77-2,33.52-4.32,50.31-6.17,13.69-1.5,27.44-2.52,41.16-3.76.67-.06,1.33-.19,2.31-.34-.81-2.86-1.63-5.55-2.32-8.27-3.38-13.24-5.89-26.58-3.94-40.35,1.46-10.31,1.9-20.89,4.56-30.87,2-7.66,6.72-14.66,10.44-21.84,10.5-20.28,28.81-31,48.76-39.78,15.52-6.8,31.83-8.51,48.51-7.44,17,1.1,32.75,6.36,47.71,14.53a119.62,119.62,0,0,1,25,18.73c7.53,7.14,10.81,16.75,15.37,25.66,5.47,10.67,5.82,22.38,6.38,33.79,1,19.22-11.07,39.63-30.24,48.8-13.39,6.41-27.77,8.54-42.26,10.16-21.44,2.4-43.09,3.8-63.82,10.2-24.28,7.48-45.26,20.45-59.52,41.91-6,9-9.87,19.58-14,29.74-3.69,9.14-6.45,18.66-9.49,28.06-.53,1.63-.4,3.47-.65,6,24.84-16.92,50.65-30.6,76.54-44.09,43-22.4,75.27-36.59,79.72-35.1a19.9,19.9,0,0,1-2.8,1.83,900.82,900.82,0,0,0-83.67,39.85c-15.36,8.3-30.76,16.54-45.78,25.41-6.43,3.81-11.92,9.19-17.86,13.82-1.72,1.34-3.75,2.36-5.24,3.91a12.36,12.36,0,0,0-3,5,38.2,38.2,0,0,0-.93,7.36Q277,475,276.2,485.67c-.12,1.63,0,3.27,0,5.91,11.64-8.52,22.36-16.91,33.64-24.48S332.7,453,344.17,446c.33.49.65,1,1,1.48-3.48,2.35-6.84,4.88-10.44,7a433.4,433.4,0,0,0-49.81,34.44c-2.06,1.64-4.81,3-3.84,6.55.09.33-.71,1.23-1.22,1.36-3.73.94-3.86,3.79-3.84,6.81,0,4.1,0,8.19,0,13.37,7-3.24,12.92-6,18.86-8.7,20.79-9.39,41.27-19.57,62.48-27.87,16.82-6.58,34.51-10.94,51.88-16.09,4.27-1.27,8.77-1.78,13.16-2.64,0-.39-.08-.78-.13-1.17l-50.59,6.56-.3-1.53c3.71-.86,7.4-1.83,11.13-2.58,8.6-1.72,17.18-3.66,25.85-4.9,6.38-.91,12.89-.89,19.34-1.19a4.77,4.77,0,0,1,2.77.65,25.25,25.25,0,0,1,3.09,2.95c-1.23,1-2.34,2.45-3.72,2.76-5.61,1.29-11.39,1.87-16.94,3.35-12.87,3.45-25.61,7.34-38.44,10.95-22.49,6.31-43.17,17-64.24,26.69-10.09,4.65-20,9.77-29.69,15.16a9.46,9.46,0,0,0-4.07,6.65c-.52,8.93-.32,17.91-.34,26.87a23.47,23.47,0,0,0,.61,3.45c20.37-10,40.26-20.17,60.52-29.54s41.71-16.37,62.81-23.87l.6,1.47c-3.41,1.45-6.8,3-10.25,4.34-12.15,4.76-24.18,9.88-36.52,14.09-14.65,5-27.89,12.81-41.76,19.35-8.09,3.81-16.25,7.56-24,12-4.12,2.37-7.43,6.16-11,9.37a2.81,2.81,0,0,0-.73,1.85c-.06,4.22,0,8.44,0,13.21,16.81-7.08,32.69-14.09,48.82-20.46s32.44-11.95,49.55-14.74c.13.46.27.91.41,1.36-3.31,1-6.59,2.13-9.92,3.08a471,471,0,0,0-70.24,26,151.84,151.84,0,0,0-13.69,6.67,7.91,7.91,0,0,0-3.43,5.32c-.89,10.87.06,11.83,10.81,12.41,2.75.15,5.52,0,8.27.08,11.16.3,22.31.81,33.46.93,17,.18,34,.3,51.06,0,4-.06,8-1.68,11.93-2.84,6.79-2,13.49-4.3,20.28-6.31,3.68-1.09,7.45-1.89,11.19-2.75s4-3.16,3.17-6.11c-11.6-2.08-21.46,4.65-32.23,6.21l-.52-1.23c1.23-.86,2.35-2.08,3.73-2.53,8.35-2.72,16.78-5.23,25.16-7.88,1.42-.45,3.39-.89,4-2a12.5,12.5,0,0,0,1.31-6.23c0-.5-3.07-1.5-4.51-1.21-8.07,1.6-16.2,3.11-24.08,5.42-15.28,4.48-30.4,9.46-45.59,14.24-2.56.8-5.11,1.65-7.67,2.48l-.73-1.31a30.7,30.7,0,0,1,5-2.85q9-3.11,18-5.82c19.08-5.67,38.19-11.2,57.23-17a5.14,5.14,0,0,0,3-3.66c.27-8.1.14-16.21.14-24.87l-35.2,5.1c.06.26-.09-.16,0-.18,6.07-2.89,11.71-6.54,19.06-6.26,4.78.19,9.66-1.48,14.45-2.56.62-.14,1.46-1.89,1.24-2.59-.31-.94-1.52-2.23-2.38-2.25-4.67-.14-9.42-.41-14,.25-8.42,1.2-16.77,2.94-25.12,4.58-6.87,1.35-13.69,2.95-20.55,4.31-7.66,1.51-15.35,2.9-23,4.28a19.82,19.82,0,0,1-3.36,0c-.06-.47-.13-.94-.19-1.41,2.94-.78,5.85-1.72,8.83-2.31,16.82-3.33,33.64-6.71,50.51-9.79,9.57-1.75,19.22-3.07,28.87-4.37,2.35-.31,2.8-1.32,3-3.42,2-18.45,3.75-36.93,6.31-55.31A85.32,85.32,0,0,1,443.91,442c4.27-10.87,10.77-18.48,21.1-23.24a5.91,5.91,0,0,1,1.89-.79c8.4-.51,15.77-5.88,23.63-6.4,7.38-.48,13.92-2.95,20.87-4.3a48.43,48.43,0,0,0,7.45-2.36c18-6.7,36.12-13.08,53.89-20.34,6.84-2.8,12.89-7.56,19.24-11.52,5.45-3.4,10.82-6.92,16.19-10.44a4.92,4.92,0,0,0,2-3.08l-31.84,3.45-.17-1c5-1.43,10-2.92,15-4.27,2.63-.71,5.35-1.13,8-1.77,4.19-1,8.16-3.16,12.78-1,1.06.49,3.72-.89,4.73-2.15,5.5-6.84,11.17-13.62,15.87-21,4.47-7,7.89-14.68,11.6-22.14,1.55-3.12.4-4.2-3.18-5.07-6-1.46-11.08.9-16.47,2-4.84,1-9.55,2.56-14.35,3.78a11.77,11.77,0,0,1-2.91,0l-.28-1.43a73.86,73.86,0,0,1,7.23-2.54c10.65-2.58,21.42-4.72,31.94-7.76,2.13-.62,4-4.2,4.89-6.79,6.13-17.57,7.37-35.57,5.64-54.12-1.57-16.79-7.74-31.91-13.91-47.19-4.29-10.62-11.16-19.43-18.72-27.84-7-7.76-13.37-16.11-20.86-23.34-11.52-11.13-25-19.74-39.1-27.3-4.92-2.62-9.25-6.33-14.08-9.15a84.91,84.91,0,0,0-11.66-5.48c-9.43-3.73-18.87-7.51-28.47-10.79-7.76-2.64-15.74-4.69-23.67-6.81-9-2.41-18.08-4.78-27.19-6.86-6-1.37-12.12-2.44-18.24-3.21-10.63-1.34-21.3-2.31-31.94-3.51A45.5,45.5,0,0,1,400.6,64a5.68,5.68,0,0,1,2-.79c8.63.34,17.26.8,25.89,1.12,4.49.17,9-.15,13.48.25,8.06.72,16.17,1.42,24.12,2.85,10.27,1.85,20.48,4.16,30.59,6.73,9.83,2.5,19.78,4.91,29.21,8.56q25.32,9.81,50,21.18c15.35,7.09,28.16,18.06,41.05,28.87,18.09,15.18,33.22,33,46.19,52.49,5.47,8.24,8.85,17.9,13,27,6.18,13.65,8.09,28.47,11.59,42.86,3.39,14,3.23,28.15,2,42.3A218.42,218.42,0,0,1,686,323.85a126.34,126.34,0,0,1-13.43,35.74c-4.62,8.26-9.08,16.64-14.15,24.62-2.76,4.35-6.63,8-10,12C637,409.41,623,419.79,608.2,428.33c-15.87,9.14-32,18.18-49.76,23.76-10.34,3.26-20.82,6.43-30.59,11-9.08,4.25-19.69,5.46-27.16,13a60.11,60.11,0,0,0-6.13,7.12,75,75,0,0,0-12.85,30.46c-2.09,11.06-5.08,22-7.14,33-1.52,8.22-2.1,16.61-3.25,24.9-1.06,7.61-2.37,15.19-3.46,22.8-.35,2.44-.28,5-.57,7.4q-3,25.62-6,51.21c-.2,1.62-.92,3.18-1.13,4.81-1,8-1,8-9.12,8C443.19,665.75,435.37,665.77,426.76,665.77ZM268.66,365.09q1.8,7.26,3.61,14.51l1.62-.51-5.28-14c-1.7-8.17-4-16.1-8.87-23.08A55,55,0,0,0,268.66,365.09ZM440,198.74q4.18,11.06,8.36,22.12A181.64,181.64,0,0,0,443.07,202c-.43-1.28-2.06-2.16-3.14-3.23l-10.87-4.93C435,208.7,440.45,222.35,445.9,236l1-.38a3.4,3.4,0,0,0,.1-1.17Q442.3,218,437.5,201.64C436.81,199.29,437.27,198.11,440,198.74ZM291,725.2l-.06-.06c-5.26,2.23-10.41,4.8-15.82,6.55-3.71,1.19-5.06,3.08-4,6.59,1.21,3.91,2.85,7.69,4.08,11.6,2,6.41,3.09,6.87,9.48,4.34,7.93-3.13,15.81-6.43,23.92-9,12.55-4,25.28-7.45,37.95-11.08a8.86,8.86,0,0,1,2.75.11c.11.55.23,1.1.34,1.65-22.74,8.1-47,12.23-67.81,25.41a50,50,0,0,0,16,16.62c6,3.69,11.93,7.38,17.94,11,14.48,8.68,30.09,13.84,47.05,12.76A123.08,123.08,0,0,0,388.33,797c13.46-3.8,26.05-9.49,36.14-19.75,9.6-9.78,16.91-20.87,18.23-34.71a158,158,0,0,0,.36-22c-.35-8-3-14.93-5.28-22.21-1.19-3.78-3.16-6.19-7.4-5.29-8.43,1.78-17.05,3.06-25.2,5.75-15.64,5.15-31,11.16-46.49,16.76a55.93,55.93,0,0,1-5.64,1.39l0,.06c.62-.67,1.11-1.61,1.87-2,4.34-2,8.63-4.24,13.13-5.85q23.25-8.34,46.65-16.28c5.24-1.77,10.72-2.85,16.08-4.25l.51-1.33c-5.88-5.27-11.74-10.57-17.69-15.76a3.58,3.58,0,0,0-2.71-.48c-10.61,2.16-21.42,3.68-31.73,6.82-15.36,4.68-30.62,9.87-45.44,16A380.94,380.94,0,0,0,277.55,723c-2.52,1.58-4.74,3.62-7.1,5.45l.71,1.29c3.46-.93,6.9-2,10.38-2.78C284.67,726.26,287.85,725.78,291,725.2Zm33-374.87a100.55,100.55,0,0,1,34.71-15.54c16-3.81,32-7.61,48.12-11,11.14-2.33,22.62-3.21,33.59-6.07,11.93-3.11,22.78-8.6,30.52-19.08,13.29-18,8.22-35.4-7-47-11.19-8.54-25-12.83-39.2-13.9-19-1.43-37.67,1.09-55.95,6.26a98.21,98.21,0,0,0-15.32,5.93c-10,4.79-16.07,14-23.17,21.94a48.36,48.36,0,0,0-11.53,23.87C315.51,314,318.84,331.85,324,350.33Zm-67.53,389c-.92,2-2.63,4.35-3.15,7-2,10.09-4.32,20.19-5.25,30.41-1.34,14.75,4.58,27.44,12.8,39.45,12.3,18,29.4,28.43,50.13,33.58,13.26,3.29,26.8,4.61,40.41,5.31,2.25.11,3.8,0,4.14-3,1.11-9.72,6.12-18.05,10.19-26.69.05-.11.48,0,1.47-.11-1.06,3.64-1.94,7.12-3.1,10.51-1.75,5.06-3.82,10-5.45,15.11-.37,1.15.46,2.7.74,4.06,1.3-.77,3.1-1.23,3.8-2.36,1.18-1.94,1.56-4.35,2.47-6.48s2.06-4.24,3.1-6.36l1.8.72c-1.15,4.41-2.31,8.82-3.5,13.38,5.18.19,7.39-1.39,8.17-5.93,1.3-7.44,2.32-14.94,3.39-22.42.73-5.1,1.34-10.21,2.07-15.87-1.9.23-3.83-.1-4.42.63-2.26,2.83-5.26,2.33-8,2-5.65-.79-11.27-1.92-16.84-3.17-8.82-2-17.63-4-26.35-6.32-4.78-1.29-9.36-3.29-14-5l-.41.75,21.86,13.21-.44,1c-3.75-1.15-7.59-2.06-11.23-3.47-18.54-7.19-35.67-16.65-48.61-32.2a53.32,53.32,0,0,1-8.66-14.23C260.53,754.94,258.65,746.75,256.44,739.28ZM622.55,362.52c-2.78,2.07-4.5,3.74-6.55,4.81-13.86,7.28-27.69,14.62-41.72,21.55a225.1,225.1,0,0,1-24.23,10.41c-9,3.2-18.37,5.52-27.6,8.16-2.37.68-3.33,1.91-3.05,4.49a93.29,93.29,0,0,1,.34,9.89c0,12.08,0,24.16,0,36.24a7.64,7.64,0,0,0,1.93-4.57c1.23-13,2.35-26.06,3.61-39.08.11-1.14,1-2.2,1.48-3.3l1.72.32c-.1,15.07-2.15,30.07-2.93,45.15,4.38-1.33,8.22-7,8.45-12.36.36-8.67.64-17.34,1.16-26,.11-1.86,1.13-3.66,1.73-5.49l1.54.25c.77,13.48-.65,27-1.55,41.38,6.44-2.59,11.78-5.13,17.37-6.9,20.35-6.46,38.57-17.22,56.94-27.69,3.32-1.89,5.25-4.66,4.94-8.81-.3-4-.24-8-.29-12,0-3.53,0-7.06,0-10.59l1.56-.08q1.13,11.88,2.26,23.75l1.56.17c1-1.23,2.39-2.32,2.83-3.72,2.32-7.4,3.75-14.95,2.68-22.76a9.69,9.69,0,0,1-.3-3.26c1-4.33,2.52-8.57,3.06-12.95s.12-8.87.12-13.32c-2.21,1.09-3.83,2.19-4.49,3.71s-.3,3.37-.42,5.66C623.75,364.25,623.16,363.4,622.55,362.52ZM389.78,655.74c-2.28-1.29-3.48-2-4.76-2.66-8.45-4.1-17.41-5.71-26.79-5.74-9.53,0-19-.06-28.18,3.08-5.7,2-11.3,4.36-17.13,5.83-11.68,2.94-19.76,11-26.85,19.63-10.18,12.37-13.68,27.7-15.6,43.32a24.29,24.29,0,0,0,.35,5.07c9.13-5.19,17.76-10.19,26.49-15s17.22-9.63,26.06-14c5.89-2.91,12.2-5,18.27-7.53,1.2-.51,3.22-1.72,3.11-2.26-.55-2.82,1.36-2.44,2.89-2.74a28.42,28.42,0,0,0,3.53-.87c6.35-2.09,12.6-4.51,19-6.28,11.75-3.24,23.59-6.11,35.41-9.13-5-7.34-12.76-7.22-19.35-6.07-11.85,2.06-23.38,5.9-35,9.15-6.24,1.74-12.4,3.8-18.6,5.72l-.4-1.13c8.23-5.8,18.38-6.91,27.63-10.1S379,658.67,389.78,655.74ZM366.14,230.17l1.56.22a11.46,11.46,0,0,0,.6,1.88c1,1.87.66,5.12,4.32,4.23s2.78-3.81,2.2-6c-1.84-7-4-13.95-6.05-20.92-1.22-4.22-2.39-8.46-3.58-12.69l1.28-.57c.95,1.37,2.27,2.61,2.79,4.13q5.14,15,10,30c1.43,4.43,1.49,4.56,6.77,2.05-1.54-7.34-3.11-14.82-4.67-22.31l1.27-.3a27.32,27.32,0,0,1,2.28,4.3c1.64,5.09,3.24,10.21,4.59,15.38.95,3.64,2.78,4.68,6.36,3C391.32,221,384,210.48,383,197.72c1.08.24,1.92.62,2.2,1.25,1.74,3.88,3.22,7.87,5,11.71,3,6.31,6.12,12.52,9.16,18.8,1.48,3.06,3.76,3.15,6.73,2a12,12,0,0,0-.47-2.81c-4.47-10.17-8.67-20.49-13.69-30.38-1.64-3.23-5.43-5.37-8.3-7.94-.25-.22-1,.06-1.7.13.31,1.91.58,3.56,1,6.37-1.48-1.32-2.36-1.77-2.69-2.47-1.62-3.49-4.58-4.26-7.92-3.81a46.48,46.48,0,0,0-8.4,1.92c-15.93,5.27-27.05,17-37.81,28.95-4.42,4.93-8.75,10.23-11.73,16.07-3.57,7-7.15,14.57-8,22.2-1.52,12.93-1.17,26.1-1.14,39.17,0,5,1.33,10,2.06,14.95a51.64,51.64,0,0,0,1.79-11.64c.77-22,12.25-38.21,28.85-50.83,7-5.34,16-8.1,24.34-11.62,2.37-1,3.16-2.05,3.12-4.44A29.13,29.13,0,0,1,366.14,230.17Zm-132,165.58a20.07,20.07,0,0,0,.56-4.44q-1.26-13.33-2.78-26.65-1-8.58-2.26-17.12c-.14-.91-1.24-2.5-1.61-2.42-3.35.71-7.55-1.49-9.87,3-1,1.85-2.58,3.53-4.51.29-.51-.87-2.56-1.33-3.82-1.18-15.4,1.83-30.79,3.8-46.19,5.74-4.25.54-5.61,2-5.1,6.28.41,3.46,1.49,6.84,1.93,10.3,1.41,11.3,2.61,22.63,4.06,33.92.13,1,1.45,2.75,2.13,2.71,7.55-.46,15.09-1.07,22.59-1.94,2.17-.26,4.63-.69,5.17-3.83.87-5,2-9.91,3.14-14.85a14.43,14.43,0,0,1,1-2.36,3.61,3.61,0,0,1,1.13,2.65c-.09,4-.44,8-.31,12,0,1.43,1.18,2.83,1.81,4.24,2-1.18,5.17-1.95,5.76-3.64,1.34-3.78,1.47-8,2-12.07a43,43,0,0,0,0-5.08l1.42-.15a42.14,42.14,0,0,1,1,5.31c.2,3-.1,6.08.25,9.08.17,1.43,1.37,2.73,2.1,4.1.6-1.49,1.77-3,1.72-4.46-.27-8.53-.88-17.05-1.27-25.58-.15-3.44,0-6.9,0-10.34l1.69-.25c.76,3.95,1.76,7.87,2.21,11.86.47,4.23.35,8.53.62,12.79.25,4,.67,8,1.1,12.94l4.49-5.42,1.14.58c-.31,2-.62,4-.92,6l1.43.39a14.2,14.2,0,0,0,.78-3.81c-1-12.19-2-24.38-3-36.57a15.4,15.4,0,0,1,.29-2.85l1.3-.09C228.83,368.2,227.9,382.63,234.14,395.75Zm89.31,224.3,1.68-.24a9.35,9.35,0,0,1,.81,1.69c1.17,4.22,2,8.56,3.59,12.63.45,1.16,2.9,1.55,4.43,2.3.45-1.4,1.46-2.88,1.26-4.18-1.09-7.14-2.55-14.22-3.72-21.36-.38-2.38-1.51-3.35-3.83-3.32-3,0-6.06.11-9.08-.06-12.35-.72-24.69-1.53-37-2.3-3.56-.22-5.11,1.3-5.39,5-.74,9.88-1.69,19.75-2.95,29.58-.43,3.36.71,4.06,3.63,4.21,6.56.36,13.11,1,19.68,1.38a17.36,17.36,0,0,0,5.22-.79c5-1.32,10-3,15.07-4.11,9.26-1.94,10-3,7.77-12.42C324,625.47,323.82,622.74,323.45,620.05ZM453.93,652.3l1.27-.31c.29-2.69.52-5.38.87-8.06,1.57-12.26,3.26-24.51,4.7-36.79a13.82,13.82,0,0,0-.9-6c-4.17-11.63-8.56-23.18-12.74-34.81-2.37-6.6-4.46-13.29-6.68-19.94l-1,.29,15.66,50.65-1.79.61c-6.53-12.26-8.91-26.16-14.45-39.92a19.79,19.79,0,0,0-1.1,3.72c-.38,7.82-.57,15.66-1,23.48-.3,5.33-1.22,10.64-1.32,16-.08,3.75.07,7.76,1.32,11.23,3.32,9.29,7.19,18.4,11,27.5C449.63,644.15,451.89,648.18,453.93,652.3ZM385.68,849.55c3.22-.1,5.92-.87,7.06-4.32,4.06-12.3,5.79-24.71,1.92-37.41-.05-.17-.47-.22-1.89-.83C390.38,821.35,388,835.39,385.68,849.55ZM247.47,383.16l1.32.07c-.56-3.09-1.07-6.18-1.7-9.26-1.93-9.52-3.87-19-6-28.52-.18-.83-1.69-2.08-2.27-1.93a4.37,4.37,0,0,0-2.17,2.38c-.3.63.06,1.6.18,2.41,1.55,10.43,3.06,20.86,4.69,31.28.56,3.57,1.42,7.1,2.14,10.61C245.08,387.62,246.27,385.39,247.47,383.16ZM438.41,233.88c-.16-2.28,0-3.58-.38-4.68-3.87-11-7.59-22-11.86-32.79-1.88-4.76-6.17-5.88-11.93-3.75l13.31,29.72,1.2-.4q-3.63-12.72-7.24-25.42L423,196C429.61,207.61,431.39,221.27,438.41,233.88ZM427,591.52l-.57-1.45-32.33,8.33.18,1.54c7.91.64,15.81,1.46,23.74,1.87,9.72.5,10.08,0,9.16-9.94C427.21,591.75,427.1,591.64,427,591.52ZM638.84,346.8l-2-.77c-1,2-2.65,3.93-2.85,6-.59,6.17-.39,12.41-.9,18.6-.74,8.9-1.92,17.76-2.71,26.66-.15,1.58.64,3.25,1,4.89l1.33-.11a9.78,9.78,0,0,0,1.45-2.76c.68-4.47,1-9,1.82-13.43,1-5.1-1-10,.52-15.43C638.61,362.94,638.19,354.72,638.84,346.8ZM378.39,851.24l1.29.69c1-1.61,2.65-3.1,3-4.84q3-17,5.43-34.08c.19-1.31-.79-3.86-1.64-4-2.65-.6-3.19,1.39-3.45,3.78-.92,8.59-2.09,17.15-3.14,25.73C379.33,842.72,378.87,847,378.39,851.24ZM333.57,608.52c1.68,7.55,3.34,15.14,5.1,22.7a3,3,0,0,0,1.35,2,8.58,8.58,0,0,0,4.22.52c.5-.1,1.06-2.1.87-3.08-1.23-6.18-2.62-12.33-4.06-18.47C339.93,607.41,338.8,606.89,333.57,608.52Zm110.86-64.94c4.46,16.43,8.58,33,17.19,47.89A184.37,184.37,0,0,0,444.43,543.58ZM451,749.75c-2.55,5.79-4.91,11-7.13,16.28a9,9,0,0,0-1,4.31c.86,6.19,2,12.33,3.05,18.55C450.9,776.55,449.75,763.3,451,749.75Zm60.07-288.81.92.07c0-1.91,0-3.82,0-5.72-.08-11.82-.18-23.64-.21-35.46,0-3.14.59-5.91,5.07-5.27-.21-1.5-.36-2.62-.55-4L507.8,413C508.91,429.35,510,445.15,511.05,460.94ZM258.73,386.42c3.38-.6,3.37-2.33,2.71-4.66-2.76-9.76-5.36-19.57-8.12-29.33-.87-3.08-2-6.08-3.08-9.12l-.77.27Q254.09,365,258.73,386.42ZM415.48,231.75c-.4-8.66-8.87-28.73-12.87-31.12,2.05,6.15,4.05,12,5.92,17.8,1.09,3.4,1.77,6.94,3,10.26C412,229.78,413.66,230.38,415.48,231.75ZM382.86,609.53c-.33,6.14,13.51,35,17.14,36.29C394.4,633.82,390.81,621.23,382.86,609.53Zm-31.35,26,1.85-.71c-1.17-5-2.25-10-3.56-15-.89-3.42-2-6.79-3.24-10.11-.3-.82-1.38-1.35-2.1-2a178.67,178.67,0,0,0,4.43,22C349.41,631.74,350.62,633.59,351.51,635.52Zm-107.39-292c3.29,14.93,6.49,29.47,9.69,44C254.7,379,247.18,345.94,244.12,343.47Zm409.58.19v26.95l1.6-.07C657.38,360.93,657.69,351.41,653.7,343.66ZM385.28,640.33c-3.91-8.07-7.71-15.93-11.51-23.79,1.66,7.15,3.78,14.07,5.88,21C380.46,640.18,382.12,641.23,385.28,640.33ZM356.6,609l-1.47.42c1.47,4.78,2.83,9.6,4.43,14.34s3.46,9.44,5.2,14.16l1.4-.46C363.44,627.83,360,618.42,356.6,609Zm62.07-397.3-1,.34c1.29,5.26,2.74,10.48,3.8,15.78.6,3.07,2,4.27,5.55,3.6ZM439.87,803c2-9.22,3.61-18.58,0-28Zm7.46-277.41-1.11.34q5.56,18.55,11.11,37.13l1.38-.42Q453,544.1,447.33,525.57ZM458.49,229.9l1.6-.59c-3.63-8-3.81-17.29-8.86-24.78L450,205Q454.23,217.43,458.49,229.9ZM257.42,350.75l-1.12.35,8.85,29.84,1.62-.51Q262.11,365.58,257.42,350.75Zm17.79,13,1.19-.43c-2.6-7.16-5.15-14.33-7.84-21.45-.25-.65-1.37-1-2.08-1.46-.27,2.65-.34,5.47.93,6.34,4.53,3.11,4.24,8.29,6.23,12.45A38.74,38.74,0,0,1,275.21,363.75Zm92.55,256.19-.95.32c1.37,5.24,2.61,10.52,4.22,15.69.31,1,2,1.59,3.08,2.38l.8-1Q371.34,628.65,367.76,619.94ZM515.58,447.53l.94-.15V419h-.94Zm-64.41,63.72,1.83-.43q-2.08-9.24-4.18-18.46l-2.22.53Zm-57-320.77-1.85,1,6.88,13.39,1.4-.68C396.83,200.4,399.94,193.38,394.17,190.48Zm36.28,614.13,1.47.08V787.88C429.7,793.37,430.43,799,430.45,804.61Zm35-268.46,1.88-.19c-1.64-7.08-2.46-14.3-5.32-21.17Q463.71,525.47,465.44,536.15ZM413.73,809l-.7.07q-1.33,13.43-2.68,26.84l1.74.13Q412.92,822.47,413.73,809ZM499,416.34l-.81.1c.48,5.43.89,10.87,1.45,16.3.54,5.25,1.24,10.48,1.87,15.72l.95-.12Q500.77,432.34,499,416.34ZM419.49,828.87l1.21.11,2.43-27.5-1.24-.11ZM643.2,388.57l-1.42-.05c-1.92-7.52-.08-15.37-1.09-23v26.7l1.12.33,3.1-5.56-.73-.41C643.85,387.27,643.52,387.92,643.2,388.57ZM238.71,392.5l1-.12-3.93-30.3-.72.08ZM397.17,845.65l1.26.2,4.5-21.86-.9-.18Zm5.51-654.56,6.51,10.39C404.93,191,404.93,191,402.68,191.09Zm-45.94,440.3,1-.32q-3.15-10.53-6.31-21.05l-.95.3Q353.62,620.85,356.74,631.39Zm56.31,10.93.87-.45q-4.37-9-8.71-18l-1,.47Q408.64,633.34,413.05,642.32ZM646.44,338l-1.11.18q1.23,7.65,2.45,15.32l1-.15Q647.6,345.71,646.44,338Zm-.13,30.59-1-.2-.72,10.63,1.06.07Z"/><path class="cls-1" d="M98.06,311.53c.72-17.3.81-34,2.3-50.55,1.37-15.33,5.8-30.1,10.63-44.76,2.93-8.89,5.65-17.68,10.69-25.7,4.42-7,8-14.57,12.34-21.69,1-1.68,3.32-2.58,5-3.83,0,2.58,1.13,6.23-.16,7.57-7.52,7.82-10.5,18-14.72,27.43-4.45,9.93-7.58,20.57-10.21,31.17-3.66,14.71-4.56,29.87-5.17,45-.53,13.2-.87,26.4-1.46,39.6-.67,15,1.63,29.58,4.38,44.18,1.07,5.67,2,11.37,2.72,17.08.32,2.37,2,5.39-1.53,6.82-2.34.95-7.38-2.1-8.17-5a69.8,69.8,0,0,1-2.43-11.28c-1.29-13.11-2.36-26.25-3.39-39.39C98.46,322.45,98.31,316.66,98.06,311.53Zm4.36,27.1.77,0q-.52-8.91-1.06-17.81l-.67,0Z"/><path class="cls-1" d="M742.78,248.78c2.06,7.63,4.24,15.24,6.14,22.91,2.21,8.9,4.2,17.84,6.21,26.78a17.63,17.63,0,0,1,.29,4.11c-.31,17.09-.35,34.18-1.09,51.25-.49,11.47-4.34,22.32-7.88,33.17-2,6-3.63,12.1-6,17.94-1.31,3.23-3.58,6.15-5.74,9-2.32,3-6.13,4-8.7,1.61a12.45,12.45,0,0,1-3.43-8.86c.21-3.24,2.72-6.32,4.12-9.5,2.87-6.54,6.6-12.87,8.32-19.7,3.51-13.95,6-28.18,8.77-42.31a113.59,113.59,0,0,0,1.59-33.69c-.67-6.64.43-13.47-.33-20.09-1-9.08-3.16-18-4.62-27.08-.3-1.81.28-3.77.45-5.66Z"/><path class="cls-1" d="M73.21,254.81c-.32,4.26-.73,8.52-.92,12.78-.15,3.52,0,7.05-.08,10.58a80.09,80.09,0,0,1-.72,10.63c-1.89,11.26-3.16,22.51-1.31,33.9.07.4-.05.95.17,1.21,6.05,6.95,3.64,15.61,4.82,23.54,2.28,15.35,4.4,30.73,6.9,46,1.44,8.8,3.43,17.52,5.35,26.24.74,3.34,2.09,6.53,2.93,9.85a6,6,0,0,1-.18,3.93c-1.16,2.16-2.8,5.68-4.3,5.71-3,.06-6.65-1-7.65-5.07-1.85-7.6-4.07-15.12-5.61-22.79-1.86-9.28-3.21-18.67-4.71-28a412.81,412.81,0,0,1-5.08-63.25c-.08-13.81,3.29-27.32,2-41.09-.06-.66-.07-1.6.32-2,4.65-4.56,2.64-10.25,3-15.61.16-2.36,2-4.6,3.06-6.9Z"/><path class="cls-1" d="M716.38,120.52c-1.09,1.08-2.19,2.7-3.72,3.54a4.36,4.36,0,0,1-6.15-1.56c-3.46-5.27-6.66-10.71-10.33-15.82C684.35,90.19,670.53,75.57,655.45,62s-32.74-23.54-50.26-33.55c-2.91-1.66-6.56-2-9.58-3.49-5.08-2.53-10-5.4-14.8-8.41-1-.59-1.12-2.45-1.65-3.72,1.71-.46,3.77-1.77,5.07-1.23,7.36,3,14.82,6,21.71,9.91,13.82,7.88,27,16.9,41,24.46,14.62,7.9,26.74,18.66,38,30.52s22,24.54,30,39.15C715.46,116.76,715.65,118.16,716.38,120.52Z"/><path class="cls-1" d="M724.26,329.72c-.76,4.08-1.21,8.26-2.34,12.24-4,14-7.31,28.24-12.57,41.74-5.81,14.92-12.7,29.52-22,42.73-5.6,7.92-10.68,16.36-17.23,23.4-5.78,6.23-13.06,11.17-20.12,16-3.5,2.41-8.43-.13-10.13-4.17-1.53-3.63.68-7,4.7-9.19a92.17,92.17,0,0,0,14.54-9.77,110,110,0,0,0,14.4-14.15A155.19,155.19,0,0,0,698,388c4.24-10.43,7.92-21.16,13-31.14,4.14-8.1,8-16.16,10.32-24.94a9.78,9.78,0,0,1,1.78-2.63Z"/><path class="cls-1" d="M447.67,30.14a4.57,4.57,0,0,1,1.42-.76c11-1.3,21.93-2.17,32.93-.59,9.22,1.32,18.4,2.9,27.63,4.09,8.9,1.15,17.84,1.92,26.75,3a6,6,0,0,1,2.81,1.49c3,2.55,6.06,4,10.34,2.77,2.29-.65,5.16.22,7.65.88,17.73,4.72,33.7,13.23,48.61,23.66C610,67.54,613,72,616.33,76c1.56,1.89-.79,5.77-3.27,5.31-2.32-.42-5.44-1.18-6.53-2.88-3.52-5.47-9.09-7.87-14.3-10.79C575,58,557,50.16,537.9,45.37c-16.63-4.16-33.39-7.94-50.28-10.77C477,32.81,466,33.13,455.14,32.41c-2.51-.16-5-.67-7.48-1C447.66,31,447.67,30.55,447.67,30.14Z"/><path class="cls-1" d="M446.85,854.57c-.94-2.57-1.26-4.4-2.2-5.8-1.62-2.38-.6-4.37,1.19-5.28,8.37-4.24,12-12.34,16-19.87a330.72,330.72,0,0,0,14.64-31.78c2.17-5.4,2.46-11.53,3.85-17.27,1.21-5,1.09-9.78.62-14.94-.66-7.32.82-14.83,1.37-22.27A57.12,57.12,0,0,1,483.67,727a9.58,9.58,0,0,1,1.26,2.32c2,8.79,4.5,17.47,4.06,26.68-.31,6.3.74,12.71-.06,18.91a237.28,237.28,0,0,1-5.43,27.82c-3.23,12.69-7.83,25-16.17,35.29-4.71,5.81-10.6,10.7-16.22,15.71C450,854.74,447.66,854.43,446.85,854.57Z"/><path class="cls-1" d="M493.35,631.41c.36-1.73.78-3.46,1.06-5.21,1.18-7.32,2.38-14.64,3.45-22,1.74-11.88,3-23.85,5.18-35.65,2.71-14.67,5.15-29.35,10.22-43.6,2.37-6.67,4.19-13.23,9-18.38,1.88-2,4.65-4,7.21-4.31s5.59,1.14,7.44,2.87c1,1,.17,4.12-.16,6.24a6.51,6.51,0,0,1-1.69,2.79c-6.57,7.62-9.41,17.15-13.48,26.06-1.24,2.71-3.55,5-4.46,7.77-1.27,3.84-1.43,8-2.52,12-2,7.13-4.28,14.18-6.49,21.25-3.63,11.59-7.78,23-9.42,35.17-.49,3.66-1.09,7.32-1.88,10.92a27.48,27.48,0,0,1-2,4.68Z"/><path class="cls-1" d="M177.28,762.82c.71-3,1.74-7.2,2.76-11.43,1.33-5.47,2.51-11,4-16.39s3.09-10.81,5.11-16c1.68-4.32,5.36-5.65,8.75-3.84,4,2.13,4.11,3.93,1.84,7.91-5.48,9.61-10,19.85-10.26,31-.24,12.47.89,25,1.82,37.44A244.2,244.2,0,0,0,194.46,818c1.2,6.4,3.76,12.56,5.79,18.79,1.07,3.27,2.51,6.43,3.39,9.74.31,1.13-.58,2.59-.93,3.89-1.12-.78-2.81-1.31-3.29-2.38-4.4-9.88-8.44-19.86-9.64-30.82-.45-4.15-1.26-9-3.77-12-6.79-8.09-5.58-17.78-7-27C178.34,773.61,178,768.94,177.28,762.82Zm7,37.45.94.07q-.78-10.53-1.55-21.05l-1,.07Z"/><path class="cls-1" d="M500.67,713.28a430.53,430.53,0,0,1,17.2,58.66,58.87,58.87,0,0,0,0,6.87c1,9.9,1.44,19.76-1.57,29.39-.5,1.61-2.09,2.88-3.53,4,3.27-13.93.93-27.76,1.74-41.44l-1.2-.11c-.37,3.14-.77,6.28-1.09,9.43-.37,3.56-.36,7.2-1.06,10.69-1,5-1.8,10.15-4,14.6-2.78,5.68-6.84,10.74-10.41,16-.23.35-1,.38-1.78.67-.83-6.29,1.92-11.57,3.25-17.17,1.89-8,3.42-16,4.6-24.13a172.26,172.26,0,0,0,1.33-18.47c.1-2.71-.65-5.44-.86-8.17-.13-1.74-.5-3.75.17-5.22,2.13-4.76,1.26-9.4.09-14.06-1.42-5.66-3.11-11.25-4.45-16.93-.33-1.4.21-3,.36-4.52Z"/><path class="cls-1" d="M216.86,824.92c-1.53-2.55-3.57-4.93-4.49-7.69-2.31-6.88-4-14-6.17-20.9-1-3.3-3.52-6.3-3.94-9.62-1.41-11-1.38-21.91,1.18-32.8,1.35-5.72,1.88-11.63,3-17.42a9.92,9.92,0,0,1,2.12-4.34c1.71-2,3.57-4.69,6.81-2.88,5.24,2.93,6.41,5.59,4.1,9.9-4.4,8.25-5.29,17.29-6.2,26.29a161.41,161.41,0,0,0,1,39.95c.65,4.46,2.1,8.8,3.15,13.21.43,1.82.76,3.66,1.14,5.49Z"/><path class="cls-1" d="M44.35,463.41c-1.89-3.62-4.46-7-5.57-10.89-4.58-15.8-9-31.66-12.88-47.65-2.3-9.57-3.35-19.44-5-29.17-.66-3.77-1.58-7.49-2.23-11.26a9.62,9.62,0,0,1,.14-3.7c.68-3.05,1.75-6.22,5.52-6.15s4.94,3.24,5.18,6.37c.47,5.91.25,11.89.94,17.77,1.08,9.11,2.8,18.15,4,27.25,1.2,8.71,1.7,17.54,3.34,26.16,1.61,8.44,4.29,16.67,6.48,25,.5,1.92.92,3.86,1.38,5.78Z"/><path class="cls-1" d="M240.74,590.09a20.34,20.34,0,0,1-.91-3.17c-.46-3.62-.76-7.26-1.2-10.88-1.41-11.29-2.56-22.62-4.34-33.84-2.48-15.59-5.27-31.13-8.27-46.62-1.14-5.92-3.64-11.68-1.51-17.76.48-1.34,2.17-3.07,3.36-3.11a4.65,4.65,0,0,1,3.56,2.83c1.93,9.25,3.75,18.53,5.1,27.88q2.58,18,4.35,36c1,9.73,1.51,19.51,1.86,29.28.21,5.68-.31,11.38-.54,17.08a11.32,11.32,0,0,1-.55,2.17Z"/><path class="cls-1" d="M512.49,612.74c1-3.76,1.83-7.09,2.78-10.37,4.62-15.9,8.39-32.12,14.26-47.55,3.06-8,6.93-16.81,16.11-21.06,3.94-1.83,6.09-.33,7.77,2.6a4.94,4.94,0,0,1-.12,4.42c-2.33,3.15-4.71,6.61-7.88,8.73-5.74,3.86-8.87,9.28-11.07,15.41-3.46,9.67-6.56,19.46-9.92,29.17-2.27,6.59-4.63,13.15-7.17,19.63-.38,1-2,1.44-3,2.14Z"/><path class="cls-1" d="M790,319.83c0,3.63.24,7.27-.05,10.87-.95,11.77-1.76,23.56-3.29,35.26-1,7.31-3,14.47-4.74,21.67-.67,2.84-2.21,5-5.56,5.18-3.76.2-5.92-1.86-5-5.56,2.48-10.24,5.29-20.4,7.84-30.63,1.59-6.38,2.92-12.83,4.4-19.24.31-1.32.75-2.62,1.09-3.94.94-3.69,1.83-7.39,2.8-11.07a29,29,0,0,1,1-2.79Z"/><path class="cls-1" d="M180.75,110.32c3.93-4.36,8.5-8.76,12.27-13.77,10.08-13.4,23.81-22.08,38-30.19a26.56,26.56,0,0,1,7.76-2.58c1.06-.23,2.36.73,3.55,1.16-.53,1.11-.75,2.69-1.62,3.26-6.29,4.14-13,7.67-19,12.16-9.1,6.82-17.7,14.29-26.59,21.4-2.15,1.72-4.58,3.09-6.89,4.62a5.22,5.22,0,0,0-.68.43C184.68,109.61,182.63,110.52,180.75,110.32Z"/><path class="cls-1" d="M397.85,4.18a27.49,27.49,0,0,1,5.27-1.54c10.4-.93,20.81-2.11,31.24-2.41,14.17-.41,28.36-.16,42.55-.08,4.51,0,8.89.75,12.61,3.84-4.21,4.86-8.4,6.24-14.37,3.88a40.68,40.68,0,0,0-14.91-2.5c-19.39.1-38.78.71-58.17,1.06a19.43,19.43,0,0,1-4.24-.89C397.83,5.09,397.84,4.63,397.85,4.18Z"/><path class="cls-1" d="M172.15,84.38c-2.9,2.88-4.65,5.54-7.11,6.91-10.64,5.93-17.16,16.11-25.56,24.32-5.29,5.16-9.92,11-14.93,16.48-3.77,4.12-8.09,7.82-11.41,12.27-3.55,4.77-6.18,10.22-9.3,15.31a4.81,4.81,0,0,1-2.24,1.9c-.51.19-1.93-.54-1.94-.88a6.37,6.37,0,0,1,.7-3.46c4.21-6.26,9.23-12.08,12.72-18.7,9.32-17.64,25.32-28.66,39.69-41.28,5-4.42,10.7-8.09,16.12-12C169.45,84.8,170.31,84.83,172.15,84.38Z"/><path class="cls-1" d="M506.18,676.2c2.67,3.09,5.55,6,8,9.31,12.12,16.51,21.29,34.22,23.07,55.15.49,5.76,2.17,11.42-.26,17-.44,1-1.75,1.66-2.65,2.48-.47-1.12-1.54-2.37-1.31-3.32a21.29,21.29,0,0,0-.7-12.74c-3-8.89-4.44-18.41-6.77-27.63A78,78,0,0,0,508,682.87a62.43,62.43,0,0,1-3.72-5.08Z"/><path class="cls-1" d="M545.47,582c2.08-4.59,3.84-9.2,6.19-13.47,3.28-6,6.89-11.78,10.61-17.5,1.9-2.93,4.77-3.11,7.48-1,2,1.59,2.34,6.47.74,8.41-.31.38-.94.48-1.35.8-1.69,1.34-3.82,2.4-4.94,4.12-4.47,6.91-8.57,14-13,21-.61,1-2.11,1.36-3.19,2Z"/><path class="cls-1" d="M488.65,344.86c37.48-15.86,77-25.43,116.24-35.57.69-.18,1.66.74,2.42,1.61-40,10.31-79.46,21.63-118,36.17Z"/><path class="cls-1" d="M217,554.67c-.38-1.19-.77-2.38-1.22-3.78-2.41,1-3,0-3.59-2.49-3.47-14.36-7.18-28.66-11-42.92-.8-3-2.78-5.6-3.78-8.53-.33-1,.72-2.4,1.13-3.62,1.23.44,2.66.63,3.64,1.39a6.38,6.38,0,0,1,1.94,3.07c2.25,7.47,4.47,14.95,6.53,22.48,2.34,8.58,4.59,17.19,6.69,25.83a70.89,70.89,0,0,1,1.07,8.4Z"/><path class="cls-1" d="M230.19,823.79c-.75-1.61-1.59-3.17-2.24-4.81-5.51-13.76-9.1-27.91-8.21-42.87a19.5,19.5,0,0,1,1.64-6.29,3.43,3.43,0,0,1,2.74-1.78c.89.15,1.6,1.57,2.29,2.5a2.12,2.12,0,0,1,.13,1.22,162.55,162.55,0,0,0,2.5,37.37c.65,3.5,1.31,7,1.92,10.52.22,1.24.3,2.51.44,3.77Z"/><path class="cls-1" d="M160.3,735c-.33-1.62-1.28-3.39-.91-4.83,2.34-9.24,4.76-18.47,7.64-27.55.8-2.55,3-4.51,6.53-2.54s4.1,3.42,2.17,7.15q-5.4,10.41-10.6,20.91c-1.13,2.26-2,4.65-3,7Z"/><path class="cls-1" d="M725,139.1c1.31,1.28,3.71,3.07,5.38,5.39a37,37,0,0,1,3.83,7.74c1.14,2.77-1.45,6.81-5.34,8.67-3.52,1.69-5.69-.56-7.14-3a61.26,61.26,0,0,1-4.47-10.18C716.06,144.41,720.19,139,725,139.1Z"/><path class="cls-1" d="M0,277.7c.56-7,1.07-14,1.73-21A16.44,16.44,0,0,1,3,251.54a54.64,54.64,0,0,1,4.82-9.19c.72-1,3-1,4.53-1.43.16,1.41.83,3,.37,4.18-1.63,4.18-3.71,8.19-5.49,12.33a27,27,0,0,0-1.65,5.28c-.93,4.55-1.68,9.14-2.62,13.69-.13.63-.88,1.12-1.35,1.68Z"/><path class="cls-1" d="M577.64,291.55c3.5-1.11,7-2.44,10.51-3.28,9.85-2.33,19.75-4.46,29.63-6.66a1.65,1.65,0,0,1,.81-.09c1.73.61,4.87,1.18,4.91,1.91.17,3.09-2.69,2.16-4.57,2.5l-37.13,6.65c-1.25.22-2.52.35-3.79.53Z"/><path class="cls-1" d="M470.91,728.65c2.42,8.22,4.5,16.4.77,25C468.89,751,468.09,733.05,470.91,728.65Z"/><path class="cls-1" d="M414.1,499.44c-.07-1.33-.19-1.76-.08-1.83,5-3.32,9.85-6.7,14.93-9.81.83-.51,2.4.18,3.63.32-.2,1-.09,2.63-.65,2.9C426.16,493.9,420.29,496.56,414.1,499.44Z"/><path class="cls-1" d="M369,594l24-8.09C391.09,590.06,372.78,596.39,369,594Z"/><path class="cls-1" d="M556.69,298.12a43,43,0,0,1-5.82,3.12C546,303,541,304.46,536.07,306a9,9,0,0,1-2.6,0l-.24-1.3a50.16,50.16,0,0,1,6.51-2.69c5.59-1.47,11.26-2.66,16.89-4Z"/><path class="cls-1" d="M556.63,298c2.06-1.19,4-2.81,6.19-3.48,4.27-1.29,8.7-2.05,14-3.24-2,3.37-15.2,7.18-20.09,6.8Z"/><path class="cls-1" d="M382.61,429.65l-18.45,8.11C366.33,433.47,378.46,428,382.61,429.65Z"/><path class="cls-1" d="M361.22,439.23l-14.05,7.14-.7-1.35c5.08-1.67,8-7.37,14.1-7.18C360.79,438.31,361,438.77,361.22,439.23Z"/><path class="cls-1" d="M484.63,348.84l-13.79,5.32-.54-1.45c4.38-2.39,8.46-5.57,13.9-5Z"/><path class="cls-1" d="M454.18,360.93l-11.42,4.45C444,361.63,448.11,359.87,454.18,360.93Z"/><path class="cls-1" d="M374.46,699.63l-55.69,13.93c2.24-1.54,3.5-2.92,5.05-3.39,8.62-2.62,17.25-5.28,26-7.42,7-1.7,14.17-2.7,21.29-3.91a13.56,13.56,0,0,1,3.43.33Z"/><path class="cls-1" d="M291,725.2c-.35-3.12,2.32-3.47,4.18-4.18,6.25-2.37,12.59-4.5,18.91-6.68a2.26,2.26,0,0,1,2.05.59,103.64,103.64,0,0,1-25.2,10.21Z"/><path class="cls-1" d="M353.05,716.89,341.4,723.3c.84-4.46,7.56-7.35,11.69-6.35Z"/><path class="cls-1" d="M396.72,261a11.26,11.26,0,0,1,2.83-1.7c11.27-2.76,22.64-4.33,34-.92,1.55.47,3.89,2.83,3.66,3.82-.6,2.63-2.9,2.51-5.24,1.44-10.77-4.92-21.95-3.31-33.1-1.84a14.42,14.42,0,0,1-1.86,0Z"/><path class="cls-1" d="M548.18,430.75a9.18,9.18,0,0,1,.94,3q-.23,5.94-.86,11.86a6.46,6.46,0,0,1-1.42,3.29,2,2,0,0,1-3.58-1.73c1.28-5.36,2.76-10.67,4.17-16Z"/><path class="cls-1" d="M330.53,676.52l-41.17,21.61L288.6,697c1.75-1.24,3.43-2.62,5.28-3.69,9.47-5.5,18.93-11,28.55-16.26,2.24-1.23,5.07-1.4,7.63-2Z"/><path class="cls-1" d="M274.07,708.29l42.44-14.8c.22.59.43,1.19.64,1.78L275,710.81Z"/></g></g></svg>